M48
; DRILL file {KiCad 8.99.0-unknown-e3e63fb1b8~178~ubuntu22.04.1} date 2024-06-01T14:25:08+0530
; FORMAT={-:-/ absolute / inch / decimal}
; #@! TF.CreationDate,2024-06-01T14:25:08+05:30
; #@! TF.GenerationSoftware,Kicad,Pcbnew,8.99.0-unknown-e3e63fb1b8~178~ubuntu22.04.1
; #@! TF.FileFunction,Plated,1,2,PTH
FMAT,2
INCH
; #@! TA.AperFunction,Plated,PTH,ViaDrill
T1C0.0157
; #@! TA.AperFunction,Plated,PTH,ComponentDrill
T2C0.0354
; #@! TA.AperFunction,Plated,PTH,ComponentDrill
T3C0.0394
; #@! TA.AperFunction,Plated,PTH,ComponentDrill
T4C0.0866
%
G90
G05
T1
X1.8861Y-2.0093
X1.8861Y-2.1093
X1.8861Y-2.2093
X1.8861Y-2.3093
X1.8861Y-2.4093
X1.8861Y-2.5093
X1.8861Y-2.6093
X1.9861Y-2.2093
X1.9861Y-2.4093
X1.9861Y-2.6093
X1.9861Y-2.7093
X1.9861Y-2.9093
X1.9861Y-3.0093
X2.0861Y-1.8093
X2.0861Y-2.3093
X2.0861Y-2.9093
X2.0861Y-3.0093
X2.1861Y-2.6093
X2.1861Y-2.9093
X2.1861Y-3.0093
X2.2594Y-2.6949
X2.2861Y-2.2093
X2.2861Y-2.5093
X2.2861Y-2.6093
X2.2861Y-2.9093
X2.2861Y-3.0093
X2.3861Y-2.9093
X2.3861Y-3.0093
X2.3996Y-2.0764
X2.4016Y-2.1114
X2.4861Y-2.9093
X2.4861Y-3.0093
X2.5319Y-1.8854
X2.5319Y-1.9248
X2.5366Y-2.65
X2.5366Y-2.6929
X2.5822Y-2.4334
X2.5861Y-2.9093
X2.5861Y-3.0093
X2.6106Y-1.8657
X2.6106Y-1.9051
X2.6861Y-2.1093
X2.6861Y-2.9093
X2.6861Y-3.0093
X2.6894Y-1.8854
X2.6894Y-1.9248
X2.7402Y-2.6512
X2.7861Y-2.1093
X2.7861Y-2.7093
X2.7861Y-2.9093
X2.7861Y-3.0093
X2.8861Y-1.9093
X2.8861Y-2.1093
X2.8861Y-2.9093
X2.8861Y-3.0093
X2.9861Y-2.9093
X2.9861Y-3.0093
X3.028Y-2.4929
X3.0386Y-2.0024
X3.0705Y-2.022
X3.0835Y-2.4937
X3.0861Y-2.1093
X3.0861Y-2.9093
X3.0861Y-3.0093
X3.1861Y-2.9093
X3.1861Y-3.0093
X3.2861Y-2.0093
X3.2861Y-2.7093
X3.2861Y-2.9093
X3.2861Y-3.0093
X3.3861Y-2.0093
X3.3861Y-2.3093
X3.3861Y-2.4093
X3.3861Y-3.0093
X3.4861Y-1.8093
X3.5861Y-1.8093
X3.5861Y-2.3093
X3.6861Y-2.9093
X3.7861Y-1.8093
X3.7861Y-2.7093
X3.7861Y-2.9093
X3.7861Y-3.0093
X3.8343Y-2.2484
X3.8681Y-2.2484
X3.8861Y-1.8093
X3.8861Y-1.9093
X3.8861Y-2.7093
X3.8861Y-2.9093
X3.9861Y-1.9093
X3.9861Y-2.7093
X3.9861Y-2.9093
X3.9861Y-3.0093
X4.0861Y-2.0093
X4.0861Y-2.1093
X4.0861Y-2.2093
X4.0861Y-2.3093
X4.0861Y-2.4093
X4.0861Y-2.5093
X4.0861Y-2.9093
T3
X2.0519Y-2.7709
X2.1519Y-2.7709
X2.2519Y-2.7709
X2.3519Y-2.7709
X2.4519Y-2.7709
X2.5519Y-2.7709
X2.6519Y-2.7709
X2.7519Y-2.7709
X2.8519Y-2.7709
X3.1677Y-1.8764
X3.3031Y-1.8736
X3.4031Y-1.8736
X3.5031Y-1.8736
X3.696Y-1.8391
X3.76Y-2.54
X3.86Y-2.54
X3.9925Y-2.0823
X3.9925Y-2.1823
X3.9925Y-2.2823
T4
X1.876Y-1.8068
X1.876Y-3.0349
X3.5669Y-3.0309
X4.0569Y-1.8109
T2
G00X3.715Y-2.8079
M15
G01X3.715Y-2.7764
M16
G05
G00X3.8135Y-2.8079
M15
G01X3.8135Y-2.7764
M16
G05
G00X3.9276Y-2.989
M15
G01X3.8961Y-2.989
M16
G05
G00X4.0103Y-2.8079
M15
G01X4.0103Y-2.7764
M16
G05
G00X4.1087Y-2.8079
M15
G01X4.1087Y-2.7764
M16
G05
M30
