%TF.GenerationSoftware,KiCad,Pcbnew,8.99.0-unknown-8e286d44fc~178~ubuntu22.04.1*%
%TF.CreationDate,2024-05-23T21:37:30+05:30*%
%TF.ProjectId,BoB,426f422e-6b69-4636-9164-5f7063625858,rev?*%
%TF.SameCoordinates,Original*%
%TF.FileFunction,Legend,Top*%
%TF.FilePolarity,Positive*%
%FSLAX46Y46*%
G04 Gerber Fmt 4.6, Leading zero omitted, Abs format (unit mm)*
G04 Created by KiCad (PCBNEW 8.99.0-unknown-8e286d44fc~178~ubuntu22.04.1) date 2024-05-23 21:37:30*
%MOMM*%
%LPD*%
G01*
G04 APERTURE LIST*
G04 Aperture macros list*
%AMRoundRect*
0 Rectangle with rounded corners*
0 $1 Rounding radius*
0 $2 $3 $4 $5 $6 $7 $8 $9 X,Y pos of 4 corners*
0 Add a 4 corners polygon primitive as box body*
4,1,4,$2,$3,$4,$5,$6,$7,$8,$9,$2,$3,0*
0 Add four circle primitives for the rounded corners*
1,1,$1+$1,$2,$3*
1,1,$1+$1,$4,$5*
1,1,$1+$1,$6,$7*
1,1,$1+$1,$8,$9*
0 Add four rect primitives between the rounded corners*
20,1,$1+$1,$2,$3,$4,$5,0*
20,1,$1+$1,$4,$5,$6,$7,0*
20,1,$1+$1,$6,$7,$8,$9,0*
20,1,$1+$1,$8,$9,$2,$3,0*%
G04 Aperture macros list end*
%ADD10C,0.150000*%
%ADD11C,0.120000*%
%ADD12C,0.100000*%
%ADD13R,1.700000X1.700000*%
%ADD14O,1.700000X1.700000*%
%ADD15R,2.000000X2.000000*%
%ADD16RoundRect,0.243750X-0.243750X-0.456250X0.243750X-0.456250X0.243750X0.456250X-0.243750X0.456250X0*%
%ADD17RoundRect,0.250000X-0.650000X0.412500X-0.650000X-0.412500X0.650000X-0.412500X0.650000X0.412500X0*%
%ADD18RoundRect,0.250000X0.650000X-0.412500X0.650000X0.412500X-0.650000X0.412500X-0.650000X-0.412500X0*%
%ADD19RoundRect,0.250000X-0.412500X-0.650000X0.412500X-0.650000X0.412500X0.650000X-0.412500X0.650000X0*%
%ADD20RoundRect,0.250000X-0.362500X-0.700000X0.362500X-0.700000X0.362500X0.700000X-0.362500X0.700000X0*%
%ADD21RoundRect,0.250000X0.412500X0.650000X-0.412500X0.650000X-0.412500X-0.650000X0.412500X-0.650000X0*%
%ADD22RoundRect,0.250000X-0.400000X-0.625000X0.400000X-0.625000X0.400000X0.625000X-0.400000X0.625000X0*%
%ADD23C,4.400000*%
%ADD24RoundRect,0.250000X-0.625000X0.400000X-0.625000X-0.400000X0.625000X-0.400000X0.625000X0.400000X0*%
%ADD25RoundRect,0.250000X0.625000X-0.400000X0.625000X0.400000X-0.625000X0.400000X-0.625000X-0.400000X0*%
%ADD26RoundRect,0.250000X0.400000X0.625000X-0.400000X0.625000X-0.400000X-0.625000X0.400000X-0.625000X0*%
%ADD27R,3.600000X1.270000*%
%ADD28R,4.200000X1.350000*%
%ADD29RoundRect,0.200000X0.750000X0.200000X-0.750000X0.200000X-0.750000X-0.200000X0.750000X-0.200000X0*%
%ADD30RoundRect,0.243750X0.243750X0.456250X-0.243750X0.456250X-0.243750X-0.456250X0.243750X-0.456250X0*%
%ADD31R,1.600000X1.600000*%
%ADD32O,1.600000X1.600000*%
%ADD33C,1.200000*%
%ADD34O,1.800000X2.500000*%
%ADD35O,2.500000X1.800000*%
G04 APERTURE END LIST*
D10*
X54850588Y-77552390D02*
X54755350Y-77514295D01*
X54755350Y-77514295D02*
X54612493Y-77514295D01*
X54612493Y-77514295D02*
X54469636Y-77552390D01*
X54469636Y-77552390D02*
X54374398Y-77628580D01*
X54374398Y-77628580D02*
X54326779Y-77704771D01*
X54326779Y-77704771D02*
X54279160Y-77857152D01*
X54279160Y-77857152D02*
X54279160Y-77971438D01*
X54279160Y-77971438D02*
X54326779Y-78123819D01*
X54326779Y-78123819D02*
X54374398Y-78200009D01*
X54374398Y-78200009D02*
X54469636Y-78276200D01*
X54469636Y-78276200D02*
X54612493Y-78314295D01*
X54612493Y-78314295D02*
X54707731Y-78314295D01*
X54707731Y-78314295D02*
X54850588Y-78276200D01*
X54850588Y-78276200D02*
X54898207Y-78238104D01*
X54898207Y-78238104D02*
X54898207Y-77971438D01*
X54898207Y-77971438D02*
X54707731Y-77971438D01*
X57374398Y-77552390D02*
X57279160Y-77514295D01*
X57279160Y-77514295D02*
X57136303Y-77514295D01*
X57136303Y-77514295D02*
X56993446Y-77552390D01*
X56993446Y-77552390D02*
X56898208Y-77628580D01*
X56898208Y-77628580D02*
X56850589Y-77704771D01*
X56850589Y-77704771D02*
X56802970Y-77857152D01*
X56802970Y-77857152D02*
X56802970Y-77971438D01*
X56802970Y-77971438D02*
X56850589Y-78123819D01*
X56850589Y-78123819D02*
X56898208Y-78200009D01*
X56898208Y-78200009D02*
X56993446Y-78276200D01*
X56993446Y-78276200D02*
X57136303Y-78314295D01*
X57136303Y-78314295D02*
X57231541Y-78314295D01*
X57231541Y-78314295D02*
X57374398Y-78276200D01*
X57374398Y-78276200D02*
X57422017Y-78238104D01*
X57422017Y-78238104D02*
X57422017Y-77971438D01*
X57422017Y-77971438D02*
X57231541Y-77971438D01*
X59326780Y-78085723D02*
X59802970Y-78085723D01*
X59231542Y-78314295D02*
X59564875Y-77514295D01*
X59564875Y-77514295D02*
X59898208Y-78314295D01*
D11*
X66522857Y-77473855D02*
X66675238Y-77473855D01*
X66675238Y-77473855D02*
X66751428Y-77511950D01*
X66751428Y-77511950D02*
X66827619Y-77588140D01*
X66827619Y-77588140D02*
X66865714Y-77740521D01*
X66865714Y-77740521D02*
X66865714Y-78007188D01*
X66865714Y-78007188D02*
X66827619Y-78159569D01*
X66827619Y-78159569D02*
X66751428Y-78235760D01*
X66751428Y-78235760D02*
X66675238Y-78273855D01*
X66675238Y-78273855D02*
X66522857Y-78273855D01*
X66522857Y-78273855D02*
X66446666Y-78235760D01*
X66446666Y-78235760D02*
X66370476Y-78159569D01*
X66370476Y-78159569D02*
X66332380Y-78007188D01*
X66332380Y-78007188D02*
X66332380Y-77740521D01*
X66332380Y-77740521D02*
X66370476Y-77588140D01*
X66370476Y-77588140D02*
X66446666Y-77511950D01*
X66446666Y-77511950D02*
X66522857Y-77473855D01*
X67170475Y-78235760D02*
X67284761Y-78273855D01*
X67284761Y-78273855D02*
X67475237Y-78273855D01*
X67475237Y-78273855D02*
X67551428Y-78235760D01*
X67551428Y-78235760D02*
X67589523Y-78197664D01*
X67589523Y-78197664D02*
X67627618Y-78121474D01*
X67627618Y-78121474D02*
X67627618Y-78045283D01*
X67627618Y-78045283D02*
X67589523Y-77969093D01*
X67589523Y-77969093D02*
X67551428Y-77930998D01*
X67551428Y-77930998D02*
X67475237Y-77892902D01*
X67475237Y-77892902D02*
X67322856Y-77854807D01*
X67322856Y-77854807D02*
X67246666Y-77816712D01*
X67246666Y-77816712D02*
X67208571Y-77778617D01*
X67208571Y-77778617D02*
X67170475Y-77702426D01*
X67170475Y-77702426D02*
X67170475Y-77626236D01*
X67170475Y-77626236D02*
X67208571Y-77550045D01*
X67208571Y-77550045D02*
X67246666Y-77511950D01*
X67246666Y-77511950D02*
X67322856Y-77473855D01*
X67322856Y-77473855D02*
X67513333Y-77473855D01*
X67513333Y-77473855D02*
X67627618Y-77511950D01*
X68427619Y-78197664D02*
X68389523Y-78235760D01*
X68389523Y-78235760D02*
X68275238Y-78273855D01*
X68275238Y-78273855D02*
X68199047Y-78273855D01*
X68199047Y-78273855D02*
X68084761Y-78235760D01*
X68084761Y-78235760D02*
X68008571Y-78159569D01*
X68008571Y-78159569D02*
X67970476Y-78083379D01*
X67970476Y-78083379D02*
X67932380Y-77930998D01*
X67932380Y-77930998D02*
X67932380Y-77816712D01*
X67932380Y-77816712D02*
X67970476Y-77664331D01*
X67970476Y-77664331D02*
X68008571Y-77588140D01*
X68008571Y-77588140D02*
X68084761Y-77511950D01*
X68084761Y-77511950D02*
X68199047Y-77473855D01*
X68199047Y-77473855D02*
X68275238Y-77473855D01*
X68275238Y-77473855D02*
X68389523Y-77511950D01*
X68389523Y-77511950D02*
X68427619Y-77550045D01*
D10*
X76336303Y-78788104D02*
X76298207Y-78826200D01*
X76298207Y-78826200D02*
X76183922Y-78864295D01*
X76183922Y-78864295D02*
X76107731Y-78864295D01*
X76107731Y-78864295D02*
X75993445Y-78826200D01*
X75993445Y-78826200D02*
X75917255Y-78750009D01*
X75917255Y-78750009D02*
X75879160Y-78673819D01*
X75879160Y-78673819D02*
X75841064Y-78521438D01*
X75841064Y-78521438D02*
X75841064Y-78407152D01*
X75841064Y-78407152D02*
X75879160Y-78254771D01*
X75879160Y-78254771D02*
X75917255Y-78178580D01*
X75917255Y-78178580D02*
X75993445Y-78102390D01*
X75993445Y-78102390D02*
X76107731Y-78064295D01*
X76107731Y-78064295D02*
X76183922Y-78064295D01*
X76183922Y-78064295D02*
X76298207Y-78102390D01*
X76298207Y-78102390D02*
X76336303Y-78140485D01*
X76679160Y-78864295D02*
X76679160Y-78064295D01*
X76679160Y-78064295D02*
X76869636Y-78064295D01*
X76869636Y-78064295D02*
X76983922Y-78102390D01*
X76983922Y-78102390D02*
X77060112Y-78178580D01*
X77060112Y-78178580D02*
X77098207Y-78254771D01*
X77098207Y-78254771D02*
X77136303Y-78407152D01*
X77136303Y-78407152D02*
X77136303Y-78521438D01*
X77136303Y-78521438D02*
X77098207Y-78673819D01*
X77098207Y-78673819D02*
X77060112Y-78750009D01*
X77060112Y-78750009D02*
X76983922Y-78826200D01*
X76983922Y-78826200D02*
X76869636Y-78864295D01*
X76869636Y-78864295D02*
X76679160Y-78864295D01*
X77441064Y-78140485D02*
X77479160Y-78102390D01*
X77479160Y-78102390D02*
X77555350Y-78064295D01*
X77555350Y-78064295D02*
X77745826Y-78064295D01*
X77745826Y-78064295D02*
X77822017Y-78102390D01*
X77822017Y-78102390D02*
X77860112Y-78140485D01*
X77860112Y-78140485D02*
X77898207Y-78216676D01*
X77898207Y-78216676D02*
X77898207Y-78292866D01*
X77898207Y-78292866D02*
X77860112Y-78407152D01*
X77860112Y-78407152D02*
X77402969Y-78864295D01*
X77402969Y-78864295D02*
X77898207Y-78864295D01*
X78393446Y-78064295D02*
X78469636Y-78064295D01*
X78469636Y-78064295D02*
X78545827Y-78102390D01*
X78545827Y-78102390D02*
X78583922Y-78140485D01*
X78583922Y-78140485D02*
X78622017Y-78216676D01*
X78622017Y-78216676D02*
X78660112Y-78369057D01*
X78660112Y-78369057D02*
X78660112Y-78559533D01*
X78660112Y-78559533D02*
X78622017Y-78711914D01*
X78622017Y-78711914D02*
X78583922Y-78788104D01*
X78583922Y-78788104D02*
X78545827Y-78826200D01*
X78545827Y-78826200D02*
X78469636Y-78864295D01*
X78469636Y-78864295D02*
X78393446Y-78864295D01*
X78393446Y-78864295D02*
X78317255Y-78826200D01*
X78317255Y-78826200D02*
X78279160Y-78788104D01*
X78279160Y-78788104D02*
X78241065Y-78711914D01*
X78241065Y-78711914D02*
X78202969Y-78559533D01*
X78202969Y-78559533D02*
X78202969Y-78369057D01*
X78202969Y-78369057D02*
X78241065Y-78216676D01*
X78241065Y-78216676D02*
X78279160Y-78140485D01*
X78279160Y-78140485D02*
X78317255Y-78102390D01*
X78317255Y-78102390D02*
X78393446Y-78064295D01*
X79155351Y-78064295D02*
X79231541Y-78064295D01*
X79231541Y-78064295D02*
X79307732Y-78102390D01*
X79307732Y-78102390D02*
X79345827Y-78140485D01*
X79345827Y-78140485D02*
X79383922Y-78216676D01*
X79383922Y-78216676D02*
X79422017Y-78369057D01*
X79422017Y-78369057D02*
X79422017Y-78559533D01*
X79422017Y-78559533D02*
X79383922Y-78711914D01*
X79383922Y-78711914D02*
X79345827Y-78788104D01*
X79345827Y-78788104D02*
X79307732Y-78826200D01*
X79307732Y-78826200D02*
X79231541Y-78864295D01*
X79231541Y-78864295D02*
X79155351Y-78864295D01*
X79155351Y-78864295D02*
X79079160Y-78826200D01*
X79079160Y-78826200D02*
X79041065Y-78788104D01*
X79041065Y-78788104D02*
X79002970Y-78711914D01*
X79002970Y-78711914D02*
X78964874Y-78559533D01*
X78964874Y-78559533D02*
X78964874Y-78369057D01*
X78964874Y-78369057D02*
X79002970Y-78216676D01*
X79002970Y-78216676D02*
X79041065Y-78140485D01*
X79041065Y-78140485D02*
X79079160Y-78102390D01*
X79079160Y-78102390D02*
X79155351Y-78064295D01*
X79688684Y-78064295D02*
X80183922Y-78064295D01*
X80183922Y-78064295D02*
X79917256Y-78369057D01*
X79917256Y-78369057D02*
X80031541Y-78369057D01*
X80031541Y-78369057D02*
X80107732Y-78407152D01*
X80107732Y-78407152D02*
X80145827Y-78445247D01*
X80145827Y-78445247D02*
X80183922Y-78521438D01*
X80183922Y-78521438D02*
X80183922Y-78711914D01*
X80183922Y-78711914D02*
X80145827Y-78788104D01*
X80145827Y-78788104D02*
X80107732Y-78826200D01*
X80107732Y-78826200D02*
X80031541Y-78864295D01*
X80031541Y-78864295D02*
X79802970Y-78864295D01*
X79802970Y-78864295D02*
X79726779Y-78826200D01*
X79726779Y-78826200D02*
X79688684Y-78788104D01*
X81136304Y-78864295D02*
X81136304Y-78064295D01*
X81136304Y-78064295D02*
X81326780Y-78064295D01*
X81326780Y-78064295D02*
X81441066Y-78102390D01*
X81441066Y-78102390D02*
X81517256Y-78178580D01*
X81517256Y-78178580D02*
X81555351Y-78254771D01*
X81555351Y-78254771D02*
X81593447Y-78407152D01*
X81593447Y-78407152D02*
X81593447Y-78521438D01*
X81593447Y-78521438D02*
X81555351Y-78673819D01*
X81555351Y-78673819D02*
X81517256Y-78750009D01*
X81517256Y-78750009D02*
X81441066Y-78826200D01*
X81441066Y-78826200D02*
X81326780Y-78864295D01*
X81326780Y-78864295D02*
X81136304Y-78864295D01*
X82393447Y-78788104D02*
X82355351Y-78826200D01*
X82355351Y-78826200D02*
X82241066Y-78864295D01*
X82241066Y-78864295D02*
X82164875Y-78864295D01*
X82164875Y-78864295D02*
X82050589Y-78826200D01*
X82050589Y-78826200D02*
X81974399Y-78750009D01*
X81974399Y-78750009D02*
X81936304Y-78673819D01*
X81936304Y-78673819D02*
X81898208Y-78521438D01*
X81898208Y-78521438D02*
X81898208Y-78407152D01*
X81898208Y-78407152D02*
X81936304Y-78254771D01*
X81936304Y-78254771D02*
X81974399Y-78178580D01*
X81974399Y-78178580D02*
X82050589Y-78102390D01*
X82050589Y-78102390D02*
X82164875Y-78064295D01*
X82164875Y-78064295D02*
X82241066Y-78064295D01*
X82241066Y-78064295D02*
X82355351Y-78102390D01*
X82355351Y-78102390D02*
X82393447Y-78140485D01*
X83193447Y-78864295D02*
X82926780Y-78483342D01*
X82736304Y-78864295D02*
X82736304Y-78064295D01*
X82736304Y-78064295D02*
X83041066Y-78064295D01*
X83041066Y-78064295D02*
X83117256Y-78102390D01*
X83117256Y-78102390D02*
X83155351Y-78140485D01*
X83155351Y-78140485D02*
X83193447Y-78216676D01*
X83193447Y-78216676D02*
X83193447Y-78330961D01*
X83193447Y-78330961D02*
X83155351Y-78407152D01*
X83155351Y-78407152D02*
X83117256Y-78445247D01*
X83117256Y-78445247D02*
X83041066Y-78483342D01*
X83041066Y-78483342D02*
X82736304Y-78483342D01*
X84069637Y-78330961D02*
X84260113Y-78864295D01*
X84260113Y-78864295D02*
X84450590Y-78330961D01*
X85136304Y-78064295D02*
X84755352Y-78064295D01*
X84755352Y-78064295D02*
X84717256Y-78445247D01*
X84717256Y-78445247D02*
X84755352Y-78407152D01*
X84755352Y-78407152D02*
X84831542Y-78369057D01*
X84831542Y-78369057D02*
X85022018Y-78369057D01*
X85022018Y-78369057D02*
X85098209Y-78407152D01*
X85098209Y-78407152D02*
X85136304Y-78445247D01*
X85136304Y-78445247D02*
X85174399Y-78521438D01*
X85174399Y-78521438D02*
X85174399Y-78711914D01*
X85174399Y-78711914D02*
X85136304Y-78788104D01*
X85136304Y-78788104D02*
X85098209Y-78826200D01*
X85098209Y-78826200D02*
X85022018Y-78864295D01*
X85022018Y-78864295D02*
X84831542Y-78864295D01*
X84831542Y-78864295D02*
X84755352Y-78826200D01*
X84755352Y-78826200D02*
X84717256Y-78788104D01*
D11*
X51437714Y-78091283D02*
X51818667Y-78091283D01*
X51361524Y-78319855D02*
X51628191Y-77519855D01*
X51628191Y-77519855D02*
X51894857Y-78319855D01*
X52161524Y-78319855D02*
X52161524Y-77519855D01*
X52161524Y-77519855D02*
X52618667Y-78319855D01*
X52618667Y-78319855D02*
X52618667Y-77519855D01*
X52885333Y-77519855D02*
X53342476Y-77519855D01*
X53113904Y-78319855D02*
X53113904Y-77519855D01*
D10*
X62690588Y-77552390D02*
X62595350Y-77514295D01*
X62595350Y-77514295D02*
X62452493Y-77514295D01*
X62452493Y-77514295D02*
X62309636Y-77552390D01*
X62309636Y-77552390D02*
X62214398Y-77628580D01*
X62214398Y-77628580D02*
X62166779Y-77704771D01*
X62166779Y-77704771D02*
X62119160Y-77857152D01*
X62119160Y-77857152D02*
X62119160Y-77971438D01*
X62119160Y-77971438D02*
X62166779Y-78123819D01*
X62166779Y-78123819D02*
X62214398Y-78200009D01*
X62214398Y-78200009D02*
X62309636Y-78276200D01*
X62309636Y-78276200D02*
X62452493Y-78314295D01*
X62452493Y-78314295D02*
X62547731Y-78314295D01*
X62547731Y-78314295D02*
X62690588Y-78276200D01*
X62690588Y-78276200D02*
X62738207Y-78238104D01*
X62738207Y-78238104D02*
X62738207Y-77971438D01*
X62738207Y-77971438D02*
X62547731Y-77971438D01*
X65214398Y-77552390D02*
X65119160Y-77514295D01*
X65119160Y-77514295D02*
X64976303Y-77514295D01*
X64976303Y-77514295D02*
X64833446Y-77552390D01*
X64833446Y-77552390D02*
X64738208Y-77628580D01*
X64738208Y-77628580D02*
X64690589Y-77704771D01*
X64690589Y-77704771D02*
X64642970Y-77857152D01*
X64642970Y-77857152D02*
X64642970Y-77971438D01*
X64642970Y-77971438D02*
X64690589Y-78123819D01*
X64690589Y-78123819D02*
X64738208Y-78200009D01*
X64738208Y-78200009D02*
X64833446Y-78276200D01*
X64833446Y-78276200D02*
X64976303Y-78314295D01*
X64976303Y-78314295D02*
X65071541Y-78314295D01*
X65071541Y-78314295D02*
X65214398Y-78276200D01*
X65214398Y-78276200D02*
X65262017Y-78238104D01*
X65262017Y-78238104D02*
X65262017Y-77971438D01*
X65262017Y-77971438D02*
X65071541Y-77971438D01*
D11*
X71533810Y-77493855D02*
X71800477Y-78293855D01*
X71800477Y-78293855D02*
X72067143Y-77493855D01*
X72333810Y-78293855D02*
X72333810Y-77493855D01*
X72714762Y-78293855D02*
X72714762Y-77493855D01*
X72714762Y-77493855D02*
X73171905Y-78293855D01*
X73171905Y-78293855D02*
X73171905Y-77493855D01*
D10*
X99955238Y-59962438D02*
X99860000Y-59914819D01*
X99860000Y-59914819D02*
X99717143Y-59914819D01*
X99717143Y-59914819D02*
X99574286Y-59962438D01*
X99574286Y-59962438D02*
X99479048Y-60057676D01*
X99479048Y-60057676D02*
X99431429Y-60152914D01*
X99431429Y-60152914D02*
X99383810Y-60343390D01*
X99383810Y-60343390D02*
X99383810Y-60486247D01*
X99383810Y-60486247D02*
X99431429Y-60676723D01*
X99431429Y-60676723D02*
X99479048Y-60771961D01*
X99479048Y-60771961D02*
X99574286Y-60867200D01*
X99574286Y-60867200D02*
X99717143Y-60914819D01*
X99717143Y-60914819D02*
X99812381Y-60914819D01*
X99812381Y-60914819D02*
X99955238Y-60867200D01*
X99955238Y-60867200D02*
X100002857Y-60819580D01*
X100002857Y-60819580D02*
X100002857Y-60486247D01*
X100002857Y-60486247D02*
X99812381Y-60486247D01*
X100383810Y-60629104D02*
X100860000Y-60629104D01*
X100288572Y-60914819D02*
X100621905Y-59914819D01*
X100621905Y-59914819D02*
X100955238Y-60914819D01*
X101288572Y-60914819D02*
X101288572Y-59914819D01*
X101764762Y-60914819D02*
X101764762Y-59914819D01*
X101764762Y-59914819D02*
X102336190Y-60914819D01*
X102336190Y-60914819D02*
X102336190Y-59914819D01*
X103336190Y-60914819D02*
X102764762Y-60914819D01*
X103050476Y-60914819D02*
X103050476Y-59914819D01*
X103050476Y-59914819D02*
X102955238Y-60057676D01*
X102955238Y-60057676D02*
X102860000Y-60152914D01*
X102860000Y-60152914D02*
X102764762Y-60200533D01*
X79198095Y-45116819D02*
X79769523Y-45116819D01*
X79483809Y-46116819D02*
X79483809Y-45116819D01*
X80102857Y-46116819D02*
X80102857Y-45116819D01*
X80102857Y-45116819D02*
X80483809Y-45116819D01*
X80483809Y-45116819D02*
X80579047Y-45164438D01*
X80579047Y-45164438D02*
X80626666Y-45212057D01*
X80626666Y-45212057D02*
X80674285Y-45307295D01*
X80674285Y-45307295D02*
X80674285Y-45450152D01*
X80674285Y-45450152D02*
X80626666Y-45545390D01*
X80626666Y-45545390D02*
X80579047Y-45593009D01*
X80579047Y-45593009D02*
X80483809Y-45640628D01*
X80483809Y-45640628D02*
X80102857Y-45640628D01*
X81626666Y-46116819D02*
X81055238Y-46116819D01*
X81340952Y-46116819D02*
X81340952Y-45116819D01*
X81340952Y-45116819D02*
X81245714Y-45259676D01*
X81245714Y-45259676D02*
X81150476Y-45354914D01*
X81150476Y-45354914D02*
X81055238Y-45402533D01*
X66921905Y-47094819D02*
X66921905Y-46094819D01*
X66921905Y-46094819D02*
X67160000Y-46094819D01*
X67160000Y-46094819D02*
X67302857Y-46142438D01*
X67302857Y-46142438D02*
X67398095Y-46237676D01*
X67398095Y-46237676D02*
X67445714Y-46332914D01*
X67445714Y-46332914D02*
X67493333Y-46523390D01*
X67493333Y-46523390D02*
X67493333Y-46666247D01*
X67493333Y-46666247D02*
X67445714Y-46856723D01*
X67445714Y-46856723D02*
X67398095Y-46951961D01*
X67398095Y-46951961D02*
X67302857Y-47047200D01*
X67302857Y-47047200D02*
X67160000Y-47094819D01*
X67160000Y-47094819D02*
X66921905Y-47094819D01*
X68064762Y-46523390D02*
X67969524Y-46475771D01*
X67969524Y-46475771D02*
X67921905Y-46428152D01*
X67921905Y-46428152D02*
X67874286Y-46332914D01*
X67874286Y-46332914D02*
X67874286Y-46285295D01*
X67874286Y-46285295D02*
X67921905Y-46190057D01*
X67921905Y-46190057D02*
X67969524Y-46142438D01*
X67969524Y-46142438D02*
X68064762Y-46094819D01*
X68064762Y-46094819D02*
X68255238Y-46094819D01*
X68255238Y-46094819D02*
X68350476Y-46142438D01*
X68350476Y-46142438D02*
X68398095Y-46190057D01*
X68398095Y-46190057D02*
X68445714Y-46285295D01*
X68445714Y-46285295D02*
X68445714Y-46332914D01*
X68445714Y-46332914D02*
X68398095Y-46428152D01*
X68398095Y-46428152D02*
X68350476Y-46475771D01*
X68350476Y-46475771D02*
X68255238Y-46523390D01*
X68255238Y-46523390D02*
X68064762Y-46523390D01*
X68064762Y-46523390D02*
X67969524Y-46571009D01*
X67969524Y-46571009D02*
X67921905Y-46618628D01*
X67921905Y-46618628D02*
X67874286Y-46713866D01*
X67874286Y-46713866D02*
X67874286Y-46904342D01*
X67874286Y-46904342D02*
X67921905Y-46999580D01*
X67921905Y-46999580D02*
X67969524Y-47047200D01*
X67969524Y-47047200D02*
X68064762Y-47094819D01*
X68064762Y-47094819D02*
X68255238Y-47094819D01*
X68255238Y-47094819D02*
X68350476Y-47047200D01*
X68350476Y-47047200D02*
X68398095Y-46999580D01*
X68398095Y-46999580D02*
X68445714Y-46904342D01*
X68445714Y-46904342D02*
X68445714Y-46713866D01*
X68445714Y-46713866D02*
X68398095Y-46618628D01*
X68398095Y-46618628D02*
X68350476Y-46571009D01*
X68350476Y-46571009D02*
X68255238Y-46523390D01*
X74684761Y-72692295D02*
X74227618Y-72692295D01*
X74456190Y-72692295D02*
X74456190Y-71892295D01*
X74456190Y-71892295D02*
X74379999Y-72006580D01*
X74379999Y-72006580D02*
X74303809Y-72082771D01*
X74303809Y-72082771D02*
X74227618Y-72120866D01*
X75180000Y-71892295D02*
X75256190Y-71892295D01*
X75256190Y-71892295D02*
X75332381Y-71930390D01*
X75332381Y-71930390D02*
X75370476Y-71968485D01*
X75370476Y-71968485D02*
X75408571Y-72044676D01*
X75408571Y-72044676D02*
X75446666Y-72197057D01*
X75446666Y-72197057D02*
X75446666Y-72387533D01*
X75446666Y-72387533D02*
X75408571Y-72539914D01*
X75408571Y-72539914D02*
X75370476Y-72616104D01*
X75370476Y-72616104D02*
X75332381Y-72654200D01*
X75332381Y-72654200D02*
X75256190Y-72692295D01*
X75256190Y-72692295D02*
X75180000Y-72692295D01*
X75180000Y-72692295D02*
X75103809Y-72654200D01*
X75103809Y-72654200D02*
X75065714Y-72616104D01*
X75065714Y-72616104D02*
X75027619Y-72539914D01*
X75027619Y-72539914D02*
X74989523Y-72387533D01*
X74989523Y-72387533D02*
X74989523Y-72197057D01*
X74989523Y-72197057D02*
X75027619Y-72044676D01*
X75027619Y-72044676D02*
X75065714Y-71968485D01*
X75065714Y-71968485D02*
X75103809Y-71930390D01*
X75103809Y-71930390D02*
X75180000Y-71892295D01*
X75941905Y-71892295D02*
X76018095Y-71892295D01*
X76018095Y-71892295D02*
X76094286Y-71930390D01*
X76094286Y-71930390D02*
X76132381Y-71968485D01*
X76132381Y-71968485D02*
X76170476Y-72044676D01*
X76170476Y-72044676D02*
X76208571Y-72197057D01*
X76208571Y-72197057D02*
X76208571Y-72387533D01*
X76208571Y-72387533D02*
X76170476Y-72539914D01*
X76170476Y-72539914D02*
X76132381Y-72616104D01*
X76132381Y-72616104D02*
X76094286Y-72654200D01*
X76094286Y-72654200D02*
X76018095Y-72692295D01*
X76018095Y-72692295D02*
X75941905Y-72692295D01*
X75941905Y-72692295D02*
X75865714Y-72654200D01*
X75865714Y-72654200D02*
X75827619Y-72616104D01*
X75827619Y-72616104D02*
X75789524Y-72539914D01*
X75789524Y-72539914D02*
X75751428Y-72387533D01*
X75751428Y-72387533D02*
X75751428Y-72197057D01*
X75751428Y-72197057D02*
X75789524Y-72044676D01*
X75789524Y-72044676D02*
X75827619Y-71968485D01*
X75827619Y-71968485D02*
X75865714Y-71930390D01*
X75865714Y-71930390D02*
X75941905Y-71892295D01*
X76551429Y-72158961D02*
X76551429Y-72692295D01*
X76551429Y-72235152D02*
X76589524Y-72197057D01*
X76589524Y-72197057D02*
X76665714Y-72158961D01*
X76665714Y-72158961D02*
X76780000Y-72158961D01*
X76780000Y-72158961D02*
X76856191Y-72197057D01*
X76856191Y-72197057D02*
X76894286Y-72273247D01*
X76894286Y-72273247D02*
X76894286Y-72692295D01*
X85822761Y-50476819D02*
X85251333Y-50476819D01*
X85537047Y-50476819D02*
X85537047Y-49476819D01*
X85537047Y-49476819D02*
X85441809Y-49619676D01*
X85441809Y-49619676D02*
X85346571Y-49714914D01*
X85346571Y-49714914D02*
X85251333Y-49762533D01*
X86441809Y-49476819D02*
X86537047Y-49476819D01*
X86537047Y-49476819D02*
X86632285Y-49524438D01*
X86632285Y-49524438D02*
X86679904Y-49572057D01*
X86679904Y-49572057D02*
X86727523Y-49667295D01*
X86727523Y-49667295D02*
X86775142Y-49857771D01*
X86775142Y-49857771D02*
X86775142Y-50095866D01*
X86775142Y-50095866D02*
X86727523Y-50286342D01*
X86727523Y-50286342D02*
X86679904Y-50381580D01*
X86679904Y-50381580D02*
X86632285Y-50429200D01*
X86632285Y-50429200D02*
X86537047Y-50476819D01*
X86537047Y-50476819D02*
X86441809Y-50476819D01*
X86441809Y-50476819D02*
X86346571Y-50429200D01*
X86346571Y-50429200D02*
X86298952Y-50381580D01*
X86298952Y-50381580D02*
X86251333Y-50286342D01*
X86251333Y-50286342D02*
X86203714Y-50095866D01*
X86203714Y-50095866D02*
X86203714Y-49857771D01*
X86203714Y-49857771D02*
X86251333Y-49667295D01*
X86251333Y-49667295D02*
X86298952Y-49572057D01*
X86298952Y-49572057D02*
X86346571Y-49524438D01*
X86346571Y-49524438D02*
X86441809Y-49476819D01*
X87203714Y-50476819D02*
X87203714Y-49476819D01*
X87298952Y-50095866D02*
X87584666Y-50476819D01*
X87584666Y-49810152D02*
X87203714Y-50191104D01*
X76814761Y-53002295D02*
X76357618Y-53002295D01*
X76586190Y-53002295D02*
X76586190Y-52202295D01*
X76586190Y-52202295D02*
X76509999Y-52316580D01*
X76509999Y-52316580D02*
X76433809Y-52392771D01*
X76433809Y-52392771D02*
X76357618Y-52430866D01*
X77310000Y-52202295D02*
X77386190Y-52202295D01*
X77386190Y-52202295D02*
X77462381Y-52240390D01*
X77462381Y-52240390D02*
X77500476Y-52278485D01*
X77500476Y-52278485D02*
X77538571Y-52354676D01*
X77538571Y-52354676D02*
X77576666Y-52507057D01*
X77576666Y-52507057D02*
X77576666Y-52697533D01*
X77576666Y-52697533D02*
X77538571Y-52849914D01*
X77538571Y-52849914D02*
X77500476Y-52926104D01*
X77500476Y-52926104D02*
X77462381Y-52964200D01*
X77462381Y-52964200D02*
X77386190Y-53002295D01*
X77386190Y-53002295D02*
X77310000Y-53002295D01*
X77310000Y-53002295D02*
X77233809Y-52964200D01*
X77233809Y-52964200D02*
X77195714Y-52926104D01*
X77195714Y-52926104D02*
X77157619Y-52849914D01*
X77157619Y-52849914D02*
X77119523Y-52697533D01*
X77119523Y-52697533D02*
X77119523Y-52507057D01*
X77119523Y-52507057D02*
X77157619Y-52354676D01*
X77157619Y-52354676D02*
X77195714Y-52278485D01*
X77195714Y-52278485D02*
X77233809Y-52240390D01*
X77233809Y-52240390D02*
X77310000Y-52202295D01*
X78071905Y-52202295D02*
X78148095Y-52202295D01*
X78148095Y-52202295D02*
X78224286Y-52240390D01*
X78224286Y-52240390D02*
X78262381Y-52278485D01*
X78262381Y-52278485D02*
X78300476Y-52354676D01*
X78300476Y-52354676D02*
X78338571Y-52507057D01*
X78338571Y-52507057D02*
X78338571Y-52697533D01*
X78338571Y-52697533D02*
X78300476Y-52849914D01*
X78300476Y-52849914D02*
X78262381Y-52926104D01*
X78262381Y-52926104D02*
X78224286Y-52964200D01*
X78224286Y-52964200D02*
X78148095Y-53002295D01*
X78148095Y-53002295D02*
X78071905Y-53002295D01*
X78071905Y-53002295D02*
X77995714Y-52964200D01*
X77995714Y-52964200D02*
X77957619Y-52926104D01*
X77957619Y-52926104D02*
X77919524Y-52849914D01*
X77919524Y-52849914D02*
X77881428Y-52697533D01*
X77881428Y-52697533D02*
X77881428Y-52507057D01*
X77881428Y-52507057D02*
X77919524Y-52354676D01*
X77919524Y-52354676D02*
X77957619Y-52278485D01*
X77957619Y-52278485D02*
X77995714Y-52240390D01*
X77995714Y-52240390D02*
X78071905Y-52202295D01*
X78681429Y-52468961D02*
X78681429Y-53002295D01*
X78681429Y-52545152D02*
X78719524Y-52507057D01*
X78719524Y-52507057D02*
X78795714Y-52468961D01*
X78795714Y-52468961D02*
X78910000Y-52468961D01*
X78910000Y-52468961D02*
X78986191Y-52507057D01*
X78986191Y-52507057D02*
X79024286Y-52583247D01*
X79024286Y-52583247D02*
X79024286Y-53002295D01*
X55322295Y-63175238D02*
X55322295Y-63632381D01*
X55322295Y-63403809D02*
X54522295Y-63403809D01*
X54522295Y-63403809D02*
X54636580Y-63480000D01*
X54636580Y-63480000D02*
X54712771Y-63556190D01*
X54712771Y-63556190D02*
X54750866Y-63632381D01*
X54522295Y-62679999D02*
X54522295Y-62603809D01*
X54522295Y-62603809D02*
X54560390Y-62527618D01*
X54560390Y-62527618D02*
X54598485Y-62489523D01*
X54598485Y-62489523D02*
X54674676Y-62451428D01*
X54674676Y-62451428D02*
X54827057Y-62413333D01*
X54827057Y-62413333D02*
X55017533Y-62413333D01*
X55017533Y-62413333D02*
X55169914Y-62451428D01*
X55169914Y-62451428D02*
X55246104Y-62489523D01*
X55246104Y-62489523D02*
X55284200Y-62527618D01*
X55284200Y-62527618D02*
X55322295Y-62603809D01*
X55322295Y-62603809D02*
X55322295Y-62679999D01*
X55322295Y-62679999D02*
X55284200Y-62756190D01*
X55284200Y-62756190D02*
X55246104Y-62794285D01*
X55246104Y-62794285D02*
X55169914Y-62832380D01*
X55169914Y-62832380D02*
X55017533Y-62870476D01*
X55017533Y-62870476D02*
X54827057Y-62870476D01*
X54827057Y-62870476D02*
X54674676Y-62832380D01*
X54674676Y-62832380D02*
X54598485Y-62794285D01*
X54598485Y-62794285D02*
X54560390Y-62756190D01*
X54560390Y-62756190D02*
X54522295Y-62679999D01*
X54522295Y-61918094D02*
X54522295Y-61841904D01*
X54522295Y-61841904D02*
X54560390Y-61765713D01*
X54560390Y-61765713D02*
X54598485Y-61727618D01*
X54598485Y-61727618D02*
X54674676Y-61689523D01*
X54674676Y-61689523D02*
X54827057Y-61651428D01*
X54827057Y-61651428D02*
X55017533Y-61651428D01*
X55017533Y-61651428D02*
X55169914Y-61689523D01*
X55169914Y-61689523D02*
X55246104Y-61727618D01*
X55246104Y-61727618D02*
X55284200Y-61765713D01*
X55284200Y-61765713D02*
X55322295Y-61841904D01*
X55322295Y-61841904D02*
X55322295Y-61918094D01*
X55322295Y-61918094D02*
X55284200Y-61994285D01*
X55284200Y-61994285D02*
X55246104Y-62032380D01*
X55246104Y-62032380D02*
X55169914Y-62070475D01*
X55169914Y-62070475D02*
X55017533Y-62108571D01*
X55017533Y-62108571D02*
X54827057Y-62108571D01*
X54827057Y-62108571D02*
X54674676Y-62070475D01*
X54674676Y-62070475D02*
X54598485Y-62032380D01*
X54598485Y-62032380D02*
X54560390Y-61994285D01*
X54560390Y-61994285D02*
X54522295Y-61918094D01*
X54788961Y-61308570D02*
X55322295Y-61308570D01*
X54865152Y-61308570D02*
X54827057Y-61270475D01*
X54827057Y-61270475D02*
X54788961Y-61194285D01*
X54788961Y-61194285D02*
X54788961Y-61079999D01*
X54788961Y-61079999D02*
X54827057Y-61003808D01*
X54827057Y-61003808D02*
X54903247Y-60965713D01*
X54903247Y-60965713D02*
X55322295Y-60965713D01*
X54889523Y-47034819D02*
X54318095Y-47034819D01*
X54603809Y-47034819D02*
X54603809Y-46034819D01*
X54603809Y-46034819D02*
X54508571Y-46177676D01*
X54508571Y-46177676D02*
X54413333Y-46272914D01*
X54413333Y-46272914D02*
X54318095Y-46320533D01*
X55746666Y-46368152D02*
X55746666Y-47034819D01*
X55318095Y-46368152D02*
X55318095Y-46891961D01*
X55318095Y-46891961D02*
X55365714Y-46987200D01*
X55365714Y-46987200D02*
X55460952Y-47034819D01*
X55460952Y-47034819D02*
X55603809Y-47034819D01*
X55603809Y-47034819D02*
X55699047Y-46987200D01*
X55699047Y-46987200D02*
X55746666Y-46939580D01*
X56222857Y-47034819D02*
X56222857Y-46034819D01*
X56222857Y-46511009D02*
X56794285Y-46511009D01*
X56794285Y-47034819D02*
X56794285Y-46034819D01*
X49694819Y-60034285D02*
X49694819Y-60224761D01*
X49694819Y-60224761D02*
X49742438Y-60319999D01*
X49742438Y-60319999D02*
X49790057Y-60367618D01*
X49790057Y-60367618D02*
X49932914Y-60462856D01*
X49932914Y-60462856D02*
X50123390Y-60510475D01*
X50123390Y-60510475D02*
X50504342Y-60510475D01*
X50504342Y-60510475D02*
X50599580Y-60462856D01*
X50599580Y-60462856D02*
X50647200Y-60415237D01*
X50647200Y-60415237D02*
X50694819Y-60319999D01*
X50694819Y-60319999D02*
X50694819Y-60129523D01*
X50694819Y-60129523D02*
X50647200Y-60034285D01*
X50647200Y-60034285D02*
X50599580Y-59986666D01*
X50599580Y-59986666D02*
X50504342Y-59939047D01*
X50504342Y-59939047D02*
X50266247Y-59939047D01*
X50266247Y-59939047D02*
X50171009Y-59986666D01*
X50171009Y-59986666D02*
X50123390Y-60034285D01*
X50123390Y-60034285D02*
X50075771Y-60129523D01*
X50075771Y-60129523D02*
X50075771Y-60319999D01*
X50075771Y-60319999D02*
X50123390Y-60415237D01*
X50123390Y-60415237D02*
X50171009Y-60462856D01*
X50171009Y-60462856D02*
X50266247Y-60510475D01*
X50123390Y-59367618D02*
X50075771Y-59462856D01*
X50075771Y-59462856D02*
X50028152Y-59510475D01*
X50028152Y-59510475D02*
X49932914Y-59558094D01*
X49932914Y-59558094D02*
X49885295Y-59558094D01*
X49885295Y-59558094D02*
X49790057Y-59510475D01*
X49790057Y-59510475D02*
X49742438Y-59462856D01*
X49742438Y-59462856D02*
X49694819Y-59367618D01*
X49694819Y-59367618D02*
X49694819Y-59177142D01*
X49694819Y-59177142D02*
X49742438Y-59081904D01*
X49742438Y-59081904D02*
X49790057Y-59034285D01*
X49790057Y-59034285D02*
X49885295Y-58986666D01*
X49885295Y-58986666D02*
X49932914Y-58986666D01*
X49932914Y-58986666D02*
X50028152Y-59034285D01*
X50028152Y-59034285D02*
X50075771Y-59081904D01*
X50075771Y-59081904D02*
X50123390Y-59177142D01*
X50123390Y-59177142D02*
X50123390Y-59367618D01*
X50123390Y-59367618D02*
X50171009Y-59462856D01*
X50171009Y-59462856D02*
X50218628Y-59510475D01*
X50218628Y-59510475D02*
X50313866Y-59558094D01*
X50313866Y-59558094D02*
X50504342Y-59558094D01*
X50504342Y-59558094D02*
X50599580Y-59510475D01*
X50599580Y-59510475D02*
X50647200Y-59462856D01*
X50647200Y-59462856D02*
X50694819Y-59367618D01*
X50694819Y-59367618D02*
X50694819Y-59177142D01*
X50694819Y-59177142D02*
X50647200Y-59081904D01*
X50647200Y-59081904D02*
X50599580Y-59034285D01*
X50599580Y-59034285D02*
X50504342Y-58986666D01*
X50504342Y-58986666D02*
X50313866Y-58986666D01*
X50313866Y-58986666D02*
X50218628Y-59034285D01*
X50218628Y-59034285D02*
X50171009Y-59081904D01*
X50171009Y-59081904D02*
X50123390Y-59177142D01*
X49694819Y-58367618D02*
X49694819Y-58272380D01*
X49694819Y-58272380D02*
X49742438Y-58177142D01*
X49742438Y-58177142D02*
X49790057Y-58129523D01*
X49790057Y-58129523D02*
X49885295Y-58081904D01*
X49885295Y-58081904D02*
X50075771Y-58034285D01*
X50075771Y-58034285D02*
X50313866Y-58034285D01*
X50313866Y-58034285D02*
X50504342Y-58081904D01*
X50504342Y-58081904D02*
X50599580Y-58129523D01*
X50599580Y-58129523D02*
X50647200Y-58177142D01*
X50647200Y-58177142D02*
X50694819Y-58272380D01*
X50694819Y-58272380D02*
X50694819Y-58367618D01*
X50694819Y-58367618D02*
X50647200Y-58462856D01*
X50647200Y-58462856D02*
X50599580Y-58510475D01*
X50599580Y-58510475D02*
X50504342Y-58558094D01*
X50504342Y-58558094D02*
X50313866Y-58605713D01*
X50313866Y-58605713D02*
X50075771Y-58605713D01*
X50075771Y-58605713D02*
X49885295Y-58558094D01*
X49885295Y-58558094D02*
X49790057Y-58510475D01*
X49790057Y-58510475D02*
X49742438Y-58462856D01*
X49742438Y-58462856D02*
X49694819Y-58367618D01*
X50028152Y-57605713D02*
X51028152Y-57605713D01*
X50075771Y-57605713D02*
X50028152Y-57510475D01*
X50028152Y-57510475D02*
X50028152Y-57319999D01*
X50028152Y-57319999D02*
X50075771Y-57224761D01*
X50075771Y-57224761D02*
X50123390Y-57177142D01*
X50123390Y-57177142D02*
X50218628Y-57129523D01*
X50218628Y-57129523D02*
X50504342Y-57129523D01*
X50504342Y-57129523D02*
X50599580Y-57177142D01*
X50599580Y-57177142D02*
X50647200Y-57224761D01*
X50647200Y-57224761D02*
X50694819Y-57319999D01*
X50694819Y-57319999D02*
X50694819Y-57510475D01*
X50694819Y-57510475D02*
X50647200Y-57605713D01*
X71239142Y-67510819D02*
X70667714Y-67510819D01*
X70953428Y-67510819D02*
X70953428Y-66510819D01*
X70953428Y-66510819D02*
X70858190Y-66653676D01*
X70858190Y-66653676D02*
X70762952Y-66748914D01*
X70762952Y-66748914D02*
X70667714Y-66796533D01*
X71858190Y-66510819D02*
X71953428Y-66510819D01*
X71953428Y-66510819D02*
X72048666Y-66558438D01*
X72048666Y-66558438D02*
X72096285Y-66606057D01*
X72096285Y-66606057D02*
X72143904Y-66701295D01*
X72143904Y-66701295D02*
X72191523Y-66891771D01*
X72191523Y-66891771D02*
X72191523Y-67129866D01*
X72191523Y-67129866D02*
X72143904Y-67320342D01*
X72143904Y-67320342D02*
X72096285Y-67415580D01*
X72096285Y-67415580D02*
X72048666Y-67463200D01*
X72048666Y-67463200D02*
X71953428Y-67510819D01*
X71953428Y-67510819D02*
X71858190Y-67510819D01*
X71858190Y-67510819D02*
X71762952Y-67463200D01*
X71762952Y-67463200D02*
X71715333Y-67415580D01*
X71715333Y-67415580D02*
X71667714Y-67320342D01*
X71667714Y-67320342D02*
X71620095Y-67129866D01*
X71620095Y-67129866D02*
X71620095Y-66891771D01*
X71620095Y-66891771D02*
X71667714Y-66701295D01*
X71667714Y-66701295D02*
X71715333Y-66606057D01*
X71715333Y-66606057D02*
X71762952Y-66558438D01*
X71762952Y-66558438D02*
X71858190Y-66510819D01*
X73048666Y-66844152D02*
X73048666Y-67510819D01*
X72620095Y-66844152D02*
X72620095Y-67367961D01*
X72620095Y-67367961D02*
X72667714Y-67463200D01*
X72667714Y-67463200D02*
X72762952Y-67510819D01*
X72762952Y-67510819D02*
X72905809Y-67510819D01*
X72905809Y-67510819D02*
X73001047Y-67463200D01*
X73001047Y-67463200D02*
X73048666Y-67415580D01*
X64786666Y-64572295D02*
X64329523Y-64572295D01*
X64558095Y-64572295D02*
X64558095Y-63772295D01*
X64558095Y-63772295D02*
X64481904Y-63886580D01*
X64481904Y-63886580D02*
X64405714Y-63962771D01*
X64405714Y-63962771D02*
X64329523Y-64000866D01*
X65281905Y-63772295D02*
X65358095Y-63772295D01*
X65358095Y-63772295D02*
X65434286Y-63810390D01*
X65434286Y-63810390D02*
X65472381Y-63848485D01*
X65472381Y-63848485D02*
X65510476Y-63924676D01*
X65510476Y-63924676D02*
X65548571Y-64077057D01*
X65548571Y-64077057D02*
X65548571Y-64267533D01*
X65548571Y-64267533D02*
X65510476Y-64419914D01*
X65510476Y-64419914D02*
X65472381Y-64496104D01*
X65472381Y-64496104D02*
X65434286Y-64534200D01*
X65434286Y-64534200D02*
X65358095Y-64572295D01*
X65358095Y-64572295D02*
X65281905Y-64572295D01*
X65281905Y-64572295D02*
X65205714Y-64534200D01*
X65205714Y-64534200D02*
X65167619Y-64496104D01*
X65167619Y-64496104D02*
X65129524Y-64419914D01*
X65129524Y-64419914D02*
X65091428Y-64267533D01*
X65091428Y-64267533D02*
X65091428Y-64077057D01*
X65091428Y-64077057D02*
X65129524Y-63924676D01*
X65129524Y-63924676D02*
X65167619Y-63848485D01*
X65167619Y-63848485D02*
X65205714Y-63810390D01*
X65205714Y-63810390D02*
X65281905Y-63772295D01*
X66043810Y-63772295D02*
X66120000Y-63772295D01*
X66120000Y-63772295D02*
X66196191Y-63810390D01*
X66196191Y-63810390D02*
X66234286Y-63848485D01*
X66234286Y-63848485D02*
X66272381Y-63924676D01*
X66272381Y-63924676D02*
X66310476Y-64077057D01*
X66310476Y-64077057D02*
X66310476Y-64267533D01*
X66310476Y-64267533D02*
X66272381Y-64419914D01*
X66272381Y-64419914D02*
X66234286Y-64496104D01*
X66234286Y-64496104D02*
X66196191Y-64534200D01*
X66196191Y-64534200D02*
X66120000Y-64572295D01*
X66120000Y-64572295D02*
X66043810Y-64572295D01*
X66043810Y-64572295D02*
X65967619Y-64534200D01*
X65967619Y-64534200D02*
X65929524Y-64496104D01*
X65929524Y-64496104D02*
X65891429Y-64419914D01*
X65891429Y-64419914D02*
X65853333Y-64267533D01*
X65853333Y-64267533D02*
X65853333Y-64077057D01*
X65853333Y-64077057D02*
X65891429Y-63924676D01*
X65891429Y-63924676D02*
X65929524Y-63848485D01*
X65929524Y-63848485D02*
X65967619Y-63810390D01*
X65967619Y-63810390D02*
X66043810Y-63772295D01*
X75800295Y-63379238D02*
X75800295Y-63836381D01*
X75800295Y-63607809D02*
X75000295Y-63607809D01*
X75000295Y-63607809D02*
X75114580Y-63684000D01*
X75114580Y-63684000D02*
X75190771Y-63760190D01*
X75190771Y-63760190D02*
X75228866Y-63836381D01*
X75000295Y-62883999D02*
X75000295Y-62807809D01*
X75000295Y-62807809D02*
X75038390Y-62731618D01*
X75038390Y-62731618D02*
X75076485Y-62693523D01*
X75076485Y-62693523D02*
X75152676Y-62655428D01*
X75152676Y-62655428D02*
X75305057Y-62617333D01*
X75305057Y-62617333D02*
X75495533Y-62617333D01*
X75495533Y-62617333D02*
X75647914Y-62655428D01*
X75647914Y-62655428D02*
X75724104Y-62693523D01*
X75724104Y-62693523D02*
X75762200Y-62731618D01*
X75762200Y-62731618D02*
X75800295Y-62807809D01*
X75800295Y-62807809D02*
X75800295Y-62883999D01*
X75800295Y-62883999D02*
X75762200Y-62960190D01*
X75762200Y-62960190D02*
X75724104Y-62998285D01*
X75724104Y-62998285D02*
X75647914Y-63036380D01*
X75647914Y-63036380D02*
X75495533Y-63074476D01*
X75495533Y-63074476D02*
X75305057Y-63074476D01*
X75305057Y-63074476D02*
X75152676Y-63036380D01*
X75152676Y-63036380D02*
X75076485Y-62998285D01*
X75076485Y-62998285D02*
X75038390Y-62960190D01*
X75038390Y-62960190D02*
X75000295Y-62883999D01*
X75000295Y-62122094D02*
X75000295Y-62045904D01*
X75000295Y-62045904D02*
X75038390Y-61969713D01*
X75038390Y-61969713D02*
X75076485Y-61931618D01*
X75076485Y-61931618D02*
X75152676Y-61893523D01*
X75152676Y-61893523D02*
X75305057Y-61855428D01*
X75305057Y-61855428D02*
X75495533Y-61855428D01*
X75495533Y-61855428D02*
X75647914Y-61893523D01*
X75647914Y-61893523D02*
X75724104Y-61931618D01*
X75724104Y-61931618D02*
X75762200Y-61969713D01*
X75762200Y-61969713D02*
X75800295Y-62045904D01*
X75800295Y-62045904D02*
X75800295Y-62122094D01*
X75800295Y-62122094D02*
X75762200Y-62198285D01*
X75762200Y-62198285D02*
X75724104Y-62236380D01*
X75724104Y-62236380D02*
X75647914Y-62274475D01*
X75647914Y-62274475D02*
X75495533Y-62312571D01*
X75495533Y-62312571D02*
X75305057Y-62312571D01*
X75305057Y-62312571D02*
X75152676Y-62274475D01*
X75152676Y-62274475D02*
X75076485Y-62236380D01*
X75076485Y-62236380D02*
X75038390Y-62198285D01*
X75038390Y-62198285D02*
X75000295Y-62122094D01*
X75266961Y-61512570D02*
X75800295Y-61512570D01*
X75343152Y-61512570D02*
X75305057Y-61474475D01*
X75305057Y-61474475D02*
X75266961Y-61398285D01*
X75266961Y-61398285D02*
X75266961Y-61283999D01*
X75266961Y-61283999D02*
X75305057Y-61207808D01*
X75305057Y-61207808D02*
X75381247Y-61169713D01*
X75381247Y-61169713D02*
X75800295Y-61169713D01*
X78295713Y-72660295D02*
X77838570Y-72660295D01*
X78067142Y-72660295D02*
X78067142Y-71860295D01*
X78067142Y-71860295D02*
X77990951Y-71974580D01*
X77990951Y-71974580D02*
X77914761Y-72050771D01*
X77914761Y-72050771D02*
X77838570Y-72088866D01*
X78790952Y-71860295D02*
X78867142Y-71860295D01*
X78867142Y-71860295D02*
X78943333Y-71898390D01*
X78943333Y-71898390D02*
X78981428Y-71936485D01*
X78981428Y-71936485D02*
X79019523Y-72012676D01*
X79019523Y-72012676D02*
X79057618Y-72165057D01*
X79057618Y-72165057D02*
X79057618Y-72355533D01*
X79057618Y-72355533D02*
X79019523Y-72507914D01*
X79019523Y-72507914D02*
X78981428Y-72584104D01*
X78981428Y-72584104D02*
X78943333Y-72622200D01*
X78943333Y-72622200D02*
X78867142Y-72660295D01*
X78867142Y-72660295D02*
X78790952Y-72660295D01*
X78790952Y-72660295D02*
X78714761Y-72622200D01*
X78714761Y-72622200D02*
X78676666Y-72584104D01*
X78676666Y-72584104D02*
X78638571Y-72507914D01*
X78638571Y-72507914D02*
X78600475Y-72355533D01*
X78600475Y-72355533D02*
X78600475Y-72165057D01*
X78600475Y-72165057D02*
X78638571Y-72012676D01*
X78638571Y-72012676D02*
X78676666Y-71936485D01*
X78676666Y-71936485D02*
X78714761Y-71898390D01*
X78714761Y-71898390D02*
X78790952Y-71860295D01*
X79743333Y-72126961D02*
X79743333Y-72660295D01*
X79400476Y-72126961D02*
X79400476Y-72546009D01*
X79400476Y-72546009D02*
X79438571Y-72622200D01*
X79438571Y-72622200D02*
X79514761Y-72660295D01*
X79514761Y-72660295D02*
X79629047Y-72660295D01*
X79629047Y-72660295D02*
X79705238Y-72622200D01*
X79705238Y-72622200D02*
X79743333Y-72584104D01*
X89543333Y-66214819D02*
X88971905Y-66214819D01*
X89257619Y-66214819D02*
X89257619Y-65214819D01*
X89257619Y-65214819D02*
X89162381Y-65357676D01*
X89162381Y-65357676D02*
X89067143Y-65452914D01*
X89067143Y-65452914D02*
X88971905Y-65500533D01*
X90400476Y-65548152D02*
X90400476Y-66214819D01*
X89971905Y-65548152D02*
X89971905Y-66071961D01*
X89971905Y-66071961D02*
X90019524Y-66167200D01*
X90019524Y-66167200D02*
X90114762Y-66214819D01*
X90114762Y-66214819D02*
X90257619Y-66214819D01*
X90257619Y-66214819D02*
X90352857Y-66167200D01*
X90352857Y-66167200D02*
X90400476Y-66119580D01*
X80762295Y-66234286D02*
X80762295Y-66691429D01*
X80762295Y-66462857D02*
X79962295Y-66462857D01*
X79962295Y-66462857D02*
X80076580Y-66539048D01*
X80076580Y-66539048D02*
X80152771Y-66615238D01*
X80152771Y-66615238D02*
X80190866Y-66691429D01*
X79962295Y-65739047D02*
X79962295Y-65662857D01*
X79962295Y-65662857D02*
X80000390Y-65586666D01*
X80000390Y-65586666D02*
X80038485Y-65548571D01*
X80038485Y-65548571D02*
X80114676Y-65510476D01*
X80114676Y-65510476D02*
X80267057Y-65472381D01*
X80267057Y-65472381D02*
X80457533Y-65472381D01*
X80457533Y-65472381D02*
X80609914Y-65510476D01*
X80609914Y-65510476D02*
X80686104Y-65548571D01*
X80686104Y-65548571D02*
X80724200Y-65586666D01*
X80724200Y-65586666D02*
X80762295Y-65662857D01*
X80762295Y-65662857D02*
X80762295Y-65739047D01*
X80762295Y-65739047D02*
X80724200Y-65815238D01*
X80724200Y-65815238D02*
X80686104Y-65853333D01*
X80686104Y-65853333D02*
X80609914Y-65891428D01*
X80609914Y-65891428D02*
X80457533Y-65929524D01*
X80457533Y-65929524D02*
X80267057Y-65929524D01*
X80267057Y-65929524D02*
X80114676Y-65891428D01*
X80114676Y-65891428D02*
X80038485Y-65853333D01*
X80038485Y-65853333D02*
X80000390Y-65815238D01*
X80000390Y-65815238D02*
X79962295Y-65739047D01*
X79962295Y-64977142D02*
X79962295Y-64900952D01*
X79962295Y-64900952D02*
X80000390Y-64824761D01*
X80000390Y-64824761D02*
X80038485Y-64786666D01*
X80038485Y-64786666D02*
X80114676Y-64748571D01*
X80114676Y-64748571D02*
X80267057Y-64710476D01*
X80267057Y-64710476D02*
X80457533Y-64710476D01*
X80457533Y-64710476D02*
X80609914Y-64748571D01*
X80609914Y-64748571D02*
X80686104Y-64786666D01*
X80686104Y-64786666D02*
X80724200Y-64824761D01*
X80724200Y-64824761D02*
X80762295Y-64900952D01*
X80762295Y-64900952D02*
X80762295Y-64977142D01*
X80762295Y-64977142D02*
X80724200Y-65053333D01*
X80724200Y-65053333D02*
X80686104Y-65091428D01*
X80686104Y-65091428D02*
X80609914Y-65129523D01*
X80609914Y-65129523D02*
X80457533Y-65167619D01*
X80457533Y-65167619D02*
X80267057Y-65167619D01*
X80267057Y-65167619D02*
X80114676Y-65129523D01*
X80114676Y-65129523D02*
X80038485Y-65091428D01*
X80038485Y-65091428D02*
X80000390Y-65053333D01*
X80000390Y-65053333D02*
X79962295Y-64977142D01*
X80228961Y-64024761D02*
X80762295Y-64024761D01*
X80228961Y-64367618D02*
X80648009Y-64367618D01*
X80648009Y-64367618D02*
X80724200Y-64329523D01*
X80724200Y-64329523D02*
X80762295Y-64253333D01*
X80762295Y-64253333D02*
X80762295Y-64139047D01*
X80762295Y-64139047D02*
X80724200Y-64062856D01*
X80724200Y-64062856D02*
X80686104Y-64024761D01*
X80762295Y-63643808D02*
X79962295Y-63643808D01*
X80343247Y-63643808D02*
X80343247Y-63186665D01*
X80762295Y-63186665D02*
X79962295Y-63186665D01*
X86194761Y-63452295D02*
X85737618Y-63452295D01*
X85966190Y-63452295D02*
X85966190Y-62652295D01*
X85966190Y-62652295D02*
X85889999Y-62766580D01*
X85889999Y-62766580D02*
X85813809Y-62842771D01*
X85813809Y-62842771D02*
X85737618Y-62880866D01*
X86690000Y-62652295D02*
X86766190Y-62652295D01*
X86766190Y-62652295D02*
X86842381Y-62690390D01*
X86842381Y-62690390D02*
X86880476Y-62728485D01*
X86880476Y-62728485D02*
X86918571Y-62804676D01*
X86918571Y-62804676D02*
X86956666Y-62957057D01*
X86956666Y-62957057D02*
X86956666Y-63147533D01*
X86956666Y-63147533D02*
X86918571Y-63299914D01*
X86918571Y-63299914D02*
X86880476Y-63376104D01*
X86880476Y-63376104D02*
X86842381Y-63414200D01*
X86842381Y-63414200D02*
X86766190Y-63452295D01*
X86766190Y-63452295D02*
X86690000Y-63452295D01*
X86690000Y-63452295D02*
X86613809Y-63414200D01*
X86613809Y-63414200D02*
X86575714Y-63376104D01*
X86575714Y-63376104D02*
X86537619Y-63299914D01*
X86537619Y-63299914D02*
X86499523Y-63147533D01*
X86499523Y-63147533D02*
X86499523Y-62957057D01*
X86499523Y-62957057D02*
X86537619Y-62804676D01*
X86537619Y-62804676D02*
X86575714Y-62728485D01*
X86575714Y-62728485D02*
X86613809Y-62690390D01*
X86613809Y-62690390D02*
X86690000Y-62652295D01*
X87451905Y-62652295D02*
X87528095Y-62652295D01*
X87528095Y-62652295D02*
X87604286Y-62690390D01*
X87604286Y-62690390D02*
X87642381Y-62728485D01*
X87642381Y-62728485D02*
X87680476Y-62804676D01*
X87680476Y-62804676D02*
X87718571Y-62957057D01*
X87718571Y-62957057D02*
X87718571Y-63147533D01*
X87718571Y-63147533D02*
X87680476Y-63299914D01*
X87680476Y-63299914D02*
X87642381Y-63376104D01*
X87642381Y-63376104D02*
X87604286Y-63414200D01*
X87604286Y-63414200D02*
X87528095Y-63452295D01*
X87528095Y-63452295D02*
X87451905Y-63452295D01*
X87451905Y-63452295D02*
X87375714Y-63414200D01*
X87375714Y-63414200D02*
X87337619Y-63376104D01*
X87337619Y-63376104D02*
X87299524Y-63299914D01*
X87299524Y-63299914D02*
X87261428Y-63147533D01*
X87261428Y-63147533D02*
X87261428Y-62957057D01*
X87261428Y-62957057D02*
X87299524Y-62804676D01*
X87299524Y-62804676D02*
X87337619Y-62728485D01*
X87337619Y-62728485D02*
X87375714Y-62690390D01*
X87375714Y-62690390D02*
X87451905Y-62652295D01*
X88061429Y-62918961D02*
X88061429Y-63452295D01*
X88061429Y-62995152D02*
X88099524Y-62957057D01*
X88099524Y-62957057D02*
X88175714Y-62918961D01*
X88175714Y-62918961D02*
X88290000Y-62918961D01*
X88290000Y-62918961D02*
X88366191Y-62957057D01*
X88366191Y-62957057D02*
X88404286Y-63033247D01*
X88404286Y-63033247D02*
X88404286Y-63452295D01*
X97046761Y-50884295D02*
X96589618Y-50884295D01*
X96818190Y-50884295D02*
X96818190Y-50084295D01*
X96818190Y-50084295D02*
X96741999Y-50198580D01*
X96741999Y-50198580D02*
X96665809Y-50274771D01*
X96665809Y-50274771D02*
X96589618Y-50312866D01*
X97542000Y-50084295D02*
X97618190Y-50084295D01*
X97618190Y-50084295D02*
X97694381Y-50122390D01*
X97694381Y-50122390D02*
X97732476Y-50160485D01*
X97732476Y-50160485D02*
X97770571Y-50236676D01*
X97770571Y-50236676D02*
X97808666Y-50389057D01*
X97808666Y-50389057D02*
X97808666Y-50579533D01*
X97808666Y-50579533D02*
X97770571Y-50731914D01*
X97770571Y-50731914D02*
X97732476Y-50808104D01*
X97732476Y-50808104D02*
X97694381Y-50846200D01*
X97694381Y-50846200D02*
X97618190Y-50884295D01*
X97618190Y-50884295D02*
X97542000Y-50884295D01*
X97542000Y-50884295D02*
X97465809Y-50846200D01*
X97465809Y-50846200D02*
X97427714Y-50808104D01*
X97427714Y-50808104D02*
X97389619Y-50731914D01*
X97389619Y-50731914D02*
X97351523Y-50579533D01*
X97351523Y-50579533D02*
X97351523Y-50389057D01*
X97351523Y-50389057D02*
X97389619Y-50236676D01*
X97389619Y-50236676D02*
X97427714Y-50160485D01*
X97427714Y-50160485D02*
X97465809Y-50122390D01*
X97465809Y-50122390D02*
X97542000Y-50084295D01*
X98303905Y-50084295D02*
X98380095Y-50084295D01*
X98380095Y-50084295D02*
X98456286Y-50122390D01*
X98456286Y-50122390D02*
X98494381Y-50160485D01*
X98494381Y-50160485D02*
X98532476Y-50236676D01*
X98532476Y-50236676D02*
X98570571Y-50389057D01*
X98570571Y-50389057D02*
X98570571Y-50579533D01*
X98570571Y-50579533D02*
X98532476Y-50731914D01*
X98532476Y-50731914D02*
X98494381Y-50808104D01*
X98494381Y-50808104D02*
X98456286Y-50846200D01*
X98456286Y-50846200D02*
X98380095Y-50884295D01*
X98380095Y-50884295D02*
X98303905Y-50884295D01*
X98303905Y-50884295D02*
X98227714Y-50846200D01*
X98227714Y-50846200D02*
X98189619Y-50808104D01*
X98189619Y-50808104D02*
X98151524Y-50731914D01*
X98151524Y-50731914D02*
X98113428Y-50579533D01*
X98113428Y-50579533D02*
X98113428Y-50389057D01*
X98113428Y-50389057D02*
X98151524Y-50236676D01*
X98151524Y-50236676D02*
X98189619Y-50160485D01*
X98189619Y-50160485D02*
X98227714Y-50122390D01*
X98227714Y-50122390D02*
X98303905Y-50084295D01*
X98913429Y-50350961D02*
X98913429Y-50884295D01*
X98913429Y-50427152D02*
X98951524Y-50389057D01*
X98951524Y-50389057D02*
X99027714Y-50350961D01*
X99027714Y-50350961D02*
X99142000Y-50350961D01*
X99142000Y-50350961D02*
X99218191Y-50389057D01*
X99218191Y-50389057D02*
X99256286Y-50465247D01*
X99256286Y-50465247D02*
X99256286Y-50884295D01*
X90585713Y-73822295D02*
X90128570Y-73822295D01*
X90357142Y-73822295D02*
X90357142Y-73022295D01*
X90357142Y-73022295D02*
X90280951Y-73136580D01*
X90280951Y-73136580D02*
X90204761Y-73212771D01*
X90204761Y-73212771D02*
X90128570Y-73250866D01*
X91080952Y-73022295D02*
X91157142Y-73022295D01*
X91157142Y-73022295D02*
X91233333Y-73060390D01*
X91233333Y-73060390D02*
X91271428Y-73098485D01*
X91271428Y-73098485D02*
X91309523Y-73174676D01*
X91309523Y-73174676D02*
X91347618Y-73327057D01*
X91347618Y-73327057D02*
X91347618Y-73517533D01*
X91347618Y-73517533D02*
X91309523Y-73669914D01*
X91309523Y-73669914D02*
X91271428Y-73746104D01*
X91271428Y-73746104D02*
X91233333Y-73784200D01*
X91233333Y-73784200D02*
X91157142Y-73822295D01*
X91157142Y-73822295D02*
X91080952Y-73822295D01*
X91080952Y-73822295D02*
X91004761Y-73784200D01*
X91004761Y-73784200D02*
X90966666Y-73746104D01*
X90966666Y-73746104D02*
X90928571Y-73669914D01*
X90928571Y-73669914D02*
X90890475Y-73517533D01*
X90890475Y-73517533D02*
X90890475Y-73327057D01*
X90890475Y-73327057D02*
X90928571Y-73174676D01*
X90928571Y-73174676D02*
X90966666Y-73098485D01*
X90966666Y-73098485D02*
X91004761Y-73060390D01*
X91004761Y-73060390D02*
X91080952Y-73022295D01*
X92033333Y-73288961D02*
X92033333Y-73822295D01*
X91690476Y-73288961D02*
X91690476Y-73708009D01*
X91690476Y-73708009D02*
X91728571Y-73784200D01*
X91728571Y-73784200D02*
X91804761Y-73822295D01*
X91804761Y-73822295D02*
X91919047Y-73822295D01*
X91919047Y-73822295D02*
X91995238Y-73784200D01*
X91995238Y-73784200D02*
X92033333Y-73746104D01*
X92616095Y-44168819D02*
X93187523Y-44168819D01*
X92901809Y-45168819D02*
X92901809Y-44168819D01*
X93520857Y-45168819D02*
X93520857Y-44168819D01*
X93520857Y-44168819D02*
X93901809Y-44168819D01*
X93901809Y-44168819D02*
X93997047Y-44216438D01*
X93997047Y-44216438D02*
X94044666Y-44264057D01*
X94044666Y-44264057D02*
X94092285Y-44359295D01*
X94092285Y-44359295D02*
X94092285Y-44502152D01*
X94092285Y-44502152D02*
X94044666Y-44597390D01*
X94044666Y-44597390D02*
X93997047Y-44645009D01*
X93997047Y-44645009D02*
X93901809Y-44692628D01*
X93901809Y-44692628D02*
X93520857Y-44692628D01*
X94473238Y-44264057D02*
X94520857Y-44216438D01*
X94520857Y-44216438D02*
X94616095Y-44168819D01*
X94616095Y-44168819D02*
X94854190Y-44168819D01*
X94854190Y-44168819D02*
X94949428Y-44216438D01*
X94949428Y-44216438D02*
X94997047Y-44264057D01*
X94997047Y-44264057D02*
X95044666Y-44359295D01*
X95044666Y-44359295D02*
X95044666Y-44454533D01*
X95044666Y-44454533D02*
X94997047Y-44597390D01*
X94997047Y-44597390D02*
X94425619Y-45168819D01*
X94425619Y-45168819D02*
X95044666Y-45168819D01*
X50784819Y-64632857D02*
X50784819Y-65204285D01*
X50784819Y-64918571D02*
X49784819Y-64918571D01*
X49784819Y-64918571D02*
X49927676Y-65013809D01*
X49927676Y-65013809D02*
X50022914Y-65109047D01*
X50022914Y-65109047D02*
X50070533Y-65204285D01*
X49784819Y-64013809D02*
X49784819Y-63918571D01*
X49784819Y-63918571D02*
X49832438Y-63823333D01*
X49832438Y-63823333D02*
X49880057Y-63775714D01*
X49880057Y-63775714D02*
X49975295Y-63728095D01*
X49975295Y-63728095D02*
X50165771Y-63680476D01*
X50165771Y-63680476D02*
X50403866Y-63680476D01*
X50403866Y-63680476D02*
X50594342Y-63728095D01*
X50594342Y-63728095D02*
X50689580Y-63775714D01*
X50689580Y-63775714D02*
X50737200Y-63823333D01*
X50737200Y-63823333D02*
X50784819Y-63918571D01*
X50784819Y-63918571D02*
X50784819Y-64013809D01*
X50784819Y-64013809D02*
X50737200Y-64109047D01*
X50737200Y-64109047D02*
X50689580Y-64156666D01*
X50689580Y-64156666D02*
X50594342Y-64204285D01*
X50594342Y-64204285D02*
X50403866Y-64251904D01*
X50403866Y-64251904D02*
X50165771Y-64251904D01*
X50165771Y-64251904D02*
X49975295Y-64204285D01*
X49975295Y-64204285D02*
X49880057Y-64156666D01*
X49880057Y-64156666D02*
X49832438Y-64109047D01*
X49832438Y-64109047D02*
X49784819Y-64013809D01*
X50118152Y-63251904D02*
X50784819Y-63251904D01*
X50213390Y-63251904D02*
X50165771Y-63204285D01*
X50165771Y-63204285D02*
X50118152Y-63109047D01*
X50118152Y-63109047D02*
X50118152Y-62966190D01*
X50118152Y-62966190D02*
X50165771Y-62870952D01*
X50165771Y-62870952D02*
X50261009Y-62823333D01*
X50261009Y-62823333D02*
X50784819Y-62823333D01*
X66062295Y-67815238D02*
X66062295Y-68272381D01*
X66062295Y-68043809D02*
X65262295Y-68043809D01*
X65262295Y-68043809D02*
X65376580Y-68120000D01*
X65376580Y-68120000D02*
X65452771Y-68196190D01*
X65452771Y-68196190D02*
X65490866Y-68272381D01*
X65262295Y-67319999D02*
X65262295Y-67243809D01*
X65262295Y-67243809D02*
X65300390Y-67167618D01*
X65300390Y-67167618D02*
X65338485Y-67129523D01*
X65338485Y-67129523D02*
X65414676Y-67091428D01*
X65414676Y-67091428D02*
X65567057Y-67053333D01*
X65567057Y-67053333D02*
X65757533Y-67053333D01*
X65757533Y-67053333D02*
X65909914Y-67091428D01*
X65909914Y-67091428D02*
X65986104Y-67129523D01*
X65986104Y-67129523D02*
X66024200Y-67167618D01*
X66024200Y-67167618D02*
X66062295Y-67243809D01*
X66062295Y-67243809D02*
X66062295Y-67319999D01*
X66062295Y-67319999D02*
X66024200Y-67396190D01*
X66024200Y-67396190D02*
X65986104Y-67434285D01*
X65986104Y-67434285D02*
X65909914Y-67472380D01*
X65909914Y-67472380D02*
X65757533Y-67510476D01*
X65757533Y-67510476D02*
X65567057Y-67510476D01*
X65567057Y-67510476D02*
X65414676Y-67472380D01*
X65414676Y-67472380D02*
X65338485Y-67434285D01*
X65338485Y-67434285D02*
X65300390Y-67396190D01*
X65300390Y-67396190D02*
X65262295Y-67319999D01*
X65262295Y-66558094D02*
X65262295Y-66481904D01*
X65262295Y-66481904D02*
X65300390Y-66405713D01*
X65300390Y-66405713D02*
X65338485Y-66367618D01*
X65338485Y-66367618D02*
X65414676Y-66329523D01*
X65414676Y-66329523D02*
X65567057Y-66291428D01*
X65567057Y-66291428D02*
X65757533Y-66291428D01*
X65757533Y-66291428D02*
X65909914Y-66329523D01*
X65909914Y-66329523D02*
X65986104Y-66367618D01*
X65986104Y-66367618D02*
X66024200Y-66405713D01*
X66024200Y-66405713D02*
X66062295Y-66481904D01*
X66062295Y-66481904D02*
X66062295Y-66558094D01*
X66062295Y-66558094D02*
X66024200Y-66634285D01*
X66024200Y-66634285D02*
X65986104Y-66672380D01*
X65986104Y-66672380D02*
X65909914Y-66710475D01*
X65909914Y-66710475D02*
X65757533Y-66748571D01*
X65757533Y-66748571D02*
X65567057Y-66748571D01*
X65567057Y-66748571D02*
X65414676Y-66710475D01*
X65414676Y-66710475D02*
X65338485Y-66672380D01*
X65338485Y-66672380D02*
X65300390Y-66634285D01*
X65300390Y-66634285D02*
X65262295Y-66558094D01*
X65528961Y-65948570D02*
X66062295Y-65948570D01*
X65605152Y-65948570D02*
X65567057Y-65910475D01*
X65567057Y-65910475D02*
X65528961Y-65834285D01*
X65528961Y-65834285D02*
X65528961Y-65719999D01*
X65528961Y-65719999D02*
X65567057Y-65643808D01*
X65567057Y-65643808D02*
X65643247Y-65605713D01*
X65643247Y-65605713D02*
X66062295Y-65605713D01*
X61634819Y-64281904D02*
X61634819Y-64853332D01*
X61634819Y-64567618D02*
X60634819Y-64567618D01*
X60634819Y-64567618D02*
X60777676Y-64662856D01*
X60777676Y-64662856D02*
X60872914Y-64758094D01*
X60872914Y-64758094D02*
X60920533Y-64853332D01*
X60634819Y-63662856D02*
X60634819Y-63567618D01*
X60634819Y-63567618D02*
X60682438Y-63472380D01*
X60682438Y-63472380D02*
X60730057Y-63424761D01*
X60730057Y-63424761D02*
X60825295Y-63377142D01*
X60825295Y-63377142D02*
X61015771Y-63329523D01*
X61015771Y-63329523D02*
X61253866Y-63329523D01*
X61253866Y-63329523D02*
X61444342Y-63377142D01*
X61444342Y-63377142D02*
X61539580Y-63424761D01*
X61539580Y-63424761D02*
X61587200Y-63472380D01*
X61587200Y-63472380D02*
X61634819Y-63567618D01*
X61634819Y-63567618D02*
X61634819Y-63662856D01*
X61634819Y-63662856D02*
X61587200Y-63758094D01*
X61587200Y-63758094D02*
X61539580Y-63805713D01*
X61539580Y-63805713D02*
X61444342Y-63853332D01*
X61444342Y-63853332D02*
X61253866Y-63900951D01*
X61253866Y-63900951D02*
X61015771Y-63900951D01*
X61015771Y-63900951D02*
X60825295Y-63853332D01*
X60825295Y-63853332D02*
X60730057Y-63805713D01*
X60730057Y-63805713D02*
X60682438Y-63758094D01*
X60682438Y-63758094D02*
X60634819Y-63662856D01*
X60968152Y-62472380D02*
X61634819Y-62472380D01*
X60968152Y-62900951D02*
X61491961Y-62900951D01*
X61491961Y-62900951D02*
X61587200Y-62853332D01*
X61587200Y-62853332D02*
X61634819Y-62758094D01*
X61634819Y-62758094D02*
X61634819Y-62615237D01*
X61634819Y-62615237D02*
X61587200Y-62519999D01*
X61587200Y-62519999D02*
X61539580Y-62472380D01*
X56912295Y-66925238D02*
X56912295Y-67382381D01*
X56912295Y-67153809D02*
X56112295Y-67153809D01*
X56112295Y-67153809D02*
X56226580Y-67230000D01*
X56226580Y-67230000D02*
X56302771Y-67306190D01*
X56302771Y-67306190D02*
X56340866Y-67382381D01*
X56912295Y-66582380D02*
X56112295Y-66582380D01*
X56607533Y-66506190D02*
X56912295Y-66277618D01*
X56378961Y-66277618D02*
X56683723Y-66582380D01*
X83154819Y-62565238D02*
X83154819Y-63136666D01*
X83154819Y-62850952D02*
X82154819Y-62850952D01*
X82154819Y-62850952D02*
X82297676Y-62946190D01*
X82297676Y-62946190D02*
X82392914Y-63041428D01*
X82392914Y-63041428D02*
X82440533Y-63136666D01*
X82154819Y-61946190D02*
X82154819Y-61850952D01*
X82154819Y-61850952D02*
X82202438Y-61755714D01*
X82202438Y-61755714D02*
X82250057Y-61708095D01*
X82250057Y-61708095D02*
X82345295Y-61660476D01*
X82345295Y-61660476D02*
X82535771Y-61612857D01*
X82535771Y-61612857D02*
X82773866Y-61612857D01*
X82773866Y-61612857D02*
X82964342Y-61660476D01*
X82964342Y-61660476D02*
X83059580Y-61708095D01*
X83059580Y-61708095D02*
X83107200Y-61755714D01*
X83107200Y-61755714D02*
X83154819Y-61850952D01*
X83154819Y-61850952D02*
X83154819Y-61946190D01*
X83154819Y-61946190D02*
X83107200Y-62041428D01*
X83107200Y-62041428D02*
X83059580Y-62089047D01*
X83059580Y-62089047D02*
X82964342Y-62136666D01*
X82964342Y-62136666D02*
X82773866Y-62184285D01*
X82773866Y-62184285D02*
X82535771Y-62184285D01*
X82535771Y-62184285D02*
X82345295Y-62136666D01*
X82345295Y-62136666D02*
X82250057Y-62089047D01*
X82250057Y-62089047D02*
X82202438Y-62041428D01*
X82202438Y-62041428D02*
X82154819Y-61946190D01*
X83154819Y-61184285D02*
X82154819Y-61184285D01*
X82773866Y-61089047D02*
X83154819Y-60803333D01*
X82488152Y-60803333D02*
X82869104Y-61184285D01*
X90040952Y-50744819D02*
X89469524Y-50744819D01*
X89755238Y-50744819D02*
X89755238Y-49744819D01*
X89755238Y-49744819D02*
X89660000Y-49887676D01*
X89660000Y-49887676D02*
X89564762Y-49982914D01*
X89564762Y-49982914D02*
X89469524Y-50030533D01*
X90469524Y-50744819D02*
X90469524Y-49744819D01*
X90564762Y-50363866D02*
X90850476Y-50744819D01*
X90850476Y-50078152D02*
X90469524Y-50459104D01*
X72763142Y-47190819D02*
X72191714Y-47190819D01*
X72477428Y-47190819D02*
X72477428Y-46190819D01*
X72477428Y-46190819D02*
X72382190Y-46333676D01*
X72382190Y-46333676D02*
X72286952Y-46428914D01*
X72286952Y-46428914D02*
X72191714Y-46476533D01*
X73382190Y-46190819D02*
X73477428Y-46190819D01*
X73477428Y-46190819D02*
X73572666Y-46238438D01*
X73572666Y-46238438D02*
X73620285Y-46286057D01*
X73620285Y-46286057D02*
X73667904Y-46381295D01*
X73667904Y-46381295D02*
X73715523Y-46571771D01*
X73715523Y-46571771D02*
X73715523Y-46809866D01*
X73715523Y-46809866D02*
X73667904Y-47000342D01*
X73667904Y-47000342D02*
X73620285Y-47095580D01*
X73620285Y-47095580D02*
X73572666Y-47143200D01*
X73572666Y-47143200D02*
X73477428Y-47190819D01*
X73477428Y-47190819D02*
X73382190Y-47190819D01*
X73382190Y-47190819D02*
X73286952Y-47143200D01*
X73286952Y-47143200D02*
X73239333Y-47095580D01*
X73239333Y-47095580D02*
X73191714Y-47000342D01*
X73191714Y-47000342D02*
X73144095Y-46809866D01*
X73144095Y-46809866D02*
X73144095Y-46571771D01*
X73144095Y-46571771D02*
X73191714Y-46381295D01*
X73191714Y-46381295D02*
X73239333Y-46286057D01*
X73239333Y-46286057D02*
X73286952Y-46238438D01*
X73286952Y-46238438D02*
X73382190Y-46190819D01*
X74572666Y-46524152D02*
X74572666Y-47190819D01*
X74144095Y-46524152D02*
X74144095Y-47047961D01*
X74144095Y-47047961D02*
X74191714Y-47143200D01*
X74191714Y-47143200D02*
X74286952Y-47190819D01*
X74286952Y-47190819D02*
X74429809Y-47190819D01*
X74429809Y-47190819D02*
X74525047Y-47143200D01*
X74525047Y-47143200D02*
X74572666Y-47095580D01*
X83124819Y-56985238D02*
X83124819Y-57556666D01*
X83124819Y-57270952D02*
X82124819Y-57270952D01*
X82124819Y-57270952D02*
X82267676Y-57366190D01*
X82267676Y-57366190D02*
X82362914Y-57461428D01*
X82362914Y-57461428D02*
X82410533Y-57556666D01*
X82124819Y-56366190D02*
X82124819Y-56270952D01*
X82124819Y-56270952D02*
X82172438Y-56175714D01*
X82172438Y-56175714D02*
X82220057Y-56128095D01*
X82220057Y-56128095D02*
X82315295Y-56080476D01*
X82315295Y-56080476D02*
X82505771Y-56032857D01*
X82505771Y-56032857D02*
X82743866Y-56032857D01*
X82743866Y-56032857D02*
X82934342Y-56080476D01*
X82934342Y-56080476D02*
X83029580Y-56128095D01*
X83029580Y-56128095D02*
X83077200Y-56175714D01*
X83077200Y-56175714D02*
X83124819Y-56270952D01*
X83124819Y-56270952D02*
X83124819Y-56366190D01*
X83124819Y-56366190D02*
X83077200Y-56461428D01*
X83077200Y-56461428D02*
X83029580Y-56509047D01*
X83029580Y-56509047D02*
X82934342Y-56556666D01*
X82934342Y-56556666D02*
X82743866Y-56604285D01*
X82743866Y-56604285D02*
X82505771Y-56604285D01*
X82505771Y-56604285D02*
X82315295Y-56556666D01*
X82315295Y-56556666D02*
X82220057Y-56509047D01*
X82220057Y-56509047D02*
X82172438Y-56461428D01*
X82172438Y-56461428D02*
X82124819Y-56366190D01*
X83124819Y-55604285D02*
X82124819Y-55604285D01*
X82743866Y-55509047D02*
X83124819Y-55223333D01*
X82458152Y-55223333D02*
X82839104Y-55604285D01*
X86800476Y-67082295D02*
X86800476Y-67729914D01*
X86800476Y-67729914D02*
X86838571Y-67806104D01*
X86838571Y-67806104D02*
X86876666Y-67844200D01*
X86876666Y-67844200D02*
X86952857Y-67882295D01*
X86952857Y-67882295D02*
X87105238Y-67882295D01*
X87105238Y-67882295D02*
X87181428Y-67844200D01*
X87181428Y-67844200D02*
X87219523Y-67806104D01*
X87219523Y-67806104D02*
X87257619Y-67729914D01*
X87257619Y-67729914D02*
X87257619Y-67082295D01*
X87981428Y-67348961D02*
X87981428Y-67882295D01*
X87790952Y-67044200D02*
X87600475Y-67615628D01*
X87600475Y-67615628D02*
X88095714Y-67615628D01*
X62721905Y-47094819D02*
X62721905Y-46094819D01*
X62721905Y-46094819D02*
X62960000Y-46094819D01*
X62960000Y-46094819D02*
X63102857Y-46142438D01*
X63102857Y-46142438D02*
X63198095Y-46237676D01*
X63198095Y-46237676D02*
X63245714Y-46332914D01*
X63245714Y-46332914D02*
X63293333Y-46523390D01*
X63293333Y-46523390D02*
X63293333Y-46666247D01*
X63293333Y-46666247D02*
X63245714Y-46856723D01*
X63245714Y-46856723D02*
X63198095Y-46951961D01*
X63198095Y-46951961D02*
X63102857Y-47047200D01*
X63102857Y-47047200D02*
X62960000Y-47094819D01*
X62960000Y-47094819D02*
X62721905Y-47094819D01*
X63626667Y-46094819D02*
X64293333Y-46094819D01*
X64293333Y-46094819D02*
X63864762Y-47094819D01*
X86953333Y-75104819D02*
X86381905Y-75104819D01*
X86667619Y-75104819D02*
X86667619Y-74104819D01*
X86667619Y-74104819D02*
X86572381Y-74247676D01*
X86572381Y-74247676D02*
X86477143Y-74342914D01*
X86477143Y-74342914D02*
X86381905Y-74390533D01*
X87810476Y-74438152D02*
X87810476Y-75104819D01*
X87381905Y-74438152D02*
X87381905Y-74961961D01*
X87381905Y-74961961D02*
X87429524Y-75057200D01*
X87429524Y-75057200D02*
X87524762Y-75104819D01*
X87524762Y-75104819D02*
X87667619Y-75104819D01*
X87667619Y-75104819D02*
X87762857Y-75057200D01*
X87762857Y-75057200D02*
X87810476Y-75009580D01*
X81047761Y-72661795D02*
X80590618Y-72661795D01*
X80819190Y-72661795D02*
X80819190Y-71861795D01*
X80819190Y-71861795D02*
X80742999Y-71976080D01*
X80742999Y-71976080D02*
X80666809Y-72052271D01*
X80666809Y-72052271D02*
X80590618Y-72090366D01*
X81543000Y-71861795D02*
X81619190Y-71861795D01*
X81619190Y-71861795D02*
X81695381Y-71899890D01*
X81695381Y-71899890D02*
X81733476Y-71937985D01*
X81733476Y-71937985D02*
X81771571Y-72014176D01*
X81771571Y-72014176D02*
X81809666Y-72166557D01*
X81809666Y-72166557D02*
X81809666Y-72357033D01*
X81809666Y-72357033D02*
X81771571Y-72509414D01*
X81771571Y-72509414D02*
X81733476Y-72585604D01*
X81733476Y-72585604D02*
X81695381Y-72623700D01*
X81695381Y-72623700D02*
X81619190Y-72661795D01*
X81619190Y-72661795D02*
X81543000Y-72661795D01*
X81543000Y-72661795D02*
X81466809Y-72623700D01*
X81466809Y-72623700D02*
X81428714Y-72585604D01*
X81428714Y-72585604D02*
X81390619Y-72509414D01*
X81390619Y-72509414D02*
X81352523Y-72357033D01*
X81352523Y-72357033D02*
X81352523Y-72166557D01*
X81352523Y-72166557D02*
X81390619Y-72014176D01*
X81390619Y-72014176D02*
X81428714Y-71937985D01*
X81428714Y-71937985D02*
X81466809Y-71899890D01*
X81466809Y-71899890D02*
X81543000Y-71861795D01*
X82304905Y-71861795D02*
X82381095Y-71861795D01*
X82381095Y-71861795D02*
X82457286Y-71899890D01*
X82457286Y-71899890D02*
X82495381Y-71937985D01*
X82495381Y-71937985D02*
X82533476Y-72014176D01*
X82533476Y-72014176D02*
X82571571Y-72166557D01*
X82571571Y-72166557D02*
X82571571Y-72357033D01*
X82571571Y-72357033D02*
X82533476Y-72509414D01*
X82533476Y-72509414D02*
X82495381Y-72585604D01*
X82495381Y-72585604D02*
X82457286Y-72623700D01*
X82457286Y-72623700D02*
X82381095Y-72661795D01*
X82381095Y-72661795D02*
X82304905Y-72661795D01*
X82304905Y-72661795D02*
X82228714Y-72623700D01*
X82228714Y-72623700D02*
X82190619Y-72585604D01*
X82190619Y-72585604D02*
X82152524Y-72509414D01*
X82152524Y-72509414D02*
X82114428Y-72357033D01*
X82114428Y-72357033D02*
X82114428Y-72166557D01*
X82114428Y-72166557D02*
X82152524Y-72014176D01*
X82152524Y-72014176D02*
X82190619Y-71937985D01*
X82190619Y-71937985D02*
X82228714Y-71899890D01*
X82228714Y-71899890D02*
X82304905Y-71861795D01*
X82914429Y-72128461D02*
X82914429Y-72661795D01*
X82914429Y-72204652D02*
X82952524Y-72166557D01*
X82952524Y-72166557D02*
X83028714Y-72128461D01*
X83028714Y-72128461D02*
X83143000Y-72128461D01*
X83143000Y-72128461D02*
X83219191Y-72166557D01*
X83219191Y-72166557D02*
X83257286Y-72242747D01*
X83257286Y-72242747D02*
X83257286Y-72661795D01*
X103354819Y-66002857D02*
X103354819Y-66574285D01*
X103354819Y-66288571D02*
X102354819Y-66288571D01*
X102354819Y-66288571D02*
X102497676Y-66383809D01*
X102497676Y-66383809D02*
X102592914Y-66479047D01*
X102592914Y-66479047D02*
X102640533Y-66574285D01*
X102354819Y-65383809D02*
X102354819Y-65288571D01*
X102354819Y-65288571D02*
X102402438Y-65193333D01*
X102402438Y-65193333D02*
X102450057Y-65145714D01*
X102450057Y-65145714D02*
X102545295Y-65098095D01*
X102545295Y-65098095D02*
X102735771Y-65050476D01*
X102735771Y-65050476D02*
X102973866Y-65050476D01*
X102973866Y-65050476D02*
X103164342Y-65098095D01*
X103164342Y-65098095D02*
X103259580Y-65145714D01*
X103259580Y-65145714D02*
X103307200Y-65193333D01*
X103307200Y-65193333D02*
X103354819Y-65288571D01*
X103354819Y-65288571D02*
X103354819Y-65383809D01*
X103354819Y-65383809D02*
X103307200Y-65479047D01*
X103307200Y-65479047D02*
X103259580Y-65526666D01*
X103259580Y-65526666D02*
X103164342Y-65574285D01*
X103164342Y-65574285D02*
X102973866Y-65621904D01*
X102973866Y-65621904D02*
X102735771Y-65621904D01*
X102735771Y-65621904D02*
X102545295Y-65574285D01*
X102545295Y-65574285D02*
X102450057Y-65526666D01*
X102450057Y-65526666D02*
X102402438Y-65479047D01*
X102402438Y-65479047D02*
X102354819Y-65383809D01*
X102688152Y-64193333D02*
X103354819Y-64193333D01*
X102688152Y-64621904D02*
X103211961Y-64621904D01*
X103211961Y-64621904D02*
X103307200Y-64574285D01*
X103307200Y-64574285D02*
X103354819Y-64479047D01*
X103354819Y-64479047D02*
X103354819Y-64336190D01*
X103354819Y-64336190D02*
X103307200Y-64240952D01*
X103307200Y-64240952D02*
X103259580Y-64193333D01*
X95314095Y-67993200D02*
X95456952Y-68040819D01*
X95456952Y-68040819D02*
X95695047Y-68040819D01*
X95695047Y-68040819D02*
X95790285Y-67993200D01*
X95790285Y-67993200D02*
X95837904Y-67945580D01*
X95837904Y-67945580D02*
X95885523Y-67850342D01*
X95885523Y-67850342D02*
X95885523Y-67755104D01*
X95885523Y-67755104D02*
X95837904Y-67659866D01*
X95837904Y-67659866D02*
X95790285Y-67612247D01*
X95790285Y-67612247D02*
X95695047Y-67564628D01*
X95695047Y-67564628D02*
X95504571Y-67517009D01*
X95504571Y-67517009D02*
X95409333Y-67469390D01*
X95409333Y-67469390D02*
X95361714Y-67421771D01*
X95361714Y-67421771D02*
X95314095Y-67326533D01*
X95314095Y-67326533D02*
X95314095Y-67231295D01*
X95314095Y-67231295D02*
X95361714Y-67136057D01*
X95361714Y-67136057D02*
X95409333Y-67088438D01*
X95409333Y-67088438D02*
X95504571Y-67040819D01*
X95504571Y-67040819D02*
X95742666Y-67040819D01*
X95742666Y-67040819D02*
X95885523Y-67088438D01*
X96314095Y-68040819D02*
X96314095Y-67040819D01*
X96314095Y-67040819D02*
X96695047Y-67040819D01*
X96695047Y-67040819D02*
X96790285Y-67088438D01*
X96790285Y-67088438D02*
X96837904Y-67136057D01*
X96837904Y-67136057D02*
X96885523Y-67231295D01*
X96885523Y-67231295D02*
X96885523Y-67374152D01*
X96885523Y-67374152D02*
X96837904Y-67469390D01*
X96837904Y-67469390D02*
X96790285Y-67517009D01*
X96790285Y-67517009D02*
X96695047Y-67564628D01*
X96695047Y-67564628D02*
X96314095Y-67564628D01*
X97314095Y-68040819D02*
X97314095Y-67040819D01*
X97885523Y-68040819D02*
X97456952Y-67469390D01*
X97885523Y-67040819D02*
X97314095Y-67612247D01*
X98837904Y-68040819D02*
X98266476Y-68040819D01*
X98552190Y-68040819D02*
X98552190Y-67040819D01*
X98552190Y-67040819D02*
X98456952Y-67183676D01*
X98456952Y-67183676D02*
X98361714Y-67278914D01*
X98361714Y-67278914D02*
X98266476Y-67326533D01*
D11*
%TO.C,GAIN1*%
X100080000Y-51560000D02*
X101410000Y-51560000D01*
X100080000Y-52890000D02*
X100080000Y-51560000D01*
X100080000Y-54160000D02*
X100080000Y-59300000D01*
X100080000Y-54160000D02*
X102740000Y-54160000D01*
X100080000Y-59300000D02*
X102740000Y-59300000D01*
X102740000Y-54160000D02*
X102740000Y-59300000D01*
%TO.C,TP1*%
X79260000Y-46460000D02*
X81660000Y-46460000D01*
X79260000Y-48860000D02*
X79260000Y-46460000D01*
X81660000Y-46460000D02*
X81660000Y-48860000D01*
X81660000Y-48860000D02*
X79260000Y-48860000D01*
%TO.C,D8*%
X65672500Y-47278000D02*
X69072500Y-47278000D01*
X65672500Y-48151000D02*
X65672500Y-47278000D01*
X65672500Y-49278000D02*
X65672500Y-48151000D01*
X69072500Y-47278000D02*
X69072500Y-49278000D01*
X69072500Y-49278000D02*
X65672500Y-49278000D01*
D12*
X66772500Y-47278000D02*
X66372500Y-47278000D01*
X66372500Y-47078000D01*
X66772500Y-47078000D01*
X66772500Y-47278000D01*
G36*
X66772500Y-47278000D02*
G01*
X66372500Y-47278000D01*
X66372500Y-47078000D01*
X66772500Y-47078000D01*
X66772500Y-47278000D01*
G37*
X66772500Y-49478000D02*
X66372500Y-49478000D01*
X66372500Y-49278000D01*
X66772500Y-49278000D01*
X66772500Y-49478000D01*
G36*
X66772500Y-49478000D02*
G01*
X66372500Y-49478000D01*
X66372500Y-49278000D01*
X66772500Y-49278000D01*
X66772500Y-49478000D01*
G37*
D11*
%TO.C,C5*%
X74702000Y-68584248D02*
X74702000Y-70006752D01*
X76522000Y-68584248D02*
X76522000Y-70006752D01*
%TO.C,RV1*%
X82570000Y-48920000D02*
X82570000Y-47590000D01*
X83900000Y-48920000D02*
X82570000Y-48920000D01*
X85170000Y-46260000D02*
X90310000Y-46260000D01*
X85170000Y-48920000D02*
X85170000Y-46260000D01*
X85170000Y-48920000D02*
X90310000Y-48920000D01*
X90310000Y-48920000D02*
X90310000Y-46260000D01*
%TO.C,J2*%
X94174000Y-63186000D02*
X94174000Y-65846000D01*
X96774000Y-63186000D02*
X94174000Y-63186000D01*
X96774000Y-63186000D02*
X96774000Y-65846000D01*
X96774000Y-65846000D02*
X94174000Y-65846000D01*
X98044000Y-63186000D02*
X99374000Y-63186000D01*
X99374000Y-63186000D02*
X99374000Y-64516000D01*
%TO.C,C8*%
X76800000Y-50251252D02*
X76800000Y-48828748D01*
X78620000Y-50251252D02*
X78620000Y-48828748D01*
%TO.C,C10*%
X57230748Y-61228000D02*
X58653252Y-61228000D01*
X57230748Y-63048000D02*
X58653252Y-63048000D01*
%TO.C,L1*%
X54836758Y-47428000D02*
X56507242Y-47428000D01*
X54836758Y-49248000D02*
X56507242Y-49248000D01*
%TO.C,C11*%
X51227000Y-59456752D02*
X51227000Y-58034248D01*
X53047000Y-59456752D02*
X53047000Y-58034248D01*
%TO.C,C6*%
X72610752Y-64298000D02*
X71188248Y-64298000D01*
X72610752Y-66118000D02*
X71188248Y-66118000D01*
%TO.C,R14*%
X66402936Y-61596000D02*
X67857064Y-61596000D01*
X66402936Y-63416000D02*
X67857064Y-63416000D01*
%TO.C,C9*%
X73139752Y-61596000D02*
X71717248Y-61596000D01*
X73139752Y-63416000D02*
X71717248Y-63416000D01*
%TO.C,C3*%
X78027000Y-68546748D02*
X78027000Y-69969252D01*
X79847000Y-68546748D02*
X79847000Y-69969252D01*
%TO.C,C19*%
X87048752Y-64820000D02*
X85626248Y-64820000D01*
X87048752Y-66640000D02*
X85626248Y-66640000D01*
%TO.C,L2*%
X76426758Y-64348000D02*
X78097242Y-64348000D01*
X76426758Y-66168000D02*
X78097242Y-66168000D01*
%TO.C,JP1*%
X50788000Y-69050000D02*
X50788000Y-71710000D01*
X71168000Y-69050000D02*
X50788000Y-69050000D01*
X71168000Y-69050000D02*
X71168000Y-71710000D01*
X71168000Y-71710000D02*
X50788000Y-71710000D01*
X73768000Y-70380000D02*
X73768000Y-71710000D01*
X73768000Y-71710000D02*
X72438000Y-71710000D01*
%TO.C,C12*%
X90228248Y-62333000D02*
X91650752Y-62333000D01*
X90228248Y-64153000D02*
X91650752Y-64153000D01*
%TO.C,C2*%
X97032000Y-54281252D02*
X97032000Y-52858748D01*
X98852000Y-54281252D02*
X98852000Y-52858748D01*
%TO.C,C13*%
X90102000Y-69666748D02*
X90102000Y-71089252D01*
X91922000Y-69666748D02*
X91922000Y-71089252D01*
%TO.C,TP2*%
X92678000Y-45512000D02*
X95078000Y-45512000D01*
X92678000Y-47912000D02*
X92678000Y-45512000D01*
X95078000Y-45512000D02*
X95078000Y-47912000D01*
X95078000Y-47912000D02*
X92678000Y-47912000D01*
%TO.C,C17*%
X51202000Y-63896748D02*
X51202000Y-65319252D01*
X53022000Y-63896748D02*
X53022000Y-65319252D01*
%TO.C,C21*%
X66477000Y-65671748D02*
X66477000Y-67094252D01*
X68297000Y-65671748D02*
X68297000Y-67094252D01*
%TO.C,C16*%
X61980000Y-62881248D02*
X61980000Y-64303752D01*
X63800000Y-62881248D02*
X63800000Y-64303752D01*
%TO.C,R13*%
X53962000Y-65670936D02*
X53962000Y-67125064D01*
X55782000Y-65670936D02*
X55782000Y-67125064D01*
%TO.C,R1*%
X83466000Y-62471064D02*
X83466000Y-61016936D01*
X85286000Y-62471064D02*
X85286000Y-61016936D01*
%TO.C,Rin1*%
X94177064Y-48868000D02*
X92722936Y-48868000D01*
X94177064Y-50688000D02*
X92722936Y-50688000D01*
%TO.C,J1*%
X45352000Y-68478000D02*
X45352000Y-69588000D01*
X45352000Y-71268000D02*
X45352000Y-72378000D01*
X49062000Y-68478000D02*
X49062000Y-69588000D01*
X49062000Y-71268000D02*
X49062000Y-72378000D01*
X49612000Y-70428000D02*
X50112000Y-70678000D01*
X50112000Y-70178000D02*
X49612000Y-70428000D01*
X50112000Y-70678000D02*
X50112000Y-70178000D01*
%TO.C,C1*%
X74117252Y-47604000D02*
X72694748Y-47604000D01*
X74117252Y-49424000D02*
X72694748Y-49424000D01*
%TO.C,R2*%
X83466000Y-56883064D02*
X83466000Y-55428936D01*
X85286000Y-56883064D02*
X85286000Y-55428936D01*
%TO.C,U4*%
X86210000Y-68200000D02*
X86210000Y-69130000D01*
X86210000Y-68200000D02*
X87670000Y-68200000D01*
X86210000Y-71360000D02*
X86210000Y-70430000D01*
X87010000Y-71360000D02*
X86210000Y-71360000D01*
X87010000Y-71360000D02*
X87810000Y-71360000D01*
X88550000Y-71720000D02*
X88070000Y-71720000D01*
X88310000Y-71390000D01*
X88550000Y-71720000D01*
G36*
X88550000Y-71720000D02*
G01*
X88070000Y-71720000D01*
X88310000Y-71390000D01*
X88550000Y-71720000D01*
G37*
%TO.C,D7*%
X61782000Y-47258000D02*
X65182000Y-47258000D01*
X61782000Y-49258000D02*
X61782000Y-47258000D01*
X65182000Y-47258000D02*
X65182000Y-48385000D01*
X65182000Y-48385000D02*
X65182000Y-49258000D01*
X65182000Y-49258000D02*
X61782000Y-49258000D01*
D12*
X64482000Y-47258000D02*
X64082000Y-47258000D01*
X64082000Y-47058000D01*
X64482000Y-47058000D01*
X64482000Y-47258000D01*
G36*
X64482000Y-47258000D02*
G01*
X64082000Y-47258000D01*
X64082000Y-47058000D01*
X64482000Y-47058000D01*
X64482000Y-47258000D01*
G37*
X64482000Y-49458000D02*
X64082000Y-49458000D01*
X64082000Y-49258000D01*
X64482000Y-49258000D01*
X64482000Y-49458000D01*
G36*
X64482000Y-49458000D02*
G01*
X64082000Y-49458000D01*
X64082000Y-49258000D01*
X64482000Y-49258000D01*
X64482000Y-49458000D01*
G37*
D11*
%TO.C,C18*%
X86331248Y-71930000D02*
X87753752Y-71930000D01*
X86331248Y-73750000D02*
X87753752Y-73750000D01*
%TO.C,C4*%
X80930000Y-68536248D02*
X80930000Y-69958752D01*
X82750000Y-68536248D02*
X82750000Y-69958752D01*
%TO.C,C14*%
X100182000Y-64351248D02*
X100182000Y-65773752D01*
X102002000Y-64351248D02*
X102002000Y-65773752D01*
%TO.C,U1*%
X54532000Y-50118000D02*
X54532000Y-60398000D01*
X54532000Y-60398000D02*
X75092000Y-60398000D01*
X54592000Y-52608000D02*
X54592000Y-54258000D01*
X54592000Y-56258000D02*
X54592000Y-57908000D01*
X54592000Y-57908000D02*
X75032000Y-57908000D01*
X75032000Y-52608000D02*
X54592000Y-52608000D01*
X75032000Y-57908000D02*
X75032000Y-52608000D01*
X75092000Y-50118000D02*
X54532000Y-50118000D01*
X75092000Y-60398000D02*
X75092000Y-50118000D01*
X54592000Y-54258000D02*
G75*
G02*
X54592000Y-56258000I0J-1000000D01*
G01*
%TO.C,SPK1*%
X93352000Y-79430000D02*
X105362000Y-79430000D01*
X105362000Y-68420000D01*
X93352000Y-68420000D01*
X93352000Y-79430000D01*
%TO.C,U2*%
X88602000Y-51393000D02*
X88602000Y-61673000D01*
X88602000Y-61673000D02*
X90252000Y-61673000D01*
X92252000Y-61673000D02*
X93902000Y-61673000D01*
X93902000Y-51393000D02*
X88602000Y-51393000D01*
X93902000Y-61673000D02*
X93902000Y-51393000D01*
X90252000Y-61673000D02*
G75*
G02*
X92252000Y-61673000I1000000J0D01*
G01*
%TD*%
%LPC*%
D13*
%TO.C,GAIN1*%
X101410000Y-52890000D03*
D14*
X101410000Y-55430000D03*
X101410000Y-57970000D03*
%TD*%
D15*
%TO.C,TP1*%
X80460000Y-47660000D03*
%TD*%
D16*
%TO.C,D8*%
X66435000Y-48278000D03*
X68310000Y-48278000D03*
%TD*%
D17*
%TO.C,C5*%
X75612000Y-67733000D03*
X75612000Y-70858000D03*
%TD*%
D13*
%TO.C,RV1*%
X83900000Y-47590000D03*
D14*
X86440000Y-47590000D03*
X88980000Y-47590000D03*
%TD*%
D13*
%TO.C,J2*%
X98044000Y-64516000D03*
D14*
X95504000Y-64516000D03*
%TD*%
D18*
%TO.C,C8*%
X77710000Y-51102500D03*
X77710000Y-47977500D03*
%TD*%
D19*
%TO.C,C10*%
X56379500Y-62138000D03*
X59504500Y-62138000D03*
%TD*%
D20*
%TO.C,L1*%
X54009500Y-48338000D03*
X57334500Y-48338000D03*
%TD*%
D18*
%TO.C,C11*%
X52137000Y-60308000D03*
X52137000Y-57183000D03*
%TD*%
D21*
%TO.C,C6*%
X73462000Y-65208000D03*
X70337000Y-65208000D03*
%TD*%
D22*
%TO.C,R14*%
X65580000Y-62506000D03*
X68680000Y-62506000D03*
%TD*%
D21*
%TO.C,C9*%
X73991000Y-62506000D03*
X70866000Y-62506000D03*
%TD*%
D23*
%TO.C,H2*%
X90600000Y-76984000D03*
%TD*%
%TO.C,H4*%
X47649274Y-77087274D03*
%TD*%
D17*
%TO.C,C3*%
X78937000Y-67695500D03*
X78937000Y-70820500D03*
%TD*%
D23*
%TO.C,H1*%
X47649274Y-45892726D03*
%TD*%
D21*
%TO.C,C19*%
X87900000Y-65730000D03*
X84775000Y-65730000D03*
%TD*%
D20*
%TO.C,L2*%
X75599500Y-65258000D03*
X78924500Y-65258000D03*
%TD*%
D13*
%TO.C,JP1*%
X72438000Y-70380000D03*
D14*
X69898000Y-70380000D03*
X67358000Y-70380000D03*
X64818000Y-70380000D03*
X62278000Y-70380000D03*
X59738000Y-70380000D03*
X57198000Y-70380000D03*
X54658000Y-70380000D03*
X52118000Y-70380000D03*
%TD*%
D19*
%TO.C,C12*%
X89377000Y-63243000D03*
X92502000Y-63243000D03*
%TD*%
D18*
%TO.C,C2*%
X97942000Y-55132500D03*
X97942000Y-52007500D03*
%TD*%
D17*
%TO.C,C13*%
X91012000Y-68815500D03*
X91012000Y-71940500D03*
%TD*%
D15*
%TO.C,TP2*%
X93878000Y-46712000D03*
%TD*%
D17*
%TO.C,C17*%
X52112000Y-63045500D03*
X52112000Y-66170500D03*
%TD*%
%TO.C,C21*%
X67387000Y-64820500D03*
X67387000Y-67945500D03*
%TD*%
%TO.C,C16*%
X62890000Y-62030000D03*
X62890000Y-65155000D03*
%TD*%
D24*
%TO.C,R13*%
X54872000Y-64848000D03*
X54872000Y-67948000D03*
%TD*%
D25*
%TO.C,R1*%
X84376000Y-63294000D03*
X84376000Y-60194000D03*
%TD*%
D26*
%TO.C,Rin1*%
X95000000Y-49778000D03*
X91900000Y-49778000D03*
%TD*%
D27*
%TO.C,J1*%
X47152000Y-70428000D03*
D28*
X47352000Y-67603000D03*
X47352000Y-73253000D03*
%TD*%
D23*
%TO.C,H3*%
X103046000Y-45996000D03*
%TD*%
D21*
%TO.C,C1*%
X74968500Y-48514000D03*
X71843500Y-48514000D03*
%TD*%
D25*
%TO.C,R2*%
X84376000Y-57706000D03*
X84376000Y-54606000D03*
%TD*%
D29*
%TO.C,U4*%
X88470000Y-70730000D03*
X88470000Y-68830000D03*
X85470000Y-69780000D03*
%TD*%
D30*
%TO.C,D7*%
X64419500Y-48258000D03*
X62544500Y-48258000D03*
%TD*%
D19*
%TO.C,C18*%
X85480000Y-72840000D03*
X88605000Y-72840000D03*
%TD*%
D17*
%TO.C,C4*%
X81840000Y-67685000D03*
X81840000Y-70810000D03*
%TD*%
%TO.C,C14*%
X101092000Y-63500000D03*
X101092000Y-66625000D03*
%TD*%
D31*
%TO.C,U1*%
X55922000Y-59068000D03*
D32*
X58462000Y-59068000D03*
X61002000Y-59068000D03*
X63542000Y-59068000D03*
X66082000Y-59068000D03*
X68622000Y-59068000D03*
X71162000Y-59068000D03*
X73702000Y-59068000D03*
X73702000Y-51448000D03*
X71162000Y-51448000D03*
X68622000Y-51448000D03*
X66082000Y-51448000D03*
X63542000Y-51448000D03*
X61002000Y-51448000D03*
X58462000Y-51448000D03*
X55922000Y-51448000D03*
%TD*%
D33*
%TO.C,SPK1*%
X94362000Y-78420000D03*
X104362000Y-78420000D03*
X94362000Y-75920000D03*
X104362000Y-75920000D03*
X99362000Y-70920000D03*
D34*
X94362000Y-70920000D03*
X96862000Y-70920000D03*
D35*
X99362000Y-75920000D03*
D34*
X104362000Y-70920000D03*
X101862000Y-70920000D03*
%TD*%
D31*
%TO.C,U2*%
X95062000Y-60343000D03*
D32*
X95062000Y-57803000D03*
X95062000Y-55263000D03*
X95062000Y-52723000D03*
X87442000Y-52723000D03*
X87442000Y-55263000D03*
X87442000Y-57803000D03*
X87442000Y-60343000D03*
%TD*%
%LPD*%
M02*
