%TF.GenerationSoftware,KiCad,Pcbnew,8.99.0-unknown-8e286d44fc~178~ubuntu22.04.1*%
%TF.CreationDate,2024-05-23T21:37:30+05:30*%
%TF.ProjectId,BoB,426f422e-6b69-4636-9164-5f7063625858,rev?*%
%TF.SameCoordinates,Original*%
%TF.FileFunction,Paste,Top*%
%TF.FilePolarity,Positive*%
%FSLAX46Y46*%
G04 Gerber Fmt 4.6, Leading zero omitted, Abs format (unit mm)*
G04 Created by KiCad (PCBNEW 8.99.0-unknown-8e286d44fc~178~ubuntu22.04.1) date 2024-05-23 21:37:30*
%MOMM*%
%LPD*%
G01*
G04 APERTURE LIST*
G04 Aperture macros list*
%AMRoundRect*
0 Rectangle with rounded corners*
0 $1 Rounding radius*
0 $2 $3 $4 $5 $6 $7 $8 $9 X,Y pos of 4 corners*
0 Add a 4 corners polygon primitive as box body*
4,1,4,$2,$3,$4,$5,$6,$7,$8,$9,$2,$3,0*
0 Add four circle primitives for the rounded corners*
1,1,$1+$1,$2,$3*
1,1,$1+$1,$4,$5*
1,1,$1+$1,$6,$7*
1,1,$1+$1,$8,$9*
0 Add four rect primitives between the rounded corners*
20,1,$1+$1,$2,$3,$4,$5,0*
20,1,$1+$1,$4,$5,$6,$7,0*
20,1,$1+$1,$6,$7,$8,$9,0*
20,1,$1+$1,$8,$9,$2,$3,0*%
G04 Aperture macros list end*
%ADD10RoundRect,0.243750X-0.243750X-0.456250X0.243750X-0.456250X0.243750X0.456250X-0.243750X0.456250X0*%
%ADD11RoundRect,0.250000X-0.650000X0.412500X-0.650000X-0.412500X0.650000X-0.412500X0.650000X0.412500X0*%
%ADD12RoundRect,0.250000X0.650000X-0.412500X0.650000X0.412500X-0.650000X0.412500X-0.650000X-0.412500X0*%
%ADD13RoundRect,0.250000X-0.412500X-0.650000X0.412500X-0.650000X0.412500X0.650000X-0.412500X0.650000X0*%
%ADD14RoundRect,0.250000X-0.362500X-0.700000X0.362500X-0.700000X0.362500X0.700000X-0.362500X0.700000X0*%
%ADD15RoundRect,0.250000X0.412500X0.650000X-0.412500X0.650000X-0.412500X-0.650000X0.412500X-0.650000X0*%
%ADD16RoundRect,0.250000X-0.400000X-0.625000X0.400000X-0.625000X0.400000X0.625000X-0.400000X0.625000X0*%
%ADD17RoundRect,0.250000X-0.625000X0.400000X-0.625000X-0.400000X0.625000X-0.400000X0.625000X0.400000X0*%
%ADD18RoundRect,0.250000X0.625000X-0.400000X0.625000X0.400000X-0.625000X0.400000X-0.625000X-0.400000X0*%
%ADD19RoundRect,0.250000X0.400000X0.625000X-0.400000X0.625000X-0.400000X-0.625000X0.400000X-0.625000X0*%
%ADD20R,3.600000X1.270000*%
%ADD21R,4.200000X1.350000*%
%ADD22RoundRect,0.200000X0.750000X0.200000X-0.750000X0.200000X-0.750000X-0.200000X0.750000X-0.200000X0*%
%ADD23RoundRect,0.243750X0.243750X0.456250X-0.243750X0.456250X-0.243750X-0.456250X0.243750X-0.456250X0*%
G04 APERTURE END LIST*
D10*
%TO.C,D8*%
X66435000Y-48278000D03*
X68310000Y-48278000D03*
%TD*%
D11*
%TO.C,C5*%
X75612000Y-67733000D03*
X75612000Y-70858000D03*
%TD*%
D12*
%TO.C,C8*%
X77710000Y-51102500D03*
X77710000Y-47977500D03*
%TD*%
D13*
%TO.C,C10*%
X56379500Y-62138000D03*
X59504500Y-62138000D03*
%TD*%
D14*
%TO.C,L1*%
X54009500Y-48338000D03*
X57334500Y-48338000D03*
%TD*%
D12*
%TO.C,C11*%
X52137000Y-60308000D03*
X52137000Y-57183000D03*
%TD*%
D15*
%TO.C,C6*%
X73462000Y-65208000D03*
X70337000Y-65208000D03*
%TD*%
D16*
%TO.C,R14*%
X65580000Y-62506000D03*
X68680000Y-62506000D03*
%TD*%
D15*
%TO.C,C9*%
X73991000Y-62506000D03*
X70866000Y-62506000D03*
%TD*%
D11*
%TO.C,C3*%
X78937000Y-67695500D03*
X78937000Y-70820500D03*
%TD*%
D15*
%TO.C,C19*%
X87900000Y-65730000D03*
X84775000Y-65730000D03*
%TD*%
D14*
%TO.C,L2*%
X75599500Y-65258000D03*
X78924500Y-65258000D03*
%TD*%
D13*
%TO.C,C12*%
X89377000Y-63243000D03*
X92502000Y-63243000D03*
%TD*%
D12*
%TO.C,C2*%
X97942000Y-55132500D03*
X97942000Y-52007500D03*
%TD*%
D11*
%TO.C,C13*%
X91012000Y-68815500D03*
X91012000Y-71940500D03*
%TD*%
%TO.C,C17*%
X52112000Y-63045500D03*
X52112000Y-66170500D03*
%TD*%
%TO.C,C21*%
X67387000Y-64820500D03*
X67387000Y-67945500D03*
%TD*%
%TO.C,C16*%
X62890000Y-62030000D03*
X62890000Y-65155000D03*
%TD*%
D17*
%TO.C,R13*%
X54872000Y-64848000D03*
X54872000Y-67948000D03*
%TD*%
D18*
%TO.C,R1*%
X84376000Y-63294000D03*
X84376000Y-60194000D03*
%TD*%
D19*
%TO.C,Rin1*%
X95000000Y-49778000D03*
X91900000Y-49778000D03*
%TD*%
D20*
%TO.C,J1*%
X47152000Y-70428000D03*
D21*
X47352000Y-67603000D03*
X47352000Y-73253000D03*
%TD*%
D15*
%TO.C,C1*%
X74968500Y-48514000D03*
X71843500Y-48514000D03*
%TD*%
D18*
%TO.C,R2*%
X84376000Y-57706000D03*
X84376000Y-54606000D03*
%TD*%
D22*
%TO.C,U4*%
X88470000Y-70730000D03*
X88470000Y-68830000D03*
X85470000Y-69780000D03*
%TD*%
D23*
%TO.C,D7*%
X64419500Y-48258000D03*
X62544500Y-48258000D03*
%TD*%
D13*
%TO.C,C18*%
X85480000Y-72840000D03*
X88605000Y-72840000D03*
%TD*%
D11*
%TO.C,C4*%
X81840000Y-67685000D03*
X81840000Y-70810000D03*
%TD*%
%TO.C,C14*%
X101092000Y-63500000D03*
X101092000Y-66625000D03*
%TD*%
M02*
