%TF.GenerationSoftware,KiCad,Pcbnew,8.0.0~rc2-1e5b68cb87~176~ubuntu22.04.1*%
%TF.CreationDate,2024-02-07T10:24:23+05:30*%
%TF.ProjectId,BoB,426f422e-6b69-4636-9164-5f7063625858,rev?*%
%TF.SameCoordinates,Original*%
%TF.FileFunction,Copper,L2,Bot*%
%TF.FilePolarity,Positive*%
%FSLAX46Y46*%
G04 Gerber Fmt 4.6, Leading zero omitted, Abs format (unit mm)*
G04 Created by KiCad (PCBNEW 8.0.0~rc2-1e5b68cb87~176~ubuntu22.04.1) date 2024-02-07 10:24:23*
%MOMM*%
%LPD*%
G01*
G04 APERTURE LIST*
%TA.AperFunction,ComponentPad*%
%ADD10C,0.700000*%
%TD*%
%TA.AperFunction,ComponentPad*%
%ADD11C,4.400000*%
%TD*%
%TA.AperFunction,ComponentPad*%
%ADD12R,1.700000X1.700000*%
%TD*%
%TA.AperFunction,ComponentPad*%
%ADD13O,1.700000X1.700000*%
%TD*%
%TA.AperFunction,ViaPad*%
%ADD14C,0.800000*%
%TD*%
%TA.AperFunction,Conductor*%
%ADD15C,1.000000*%
%TD*%
G04 APERTURE END LIST*
D10*
%TO.P,H2,1,1*%
%TO.N,GND*%
X86531100Y-75898600D03*
X86047826Y-77065326D03*
X86047826Y-74731874D03*
X84881100Y-77548600D03*
D11*
X84881100Y-75898600D03*
D10*
X84881100Y-74248600D03*
X83714374Y-77065326D03*
X83714374Y-74731874D03*
X83231100Y-75898600D03*
%TD*%
%TO.P,H1,1,1*%
%TO.N,GND*%
X61160000Y-59380000D03*
X60676726Y-60546726D03*
X60676726Y-58213274D03*
X59510000Y-61030000D03*
D11*
X59510000Y-59380000D03*
D10*
X59510000Y-57730000D03*
X58343274Y-60546726D03*
X58343274Y-58213274D03*
X57860000Y-59380000D03*
%TD*%
D12*
%TO.P,JP1,1,Pin_1*%
%TO.N,+5V*%
X81090000Y-76010000D03*
D13*
%TO.P,JP1,2,Pin_2*%
%TO.N,SDA*%
X78550000Y-76010000D03*
%TO.P,JP1,3,Pin_3*%
%TO.N,SCL*%
X76010000Y-76010000D03*
%TO.P,JP1,4,Pin_4*%
%TO.N,RST*%
X73470000Y-76010000D03*
%TO.P,JP1,5,Pin_5*%
%TO.N,RX_OSC*%
X70930000Y-76010000D03*
%TO.P,JP1,6,Pin_6*%
%TO.N,LEFT*%
X68390000Y-76010000D03*
%TO.P,JP1,7,Pin_7*%
%TO.N,RIGHT*%
X65850000Y-76010000D03*
%TO.P,JP1,8,Pin_8*%
%TO.N,GND*%
X63310000Y-76010000D03*
%TO.P,JP1,9,Pin_9*%
%TO.N,Net-(JP1-Pin_9)*%
X60770000Y-76010000D03*
%TD*%
D14*
%TO.N,RX_OSC*%
X81026000Y-70104000D03*
X70930000Y-73330000D03*
%TO.N,GND*%
X77790000Y-69060000D03*
X64536100Y-72063600D03*
X67076100Y-64443600D03*
X59456100Y-64443600D03*
X67076100Y-61903600D03*
X59456100Y-77143600D03*
X61996100Y-66983600D03*
X59456100Y-66983600D03*
X64536100Y-64443600D03*
X79776100Y-59363600D03*
X79776100Y-61903600D03*
X64536100Y-66983600D03*
X64536100Y-61903600D03*
X82625000Y-68600000D03*
X77236100Y-74603600D03*
X61996100Y-61903600D03*
X72190000Y-72160000D03*
X67076100Y-72063600D03*
X61996100Y-64443600D03*
X69616100Y-66983600D03*
X82625000Y-67300000D03*
X67076100Y-66983600D03*
X69616100Y-72063600D03*
X64536100Y-59363600D03*
X82316100Y-59363600D03*
X76880000Y-69040000D03*
X59456100Y-74603600D03*
X84856100Y-59363600D03*
%TO.N,Net-(D1-COM)*%
X64010000Y-70460000D03*
X69770000Y-70300000D03*
%TD*%
D15*
%TO.N,RX_OSC*%
X70930000Y-73330000D02*
X80518000Y-73330000D01*
X81026000Y-72822000D02*
X80518000Y-73330000D01*
X81026000Y-72390000D02*
X81026000Y-70148000D01*
X81026000Y-72390000D02*
X81026000Y-72822000D01*
%TO.N,Net-(D1-COM)*%
X69770000Y-69340000D02*
X69770000Y-70300000D01*
X63980000Y-69088000D02*
X64010000Y-70460000D01*
X69518000Y-69088000D02*
X69770000Y-69340000D01*
X63980000Y-69088000D02*
X69518000Y-69088000D01*
%TD*%
%TA.AperFunction,Conductor*%
%TO.N,GND*%
G36*
X84884836Y-56899326D02*
G01*
X85173691Y-56916798D01*
X85188554Y-56918603D01*
X85469504Y-56970089D01*
X85484041Y-56973672D01*
X85756726Y-57058645D01*
X85770717Y-57063950D01*
X86031195Y-57181181D01*
X86044441Y-57188134D01*
X86288884Y-57335905D01*
X86301196Y-57344403D01*
X86485137Y-57488511D01*
X86526042Y-57520558D01*
X86537250Y-57530488D01*
X86739211Y-57732449D01*
X86749141Y-57743657D01*
X86925292Y-57968498D01*
X86933796Y-57980818D01*
X87081562Y-58225252D01*
X87088521Y-58238511D01*
X87205747Y-58498977D01*
X87211056Y-58512978D01*
X87296026Y-58785657D01*
X87299610Y-58800195D01*
X87351096Y-59081145D01*
X87352901Y-59096010D01*
X87370374Y-59384863D01*
X87370600Y-59392350D01*
X87370600Y-74880158D01*
X87350915Y-74947197D01*
X87298111Y-74992952D01*
X87228953Y-75002896D01*
X87165397Y-74973871D01*
X87134402Y-74932955D01*
X87032297Y-74715973D01*
X87032294Y-74715967D01*
X86867117Y-74455688D01*
X86701265Y-74255208D01*
X86247826Y-74708647D01*
X86247826Y-74692092D01*
X86217378Y-74618583D01*
X86161117Y-74562322D01*
X86087608Y-74531874D01*
X86071048Y-74531874D01*
X86523199Y-74079722D01*
X86523199Y-74079721D01*
X86445877Y-74007111D01*
X86445867Y-74007103D01*
X86196482Y-73825914D01*
X86196464Y-73825902D01*
X85926321Y-73677390D01*
X85926313Y-73677386D01*
X85639693Y-73563906D01*
X85341091Y-73487238D01*
X85341082Y-73487236D01*
X85035252Y-73448600D01*
X84726947Y-73448600D01*
X84421117Y-73487236D01*
X84421108Y-73487238D01*
X84122506Y-73563906D01*
X83835886Y-73677386D01*
X83835878Y-73677390D01*
X83565735Y-73825902D01*
X83565717Y-73825914D01*
X83316332Y-74007103D01*
X83316322Y-74007111D01*
X83238999Y-74079721D01*
X83238998Y-74079722D01*
X83691150Y-74531874D01*
X83674592Y-74531874D01*
X83601083Y-74562322D01*
X83544822Y-74618583D01*
X83514374Y-74692092D01*
X83514374Y-74708650D01*
X83060932Y-74255208D01*
X82895085Y-74455683D01*
X82729905Y-74715967D01*
X82729902Y-74715973D01*
X82598646Y-74994905D01*
X82598644Y-74994910D01*
X82503380Y-75288100D01*
X82445612Y-75590929D01*
X82445611Y-75590936D01*
X82426256Y-75898594D01*
X82426256Y-75898605D01*
X82445611Y-76206263D01*
X82445612Y-76206270D01*
X82503380Y-76509099D01*
X82598644Y-76802289D01*
X82598646Y-76802294D01*
X82729902Y-77081226D01*
X82729905Y-77081232D01*
X82895087Y-77341519D01*
X82895090Y-77341523D01*
X83060932Y-77541990D01*
X83514374Y-77088548D01*
X83514374Y-77105108D01*
X83544822Y-77178617D01*
X83601083Y-77234878D01*
X83674592Y-77265326D01*
X83691150Y-77265326D01*
X83238999Y-77717476D01*
X83238999Y-77717477D01*
X83316322Y-77790088D01*
X83316332Y-77790096D01*
X83565717Y-77971285D01*
X83565735Y-77971297D01*
X83835878Y-78119809D01*
X83835886Y-78119813D01*
X83909119Y-78148808D01*
X83964205Y-78191789D01*
X83987308Y-78257728D01*
X83971094Y-78325691D01*
X83920711Y-78374098D01*
X83863472Y-78388100D01*
X59484851Y-78388100D01*
X59477364Y-78387874D01*
X59188510Y-78370401D01*
X59173645Y-78368596D01*
X58892695Y-78317110D01*
X58878157Y-78313526D01*
X58605478Y-78228556D01*
X58591477Y-78223247D01*
X58331011Y-78106021D01*
X58317752Y-78099062D01*
X58178101Y-78014640D01*
X58073318Y-77951296D01*
X58060998Y-77942792D01*
X57836157Y-77766641D01*
X57824949Y-77756711D01*
X57622988Y-77554750D01*
X57613058Y-77543542D01*
X57528263Y-77435309D01*
X57436903Y-77318696D01*
X57428405Y-77306384D01*
X57280634Y-77061941D01*
X57273681Y-77048695D01*
X57156450Y-76788217D01*
X57151143Y-76774221D01*
X57144917Y-76754242D01*
X57066172Y-76501541D01*
X57062589Y-76487004D01*
X57012913Y-76215932D01*
X57011102Y-76206052D01*
X57009298Y-76191189D01*
X56998338Y-76010000D01*
X59714417Y-76010000D01*
X59734699Y-76215932D01*
X59734700Y-76215934D01*
X59794768Y-76413954D01*
X59892315Y-76596450D01*
X59892317Y-76596452D01*
X60023589Y-76756410D01*
X60062353Y-76788222D01*
X60183550Y-76887685D01*
X60366046Y-76985232D01*
X60564066Y-77045300D01*
X60564065Y-77045300D01*
X60582529Y-77047118D01*
X60770000Y-77065583D01*
X60975934Y-77045300D01*
X61173954Y-76985232D01*
X61356450Y-76887685D01*
X61516410Y-76756410D01*
X61647685Y-76596450D01*
X61745232Y-76413954D01*
X61805300Y-76215934D01*
X61825583Y-76010000D01*
X61813271Y-75884999D01*
X62216869Y-75884999D01*
X62216870Y-75885000D01*
X62825856Y-75885000D01*
X62810000Y-75944174D01*
X62810000Y-76075826D01*
X62825856Y-76135000D01*
X62216870Y-76135000D01*
X62224097Y-76212989D01*
X62224097Y-76212992D01*
X62279883Y-76409063D01*
X62279886Y-76409069D01*
X62370754Y-76591556D01*
X62493608Y-76754242D01*
X62644260Y-76891578D01*
X62817584Y-76998897D01*
X63007678Y-77072539D01*
X63185000Y-77105686D01*
X63185000Y-76494144D01*
X63244174Y-76510000D01*
X63375826Y-76510000D01*
X63435000Y-76494144D01*
X63435000Y-77105686D01*
X63612321Y-77072539D01*
X63802415Y-76998897D01*
X63975739Y-76891578D01*
X64126391Y-76754242D01*
X64249245Y-76591556D01*
X64340113Y-76409069D01*
X64340116Y-76409063D01*
X64395902Y-76212992D01*
X64395902Y-76212989D01*
X64403130Y-76135000D01*
X63794144Y-76135000D01*
X63810000Y-76075826D01*
X63810000Y-76010000D01*
X64794417Y-76010000D01*
X64814699Y-76215932D01*
X64814700Y-76215934D01*
X64874768Y-76413954D01*
X64972315Y-76596450D01*
X64972317Y-76596452D01*
X65103589Y-76756410D01*
X65142353Y-76788222D01*
X65263550Y-76887685D01*
X65446046Y-76985232D01*
X65644066Y-77045300D01*
X65644065Y-77045300D01*
X65662529Y-77047118D01*
X65850000Y-77065583D01*
X66055934Y-77045300D01*
X66253954Y-76985232D01*
X66436450Y-76887685D01*
X66596410Y-76756410D01*
X66727685Y-76596450D01*
X66825232Y-76413954D01*
X66885300Y-76215934D01*
X66905583Y-76010000D01*
X67334417Y-76010000D01*
X67354699Y-76215932D01*
X67354700Y-76215934D01*
X67414768Y-76413954D01*
X67512315Y-76596450D01*
X67512317Y-76596452D01*
X67643589Y-76756410D01*
X67682353Y-76788222D01*
X67803550Y-76887685D01*
X67986046Y-76985232D01*
X68184066Y-77045300D01*
X68184065Y-77045300D01*
X68202529Y-77047118D01*
X68390000Y-77065583D01*
X68595934Y-77045300D01*
X68793954Y-76985232D01*
X68976450Y-76887685D01*
X69136410Y-76756410D01*
X69267685Y-76596450D01*
X69365232Y-76413954D01*
X69425300Y-76215934D01*
X69445583Y-76010000D01*
X69874417Y-76010000D01*
X69894699Y-76215932D01*
X69894700Y-76215934D01*
X69954768Y-76413954D01*
X70052315Y-76596450D01*
X70052317Y-76596452D01*
X70183589Y-76756410D01*
X70222353Y-76788222D01*
X70343550Y-76887685D01*
X70526046Y-76985232D01*
X70724066Y-77045300D01*
X70724065Y-77045300D01*
X70742529Y-77047118D01*
X70930000Y-77065583D01*
X71135934Y-77045300D01*
X71333954Y-76985232D01*
X71516450Y-76887685D01*
X71676410Y-76756410D01*
X71807685Y-76596450D01*
X71905232Y-76413954D01*
X71965300Y-76215934D01*
X71985583Y-76010000D01*
X72414417Y-76010000D01*
X72434699Y-76215932D01*
X72434700Y-76215934D01*
X72494768Y-76413954D01*
X72592315Y-76596450D01*
X72592317Y-76596452D01*
X72723589Y-76756410D01*
X72762353Y-76788222D01*
X72883550Y-76887685D01*
X73066046Y-76985232D01*
X73264066Y-77045300D01*
X73264065Y-77045300D01*
X73282529Y-77047118D01*
X73470000Y-77065583D01*
X73675934Y-77045300D01*
X73873954Y-76985232D01*
X74056450Y-76887685D01*
X74216410Y-76756410D01*
X74347685Y-76596450D01*
X74445232Y-76413954D01*
X74505300Y-76215934D01*
X74525583Y-76010000D01*
X74954417Y-76010000D01*
X74974699Y-76215932D01*
X74974700Y-76215934D01*
X75034768Y-76413954D01*
X75132315Y-76596450D01*
X75132317Y-76596452D01*
X75263589Y-76756410D01*
X75302353Y-76788222D01*
X75423550Y-76887685D01*
X75606046Y-76985232D01*
X75804066Y-77045300D01*
X75804065Y-77045300D01*
X75822529Y-77047118D01*
X76010000Y-77065583D01*
X76215934Y-77045300D01*
X76413954Y-76985232D01*
X76596450Y-76887685D01*
X76756410Y-76756410D01*
X76887685Y-76596450D01*
X76985232Y-76413954D01*
X77045300Y-76215934D01*
X77065583Y-76010000D01*
X77494417Y-76010000D01*
X77514699Y-76215932D01*
X77514700Y-76215934D01*
X77574768Y-76413954D01*
X77672315Y-76596450D01*
X77672317Y-76596452D01*
X77803589Y-76756410D01*
X77842353Y-76788222D01*
X77963550Y-76887685D01*
X78146046Y-76985232D01*
X78344066Y-77045300D01*
X78344065Y-77045300D01*
X78362529Y-77047118D01*
X78550000Y-77065583D01*
X78755934Y-77045300D01*
X78953954Y-76985232D01*
X79136450Y-76887685D01*
X79146116Y-76879752D01*
X80039500Y-76879752D01*
X80051131Y-76938229D01*
X80051132Y-76938230D01*
X80095447Y-77004552D01*
X80161769Y-77048867D01*
X80161770Y-77048868D01*
X80220247Y-77060499D01*
X80220250Y-77060500D01*
X80220252Y-77060500D01*
X81959750Y-77060500D01*
X81959751Y-77060499D01*
X81974568Y-77057552D01*
X82018229Y-77048868D01*
X82018229Y-77048867D01*
X82018231Y-77048867D01*
X82084552Y-77004552D01*
X82128867Y-76938231D01*
X82128867Y-76938229D01*
X82128868Y-76938229D01*
X82140499Y-76879752D01*
X82140500Y-76879750D01*
X82140500Y-75140249D01*
X82140499Y-75140247D01*
X82128868Y-75081770D01*
X82128867Y-75081769D01*
X82084552Y-75015447D01*
X82018230Y-74971132D01*
X82018229Y-74971131D01*
X81959752Y-74959500D01*
X81959748Y-74959500D01*
X80220252Y-74959500D01*
X80220247Y-74959500D01*
X80161770Y-74971131D01*
X80161769Y-74971132D01*
X80095447Y-75015447D01*
X80051132Y-75081769D01*
X80051131Y-75081770D01*
X80039500Y-75140247D01*
X80039500Y-76879752D01*
X79146116Y-76879752D01*
X79296410Y-76756410D01*
X79427685Y-76596450D01*
X79525232Y-76413954D01*
X79585300Y-76215934D01*
X79605583Y-76010000D01*
X79585300Y-75804066D01*
X79525232Y-75606046D01*
X79427685Y-75423550D01*
X79316525Y-75288100D01*
X79296410Y-75263589D01*
X79146121Y-75140252D01*
X79136450Y-75132315D01*
X78953954Y-75034768D01*
X78755934Y-74974700D01*
X78755932Y-74974699D01*
X78755934Y-74974699D01*
X78550000Y-74954417D01*
X78344067Y-74974699D01*
X78146043Y-75034769D01*
X78058114Y-75081769D01*
X77963550Y-75132315D01*
X77963548Y-75132316D01*
X77963547Y-75132317D01*
X77803589Y-75263589D01*
X77672317Y-75423547D01*
X77574769Y-75606043D01*
X77574768Y-75606045D01*
X77574768Y-75606046D01*
X77573285Y-75610936D01*
X77514699Y-75804067D01*
X77494417Y-76010000D01*
X77065583Y-76010000D01*
X77045300Y-75804066D01*
X76985232Y-75606046D01*
X76887685Y-75423550D01*
X76776525Y-75288100D01*
X76756410Y-75263589D01*
X76606121Y-75140252D01*
X76596450Y-75132315D01*
X76413954Y-75034768D01*
X76215934Y-74974700D01*
X76215932Y-74974699D01*
X76215934Y-74974699D01*
X76010000Y-74954417D01*
X75804067Y-74974699D01*
X75606043Y-75034769D01*
X75518114Y-75081769D01*
X75423550Y-75132315D01*
X75423548Y-75132316D01*
X75423547Y-75132317D01*
X75263589Y-75263589D01*
X75132317Y-75423547D01*
X75034769Y-75606043D01*
X75034768Y-75606045D01*
X75034768Y-75606046D01*
X75033285Y-75610936D01*
X74974699Y-75804067D01*
X74954417Y-76010000D01*
X74525583Y-76010000D01*
X74505300Y-75804066D01*
X74445232Y-75606046D01*
X74347685Y-75423550D01*
X74236525Y-75288100D01*
X74216410Y-75263589D01*
X74066121Y-75140252D01*
X74056450Y-75132315D01*
X73873954Y-75034768D01*
X73675934Y-74974700D01*
X73675932Y-74974699D01*
X73675934Y-74974699D01*
X73470000Y-74954417D01*
X73264067Y-74974699D01*
X73066043Y-75034769D01*
X72978114Y-75081769D01*
X72883550Y-75132315D01*
X72883548Y-75132316D01*
X72883547Y-75132317D01*
X72723589Y-75263589D01*
X72592317Y-75423547D01*
X72494769Y-75606043D01*
X72494768Y-75606045D01*
X72494768Y-75606046D01*
X72493285Y-75610936D01*
X72434699Y-75804067D01*
X72414417Y-76010000D01*
X71985583Y-76010000D01*
X71965300Y-75804066D01*
X71905232Y-75606046D01*
X71807685Y-75423550D01*
X71696525Y-75288100D01*
X71676410Y-75263589D01*
X71526121Y-75140252D01*
X71516450Y-75132315D01*
X71333954Y-75034768D01*
X71135934Y-74974700D01*
X71135932Y-74974699D01*
X71135934Y-74974699D01*
X70930000Y-74954417D01*
X70724067Y-74974699D01*
X70526043Y-75034769D01*
X70438114Y-75081769D01*
X70343550Y-75132315D01*
X70343548Y-75132316D01*
X70343547Y-75132317D01*
X70183589Y-75263589D01*
X70052317Y-75423547D01*
X69954769Y-75606043D01*
X69954768Y-75606045D01*
X69954768Y-75606046D01*
X69953285Y-75610936D01*
X69894699Y-75804067D01*
X69874417Y-76010000D01*
X69445583Y-76010000D01*
X69425300Y-75804066D01*
X69365232Y-75606046D01*
X69267685Y-75423550D01*
X69156525Y-75288100D01*
X69136410Y-75263589D01*
X68986121Y-75140252D01*
X68976450Y-75132315D01*
X68793954Y-75034768D01*
X68595934Y-74974700D01*
X68595932Y-74974699D01*
X68595934Y-74974699D01*
X68390000Y-74954417D01*
X68184067Y-74974699D01*
X67986043Y-75034769D01*
X67898114Y-75081769D01*
X67803550Y-75132315D01*
X67803548Y-75132316D01*
X67803547Y-75132317D01*
X67643589Y-75263589D01*
X67512317Y-75423547D01*
X67414769Y-75606043D01*
X67414768Y-75606045D01*
X67414768Y-75606046D01*
X67413285Y-75610936D01*
X67354699Y-75804067D01*
X67334417Y-76010000D01*
X66905583Y-76010000D01*
X66885300Y-75804066D01*
X66825232Y-75606046D01*
X66727685Y-75423550D01*
X66616525Y-75288100D01*
X66596410Y-75263589D01*
X66446121Y-75140252D01*
X66436450Y-75132315D01*
X66253954Y-75034768D01*
X66055934Y-74974700D01*
X66055932Y-74974699D01*
X66055934Y-74974699D01*
X65850000Y-74954417D01*
X65644067Y-74974699D01*
X65446043Y-75034769D01*
X65358114Y-75081769D01*
X65263550Y-75132315D01*
X65263548Y-75132316D01*
X65263547Y-75132317D01*
X65103589Y-75263589D01*
X64972317Y-75423547D01*
X64874769Y-75606043D01*
X64874768Y-75606045D01*
X64874768Y-75606046D01*
X64873285Y-75610936D01*
X64814699Y-75804067D01*
X64794417Y-76010000D01*
X63810000Y-76010000D01*
X63810000Y-75944174D01*
X63794144Y-75885000D01*
X64403130Y-75885000D01*
X64403130Y-75884999D01*
X64395902Y-75807010D01*
X64395902Y-75807007D01*
X64340116Y-75610936D01*
X64340113Y-75610930D01*
X64249245Y-75428443D01*
X64126391Y-75265757D01*
X63975739Y-75128421D01*
X63802415Y-75021102D01*
X63612321Y-74947460D01*
X63435000Y-74914312D01*
X63435000Y-75525855D01*
X63375826Y-75510000D01*
X63244174Y-75510000D01*
X63185000Y-75525855D01*
X63185000Y-74914312D01*
X63007678Y-74947460D01*
X62817584Y-75021102D01*
X62644260Y-75128421D01*
X62493608Y-75265757D01*
X62370754Y-75428443D01*
X62279886Y-75610930D01*
X62279883Y-75610936D01*
X62224097Y-75807007D01*
X62224097Y-75807010D01*
X62216869Y-75884999D01*
X61813271Y-75884999D01*
X61805300Y-75804066D01*
X61745232Y-75606046D01*
X61647685Y-75423550D01*
X61536525Y-75288100D01*
X61516410Y-75263589D01*
X61366121Y-75140252D01*
X61356450Y-75132315D01*
X61173954Y-75034768D01*
X60975934Y-74974700D01*
X60975932Y-74974699D01*
X60975934Y-74974699D01*
X60770000Y-74954417D01*
X60564067Y-74974699D01*
X60366043Y-75034769D01*
X60278114Y-75081769D01*
X60183550Y-75132315D01*
X60183548Y-75132316D01*
X60183547Y-75132317D01*
X60023589Y-75263589D01*
X59892317Y-75423547D01*
X59794769Y-75606043D01*
X59794768Y-75606045D01*
X59794768Y-75606046D01*
X59793285Y-75610936D01*
X59734699Y-75804067D01*
X59714417Y-76010000D01*
X56998338Y-76010000D01*
X56991826Y-75902336D01*
X56991600Y-75894849D01*
X56991600Y-73398995D01*
X70229499Y-73398995D01*
X70256418Y-73534322D01*
X70256421Y-73534332D01*
X70309221Y-73661804D01*
X70309228Y-73661817D01*
X70385885Y-73776541D01*
X70385888Y-73776545D01*
X70483454Y-73874111D01*
X70483458Y-73874114D01*
X70598182Y-73950771D01*
X70598195Y-73950778D01*
X70725667Y-74003578D01*
X70725672Y-74003580D01*
X70725676Y-74003580D01*
X70725677Y-74003581D01*
X70861004Y-74030500D01*
X70861007Y-74030500D01*
X80586996Y-74030500D01*
X80678040Y-74012389D01*
X80722328Y-74003580D01*
X80786069Y-73977177D01*
X80849807Y-73950777D01*
X80849808Y-73950776D01*
X80849811Y-73950775D01*
X80964543Y-73874114D01*
X81570113Y-73268543D01*
X81575149Y-73261007D01*
X81646775Y-73153811D01*
X81699580Y-73026328D01*
X81726500Y-72890993D01*
X81726500Y-72321007D01*
X81726500Y-70079007D01*
X81726500Y-70079004D01*
X81699581Y-69943677D01*
X81699580Y-69943676D01*
X81699580Y-69943672D01*
X81659851Y-69847757D01*
X81646778Y-69816195D01*
X81646771Y-69816182D01*
X81570114Y-69701458D01*
X81570111Y-69701454D01*
X81472545Y-69603888D01*
X81472541Y-69603885D01*
X81357817Y-69527228D01*
X81357804Y-69527221D01*
X81230332Y-69474421D01*
X81230322Y-69474418D01*
X81094995Y-69447500D01*
X81094993Y-69447500D01*
X80957007Y-69447500D01*
X80957005Y-69447500D01*
X80821677Y-69474418D01*
X80821667Y-69474421D01*
X80694195Y-69527221D01*
X80694182Y-69527228D01*
X80579458Y-69603885D01*
X80579454Y-69603888D01*
X80481888Y-69701454D01*
X80481885Y-69701458D01*
X80405228Y-69816182D01*
X80405221Y-69816195D01*
X80352421Y-69943667D01*
X80352418Y-69943677D01*
X80325500Y-70079004D01*
X80325500Y-72480481D01*
X80305815Y-72547520D01*
X80289181Y-72568162D01*
X80264162Y-72593181D01*
X80202839Y-72626666D01*
X80176481Y-72629500D01*
X70861005Y-72629500D01*
X70725677Y-72656418D01*
X70725667Y-72656421D01*
X70598195Y-72709221D01*
X70598182Y-72709228D01*
X70483458Y-72785885D01*
X70483454Y-72785888D01*
X70385888Y-72883454D01*
X70385885Y-72883458D01*
X70309228Y-72998182D01*
X70309221Y-72998195D01*
X70256421Y-73125667D01*
X70256418Y-73125677D01*
X70229500Y-73261004D01*
X70229500Y-73261007D01*
X70229500Y-73398993D01*
X70229500Y-73398995D01*
X70229499Y-73398995D01*
X56991600Y-73398995D01*
X56991600Y-69034342D01*
X63278158Y-69034342D01*
X63279470Y-69094291D01*
X63279500Y-69097003D01*
X63279500Y-69156990D01*
X63280097Y-69163056D01*
X63279892Y-69163076D01*
X63281243Y-69175408D01*
X63311175Y-70544283D01*
X63311175Y-70544287D01*
X63311176Y-70544290D01*
X63330585Y-70631817D01*
X63341048Y-70679003D01*
X63341051Y-70679012D01*
X63396622Y-70805292D01*
X63396624Y-70805296D01*
X63396627Y-70805302D01*
X63396630Y-70805306D01*
X63396631Y-70805308D01*
X63475775Y-70918327D01*
X63475777Y-70918329D01*
X63475778Y-70918330D01*
X63575459Y-71013746D01*
X63691839Y-71087880D01*
X63820446Y-71137886D01*
X63956337Y-71161841D01*
X63956337Y-71161840D01*
X63956338Y-71161841D01*
X63973581Y-71161463D01*
X64094290Y-71158824D01*
X64229004Y-71128952D01*
X64355302Y-71073373D01*
X64468330Y-70994222D01*
X64563746Y-70894541D01*
X64637880Y-70778161D01*
X64687886Y-70649554D01*
X64711841Y-70513663D01*
X64708678Y-70368993D01*
X64698755Y-69915211D01*
X64716969Y-69847757D01*
X64768760Y-69800859D01*
X64822725Y-69788500D01*
X68945500Y-69788500D01*
X69012539Y-69808185D01*
X69058294Y-69860989D01*
X69069500Y-69912500D01*
X69069500Y-70368993D01*
X69069500Y-70368995D01*
X69069499Y-70368995D01*
X69096418Y-70504322D01*
X69096421Y-70504332D01*
X69149221Y-70631804D01*
X69149228Y-70631817D01*
X69225885Y-70746541D01*
X69225888Y-70746545D01*
X69323454Y-70844111D01*
X69323458Y-70844114D01*
X69438182Y-70920771D01*
X69438195Y-70920778D01*
X69565667Y-70973578D01*
X69565672Y-70973580D01*
X69565676Y-70973580D01*
X69565677Y-70973581D01*
X69701004Y-71000500D01*
X69701007Y-71000500D01*
X69838995Y-71000500D01*
X69930041Y-70982389D01*
X69974328Y-70973580D01*
X70101811Y-70920775D01*
X70216542Y-70844114D01*
X70314114Y-70746542D01*
X70390775Y-70631811D01*
X70443580Y-70504328D01*
X70470500Y-70368993D01*
X70470500Y-69271007D01*
X70470500Y-69271004D01*
X70443581Y-69135677D01*
X70443580Y-69135676D01*
X70443580Y-69135672D01*
X70390775Y-69008189D01*
X70387782Y-69003710D01*
X70387781Y-69003708D01*
X70387780Y-69003706D01*
X70314115Y-68893458D01*
X70314109Y-68893451D01*
X69964545Y-68543887D01*
X69849807Y-68467222D01*
X69722332Y-68414421D01*
X69722322Y-68414418D01*
X69586996Y-68387500D01*
X69586994Y-68387500D01*
X69586993Y-68387500D01*
X64052118Y-68387500D01*
X64039752Y-68386418D01*
X64039737Y-68386623D01*
X64033660Y-68386158D01*
X63975197Y-68387437D01*
X63973715Y-68387470D01*
X63971005Y-68387500D01*
X63911007Y-68387500D01*
X63904945Y-68388097D01*
X63904924Y-68387893D01*
X63901733Y-68388242D01*
X63901758Y-68388446D01*
X63895712Y-68389175D01*
X63837140Y-68402162D01*
X63834492Y-68402719D01*
X63775669Y-68414420D01*
X63769838Y-68416189D01*
X63769779Y-68415995D01*
X63766714Y-68416961D01*
X63766778Y-68417155D01*
X63760991Y-68419049D01*
X63706126Y-68443193D01*
X63703638Y-68444256D01*
X63648183Y-68467227D01*
X63642813Y-68470098D01*
X63642717Y-68469920D01*
X63639909Y-68471461D01*
X63640008Y-68471637D01*
X63634702Y-68474624D01*
X63585539Y-68509050D01*
X63583307Y-68510577D01*
X63533455Y-68543888D01*
X63528748Y-68547751D01*
X63528620Y-68547595D01*
X63526163Y-68549658D01*
X63526294Y-68549811D01*
X63521671Y-68553777D01*
X63480167Y-68597134D01*
X63478276Y-68599066D01*
X63435884Y-68641459D01*
X63432023Y-68646164D01*
X63431868Y-68646036D01*
X63429854Y-68648544D01*
X63430013Y-68648669D01*
X63426254Y-68653458D01*
X63394035Y-68704037D01*
X63392555Y-68706304D01*
X63359228Y-68756182D01*
X63356358Y-68761553D01*
X63356178Y-68761456D01*
X63354688Y-68764318D01*
X63354870Y-68764411D01*
X63352118Y-68769840D01*
X63330384Y-68825736D01*
X63329376Y-68828247D01*
X63306419Y-68883672D01*
X63304651Y-68889502D01*
X63304456Y-68889443D01*
X63303555Y-68892535D01*
X63303752Y-68892590D01*
X63302112Y-68898451D01*
X63291698Y-68957525D01*
X63291199Y-68960184D01*
X63279500Y-69019006D01*
X63278903Y-69025069D01*
X63278698Y-69025048D01*
X63278418Y-69028251D01*
X63278623Y-69028267D01*
X63278158Y-69034342D01*
X56991600Y-69034342D01*
X56991600Y-60337026D01*
X57011285Y-60269987D01*
X57064089Y-60224232D01*
X57133247Y-60214288D01*
X57196803Y-60243313D01*
X57227799Y-60284229D01*
X57358807Y-60562635D01*
X57523987Y-60822919D01*
X57523990Y-60822923D01*
X57689832Y-61023390D01*
X58143274Y-60569948D01*
X58143274Y-60586508D01*
X58173722Y-60660017D01*
X58229983Y-60716278D01*
X58303492Y-60746726D01*
X58320050Y-60746726D01*
X57867899Y-61198876D01*
X57867899Y-61198877D01*
X57945222Y-61271488D01*
X57945232Y-61271496D01*
X58194617Y-61452685D01*
X58194635Y-61452697D01*
X58464778Y-61601209D01*
X58464786Y-61601213D01*
X58751406Y-61714693D01*
X59050008Y-61791361D01*
X59050017Y-61791363D01*
X59355847Y-61829999D01*
X59355861Y-61830000D01*
X59664139Y-61830000D01*
X59664152Y-61829999D01*
X59969982Y-61791363D01*
X59969991Y-61791361D01*
X60268593Y-61714693D01*
X60555213Y-61601213D01*
X60555221Y-61601209D01*
X60825364Y-61452697D01*
X60825382Y-61452685D01*
X61074772Y-61271493D01*
X61152099Y-61198877D01*
X61152099Y-61198876D01*
X60699949Y-60746726D01*
X60716508Y-60746726D01*
X60790017Y-60716278D01*
X60846278Y-60660017D01*
X60876726Y-60586508D01*
X60876726Y-60569949D01*
X61330166Y-61023390D01*
X61496014Y-60822916D01*
X61661194Y-60562632D01*
X61661197Y-60562626D01*
X61792453Y-60283694D01*
X61792455Y-60283689D01*
X61887719Y-59990499D01*
X61945487Y-59687670D01*
X61945488Y-59687663D01*
X61964844Y-59380005D01*
X61964844Y-59379994D01*
X61945488Y-59072336D01*
X61945487Y-59072329D01*
X61887719Y-58769500D01*
X61792455Y-58476310D01*
X61792453Y-58476305D01*
X61661197Y-58197373D01*
X61661194Y-58197367D01*
X61496017Y-57937088D01*
X61330165Y-57736608D01*
X60876726Y-58190047D01*
X60876726Y-58173492D01*
X60846278Y-58099983D01*
X60790017Y-58043722D01*
X60716508Y-58013274D01*
X60699948Y-58013274D01*
X61152099Y-57561122D01*
X61152099Y-57561121D01*
X61074777Y-57488511D01*
X61074767Y-57488503D01*
X60825382Y-57307314D01*
X60825364Y-57307302D01*
X60555221Y-57158790D01*
X60555213Y-57158786D01*
X60503702Y-57138392D01*
X60448616Y-57095411D01*
X60425513Y-57029472D01*
X60441726Y-56961509D01*
X60492110Y-56913102D01*
X60549349Y-56899100D01*
X84864692Y-56899100D01*
X84877349Y-56899100D01*
X84884836Y-56899326D01*
G37*
%TD.AperFunction*%
%TA.AperFunction,Conductor*%
G36*
X84042067Y-76615202D02*
G01*
X84164498Y-76737633D01*
X84195974Y-76760501D01*
X83914374Y-77042101D01*
X83914374Y-77025544D01*
X83883926Y-76952035D01*
X83827665Y-76895774D01*
X83754156Y-76865326D01*
X83737596Y-76865326D01*
X84019197Y-76583724D01*
X84042067Y-76615202D01*
G37*
%TD.AperFunction*%
%TA.AperFunction,Conductor*%
G36*
X84195974Y-75036698D02*
G01*
X84164498Y-75059567D01*
X84042067Y-75181998D01*
X84019198Y-75213474D01*
X83737598Y-74931874D01*
X83754156Y-74931874D01*
X83827665Y-74901426D01*
X83883926Y-74845165D01*
X83914374Y-74771656D01*
X83914374Y-74755097D01*
X84195974Y-75036698D01*
G37*
%TD.AperFunction*%
%TA.AperFunction,Conductor*%
G36*
X85847826Y-74771656D02*
G01*
X85878274Y-74845165D01*
X85934535Y-74901426D01*
X86008044Y-74931874D01*
X86024600Y-74931874D01*
X85743001Y-75213473D01*
X85720133Y-75181998D01*
X85597702Y-75059567D01*
X85566224Y-75036697D01*
X85847826Y-74755096D01*
X85847826Y-74771656D01*
G37*
%TD.AperFunction*%
%TA.AperFunction,Conductor*%
G36*
X60653502Y-60346726D02*
G01*
X60636944Y-60346726D01*
X60563435Y-60377174D01*
X60507174Y-60433435D01*
X60476726Y-60506944D01*
X60476726Y-60523503D01*
X60195125Y-60241902D01*
X60226602Y-60219033D01*
X60349033Y-60096602D01*
X60371901Y-60065125D01*
X60653502Y-60346726D01*
G37*
%TD.AperFunction*%
%TA.AperFunction,Conductor*%
G36*
X58670967Y-60096602D02*
G01*
X58793398Y-60219033D01*
X58824874Y-60241901D01*
X58543274Y-60523501D01*
X58543274Y-60506944D01*
X58512826Y-60433435D01*
X58456565Y-60377174D01*
X58383056Y-60346726D01*
X58366496Y-60346726D01*
X58648097Y-60065124D01*
X58670967Y-60096602D01*
G37*
%TD.AperFunction*%
%TA.AperFunction,Conductor*%
G36*
X60476726Y-58253056D02*
G01*
X60507174Y-58326565D01*
X60563435Y-58382826D01*
X60636944Y-58413274D01*
X60653500Y-58413274D01*
X60371901Y-58694873D01*
X60349033Y-58663398D01*
X60226602Y-58540967D01*
X60195124Y-58518097D01*
X60476726Y-58236495D01*
X60476726Y-58253056D01*
G37*
%TD.AperFunction*%
%TD*%
M02*
