M48
; DRILL file {KiCad 8.0.0~rc2-1e5b68cb87~176~ubuntu22.04.1} date 2024-02-07T10:24:23+0530
; FORMAT={-:-/ absolute / inch / decimal}
; #@! TF.CreationDate,2024-02-07T10:24:23+05:30
; #@! TF.GenerationSoftware,Kicad,Pcbnew,8.0.0~rc2-1e5b68cb87~176~ubuntu22.04.1
; #@! TF.FileFunction,Plated,1,2,PTH
FMAT,2
INCH
; #@! TA.AperFunction,Plated,PTH,ViaDrill
T1C0.0157
; #@! TA.AperFunction,Plated,PTH,ComponentDrill
T2C0.0157
; #@! TA.AperFunction,Plated,PTH,ComponentDrill
T3C0.0394
; #@! TA.AperFunction,Plated,PTH,ComponentDrill
T4C0.0866
%
G90
G05
T1
X2.3408Y-2.5371
X2.3408Y-2.6371
X2.3408Y-2.9371
X2.3408Y-3.0371
X2.4408Y-2.4371
X2.4408Y-2.5371
X2.4408Y-2.6371
X2.5201Y-2.774
X2.5408Y-2.3371
X2.5408Y-2.4371
X2.5408Y-2.5371
X2.5408Y-2.6371
X2.5408Y-2.8371
X2.6408Y-2.4371
X2.6408Y-2.5371
X2.6408Y-2.6371
X2.6408Y-2.8371
X2.7408Y-2.6371
X2.7408Y-2.8371
X2.7469Y-2.7677
X2.7925Y-2.887
X2.8421Y-2.8409
X3.0268Y-2.7181
X3.0408Y-2.9371
X3.0626Y-2.7189
X3.1408Y-2.3371
X3.1408Y-2.4371
X3.19Y-2.76
X3.2408Y-2.3371
X3.253Y-2.6496
X3.253Y-2.7008
X3.3408Y-2.3371
T2
X2.278Y-2.3378
X2.297Y-2.2919
X2.297Y-2.3837
X2.3429Y-2.2728
X2.3429Y-2.4028
X2.3888Y-2.2919
X2.3888Y-2.3837
X2.4079Y-2.3378
X3.2768Y-2.9881
X3.2958Y-2.9422
X3.2958Y-3.0341
X3.3418Y-2.9232
X3.3418Y-3.0531
X3.3877Y-2.9422
X3.3877Y-3.0341
X3.4067Y-2.9881
T3
X2.3925Y-2.9925
X2.4925Y-2.9925
X2.5925Y-2.9925
X2.6925Y-2.9925
X2.7925Y-2.9925
X2.8925Y-2.9925
X2.9925Y-2.9925
X3.0925Y-2.9925
X3.1925Y-2.9925
T4
X2.3429Y-2.3378
X3.3418Y-2.9881
M30
