%TF.GenerationSoftware,KiCad,Pcbnew,8.0.0~rc2-1e5b68cb87~176~ubuntu22.04.1*%
%TF.CreationDate,2024-02-07T10:24:23+05:30*%
%TF.ProjectId,BoB,426f422e-6b69-4636-9164-5f7063625858,rev?*%
%TF.SameCoordinates,Original*%
%TF.FileFunction,Legend,Top*%
%TF.FilePolarity,Positive*%
%FSLAX46Y46*%
G04 Gerber Fmt 4.6, Leading zero omitted, Abs format (unit mm)*
G04 Created by KiCad (PCBNEW 8.0.0~rc2-1e5b68cb87~176~ubuntu22.04.1) date 2024-02-07 10:24:23*
%MOMM*%
%LPD*%
G01*
G04 APERTURE LIST*
G04 Aperture macros list*
%AMRoundRect*
0 Rectangle with rounded corners*
0 $1 Rounding radius*
0 $2 $3 $4 $5 $6 $7 $8 $9 X,Y pos of 4 corners*
0 Add a 4 corners polygon primitive as box body*
4,1,4,$2,$3,$4,$5,$6,$7,$8,$9,$2,$3,0*
0 Add four circle primitives for the rounded corners*
1,1,$1+$1,$2,$3*
1,1,$1+$1,$4,$5*
1,1,$1+$1,$6,$7*
1,1,$1+$1,$8,$9*
0 Add four rect primitives between the rounded corners*
20,1,$1+$1,$2,$3,$4,$5,0*
20,1,$1+$1,$4,$5,$6,$7,0*
20,1,$1+$1,$6,$7,$8,$9,0*
20,1,$1+$1,$8,$9,$2,$3,0*%
G04 Aperture macros list end*
%ADD10C,0.120000*%
%ADD11C,0.152400*%
%ADD12C,0.150000*%
%ADD13C,0.200000*%
%ADD14RoundRect,0.250000X-0.650000X0.412500X-0.650000X-0.412500X0.650000X-0.412500X0.650000X0.412500X0*%
%ADD15RoundRect,0.250000X0.412500X0.650000X-0.412500X0.650000X-0.412500X-0.650000X0.412500X-0.650000X0*%
%ADD16C,0.700000*%
%ADD17C,4.400000*%
%ADD18RoundRect,0.250000X0.650000X-0.412500X0.650000X0.412500X-0.650000X0.412500X-0.650000X-0.412500X0*%
%ADD19RoundRect,0.250000X-0.412500X-0.650000X0.412500X-0.650000X0.412500X0.650000X-0.412500X0.650000X0*%
%ADD20R,0.800000X1.900000*%
%ADD21R,1.700000X1.700000*%
%ADD22O,1.700000X1.700000*%
%ADD23R,1.900000X0.800000*%
%ADD24RoundRect,0.150000X-0.825000X-0.150000X0.825000X-0.150000X0.825000X0.150000X-0.825000X0.150000X0*%
G04 APERTURE END LIST*
D10*
X77548571Y-78235760D02*
X77662857Y-78273855D01*
X77662857Y-78273855D02*
X77853333Y-78273855D01*
X77853333Y-78273855D02*
X77929524Y-78235760D01*
X77929524Y-78235760D02*
X77967619Y-78197664D01*
X77967619Y-78197664D02*
X78005714Y-78121474D01*
X78005714Y-78121474D02*
X78005714Y-78045283D01*
X78005714Y-78045283D02*
X77967619Y-77969093D01*
X77967619Y-77969093D02*
X77929524Y-77930998D01*
X77929524Y-77930998D02*
X77853333Y-77892902D01*
X77853333Y-77892902D02*
X77700952Y-77854807D01*
X77700952Y-77854807D02*
X77624762Y-77816712D01*
X77624762Y-77816712D02*
X77586667Y-77778617D01*
X77586667Y-77778617D02*
X77548571Y-77702426D01*
X77548571Y-77702426D02*
X77548571Y-77626236D01*
X77548571Y-77626236D02*
X77586667Y-77550045D01*
X77586667Y-77550045D02*
X77624762Y-77511950D01*
X77624762Y-77511950D02*
X77700952Y-77473855D01*
X77700952Y-77473855D02*
X77891429Y-77473855D01*
X77891429Y-77473855D02*
X78005714Y-77511950D01*
X78348572Y-78273855D02*
X78348572Y-77473855D01*
X78348572Y-77473855D02*
X78539048Y-77473855D01*
X78539048Y-77473855D02*
X78653334Y-77511950D01*
X78653334Y-77511950D02*
X78729524Y-77588140D01*
X78729524Y-77588140D02*
X78767619Y-77664331D01*
X78767619Y-77664331D02*
X78805715Y-77816712D01*
X78805715Y-77816712D02*
X78805715Y-77930998D01*
X78805715Y-77930998D02*
X78767619Y-78083379D01*
X78767619Y-78083379D02*
X78729524Y-78159569D01*
X78729524Y-78159569D02*
X78653334Y-78235760D01*
X78653334Y-78235760D02*
X78539048Y-78273855D01*
X78539048Y-78273855D02*
X78348572Y-78273855D01*
X79110476Y-78045283D02*
X79491429Y-78045283D01*
X79034286Y-78273855D02*
X79300953Y-77473855D01*
X79300953Y-77473855D02*
X79567619Y-78273855D01*
D11*
X75254075Y-70440001D02*
X75292170Y-70325715D01*
X75292170Y-70325715D02*
X75292170Y-70135239D01*
X75292170Y-70135239D02*
X75254075Y-70059048D01*
X75254075Y-70059048D02*
X75215979Y-70020953D01*
X75215979Y-70020953D02*
X75139789Y-69982858D01*
X75139789Y-69982858D02*
X75063598Y-69982858D01*
X75063598Y-69982858D02*
X74987408Y-70020953D01*
X74987408Y-70020953D02*
X74949313Y-70059048D01*
X74949313Y-70059048D02*
X74911217Y-70135239D01*
X74911217Y-70135239D02*
X74873122Y-70287620D01*
X74873122Y-70287620D02*
X74835027Y-70363810D01*
X74835027Y-70363810D02*
X74796932Y-70401905D01*
X74796932Y-70401905D02*
X74720741Y-70440001D01*
X74720741Y-70440001D02*
X74644551Y-70440001D01*
X74644551Y-70440001D02*
X74568360Y-70401905D01*
X74568360Y-70401905D02*
X74530265Y-70363810D01*
X74530265Y-70363810D02*
X74492170Y-70287620D01*
X74492170Y-70287620D02*
X74492170Y-70097143D01*
X74492170Y-70097143D02*
X74530265Y-69982858D01*
X75292170Y-69640000D02*
X74758836Y-69640000D01*
X74492170Y-69640000D02*
X74530265Y-69678096D01*
X74530265Y-69678096D02*
X74568360Y-69640000D01*
X74568360Y-69640000D02*
X74530265Y-69601905D01*
X74530265Y-69601905D02*
X74492170Y-69640000D01*
X74492170Y-69640000D02*
X74568360Y-69640000D01*
X74758836Y-68916191D02*
X75292170Y-68916191D01*
X74454075Y-69106667D02*
X75025503Y-69297144D01*
X75025503Y-69297144D02*
X75025503Y-68801905D01*
X74492170Y-68573334D02*
X74492170Y-68040000D01*
X74492170Y-68040000D02*
X75292170Y-68382858D01*
X74492170Y-67811429D02*
X74492170Y-67316191D01*
X74492170Y-67316191D02*
X74796932Y-67582857D01*
X74796932Y-67582857D02*
X74796932Y-67468572D01*
X74796932Y-67468572D02*
X74835027Y-67392381D01*
X74835027Y-67392381D02*
X74873122Y-67354286D01*
X74873122Y-67354286D02*
X74949313Y-67316191D01*
X74949313Y-67316191D02*
X75139789Y-67316191D01*
X75139789Y-67316191D02*
X75215979Y-67354286D01*
X75215979Y-67354286D02*
X75254075Y-67392381D01*
X75254075Y-67392381D02*
X75292170Y-67468572D01*
X75292170Y-67468572D02*
X75292170Y-67697143D01*
X75292170Y-67697143D02*
X75254075Y-67773334D01*
X75254075Y-67773334D02*
X75215979Y-67811429D01*
X74568360Y-67011429D02*
X74530265Y-66973333D01*
X74530265Y-66973333D02*
X74492170Y-66897143D01*
X74492170Y-66897143D02*
X74492170Y-66706667D01*
X74492170Y-66706667D02*
X74530265Y-66630476D01*
X74530265Y-66630476D02*
X74568360Y-66592381D01*
X74568360Y-66592381D02*
X74644551Y-66554286D01*
X74644551Y-66554286D02*
X74720741Y-66554286D01*
X74720741Y-66554286D02*
X74835027Y-66592381D01*
X74835027Y-66592381D02*
X75292170Y-67049524D01*
X75292170Y-67049524D02*
X75292170Y-66554286D01*
X74873122Y-65335238D02*
X74911217Y-65220952D01*
X74911217Y-65220952D02*
X74949313Y-65182857D01*
X74949313Y-65182857D02*
X75025503Y-65144761D01*
X75025503Y-65144761D02*
X75139789Y-65144761D01*
X75139789Y-65144761D02*
X75215979Y-65182857D01*
X75215979Y-65182857D02*
X75254075Y-65220952D01*
X75254075Y-65220952D02*
X75292170Y-65297142D01*
X75292170Y-65297142D02*
X75292170Y-65601904D01*
X75292170Y-65601904D02*
X74492170Y-65601904D01*
X74492170Y-65601904D02*
X74492170Y-65335238D01*
X74492170Y-65335238D02*
X74530265Y-65259047D01*
X74530265Y-65259047D02*
X74568360Y-65220952D01*
X74568360Y-65220952D02*
X74644551Y-65182857D01*
X74644551Y-65182857D02*
X74720741Y-65182857D01*
X74720741Y-65182857D02*
X74796932Y-65220952D01*
X74796932Y-65220952D02*
X74835027Y-65259047D01*
X74835027Y-65259047D02*
X74873122Y-65335238D01*
X74873122Y-65335238D02*
X74873122Y-65601904D01*
X75292170Y-64687619D02*
X75254075Y-64763809D01*
X75254075Y-64763809D02*
X75215979Y-64801904D01*
X75215979Y-64801904D02*
X75139789Y-64840000D01*
X75139789Y-64840000D02*
X74911217Y-64840000D01*
X74911217Y-64840000D02*
X74835027Y-64801904D01*
X74835027Y-64801904D02*
X74796932Y-64763809D01*
X74796932Y-64763809D02*
X74758836Y-64687619D01*
X74758836Y-64687619D02*
X74758836Y-64573333D01*
X74758836Y-64573333D02*
X74796932Y-64497142D01*
X74796932Y-64497142D02*
X74835027Y-64459047D01*
X74835027Y-64459047D02*
X74911217Y-64420952D01*
X74911217Y-64420952D02*
X75139789Y-64420952D01*
X75139789Y-64420952D02*
X75215979Y-64459047D01*
X75215979Y-64459047D02*
X75254075Y-64497142D01*
X75254075Y-64497142D02*
X75292170Y-64573333D01*
X75292170Y-64573333D02*
X75292170Y-64687619D01*
X74873122Y-63811428D02*
X74911217Y-63697142D01*
X74911217Y-63697142D02*
X74949313Y-63659047D01*
X74949313Y-63659047D02*
X75025503Y-63620951D01*
X75025503Y-63620951D02*
X75139789Y-63620951D01*
X75139789Y-63620951D02*
X75215979Y-63659047D01*
X75215979Y-63659047D02*
X75254075Y-63697142D01*
X75254075Y-63697142D02*
X75292170Y-63773332D01*
X75292170Y-63773332D02*
X75292170Y-64078094D01*
X75292170Y-64078094D02*
X74492170Y-64078094D01*
X74492170Y-64078094D02*
X74492170Y-63811428D01*
X74492170Y-63811428D02*
X74530265Y-63735237D01*
X74530265Y-63735237D02*
X74568360Y-63697142D01*
X74568360Y-63697142D02*
X74644551Y-63659047D01*
X74644551Y-63659047D02*
X74720741Y-63659047D01*
X74720741Y-63659047D02*
X74796932Y-63697142D01*
X74796932Y-63697142D02*
X74835027Y-63735237D01*
X74835027Y-63735237D02*
X74873122Y-63811428D01*
X74873122Y-63811428D02*
X74873122Y-64078094D01*
X74758836Y-62744761D02*
X75292170Y-62554285D01*
X75292170Y-62554285D02*
X74758836Y-62363808D01*
X74758836Y-61716189D02*
X75292170Y-61716189D01*
X74454075Y-61906665D02*
X75025503Y-62097142D01*
X75025503Y-62097142D02*
X75025503Y-61601903D01*
D10*
X68617619Y-78263855D02*
X68236667Y-78263855D01*
X68236667Y-78263855D02*
X68236667Y-77463855D01*
X63449523Y-77541950D02*
X63373333Y-77503855D01*
X63373333Y-77503855D02*
X63259047Y-77503855D01*
X63259047Y-77503855D02*
X63144761Y-77541950D01*
X63144761Y-77541950D02*
X63068571Y-77618140D01*
X63068571Y-77618140D02*
X63030476Y-77694331D01*
X63030476Y-77694331D02*
X62992380Y-77846712D01*
X62992380Y-77846712D02*
X62992380Y-77960998D01*
X62992380Y-77960998D02*
X63030476Y-78113379D01*
X63030476Y-78113379D02*
X63068571Y-78189569D01*
X63068571Y-78189569D02*
X63144761Y-78265760D01*
X63144761Y-78265760D02*
X63259047Y-78303855D01*
X63259047Y-78303855D02*
X63335238Y-78303855D01*
X63335238Y-78303855D02*
X63449523Y-78265760D01*
X63449523Y-78265760D02*
X63487619Y-78227664D01*
X63487619Y-78227664D02*
X63487619Y-77960998D01*
X63487619Y-77960998D02*
X63335238Y-77960998D01*
X72951905Y-78293855D02*
X72685238Y-77912902D01*
X72494762Y-78293855D02*
X72494762Y-77493855D01*
X72494762Y-77493855D02*
X72799524Y-77493855D01*
X72799524Y-77493855D02*
X72875714Y-77531950D01*
X72875714Y-77531950D02*
X72913809Y-77570045D01*
X72913809Y-77570045D02*
X72951905Y-77646236D01*
X72951905Y-77646236D02*
X72951905Y-77760521D01*
X72951905Y-77760521D02*
X72913809Y-77836712D01*
X72913809Y-77836712D02*
X72875714Y-77874807D01*
X72875714Y-77874807D02*
X72799524Y-77912902D01*
X72799524Y-77912902D02*
X72494762Y-77912902D01*
X73256666Y-78255760D02*
X73370952Y-78293855D01*
X73370952Y-78293855D02*
X73561428Y-78293855D01*
X73561428Y-78293855D02*
X73637619Y-78255760D01*
X73637619Y-78255760D02*
X73675714Y-78217664D01*
X73675714Y-78217664D02*
X73713809Y-78141474D01*
X73713809Y-78141474D02*
X73713809Y-78065283D01*
X73713809Y-78065283D02*
X73675714Y-77989093D01*
X73675714Y-77989093D02*
X73637619Y-77950998D01*
X73637619Y-77950998D02*
X73561428Y-77912902D01*
X73561428Y-77912902D02*
X73409047Y-77874807D01*
X73409047Y-77874807D02*
X73332857Y-77836712D01*
X73332857Y-77836712D02*
X73294762Y-77798617D01*
X73294762Y-77798617D02*
X73256666Y-77722426D01*
X73256666Y-77722426D02*
X73256666Y-77646236D01*
X73256666Y-77646236D02*
X73294762Y-77570045D01*
X73294762Y-77570045D02*
X73332857Y-77531950D01*
X73332857Y-77531950D02*
X73409047Y-77493855D01*
X73409047Y-77493855D02*
X73599524Y-77493855D01*
X73599524Y-77493855D02*
X73713809Y-77531950D01*
X73942381Y-77493855D02*
X74399524Y-77493855D01*
X74170952Y-78293855D02*
X74170952Y-77493855D01*
X66027619Y-78293855D02*
X65760952Y-77912902D01*
X65570476Y-78293855D02*
X65570476Y-77493855D01*
X65570476Y-77493855D02*
X65875238Y-77493855D01*
X65875238Y-77493855D02*
X65951428Y-77531950D01*
X65951428Y-77531950D02*
X65989523Y-77570045D01*
X65989523Y-77570045D02*
X66027619Y-77646236D01*
X66027619Y-77646236D02*
X66027619Y-77760521D01*
X66027619Y-77760521D02*
X65989523Y-77836712D01*
X65989523Y-77836712D02*
X65951428Y-77874807D01*
X65951428Y-77874807D02*
X65875238Y-77912902D01*
X65875238Y-77912902D02*
X65570476Y-77912902D01*
X59815714Y-78065283D02*
X60196667Y-78065283D01*
X59739524Y-78293855D02*
X60006191Y-77493855D01*
X60006191Y-77493855D02*
X60272857Y-78293855D01*
X60539524Y-78293855D02*
X60539524Y-77493855D01*
X60539524Y-77493855D02*
X60996667Y-78293855D01*
X60996667Y-78293855D02*
X60996667Y-77493855D01*
X61263333Y-77493855D02*
X61720476Y-77493855D01*
X61491904Y-78293855D02*
X61491904Y-77493855D01*
X70843810Y-77463855D02*
X70996191Y-77463855D01*
X70996191Y-77463855D02*
X71072381Y-77501950D01*
X71072381Y-77501950D02*
X71148572Y-77578140D01*
X71148572Y-77578140D02*
X71186667Y-77730521D01*
X71186667Y-77730521D02*
X71186667Y-77997188D01*
X71186667Y-77997188D02*
X71148572Y-78149569D01*
X71148572Y-78149569D02*
X71072381Y-78225760D01*
X71072381Y-78225760D02*
X70996191Y-78263855D01*
X70996191Y-78263855D02*
X70843810Y-78263855D01*
X70843810Y-78263855D02*
X70767619Y-78225760D01*
X70767619Y-78225760D02*
X70691429Y-78149569D01*
X70691429Y-78149569D02*
X70653333Y-77997188D01*
X70653333Y-77997188D02*
X70653333Y-77730521D01*
X70653333Y-77730521D02*
X70691429Y-77578140D01*
X70691429Y-77578140D02*
X70767619Y-77501950D01*
X70767619Y-77501950D02*
X70843810Y-77463855D01*
X75007618Y-78255760D02*
X75121904Y-78293855D01*
X75121904Y-78293855D02*
X75312380Y-78293855D01*
X75312380Y-78293855D02*
X75388571Y-78255760D01*
X75388571Y-78255760D02*
X75426666Y-78217664D01*
X75426666Y-78217664D02*
X75464761Y-78141474D01*
X75464761Y-78141474D02*
X75464761Y-78065283D01*
X75464761Y-78065283D02*
X75426666Y-77989093D01*
X75426666Y-77989093D02*
X75388571Y-77950998D01*
X75388571Y-77950998D02*
X75312380Y-77912902D01*
X75312380Y-77912902D02*
X75159999Y-77874807D01*
X75159999Y-77874807D02*
X75083809Y-77836712D01*
X75083809Y-77836712D02*
X75045714Y-77798617D01*
X75045714Y-77798617D02*
X75007618Y-77722426D01*
X75007618Y-77722426D02*
X75007618Y-77646236D01*
X75007618Y-77646236D02*
X75045714Y-77570045D01*
X75045714Y-77570045D02*
X75083809Y-77531950D01*
X75083809Y-77531950D02*
X75159999Y-77493855D01*
X75159999Y-77493855D02*
X75350476Y-77493855D01*
X75350476Y-77493855D02*
X75464761Y-77531950D01*
X76264762Y-78217664D02*
X76226666Y-78255760D01*
X76226666Y-78255760D02*
X76112381Y-78293855D01*
X76112381Y-78293855D02*
X76036190Y-78293855D01*
X76036190Y-78293855D02*
X75921904Y-78255760D01*
X75921904Y-78255760D02*
X75845714Y-78179569D01*
X75845714Y-78179569D02*
X75807619Y-78103379D01*
X75807619Y-78103379D02*
X75769523Y-77950998D01*
X75769523Y-77950998D02*
X75769523Y-77836712D01*
X75769523Y-77836712D02*
X75807619Y-77684331D01*
X75807619Y-77684331D02*
X75845714Y-77608140D01*
X75845714Y-77608140D02*
X75921904Y-77531950D01*
X75921904Y-77531950D02*
X76036190Y-77493855D01*
X76036190Y-77493855D02*
X76112381Y-77493855D01*
X76112381Y-77493855D02*
X76226666Y-77531950D01*
X76226666Y-77531950D02*
X76264762Y-77570045D01*
X76988571Y-78293855D02*
X76607619Y-78293855D01*
X76607619Y-78293855D02*
X76607619Y-77493855D01*
D11*
X57209998Y-63684075D02*
X57324284Y-63722170D01*
X57324284Y-63722170D02*
X57514760Y-63722170D01*
X57514760Y-63722170D02*
X57590951Y-63684075D01*
X57590951Y-63684075D02*
X57629046Y-63645979D01*
X57629046Y-63645979D02*
X57667141Y-63569789D01*
X57667141Y-63569789D02*
X57667141Y-63493598D01*
X57667141Y-63493598D02*
X57629046Y-63417408D01*
X57629046Y-63417408D02*
X57590951Y-63379313D01*
X57590951Y-63379313D02*
X57514760Y-63341217D01*
X57514760Y-63341217D02*
X57362379Y-63303122D01*
X57362379Y-63303122D02*
X57286189Y-63265027D01*
X57286189Y-63265027D02*
X57248094Y-63226932D01*
X57248094Y-63226932D02*
X57209998Y-63150741D01*
X57209998Y-63150741D02*
X57209998Y-63074551D01*
X57209998Y-63074551D02*
X57248094Y-62998360D01*
X57248094Y-62998360D02*
X57286189Y-62960265D01*
X57286189Y-62960265D02*
X57362379Y-62922170D01*
X57362379Y-62922170D02*
X57552856Y-62922170D01*
X57552856Y-62922170D02*
X57667141Y-62960265D01*
X58009999Y-63722170D02*
X58009999Y-63188836D01*
X58009999Y-62922170D02*
X57971903Y-62960265D01*
X57971903Y-62960265D02*
X58009999Y-62998360D01*
X58009999Y-62998360D02*
X58048094Y-62960265D01*
X58048094Y-62960265D02*
X58009999Y-62922170D01*
X58009999Y-62922170D02*
X58009999Y-62998360D01*
X58733808Y-63188836D02*
X58733808Y-63722170D01*
X58543332Y-62884075D02*
X58352855Y-63455503D01*
X58352855Y-63455503D02*
X58848094Y-63455503D01*
X59076665Y-62922170D02*
X59609999Y-62922170D01*
X59609999Y-62922170D02*
X59267141Y-63722170D01*
X59838570Y-62922170D02*
X60333808Y-62922170D01*
X60333808Y-62922170D02*
X60067142Y-63226932D01*
X60067142Y-63226932D02*
X60181427Y-63226932D01*
X60181427Y-63226932D02*
X60257618Y-63265027D01*
X60257618Y-63265027D02*
X60295713Y-63303122D01*
X60295713Y-63303122D02*
X60333808Y-63379313D01*
X60333808Y-63379313D02*
X60333808Y-63569789D01*
X60333808Y-63569789D02*
X60295713Y-63645979D01*
X60295713Y-63645979D02*
X60257618Y-63684075D01*
X60257618Y-63684075D02*
X60181427Y-63722170D01*
X60181427Y-63722170D02*
X59952856Y-63722170D01*
X59952856Y-63722170D02*
X59876665Y-63684075D01*
X59876665Y-63684075D02*
X59838570Y-63645979D01*
X60638570Y-62998360D02*
X60676666Y-62960265D01*
X60676666Y-62960265D02*
X60752856Y-62922170D01*
X60752856Y-62922170D02*
X60943332Y-62922170D01*
X60943332Y-62922170D02*
X61019523Y-62960265D01*
X61019523Y-62960265D02*
X61057618Y-62998360D01*
X61057618Y-62998360D02*
X61095713Y-63074551D01*
X61095713Y-63074551D02*
X61095713Y-63150741D01*
X61095713Y-63150741D02*
X61057618Y-63265027D01*
X61057618Y-63265027D02*
X60600475Y-63722170D01*
X60600475Y-63722170D02*
X61095713Y-63722170D01*
X62314761Y-63303122D02*
X62429047Y-63341217D01*
X62429047Y-63341217D02*
X62467142Y-63379313D01*
X62467142Y-63379313D02*
X62505238Y-63455503D01*
X62505238Y-63455503D02*
X62505238Y-63569789D01*
X62505238Y-63569789D02*
X62467142Y-63645979D01*
X62467142Y-63645979D02*
X62429047Y-63684075D01*
X62429047Y-63684075D02*
X62352857Y-63722170D01*
X62352857Y-63722170D02*
X62048095Y-63722170D01*
X62048095Y-63722170D02*
X62048095Y-62922170D01*
X62048095Y-62922170D02*
X62314761Y-62922170D01*
X62314761Y-62922170D02*
X62390952Y-62960265D01*
X62390952Y-62960265D02*
X62429047Y-62998360D01*
X62429047Y-62998360D02*
X62467142Y-63074551D01*
X62467142Y-63074551D02*
X62467142Y-63150741D01*
X62467142Y-63150741D02*
X62429047Y-63226932D01*
X62429047Y-63226932D02*
X62390952Y-63265027D01*
X62390952Y-63265027D02*
X62314761Y-63303122D01*
X62314761Y-63303122D02*
X62048095Y-63303122D01*
X62962380Y-63722170D02*
X62886190Y-63684075D01*
X62886190Y-63684075D02*
X62848095Y-63645979D01*
X62848095Y-63645979D02*
X62809999Y-63569789D01*
X62809999Y-63569789D02*
X62809999Y-63341217D01*
X62809999Y-63341217D02*
X62848095Y-63265027D01*
X62848095Y-63265027D02*
X62886190Y-63226932D01*
X62886190Y-63226932D02*
X62962380Y-63188836D01*
X62962380Y-63188836D02*
X63076666Y-63188836D01*
X63076666Y-63188836D02*
X63152857Y-63226932D01*
X63152857Y-63226932D02*
X63190952Y-63265027D01*
X63190952Y-63265027D02*
X63229047Y-63341217D01*
X63229047Y-63341217D02*
X63229047Y-63569789D01*
X63229047Y-63569789D02*
X63190952Y-63645979D01*
X63190952Y-63645979D02*
X63152857Y-63684075D01*
X63152857Y-63684075D02*
X63076666Y-63722170D01*
X63076666Y-63722170D02*
X62962380Y-63722170D01*
X63838571Y-63303122D02*
X63952857Y-63341217D01*
X63952857Y-63341217D02*
X63990952Y-63379313D01*
X63990952Y-63379313D02*
X64029048Y-63455503D01*
X64029048Y-63455503D02*
X64029048Y-63569789D01*
X64029048Y-63569789D02*
X63990952Y-63645979D01*
X63990952Y-63645979D02*
X63952857Y-63684075D01*
X63952857Y-63684075D02*
X63876667Y-63722170D01*
X63876667Y-63722170D02*
X63571905Y-63722170D01*
X63571905Y-63722170D02*
X63571905Y-62922170D01*
X63571905Y-62922170D02*
X63838571Y-62922170D01*
X63838571Y-62922170D02*
X63914762Y-62960265D01*
X63914762Y-62960265D02*
X63952857Y-62998360D01*
X63952857Y-62998360D02*
X63990952Y-63074551D01*
X63990952Y-63074551D02*
X63990952Y-63150741D01*
X63990952Y-63150741D02*
X63952857Y-63226932D01*
X63952857Y-63226932D02*
X63914762Y-63265027D01*
X63914762Y-63265027D02*
X63838571Y-63303122D01*
X63838571Y-63303122D02*
X63571905Y-63303122D01*
X64905238Y-63188836D02*
X65095714Y-63722170D01*
X65095714Y-63722170D02*
X65286191Y-63188836D01*
X65933810Y-63188836D02*
X65933810Y-63722170D01*
X65743334Y-62884075D02*
X65552857Y-63455503D01*
X65552857Y-63455503D02*
X66048096Y-63455503D01*
X58409999Y-66002170D02*
X58409999Y-65202170D01*
X58409999Y-65202170D02*
X58600475Y-65202170D01*
X58600475Y-65202170D02*
X58714761Y-65240265D01*
X58714761Y-65240265D02*
X58790951Y-65316455D01*
X58790951Y-65316455D02*
X58829046Y-65392646D01*
X58829046Y-65392646D02*
X58867142Y-65545027D01*
X58867142Y-65545027D02*
X58867142Y-65659313D01*
X58867142Y-65659313D02*
X58829046Y-65811694D01*
X58829046Y-65811694D02*
X58790951Y-65887884D01*
X58790951Y-65887884D02*
X58714761Y-65964075D01*
X58714761Y-65964075D02*
X58600475Y-66002170D01*
X58600475Y-66002170D02*
X58409999Y-66002170D01*
X59209999Y-66002170D02*
X59209999Y-65202170D01*
X59552856Y-66002170D02*
X59552856Y-65583122D01*
X59552856Y-65583122D02*
X59514761Y-65506932D01*
X59514761Y-65506932D02*
X59438570Y-65468836D01*
X59438570Y-65468836D02*
X59324284Y-65468836D01*
X59324284Y-65468836D02*
X59248094Y-65506932D01*
X59248094Y-65506932D02*
X59209999Y-65545027D01*
X59933809Y-66002170D02*
X59933809Y-65468836D01*
X59933809Y-65202170D02*
X59895713Y-65240265D01*
X59895713Y-65240265D02*
X59933809Y-65278360D01*
X59933809Y-65278360D02*
X59971904Y-65240265D01*
X59971904Y-65240265D02*
X59933809Y-65202170D01*
X59933809Y-65202170D02*
X59933809Y-65278360D01*
X60314761Y-66002170D02*
X60314761Y-65468836D01*
X60314761Y-65621217D02*
X60352856Y-65545027D01*
X60352856Y-65545027D02*
X60390951Y-65506932D01*
X60390951Y-65506932D02*
X60467142Y-65468836D01*
X60467142Y-65468836D02*
X60543332Y-65468836D01*
X61152856Y-65468836D02*
X61152856Y-66002170D01*
X60809999Y-65468836D02*
X60809999Y-65887884D01*
X60809999Y-65887884D02*
X60848094Y-65964075D01*
X60848094Y-65964075D02*
X60924284Y-66002170D01*
X60924284Y-66002170D02*
X61038570Y-66002170D01*
X61038570Y-66002170D02*
X61114761Y-65964075D01*
X61114761Y-65964075D02*
X61152856Y-65925979D01*
X62105237Y-65278360D02*
X62143333Y-65240265D01*
X62143333Y-65240265D02*
X62219523Y-65202170D01*
X62219523Y-65202170D02*
X62409999Y-65202170D01*
X62409999Y-65202170D02*
X62486190Y-65240265D01*
X62486190Y-65240265D02*
X62524285Y-65278360D01*
X62524285Y-65278360D02*
X62562380Y-65354551D01*
X62562380Y-65354551D02*
X62562380Y-65430741D01*
X62562380Y-65430741D02*
X62524285Y-65545027D01*
X62524285Y-65545027D02*
X62067142Y-66002170D01*
X62067142Y-66002170D02*
X62562380Y-66002170D01*
X63057619Y-65202170D02*
X63133809Y-65202170D01*
X63133809Y-65202170D02*
X63210000Y-65240265D01*
X63210000Y-65240265D02*
X63248095Y-65278360D01*
X63248095Y-65278360D02*
X63286190Y-65354551D01*
X63286190Y-65354551D02*
X63324285Y-65506932D01*
X63324285Y-65506932D02*
X63324285Y-65697408D01*
X63324285Y-65697408D02*
X63286190Y-65849789D01*
X63286190Y-65849789D02*
X63248095Y-65925979D01*
X63248095Y-65925979D02*
X63210000Y-65964075D01*
X63210000Y-65964075D02*
X63133809Y-66002170D01*
X63133809Y-66002170D02*
X63057619Y-66002170D01*
X63057619Y-66002170D02*
X62981428Y-65964075D01*
X62981428Y-65964075D02*
X62943333Y-65925979D01*
X62943333Y-65925979D02*
X62905238Y-65849789D01*
X62905238Y-65849789D02*
X62867142Y-65697408D01*
X62867142Y-65697408D02*
X62867142Y-65506932D01*
X62867142Y-65506932D02*
X62905238Y-65354551D01*
X62905238Y-65354551D02*
X62943333Y-65278360D01*
X62943333Y-65278360D02*
X62981428Y-65240265D01*
X62981428Y-65240265D02*
X63057619Y-65202170D01*
X63629047Y-65278360D02*
X63667143Y-65240265D01*
X63667143Y-65240265D02*
X63743333Y-65202170D01*
X63743333Y-65202170D02*
X63933809Y-65202170D01*
X63933809Y-65202170D02*
X64010000Y-65240265D01*
X64010000Y-65240265D02*
X64048095Y-65278360D01*
X64048095Y-65278360D02*
X64086190Y-65354551D01*
X64086190Y-65354551D02*
X64086190Y-65430741D01*
X64086190Y-65430741D02*
X64048095Y-65545027D01*
X64048095Y-65545027D02*
X63590952Y-66002170D01*
X63590952Y-66002170D02*
X64086190Y-66002170D01*
X64771905Y-65468836D02*
X64771905Y-66002170D01*
X64581429Y-65164075D02*
X64390952Y-65735503D01*
X64390952Y-65735503D02*
X64886191Y-65735503D01*
D10*
X80163810Y-77463855D02*
X80430477Y-78263855D01*
X80430477Y-78263855D02*
X80697143Y-77463855D01*
X80963810Y-78263855D02*
X80963810Y-77463855D01*
X81344762Y-78263855D02*
X81344762Y-77463855D01*
X81344762Y-77463855D02*
X81801905Y-78263855D01*
X81801905Y-78263855D02*
X81801905Y-77463855D01*
D12*
X81364819Y-63789047D02*
X81364819Y-64360475D01*
X81364819Y-64074761D02*
X80364819Y-64074761D01*
X80364819Y-64074761D02*
X80507676Y-64169999D01*
X80507676Y-64169999D02*
X80602914Y-64265237D01*
X80602914Y-64265237D02*
X80650533Y-64360475D01*
X80364819Y-63169999D02*
X80364819Y-63074761D01*
X80364819Y-63074761D02*
X80412438Y-62979523D01*
X80412438Y-62979523D02*
X80460057Y-62931904D01*
X80460057Y-62931904D02*
X80555295Y-62884285D01*
X80555295Y-62884285D02*
X80745771Y-62836666D01*
X80745771Y-62836666D02*
X80983866Y-62836666D01*
X80983866Y-62836666D02*
X81174342Y-62884285D01*
X81174342Y-62884285D02*
X81269580Y-62931904D01*
X81269580Y-62931904D02*
X81317200Y-62979523D01*
X81317200Y-62979523D02*
X81364819Y-63074761D01*
X81364819Y-63074761D02*
X81364819Y-63169999D01*
X81364819Y-63169999D02*
X81317200Y-63265237D01*
X81317200Y-63265237D02*
X81269580Y-63312856D01*
X81269580Y-63312856D02*
X81174342Y-63360475D01*
X81174342Y-63360475D02*
X80983866Y-63408094D01*
X80983866Y-63408094D02*
X80745771Y-63408094D01*
X80745771Y-63408094D02*
X80555295Y-63360475D01*
X80555295Y-63360475D02*
X80460057Y-63312856D01*
X80460057Y-63312856D02*
X80412438Y-63265237D01*
X80412438Y-63265237D02*
X80364819Y-63169999D01*
X80364819Y-62217618D02*
X80364819Y-62122380D01*
X80364819Y-62122380D02*
X80412438Y-62027142D01*
X80412438Y-62027142D02*
X80460057Y-61979523D01*
X80460057Y-61979523D02*
X80555295Y-61931904D01*
X80555295Y-61931904D02*
X80745771Y-61884285D01*
X80745771Y-61884285D02*
X80983866Y-61884285D01*
X80983866Y-61884285D02*
X81174342Y-61931904D01*
X81174342Y-61931904D02*
X81269580Y-61979523D01*
X81269580Y-61979523D02*
X81317200Y-62027142D01*
X81317200Y-62027142D02*
X81364819Y-62122380D01*
X81364819Y-62122380D02*
X81364819Y-62217618D01*
X81364819Y-62217618D02*
X81317200Y-62312856D01*
X81317200Y-62312856D02*
X81269580Y-62360475D01*
X81269580Y-62360475D02*
X81174342Y-62408094D01*
X81174342Y-62408094D02*
X80983866Y-62455713D01*
X80983866Y-62455713D02*
X80745771Y-62455713D01*
X80745771Y-62455713D02*
X80555295Y-62408094D01*
X80555295Y-62408094D02*
X80460057Y-62360475D01*
X80460057Y-62360475D02*
X80412438Y-62312856D01*
X80412438Y-62312856D02*
X80364819Y-62217618D01*
X80698152Y-61455713D02*
X81364819Y-61455713D01*
X80793390Y-61455713D02*
X80745771Y-61408094D01*
X80745771Y-61408094D02*
X80698152Y-61312856D01*
X80698152Y-61312856D02*
X80698152Y-61169999D01*
X80698152Y-61169999D02*
X80745771Y-61074761D01*
X80745771Y-61074761D02*
X80841009Y-61027142D01*
X80841009Y-61027142D02*
X81364819Y-61027142D01*
X76673809Y-58978152D02*
X76673809Y-59644819D01*
X76435714Y-58597200D02*
X76197619Y-59311485D01*
X76197619Y-59311485D02*
X76816666Y-59311485D01*
X77197619Y-59549580D02*
X77245238Y-59597200D01*
X77245238Y-59597200D02*
X77197619Y-59644819D01*
X77197619Y-59644819D02*
X77150000Y-59597200D01*
X77150000Y-59597200D02*
X77197619Y-59549580D01*
X77197619Y-59549580D02*
X77197619Y-59644819D01*
X77578571Y-58644819D02*
X78245237Y-58644819D01*
X78245237Y-58644819D02*
X77816666Y-59644819D01*
X79054761Y-58978152D02*
X79054761Y-59644819D01*
X78626190Y-58978152D02*
X78626190Y-59501961D01*
X78626190Y-59501961D02*
X78673809Y-59597200D01*
X78673809Y-59597200D02*
X78769047Y-59644819D01*
X78769047Y-59644819D02*
X78911904Y-59644819D01*
X78911904Y-59644819D02*
X79007142Y-59597200D01*
X79007142Y-59597200D02*
X79054761Y-59549580D01*
X66312819Y-73216547D02*
X66312819Y-73787975D01*
X66312819Y-73502261D02*
X65312819Y-73502261D01*
X65312819Y-73502261D02*
X65455676Y-73597499D01*
X65455676Y-73597499D02*
X65550914Y-73692737D01*
X65550914Y-73692737D02*
X65598533Y-73787975D01*
X65312819Y-72597499D02*
X65312819Y-72502261D01*
X65312819Y-72502261D02*
X65360438Y-72407023D01*
X65360438Y-72407023D02*
X65408057Y-72359404D01*
X65408057Y-72359404D02*
X65503295Y-72311785D01*
X65503295Y-72311785D02*
X65693771Y-72264166D01*
X65693771Y-72264166D02*
X65931866Y-72264166D01*
X65931866Y-72264166D02*
X66122342Y-72311785D01*
X66122342Y-72311785D02*
X66217580Y-72359404D01*
X66217580Y-72359404D02*
X66265200Y-72407023D01*
X66265200Y-72407023D02*
X66312819Y-72502261D01*
X66312819Y-72502261D02*
X66312819Y-72597499D01*
X66312819Y-72597499D02*
X66265200Y-72692737D01*
X66265200Y-72692737D02*
X66217580Y-72740356D01*
X66217580Y-72740356D02*
X66122342Y-72787975D01*
X66122342Y-72787975D02*
X65931866Y-72835594D01*
X65931866Y-72835594D02*
X65693771Y-72835594D01*
X65693771Y-72835594D02*
X65503295Y-72787975D01*
X65503295Y-72787975D02*
X65408057Y-72740356D01*
X65408057Y-72740356D02*
X65360438Y-72692737D01*
X65360438Y-72692737D02*
X65312819Y-72597499D01*
X65312819Y-71645118D02*
X65312819Y-71549880D01*
X65312819Y-71549880D02*
X65360438Y-71454642D01*
X65360438Y-71454642D02*
X65408057Y-71407023D01*
X65408057Y-71407023D02*
X65503295Y-71359404D01*
X65503295Y-71359404D02*
X65693771Y-71311785D01*
X65693771Y-71311785D02*
X65931866Y-71311785D01*
X65931866Y-71311785D02*
X66122342Y-71359404D01*
X66122342Y-71359404D02*
X66217580Y-71407023D01*
X66217580Y-71407023D02*
X66265200Y-71454642D01*
X66265200Y-71454642D02*
X66312819Y-71549880D01*
X66312819Y-71549880D02*
X66312819Y-71645118D01*
X66312819Y-71645118D02*
X66265200Y-71740356D01*
X66265200Y-71740356D02*
X66217580Y-71787975D01*
X66217580Y-71787975D02*
X66122342Y-71835594D01*
X66122342Y-71835594D02*
X65931866Y-71883213D01*
X65931866Y-71883213D02*
X65693771Y-71883213D01*
X65693771Y-71883213D02*
X65503295Y-71835594D01*
X65503295Y-71835594D02*
X65408057Y-71787975D01*
X65408057Y-71787975D02*
X65360438Y-71740356D01*
X65360438Y-71740356D02*
X65312819Y-71645118D01*
X65646152Y-70883213D02*
X66312819Y-70883213D01*
X65741390Y-70883213D02*
X65693771Y-70835594D01*
X65693771Y-70835594D02*
X65646152Y-70740356D01*
X65646152Y-70740356D02*
X65646152Y-70597499D01*
X65646152Y-70597499D02*
X65693771Y-70502261D01*
X65693771Y-70502261D02*
X65789009Y-70454642D01*
X65789009Y-70454642D02*
X66312819Y-70454642D01*
X84093333Y-61618819D02*
X83521905Y-61618819D01*
X83807619Y-61618819D02*
X83807619Y-60618819D01*
X83807619Y-60618819D02*
X83712381Y-60761676D01*
X83712381Y-60761676D02*
X83617143Y-60856914D01*
X83617143Y-60856914D02*
X83521905Y-60904533D01*
X84950476Y-60952152D02*
X84950476Y-61618819D01*
X84521905Y-60952152D02*
X84521905Y-61475961D01*
X84521905Y-61475961D02*
X84569524Y-61571200D01*
X84569524Y-61571200D02*
X84664762Y-61618819D01*
X84664762Y-61618819D02*
X84807619Y-61618819D01*
X84807619Y-61618819D02*
X84902857Y-61571200D01*
X84902857Y-61571200D02*
X84950476Y-61523580D01*
X59236905Y-73429819D02*
X59236905Y-72429819D01*
X59236905Y-72429819D02*
X59475000Y-72429819D01*
X59475000Y-72429819D02*
X59617857Y-72477438D01*
X59617857Y-72477438D02*
X59713095Y-72572676D01*
X59713095Y-72572676D02*
X59760714Y-72667914D01*
X59760714Y-72667914D02*
X59808333Y-72858390D01*
X59808333Y-72858390D02*
X59808333Y-73001247D01*
X59808333Y-73001247D02*
X59760714Y-73191723D01*
X59760714Y-73191723D02*
X59713095Y-73286961D01*
X59713095Y-73286961D02*
X59617857Y-73382200D01*
X59617857Y-73382200D02*
X59475000Y-73429819D01*
X59475000Y-73429819D02*
X59236905Y-73429819D01*
X60760714Y-73429819D02*
X60189286Y-73429819D01*
X60475000Y-73429819D02*
X60475000Y-72429819D01*
X60475000Y-72429819D02*
X60379762Y-72572676D01*
X60379762Y-72572676D02*
X60284524Y-72667914D01*
X60284524Y-72667914D02*
X60189286Y-72715533D01*
X82128819Y-71490666D02*
X82128819Y-72062094D01*
X82128819Y-71776380D02*
X81128819Y-71776380D01*
X81128819Y-71776380D02*
X81271676Y-71871618D01*
X81271676Y-71871618D02*
X81366914Y-71966856D01*
X81366914Y-71966856D02*
X81414533Y-72062094D01*
X81462152Y-70633523D02*
X82128819Y-70633523D01*
X81462152Y-71062094D02*
X81985961Y-71062094D01*
X81985961Y-71062094D02*
X82081200Y-71014475D01*
X82081200Y-71014475D02*
X82128819Y-70919237D01*
X82128819Y-70919237D02*
X82128819Y-70776380D01*
X82128819Y-70776380D02*
X82081200Y-70681142D01*
X82081200Y-70681142D02*
X82033580Y-70633523D01*
X67893809Y-65918152D02*
X67893809Y-66584819D01*
X67655714Y-65537200D02*
X67417619Y-66251485D01*
X67417619Y-66251485D02*
X68036666Y-66251485D01*
X68417619Y-66489580D02*
X68465238Y-66537200D01*
X68465238Y-66537200D02*
X68417619Y-66584819D01*
X68417619Y-66584819D02*
X68370000Y-66537200D01*
X68370000Y-66537200D02*
X68417619Y-66489580D01*
X68417619Y-66489580D02*
X68417619Y-66584819D01*
X68798571Y-65584819D02*
X69465237Y-65584819D01*
X69465237Y-65584819D02*
X69036666Y-66584819D01*
X70274761Y-65918152D02*
X70274761Y-66584819D01*
X69846190Y-65918152D02*
X69846190Y-66441961D01*
X69846190Y-66441961D02*
X69893809Y-66537200D01*
X69893809Y-66537200D02*
X69989047Y-66584819D01*
X69989047Y-66584819D02*
X70131904Y-66584819D01*
X70131904Y-66584819D02*
X70227142Y-66537200D01*
X70227142Y-66537200D02*
X70274761Y-66489580D01*
D10*
%TO.C,C3*%
X80116000Y-66308748D02*
X80116000Y-67731252D01*
X81936000Y-66308748D02*
X81936000Y-67731252D01*
%TO.C,C1*%
X74341252Y-58210000D02*
X72918748Y-58210000D01*
X74341252Y-60030000D02*
X72918748Y-60030000D01*
%TO.C,C13*%
X63098000Y-72808752D02*
X63098000Y-71386248D01*
X64918000Y-72808752D02*
X64918000Y-71386248D01*
%TO.C,C4*%
X84086248Y-61990000D02*
X85508752Y-61990000D01*
X84086248Y-63810000D02*
X85508752Y-63810000D01*
%TO.C,U2*%
X83256000Y-67930000D02*
X83256000Y-66470000D01*
X83256000Y-67930000D02*
X84186000Y-67930000D01*
X86416000Y-67930000D02*
X85486000Y-67930000D01*
X86416000Y-67930000D02*
X86416000Y-64770000D01*
%TO.C,JP1*%
X59440000Y-74680000D02*
X59440000Y-77340000D01*
X79820000Y-74680000D02*
X59440000Y-74680000D01*
X79820000Y-74680000D02*
X79820000Y-77340000D01*
X79820000Y-77340000D02*
X59440000Y-77340000D01*
X82420000Y-76010000D02*
X82420000Y-77340000D01*
X82420000Y-77340000D02*
X81090000Y-77340000D01*
%TO.C,D1*%
X60872500Y-68950000D02*
X57712500Y-68950000D01*
X60872500Y-68950000D02*
X60872500Y-69880000D01*
X60872500Y-72110000D02*
X59412500Y-72110000D01*
X60872500Y-72110000D02*
X60872500Y-71180000D01*
%TO.C,C5*%
X84038748Y-70340000D02*
X85461252Y-70340000D01*
X84038748Y-72160000D02*
X85461252Y-72160000D01*
%TO.C,C2*%
X67850000Y-63663752D02*
X67850000Y-62241248D01*
X69670000Y-63663752D02*
X69670000Y-62241248D01*
%TO.C,U1*%
X71065700Y-61055000D02*
X71065700Y-71062000D01*
X71119200Y-71155000D02*
X78612200Y-71155000D01*
X78612200Y-60555000D02*
X71565700Y-60555000D01*
X78665700Y-71062000D02*
X78665700Y-60648000D01*
D13*
X71329200Y-60755000D02*
G75*
G02*
X71202200Y-60755000I-63500J0D01*
G01*
X71202200Y-60755000D02*
G75*
G02*
X71329200Y-60755000I63500J0D01*
G01*
%TD*%
%LPC*%
D14*
%TO.C,C3*%
X81026000Y-65457500D03*
X81026000Y-68582500D03*
%TD*%
D15*
%TO.C,C1*%
X75192500Y-59120000D03*
X72067500Y-59120000D03*
%TD*%
D16*
%TO.C,H2*%
X86531100Y-75898600D03*
X86047826Y-77065326D03*
X86047826Y-74731874D03*
X84881100Y-77548600D03*
D17*
X84881100Y-75898600D03*
D16*
X84881100Y-74248600D03*
X83714374Y-77065326D03*
X83714374Y-74731874D03*
X83231100Y-75898600D03*
%TD*%
D18*
%TO.C,C13*%
X64008000Y-73660000D03*
X64008000Y-70535000D03*
%TD*%
D16*
%TO.C,H1*%
X61160000Y-59380000D03*
X60676726Y-60546726D03*
X60676726Y-58213274D03*
X59510000Y-61030000D03*
D17*
X59510000Y-59380000D03*
D16*
X59510000Y-57730000D03*
X58343274Y-60546726D03*
X58343274Y-58213274D03*
X57860000Y-59380000D03*
%TD*%
D19*
%TO.C,C4*%
X83235000Y-62900000D03*
X86360000Y-62900000D03*
%TD*%
D20*
%TO.C,U2*%
X85786000Y-65670000D03*
X83886000Y-65670000D03*
X84836000Y-68670000D03*
%TD*%
D21*
%TO.C,JP1*%
X81090000Y-76010000D03*
D22*
X78550000Y-76010000D03*
X76010000Y-76010000D03*
X73470000Y-76010000D03*
X70930000Y-76010000D03*
X68390000Y-76010000D03*
X65850000Y-76010000D03*
X63310000Y-76010000D03*
X60770000Y-76010000D03*
%TD*%
D23*
%TO.C,D1*%
X58612500Y-69580000D03*
X58612500Y-71480000D03*
X61612500Y-70530000D03*
%TD*%
D19*
%TO.C,C5*%
X83187500Y-71250000D03*
X86312500Y-71250000D03*
%TD*%
D18*
%TO.C,C2*%
X68760000Y-64515000D03*
X68760000Y-61390000D03*
%TD*%
D24*
%TO.C,U1*%
X72390700Y-61410000D03*
X72390700Y-62680000D03*
X72390700Y-63950000D03*
X72390700Y-65220000D03*
X72390700Y-66490000D03*
X72390700Y-67760000D03*
X72390700Y-69030000D03*
X72390700Y-70300000D03*
X77340700Y-70300000D03*
X77340700Y-69030000D03*
X77340700Y-67760000D03*
X77340700Y-66490000D03*
X77340700Y-65220000D03*
X77340700Y-63950000D03*
X77340700Y-62680000D03*
X77340700Y-61410000D03*
%TD*%
%LPD*%
M02*
