%TF.GenerationSoftware,KiCad,Pcbnew,8.0.0~rc2-1e5b68cb87~176~ubuntu22.04.1*%
%TF.CreationDate,2024-02-07T10:24:23+05:30*%
%TF.ProjectId,BoB,426f422e-6b69-4636-9164-5f7063625858,rev?*%
%TF.SameCoordinates,Original*%
%TF.FileFunction,Soldermask,Top*%
%TF.FilePolarity,Negative*%
%FSLAX46Y46*%
G04 Gerber Fmt 4.6, Leading zero omitted, Abs format (unit mm)*
G04 Created by KiCad (PCBNEW 8.0.0~rc2-1e5b68cb87~176~ubuntu22.04.1) date 2024-02-07 10:24:23*
%MOMM*%
%LPD*%
G01*
G04 APERTURE LIST*
G04 Aperture macros list*
%AMRoundRect*
0 Rectangle with rounded corners*
0 $1 Rounding radius*
0 $2 $3 $4 $5 $6 $7 $8 $9 X,Y pos of 4 corners*
0 Add a 4 corners polygon primitive as box body*
4,1,4,$2,$3,$4,$5,$6,$7,$8,$9,$2,$3,0*
0 Add four circle primitives for the rounded corners*
1,1,$1+$1,$2,$3*
1,1,$1+$1,$4,$5*
1,1,$1+$1,$6,$7*
1,1,$1+$1,$8,$9*
0 Add four rect primitives between the rounded corners*
20,1,$1+$1,$2,$3,$4,$5,0*
20,1,$1+$1,$4,$5,$6,$7,0*
20,1,$1+$1,$6,$7,$8,$9,0*
20,1,$1+$1,$8,$9,$2,$3,0*%
G04 Aperture macros list end*
%ADD10RoundRect,0.250000X-0.650000X0.412500X-0.650000X-0.412500X0.650000X-0.412500X0.650000X0.412500X0*%
%ADD11RoundRect,0.250000X0.412500X0.650000X-0.412500X0.650000X-0.412500X-0.650000X0.412500X-0.650000X0*%
%ADD12C,0.700000*%
%ADD13C,4.400000*%
%ADD14RoundRect,0.250000X0.650000X-0.412500X0.650000X0.412500X-0.650000X0.412500X-0.650000X-0.412500X0*%
%ADD15RoundRect,0.250000X-0.412500X-0.650000X0.412500X-0.650000X0.412500X0.650000X-0.412500X0.650000X0*%
%ADD16R,0.800000X1.900000*%
%ADD17R,1.700000X1.700000*%
%ADD18O,1.700000X1.700000*%
%ADD19R,1.900000X0.800000*%
%ADD20RoundRect,0.150000X-0.825000X-0.150000X0.825000X-0.150000X0.825000X0.150000X-0.825000X0.150000X0*%
G04 APERTURE END LIST*
D10*
%TO.C,C3*%
X81026000Y-65457500D03*
X81026000Y-68582500D03*
%TD*%
D11*
%TO.C,C1*%
X75192500Y-59120000D03*
X72067500Y-59120000D03*
%TD*%
D12*
%TO.C,H2*%
X86531100Y-75898600D03*
X86047826Y-77065326D03*
X86047826Y-74731874D03*
X84881100Y-77548600D03*
D13*
X84881100Y-75898600D03*
D12*
X84881100Y-74248600D03*
X83714374Y-77065326D03*
X83714374Y-74731874D03*
X83231100Y-75898600D03*
%TD*%
D14*
%TO.C,C13*%
X64008000Y-73660000D03*
X64008000Y-70535000D03*
%TD*%
D12*
%TO.C,H1*%
X61160000Y-59380000D03*
X60676726Y-60546726D03*
X60676726Y-58213274D03*
X59510000Y-61030000D03*
D13*
X59510000Y-59380000D03*
D12*
X59510000Y-57730000D03*
X58343274Y-60546726D03*
X58343274Y-58213274D03*
X57860000Y-59380000D03*
%TD*%
D15*
%TO.C,C4*%
X83235000Y-62900000D03*
X86360000Y-62900000D03*
%TD*%
D16*
%TO.C,U2*%
X85786000Y-65670000D03*
X83886000Y-65670000D03*
X84836000Y-68670000D03*
%TD*%
D17*
%TO.C,JP1*%
X81090000Y-76010000D03*
D18*
X78550000Y-76010000D03*
X76010000Y-76010000D03*
X73470000Y-76010000D03*
X70930000Y-76010000D03*
X68390000Y-76010000D03*
X65850000Y-76010000D03*
X63310000Y-76010000D03*
X60770000Y-76010000D03*
%TD*%
D19*
%TO.C,D1*%
X58612500Y-69580000D03*
X58612500Y-71480000D03*
X61612500Y-70530000D03*
%TD*%
D15*
%TO.C,C5*%
X83187500Y-71250000D03*
X86312500Y-71250000D03*
%TD*%
D14*
%TO.C,C2*%
X68760000Y-64515000D03*
X68760000Y-61390000D03*
%TD*%
D20*
%TO.C,U1*%
X72390700Y-61410000D03*
X72390700Y-62680000D03*
X72390700Y-63950000D03*
X72390700Y-65220000D03*
X72390700Y-66490000D03*
X72390700Y-67760000D03*
X72390700Y-69030000D03*
X72390700Y-70300000D03*
X77340700Y-70300000D03*
X77340700Y-69030000D03*
X77340700Y-67760000D03*
X77340700Y-66490000D03*
X77340700Y-65220000D03*
X77340700Y-63950000D03*
X77340700Y-62680000D03*
X77340700Y-61410000D03*
%TD*%
M02*
