%TF.GenerationSoftware,KiCad,Pcbnew,8.99.0-unknown-f907b58d17~178~ubuntu22.04.1*%
%TF.CreationDate,2024-06-08T22:31:25+05:30*%
%TF.ProjectId,HF-Pre-Amp,48462d50-7265-42d4-916d-702e6b696361,rev?*%
%TF.SameCoordinates,Original*%
%TF.FileFunction,Copper,L1,Top*%
%TF.FilePolarity,Positive*%
%FSLAX46Y46*%
G04 Gerber Fmt 4.6, Leading zero omitted, Abs format (unit mm)*
G04 Created by KiCad (PCBNEW 8.99.0-unknown-f907b58d17~178~ubuntu22.04.1) date 2024-06-08 22:31:25*
%MOMM*%
%LPD*%
G01*
G04 APERTURE LIST*
G04 Aperture macros list*
%AMRoundRect*
0 Rectangle with rounded corners*
0 $1 Rounding radius*
0 $2 $3 $4 $5 $6 $7 $8 $9 X,Y pos of 4 corners*
0 Add a 4 corners polygon primitive as box body*
4,1,4,$2,$3,$4,$5,$6,$7,$8,$9,$2,$3,0*
0 Add four circle primitives for the rounded corners*
1,1,$1+$1,$2,$3*
1,1,$1+$1,$4,$5*
1,1,$1+$1,$6,$7*
1,1,$1+$1,$8,$9*
0 Add four rect primitives between the rounded corners*
20,1,$1+$1,$2,$3,$4,$5,0*
20,1,$1+$1,$4,$5,$6,$7,0*
20,1,$1+$1,$6,$7,$8,$9,0*
20,1,$1+$1,$8,$9,$2,$3,0*%
G04 Aperture macros list end*
%TA.AperFunction,SMDPad,CuDef*%
%ADD10RoundRect,0.250000X-0.412500X-0.650000X0.412500X-0.650000X0.412500X0.650000X-0.412500X0.650000X0*%
%TD*%
%TA.AperFunction,SMDPad,CuDef*%
%ADD11RoundRect,0.250000X-0.400000X-0.625000X0.400000X-0.625000X0.400000X0.625000X-0.400000X0.625000X0*%
%TD*%
%TA.AperFunction,ComponentPad*%
%ADD12R,2.500000X2.500000*%
%TD*%
%TA.AperFunction,ComponentPad*%
%ADD13R,1.700000X1.700000*%
%TD*%
%TA.AperFunction,ComponentPad*%
%ADD14O,1.700000X1.700000*%
%TD*%
%TA.AperFunction,SMDPad,CuDef*%
%ADD15RoundRect,0.250000X-0.650000X0.412500X-0.650000X-0.412500X0.650000X-0.412500X0.650000X0.412500X0*%
%TD*%
%TA.AperFunction,SMDPad,CuDef*%
%ADD16RoundRect,0.250000X-0.625000X0.400000X-0.625000X-0.400000X0.625000X-0.400000X0.625000X0.400000X0*%
%TD*%
%TA.AperFunction,SMDPad,CuDef*%
%ADD17RoundRect,0.250000X1.350000X-0.385000X1.350000X0.385000X-1.350000X0.385000X-1.350000X-0.385000X0*%
%TD*%
%TA.AperFunction,SMDPad,CuDef*%
%ADD18RoundRect,0.250000X1.600000X-0.425000X1.600000X0.425000X-1.600000X0.425000X-1.600000X-0.425000X0*%
%TD*%
%TA.AperFunction,SMDPad,CuDef*%
%ADD19RoundRect,0.250000X-1.350000X0.385000X-1.350000X-0.385000X1.350000X-0.385000X1.350000X0.385000X0*%
%TD*%
%TA.AperFunction,SMDPad,CuDef*%
%ADD20RoundRect,0.250000X-1.600000X0.425000X-1.600000X-0.425000X1.600000X-0.425000X1.600000X0.425000X0*%
%TD*%
%TA.AperFunction,ComponentPad*%
%ADD21C,0.700000*%
%TD*%
%TA.AperFunction,ComponentPad*%
%ADD22C,4.400000*%
%TD*%
%TA.AperFunction,ComponentPad*%
%ADD23R,1.200000X1.200000*%
%TD*%
%TA.AperFunction,ComponentPad*%
%ADD24C,1.200000*%
%TD*%
%TA.AperFunction,ComponentPad*%
%ADD25C,1.600000*%
%TD*%
%TA.AperFunction,ComponentPad*%
%ADD26O,1.600000X1.600000*%
%TD*%
%TA.AperFunction,SMDPad,CuDef*%
%ADD27RoundRect,0.250000X0.625000X-0.400000X0.625000X0.400000X-0.625000X0.400000X-0.625000X-0.400000X0*%
%TD*%
%TA.AperFunction,ViaPad*%
%ADD28C,0.800000*%
%TD*%
%TA.AperFunction,Conductor*%
%ADD29C,1.270000*%
%TD*%
G04 APERTURE END LIST*
D10*
%TO.P,C2,1*%
%TO.N,GND*%
X99677500Y-100500000D03*
%TO.P,C2,2*%
%TO.N,+12V*%
X102802500Y-100500000D03*
%TD*%
D11*
%TO.P,R2,1*%
%TO.N,GND*%
X102310000Y-113190000D03*
%TO.P,R2,2*%
%TO.N,Net-(OUT1-In)*%
X105410000Y-113190000D03*
%TD*%
D12*
%TO.P,VDC1,1,Pin_1*%
%TO.N,+12V*%
X102810000Y-104750000D03*
%TD*%
D13*
%TO.P,Q1,1,E*%
%TO.N,Net-(Q1-E)*%
X95730000Y-105680000D03*
D14*
%TO.P,Q1,2,B*%
%TO.N,Net-(Q1-B)*%
X95730000Y-108220000D03*
%TO.P,Q1,3,C*%
%TO.N,Net-(Q1-C)*%
X95730000Y-110760000D03*
%TD*%
D15*
%TO.P,C1,1*%
%TO.N,Net-(IN1-In)*%
X91630000Y-103040000D03*
%TO.P,C1,2*%
%TO.N,Net-(Q1-B)*%
X91630000Y-106165000D03*
%TD*%
D16*
%TO.P,R5,1*%
%TO.N,GND*%
X95730000Y-99680000D03*
%TO.P,R5,2*%
%TO.N,Net-(Q1-E)*%
X95730000Y-102780000D03*
%TD*%
D17*
%TO.P,OUT1,1,In*%
%TO.N,Net-(OUT1-In)*%
X109680000Y-102435000D03*
D18*
%TO.P,OUT1,2,Ext*%
%TO.N,GND*%
X109430000Y-99610000D03*
X109430000Y-105260000D03*
%TD*%
D19*
%TO.P,IN1,1,In*%
%TO.N,Net-(IN1-In)*%
X87520000Y-103020000D03*
D20*
%TO.P,IN1,2,Ext*%
%TO.N,GND*%
X87770000Y-105845000D03*
X87770000Y-100195000D03*
%TD*%
D21*
%TO.P,H1,1,1*%
%TO.N,GND*%
X86200000Y-95630000D03*
X86683274Y-94463274D03*
X86683274Y-96796726D03*
X87850000Y-93980000D03*
D22*
X87850000Y-95630000D03*
D21*
X87850000Y-97280000D03*
X89016726Y-94463274D03*
X89016726Y-96796726D03*
X89500000Y-95630000D03*
%TD*%
D23*
%TO.P,C3,1*%
%TO.N,+12V*%
X102800000Y-96950000D03*
D24*
%TO.P,C3,2*%
%TO.N,GND*%
X104800000Y-96950000D03*
%TD*%
D12*
%TO.P,GND1,1,Pin_1*%
%TO.N,GND*%
X108760000Y-110640000D03*
%TD*%
D21*
%TO.P,H2,1,1*%
%TO.N,GND*%
X107870000Y-95700000D03*
X108353274Y-94533274D03*
X108353274Y-96866726D03*
X109520000Y-94050000D03*
D22*
X109520000Y-95700000D03*
D21*
X109520000Y-97350000D03*
X110686726Y-94533274D03*
X110686726Y-96866726D03*
X111170000Y-95700000D03*
%TD*%
D10*
%TO.P,C5,1*%
%TO.N,Net-(Q1-C)*%
X102317500Y-110760000D03*
%TO.P,C5,2*%
%TO.N,Net-(OUT1-In)*%
X105442500Y-110760000D03*
%TD*%
D15*
%TO.P,C4,1*%
%TO.N,GND*%
X93210000Y-97730000D03*
%TO.P,C4,2*%
%TO.N,Net-(Q1-E)*%
X93210000Y-100855000D03*
%TD*%
D21*
%TO.P,H3,1,1*%
%TO.N,GND*%
X86230000Y-115430000D03*
X86713274Y-114263274D03*
X86713274Y-116596726D03*
X87880000Y-113780000D03*
D22*
X87880000Y-115430000D03*
D21*
X87880000Y-117080000D03*
X89046726Y-114263274D03*
X89046726Y-116596726D03*
X89530000Y-115430000D03*
%TD*%
D25*
%TO.P,L1,1*%
%TO.N,+12V*%
X102720000Y-108150000D03*
D26*
%TO.P,L1,2*%
%TO.N,Net-(Q1-C)*%
X100180000Y-108150000D03*
%TD*%
D16*
%TO.P,R3,1*%
%TO.N,+12V*%
X98960000Y-102680000D03*
%TO.P,R3,2*%
%TO.N,Net-(Q1-B)*%
X98960000Y-105780000D03*
%TD*%
D27*
%TO.P,R4,1*%
%TO.N,GND*%
X91640000Y-111320000D03*
%TO.P,R4,2*%
%TO.N,Net-(Q1-B)*%
X91640000Y-108220000D03*
%TD*%
D21*
%TO.P,H4,1,1*%
%TO.N,GND*%
X107810000Y-115440000D03*
X108293274Y-114273274D03*
X108293274Y-116606726D03*
X109460000Y-113790000D03*
D22*
X109460000Y-115440000D03*
D21*
X109460000Y-117090000D03*
X110626726Y-114273274D03*
X110626726Y-116606726D03*
X111110000Y-115440000D03*
%TD*%
D28*
%TO.N,GND*%
X104800000Y-102600000D03*
X104800000Y-101400000D03*
X93400000Y-111600000D03*
X93400000Y-110400000D03*
X93600000Y-106200000D03*
X93600000Y-105000000D03*
X97800000Y-99800000D03*
X97800000Y-98600000D03*
X106400000Y-99200000D03*
X106400000Y-98000000D03*
X91000000Y-98200000D03*
X91000000Y-97000000D03*
X86800000Y-112400000D03*
X88200000Y-111200000D03*
X86800000Y-111200000D03*
X86800000Y-110200000D03*
X88200000Y-109000000D03*
X88200000Y-110200000D03*
X86800000Y-109000000D03*
X98600000Y-113800000D03*
X100000000Y-112600000D03*
X100000000Y-113800000D03*
X98600000Y-112600000D03*
X101400000Y-117200000D03*
X99800000Y-117200000D03*
X102800000Y-116000000D03*
X98200000Y-116000000D03*
X102800000Y-117200000D03*
X99800000Y-116000000D03*
X101400000Y-116000000D03*
X98200000Y-117200000D03*
X93600000Y-116000000D03*
X95200000Y-116000000D03*
X92200000Y-117200000D03*
X96800000Y-117200000D03*
X92200000Y-116000000D03*
X95200000Y-117200000D03*
X93600000Y-117200000D03*
X96800000Y-116000000D03*
X100800000Y-96600000D03*
X99400000Y-96600000D03*
X97800000Y-96600000D03*
X96200000Y-96600000D03*
X100800000Y-95400000D03*
X99400000Y-95400000D03*
X97800000Y-95400000D03*
X96200000Y-95400000D03*
%TD*%
D29*
%TO.N,Net-(IN1-In)*%
X91630000Y-103040000D02*
X87540000Y-103040000D01*
%TO.N,Net-(OUT1-In)*%
X106235000Y-103670000D02*
X106235000Y-103120000D01*
X106235000Y-103120000D02*
X106920000Y-102435000D01*
X109680000Y-102435000D02*
X106920000Y-102435000D01*
X106235000Y-112120000D02*
X106235000Y-112365000D01*
X106235000Y-103670000D02*
X106235000Y-112120000D01*
X106235000Y-112365000D02*
X105410000Y-113190000D01*
%TO.N,+12V*%
X102790000Y-103060000D02*
X102810000Y-103080000D01*
X102810000Y-105120000D02*
X102810000Y-103080000D01*
X99420000Y-103060000D02*
X102790000Y-103060000D01*
X102810000Y-103080000D02*
X102810000Y-100507500D01*
X102720000Y-108150000D02*
X102720000Y-104840000D01*
X102785000Y-97200000D02*
X102785000Y-100482500D01*
%TO.N,Net-(Q1-B)*%
X91640000Y-108220000D02*
X91640000Y-106175000D01*
X98960000Y-105780000D02*
X96520000Y-108220000D01*
X95730000Y-108220000D02*
X91640000Y-108220000D01*
X96520000Y-108220000D02*
X95730000Y-108220000D01*
%TO.N,Net-(Q1-E)*%
X95730000Y-102780000D02*
X95730000Y-105680000D01*
X95730000Y-102780000D02*
X93830000Y-102780000D01*
X93830000Y-102780000D02*
X93650000Y-102600000D01*
X93650000Y-102600000D02*
X93650000Y-101295000D01*
X93650000Y-101295000D02*
X93210000Y-100855000D01*
%TO.N,Net-(Q1-C)*%
X95730000Y-110760000D02*
X102137500Y-110760000D01*
X100000000Y-110557500D02*
X100180000Y-110377500D01*
X95730000Y-110760000D02*
X102317500Y-110760000D01*
X100970000Y-110760000D02*
X100000000Y-110760000D01*
X100000000Y-110760000D02*
X100000000Y-110557500D01*
X100180000Y-110377500D02*
X100180000Y-108150000D01*
X102137500Y-110760000D02*
X102277500Y-110620000D01*
X101700000Y-110760000D02*
X100970000Y-110760000D01*
X100000000Y-110760000D02*
X95730000Y-110760000D01*
%TD*%
%TA.AperFunction,Conductor*%
%TO.N,GND*%
G36*
X87040967Y-116146602D02*
G01*
X87163398Y-116269033D01*
X87297262Y-116366290D01*
X86155030Y-117508522D01*
X86155030Y-117508523D01*
X86343423Y-117656118D01*
X86577104Y-117797383D01*
X86624291Y-117848911D01*
X86636130Y-117917770D01*
X86608861Y-117982099D01*
X86551143Y-118021473D01*
X86512954Y-118027500D01*
X85468500Y-118027500D01*
X85401461Y-118007815D01*
X85355706Y-117955011D01*
X85344500Y-117903500D01*
X85344500Y-116899607D01*
X85364185Y-116832568D01*
X85416989Y-116786813D01*
X85486147Y-116776869D01*
X85549703Y-116805894D01*
X85574617Y-116835457D01*
X85653881Y-116966576D01*
X85801476Y-117154968D01*
X86399500Y-116556944D01*
X86513274Y-116556944D01*
X86513274Y-116636508D01*
X86543722Y-116710017D01*
X86599983Y-116766278D01*
X86673492Y-116796726D01*
X86753056Y-116796726D01*
X86826565Y-116766278D01*
X86882826Y-116710017D01*
X86913274Y-116636508D01*
X86913274Y-116556944D01*
X86882826Y-116483435D01*
X86826565Y-116427174D01*
X86753056Y-116396726D01*
X86673492Y-116396726D01*
X86599983Y-116427174D01*
X86543722Y-116483435D01*
X86513274Y-116556944D01*
X86399500Y-116556944D01*
X86943708Y-116012736D01*
X87040967Y-116146602D01*
G37*
%TD.AperFunction*%
%TA.AperFunction,Conductor*%
G36*
X108288708Y-93083185D02*
G01*
X108334463Y-93135989D01*
X108344407Y-93205147D01*
X108315382Y-93268703D01*
X108272559Y-93300576D01*
X108262964Y-93304894D01*
X108262956Y-93304898D01*
X107983422Y-93473881D01*
X107983416Y-93473886D01*
X107795030Y-93621474D01*
X107795029Y-93621476D01*
X108937262Y-94763709D01*
X108803398Y-94860967D01*
X108680967Y-94983398D01*
X108583709Y-95117262D01*
X107959939Y-94493492D01*
X108153274Y-94493492D01*
X108153274Y-94573056D01*
X108183722Y-94646565D01*
X108239983Y-94702826D01*
X108313492Y-94733274D01*
X108393056Y-94733274D01*
X108466565Y-94702826D01*
X108522826Y-94646565D01*
X108553274Y-94573056D01*
X108553274Y-94493492D01*
X108522826Y-94419983D01*
X108466565Y-94363722D01*
X108393056Y-94333274D01*
X108313492Y-94333274D01*
X108239983Y-94363722D01*
X108183722Y-94419983D01*
X108153274Y-94493492D01*
X107959939Y-94493492D01*
X107441476Y-93975029D01*
X107441474Y-93975030D01*
X107293886Y-94163416D01*
X107293881Y-94163422D01*
X107124898Y-94442956D01*
X107124897Y-94442958D01*
X106990839Y-94740824D01*
X106990835Y-94740835D01*
X106893667Y-95052658D01*
X106834786Y-95373961D01*
X106815065Y-95700000D01*
X106834786Y-96026038D01*
X106893667Y-96347341D01*
X106990835Y-96659164D01*
X106990839Y-96659175D01*
X107124897Y-96957041D01*
X107124898Y-96957043D01*
X107293881Y-97236576D01*
X107441476Y-97424968D01*
X108039500Y-96826944D01*
X108153274Y-96826944D01*
X108153274Y-96906508D01*
X108183722Y-96980017D01*
X108239983Y-97036278D01*
X108313492Y-97066726D01*
X108393056Y-97066726D01*
X108466565Y-97036278D01*
X108522826Y-96980017D01*
X108553274Y-96906508D01*
X108553274Y-96826944D01*
X108522826Y-96753435D01*
X108466565Y-96697174D01*
X108393056Y-96666726D01*
X108313492Y-96666726D01*
X108239983Y-96697174D01*
X108183722Y-96753435D01*
X108153274Y-96826944D01*
X108039500Y-96826944D01*
X108583708Y-96282736D01*
X108680967Y-96416602D01*
X108803398Y-96539033D01*
X108937262Y-96636290D01*
X107795030Y-97778522D01*
X107795030Y-97778523D01*
X107983423Y-97926118D01*
X108262956Y-98095101D01*
X108262958Y-98095102D01*
X108491421Y-98197924D01*
X108544475Y-98243388D01*
X108564528Y-98310318D01*
X108545212Y-98377465D01*
X108492661Y-98423509D01*
X108440530Y-98435000D01*
X107780028Y-98435000D01*
X107780012Y-98435001D01*
X107677302Y-98445494D01*
X107510880Y-98500641D01*
X107510875Y-98500643D01*
X107361654Y-98592684D01*
X107237684Y-98716654D01*
X107145643Y-98865875D01*
X107145641Y-98865880D01*
X107090494Y-99032302D01*
X107090493Y-99032309D01*
X107080000Y-99135013D01*
X107080000Y-99360000D01*
X109556000Y-99360000D01*
X109623039Y-99379685D01*
X109668794Y-99432489D01*
X109680000Y-99484000D01*
X109680000Y-100784999D01*
X111079972Y-100784999D01*
X111079986Y-100784998D01*
X111182697Y-100774505D01*
X111349119Y-100719358D01*
X111349124Y-100719356D01*
X111498345Y-100627315D01*
X111622315Y-100503345D01*
X111714356Y-100354124D01*
X111714358Y-100354119D01*
X111758394Y-100221228D01*
X111798166Y-100163783D01*
X111862682Y-100136960D01*
X111931458Y-100149275D01*
X111982658Y-100196818D01*
X112000100Y-100260232D01*
X112000100Y-101823177D01*
X111980415Y-101890216D01*
X111927611Y-101935971D01*
X111858453Y-101945915D01*
X111794897Y-101916890D01*
X111758394Y-101862181D01*
X111745469Y-101823177D01*
X111714814Y-101730666D01*
X111622712Y-101581344D01*
X111498656Y-101457288D01*
X111377711Y-101382689D01*
X111349336Y-101365187D01*
X111349331Y-101365185D01*
X111326845Y-101357734D01*
X111182797Y-101310001D01*
X111182795Y-101310000D01*
X111080016Y-101299500D01*
X111080009Y-101299500D01*
X109769368Y-101299500D01*
X109769366Y-101299500D01*
X106830634Y-101299500D01*
X106771790Y-101308820D01*
X106654101Y-101327460D01*
X106654098Y-101327460D01*
X106484121Y-101382689D01*
X106484118Y-101382690D01*
X106324866Y-101463834D01*
X106241116Y-101524681D01*
X106241115Y-101524680D01*
X106180276Y-101568884D01*
X106180267Y-101568891D01*
X105495272Y-102253889D01*
X105368891Y-102380269D01*
X105368890Y-102380270D01*
X105263831Y-102524869D01*
X105182691Y-102684119D01*
X105180572Y-102690640D01*
X105180571Y-102690639D01*
X105127458Y-102854105D01*
X105127457Y-102854107D01*
X105105835Y-102990634D01*
X105105835Y-102990636D01*
X105099500Y-103030630D01*
X105099500Y-109235568D01*
X105079815Y-109302607D01*
X105027011Y-109348362D01*
X104983122Y-109359089D01*
X104983132Y-109359180D01*
X104982483Y-109359246D01*
X104981830Y-109359406D01*
X104980007Y-109359499D01*
X104877203Y-109370000D01*
X104877200Y-109370001D01*
X104710668Y-109425185D01*
X104710663Y-109425187D01*
X104561342Y-109517289D01*
X104437289Y-109641342D01*
X104345187Y-109790663D01*
X104345186Y-109790666D01*
X104290001Y-109957203D01*
X104290001Y-109957204D01*
X104290000Y-109957204D01*
X104279500Y-110059983D01*
X104279500Y-111460001D01*
X104279501Y-111460018D01*
X104290000Y-111562796D01*
X104290001Y-111562799D01*
X104312732Y-111631395D01*
X104345186Y-111729334D01*
X104433612Y-111872697D01*
X104437289Y-111878657D01*
X104448451Y-111889819D01*
X104481936Y-111951142D01*
X104476952Y-112020834D01*
X104448451Y-112065181D01*
X104417289Y-112096342D01*
X104325187Y-112245663D01*
X104325185Y-112245668D01*
X104303101Y-112312315D01*
X104270001Y-112412203D01*
X104270001Y-112412204D01*
X104270000Y-112412204D01*
X104259500Y-112514983D01*
X104259500Y-113865001D01*
X104259501Y-113865018D01*
X104270000Y-113967796D01*
X104270001Y-113967799D01*
X104308364Y-114083568D01*
X104325186Y-114134334D01*
X104417288Y-114283656D01*
X104541344Y-114407712D01*
X104690666Y-114499814D01*
X104857203Y-114554999D01*
X104959991Y-114565500D01*
X105860008Y-114565499D01*
X105860016Y-114565498D01*
X105860019Y-114565498D01*
X105916302Y-114559748D01*
X105962797Y-114554999D01*
X106129334Y-114499814D01*
X106278656Y-114407712D01*
X106402712Y-114283656D01*
X106494814Y-114134334D01*
X106549999Y-113967797D01*
X106560500Y-113865009D01*
X106560499Y-113696700D01*
X106580183Y-113629661D01*
X106596813Y-113609024D01*
X107101111Y-113104729D01*
X107145319Y-113043881D01*
X107206167Y-112960132D01*
X107287309Y-112800881D01*
X107302287Y-112754786D01*
X107302504Y-112754119D01*
X107318886Y-112703698D01*
X107342541Y-112630897D01*
X107352240Y-112569653D01*
X107364128Y-112494602D01*
X107394057Y-112431467D01*
X107453369Y-112394536D01*
X107486601Y-112390000D01*
X108510000Y-112390000D01*
X108510000Y-111188482D01*
X108528409Y-111199111D01*
X108681009Y-111240000D01*
X108838991Y-111240000D01*
X108991591Y-111199111D01*
X109010000Y-111188482D01*
X109010000Y-112390000D01*
X110057828Y-112390000D01*
X110057844Y-112389999D01*
X110117372Y-112383598D01*
X110117379Y-112383596D01*
X110252086Y-112333354D01*
X110252093Y-112333350D01*
X110367187Y-112247190D01*
X110367190Y-112247187D01*
X110453350Y-112132093D01*
X110453354Y-112132086D01*
X110503596Y-111997379D01*
X110503598Y-111997372D01*
X110509999Y-111937844D01*
X110510000Y-111937827D01*
X110510000Y-110890000D01*
X109308482Y-110890000D01*
X109319111Y-110871591D01*
X109360000Y-110718991D01*
X109360000Y-110561009D01*
X109319111Y-110408409D01*
X109308482Y-110390000D01*
X110510000Y-110390000D01*
X110510000Y-109342172D01*
X110509999Y-109342155D01*
X110503598Y-109282627D01*
X110503596Y-109282620D01*
X110453354Y-109147913D01*
X110453350Y-109147906D01*
X110367190Y-109032812D01*
X110367187Y-109032809D01*
X110252093Y-108946649D01*
X110252086Y-108946645D01*
X110117379Y-108896403D01*
X110117372Y-108896401D01*
X110057844Y-108890000D01*
X109010000Y-108890000D01*
X109010000Y-110091517D01*
X108991591Y-110080889D01*
X108838991Y-110040000D01*
X108681009Y-110040000D01*
X108528409Y-110080889D01*
X108510000Y-110091517D01*
X108510000Y-108890000D01*
X107494500Y-108890000D01*
X107427461Y-108870315D01*
X107381706Y-108817511D01*
X107370500Y-108766000D01*
X107370500Y-106494561D01*
X107390185Y-106427522D01*
X107442989Y-106381767D01*
X107512147Y-106371823D01*
X107533504Y-106376855D01*
X107677302Y-106424505D01*
X107677309Y-106424506D01*
X107780019Y-106434999D01*
X109179999Y-106434999D01*
X109180000Y-106434998D01*
X109180000Y-104085000D01*
X107780028Y-104085000D01*
X107780012Y-104085001D01*
X107677302Y-104095494D01*
X107533504Y-104143144D01*
X107463675Y-104145546D01*
X107403634Y-104109814D01*
X107372441Y-104047293D01*
X107370500Y-104025438D01*
X107370500Y-103694500D01*
X107390185Y-103627461D01*
X107442989Y-103581706D01*
X107494500Y-103570500D01*
X109779356Y-103570500D01*
X109779368Y-103570499D01*
X111080002Y-103570499D01*
X111080008Y-103570499D01*
X111182797Y-103559999D01*
X111349334Y-103504814D01*
X111498656Y-103412712D01*
X111622712Y-103288656D01*
X111714814Y-103139334D01*
X111758394Y-103007815D01*
X111798167Y-102950372D01*
X111862682Y-102923549D01*
X111931458Y-102935864D01*
X111982658Y-102983407D01*
X112000100Y-103046821D01*
X112000100Y-103817507D01*
X111998207Y-104604353D01*
X111978361Y-104671345D01*
X111925447Y-104716973D01*
X111856265Y-104726750D01*
X111792779Y-104697572D01*
X111756501Y-104643059D01*
X111714358Y-104515880D01*
X111714356Y-104515875D01*
X111622315Y-104366654D01*
X111498345Y-104242684D01*
X111349124Y-104150643D01*
X111349119Y-104150641D01*
X111182697Y-104095494D01*
X111182690Y-104095493D01*
X111079986Y-104085000D01*
X109680000Y-104085000D01*
X109680000Y-106434999D01*
X111079972Y-106434999D01*
X111079986Y-106434998D01*
X111182697Y-106424505D01*
X111349119Y-106369358D01*
X111349124Y-106369356D01*
X111498345Y-106277315D01*
X111622315Y-106153345D01*
X111714356Y-106004124D01*
X111714359Y-106004117D01*
X111753323Y-105886530D01*
X111793095Y-105829085D01*
X111857610Y-105802261D01*
X111926386Y-105814576D01*
X111977587Y-105862118D01*
X111995029Y-105925831D01*
X111975762Y-113938040D01*
X111955916Y-114005032D01*
X111903002Y-114050660D01*
X111833820Y-114060437D01*
X111770334Y-114031259D01*
X111745645Y-114001892D01*
X111686118Y-113903423D01*
X111538522Y-113715030D01*
X110396290Y-114857262D01*
X110299033Y-114723398D01*
X110176602Y-114600967D01*
X110042736Y-114503709D01*
X110312953Y-114233492D01*
X110426726Y-114233492D01*
X110426726Y-114313056D01*
X110457174Y-114386565D01*
X110513435Y-114442826D01*
X110586944Y-114473274D01*
X110666508Y-114473274D01*
X110740017Y-114442826D01*
X110796278Y-114386565D01*
X110826726Y-114313056D01*
X110826726Y-114233492D01*
X110796278Y-114159983D01*
X110740017Y-114103722D01*
X110666508Y-114073274D01*
X110586944Y-114073274D01*
X110513435Y-114103722D01*
X110457174Y-114159983D01*
X110426726Y-114233492D01*
X110312953Y-114233492D01*
X111184968Y-113361476D01*
X110996576Y-113213881D01*
X110717043Y-113044898D01*
X110717041Y-113044897D01*
X110419175Y-112910839D01*
X110419164Y-112910835D01*
X110107341Y-112813667D01*
X109786038Y-112754786D01*
X109460000Y-112735065D01*
X109133961Y-112754786D01*
X108812658Y-112813667D01*
X108500835Y-112910835D01*
X108500824Y-112910839D01*
X108202958Y-113044897D01*
X108202956Y-113044898D01*
X107923422Y-113213881D01*
X107923416Y-113213886D01*
X107735030Y-113361474D01*
X107735029Y-113361476D01*
X108877262Y-114503709D01*
X108743398Y-114600967D01*
X108620967Y-114723398D01*
X108523709Y-114857262D01*
X107899939Y-114233492D01*
X108093274Y-114233492D01*
X108093274Y-114313056D01*
X108123722Y-114386565D01*
X108179983Y-114442826D01*
X108253492Y-114473274D01*
X108333056Y-114473274D01*
X108406565Y-114442826D01*
X108462826Y-114386565D01*
X108493274Y-114313056D01*
X108493274Y-114233492D01*
X108462826Y-114159983D01*
X108406565Y-114103722D01*
X108333056Y-114073274D01*
X108253492Y-114073274D01*
X108179983Y-114103722D01*
X108123722Y-114159983D01*
X108093274Y-114233492D01*
X107899939Y-114233492D01*
X107381476Y-113715029D01*
X107381474Y-113715030D01*
X107233886Y-113903416D01*
X107233881Y-113903422D01*
X107064898Y-114182956D01*
X107064897Y-114182958D01*
X106930839Y-114480824D01*
X106930835Y-114480835D01*
X106833667Y-114792658D01*
X106774786Y-115113961D01*
X106755065Y-115440000D01*
X106774786Y-115766038D01*
X106833667Y-116087341D01*
X106930835Y-116399164D01*
X106930839Y-116399175D01*
X107064897Y-116697041D01*
X107064898Y-116697043D01*
X107233881Y-116976576D01*
X107381476Y-117164968D01*
X107979500Y-116566944D01*
X108093274Y-116566944D01*
X108093274Y-116646508D01*
X108123722Y-116720017D01*
X108179983Y-116776278D01*
X108253492Y-116806726D01*
X108333056Y-116806726D01*
X108406565Y-116776278D01*
X108462826Y-116720017D01*
X108493274Y-116646508D01*
X108493274Y-116566944D01*
X108462826Y-116493435D01*
X108406565Y-116437174D01*
X108333056Y-116406726D01*
X108253492Y-116406726D01*
X108179983Y-116437174D01*
X108123722Y-116493435D01*
X108093274Y-116566944D01*
X107979500Y-116566944D01*
X108523708Y-116022736D01*
X108620967Y-116156602D01*
X108743398Y-116279033D01*
X108877262Y-116376290D01*
X107735030Y-117518522D01*
X107735030Y-117518523D01*
X107923424Y-117666119D01*
X107923428Y-117666122D01*
X108108803Y-117778184D01*
X108155991Y-117829711D01*
X108167830Y-117898571D01*
X108140562Y-117962899D01*
X108082843Y-118002274D01*
X108044980Y-118008301D01*
X100738298Y-118027500D01*
X89247046Y-118027500D01*
X89180007Y-118007815D01*
X89134252Y-117955011D01*
X89124308Y-117885853D01*
X89153333Y-117822297D01*
X89182896Y-117797383D01*
X89416586Y-117656112D01*
X89604968Y-117508523D01*
X89604968Y-117508522D01*
X88653391Y-116556944D01*
X88846726Y-116556944D01*
X88846726Y-116636508D01*
X88877174Y-116710017D01*
X88933435Y-116766278D01*
X89006944Y-116796726D01*
X89086508Y-116796726D01*
X89160017Y-116766278D01*
X89216278Y-116710017D01*
X89246726Y-116636508D01*
X89246726Y-116556944D01*
X89216278Y-116483435D01*
X89160017Y-116427174D01*
X89086508Y-116396726D01*
X89006944Y-116396726D01*
X88933435Y-116427174D01*
X88877174Y-116483435D01*
X88846726Y-116556944D01*
X88653391Y-116556944D01*
X88462737Y-116366290D01*
X88596602Y-116269033D01*
X88719033Y-116146602D01*
X88816290Y-116012737D01*
X89958522Y-117154968D01*
X89958523Y-117154968D01*
X90106112Y-116966586D01*
X90275101Y-116687043D01*
X90275102Y-116687041D01*
X90409160Y-116389175D01*
X90409164Y-116389164D01*
X90506332Y-116077341D01*
X90565213Y-115756038D01*
X90584934Y-115430000D01*
X90565213Y-115103961D01*
X90506332Y-114782658D01*
X90409164Y-114470835D01*
X90409160Y-114470824D01*
X90275102Y-114172958D01*
X90275101Y-114172956D01*
X90106118Y-113893423D01*
X90083839Y-113864986D01*
X101160001Y-113864986D01*
X101170494Y-113967697D01*
X101225641Y-114134119D01*
X101225643Y-114134124D01*
X101317684Y-114283345D01*
X101441654Y-114407315D01*
X101590875Y-114499356D01*
X101590880Y-114499358D01*
X101757302Y-114554505D01*
X101757309Y-114554506D01*
X101860019Y-114564999D01*
X102059999Y-114564999D01*
X102560000Y-114564999D01*
X102759972Y-114564999D01*
X102759986Y-114564998D01*
X102862697Y-114554505D01*
X103029119Y-114499358D01*
X103029124Y-114499356D01*
X103178345Y-114407315D01*
X103302315Y-114283345D01*
X103394356Y-114134124D01*
X103394358Y-114134119D01*
X103449505Y-113967697D01*
X103449506Y-113967690D01*
X103459999Y-113864986D01*
X103460000Y-113864973D01*
X103460000Y-113440000D01*
X102560000Y-113440000D01*
X102560000Y-114564999D01*
X102059999Y-114564999D01*
X102060000Y-114564998D01*
X102060000Y-113440000D01*
X101160001Y-113440000D01*
X101160001Y-113864986D01*
X90083839Y-113864986D01*
X89958522Y-113705030D01*
X88816290Y-114847262D01*
X88719033Y-114713398D01*
X88596602Y-114590967D01*
X88462736Y-114493709D01*
X88732953Y-114223492D01*
X88846726Y-114223492D01*
X88846726Y-114303056D01*
X88877174Y-114376565D01*
X88933435Y-114432826D01*
X89006944Y-114463274D01*
X89086508Y-114463274D01*
X89160017Y-114432826D01*
X89216278Y-114376565D01*
X89246726Y-114303056D01*
X89246726Y-114223492D01*
X89216278Y-114149983D01*
X89160017Y-114093722D01*
X89086508Y-114063274D01*
X89006944Y-114063274D01*
X88933435Y-114093722D01*
X88877174Y-114149983D01*
X88846726Y-114223492D01*
X88732953Y-114223492D01*
X89604968Y-113351476D01*
X89416576Y-113203881D01*
X89137043Y-113034898D01*
X89137041Y-113034897D01*
X88839175Y-112900839D01*
X88839164Y-112900835D01*
X88527341Y-112803667D01*
X88206038Y-112744786D01*
X87880000Y-112725065D01*
X87553961Y-112744786D01*
X87232658Y-112803667D01*
X86920835Y-112900835D01*
X86920824Y-112900839D01*
X86622958Y-113034897D01*
X86622956Y-113034898D01*
X86343422Y-113203881D01*
X86343416Y-113203886D01*
X86155030Y-113351474D01*
X86155029Y-113351476D01*
X87297262Y-114493709D01*
X87163398Y-114590967D01*
X87040967Y-114713398D01*
X86943709Y-114847262D01*
X86319939Y-114223492D01*
X86513274Y-114223492D01*
X86513274Y-114303056D01*
X86543722Y-114376565D01*
X86599983Y-114432826D01*
X86673492Y-114463274D01*
X86753056Y-114463274D01*
X86826565Y-114432826D01*
X86882826Y-114376565D01*
X86913274Y-114303056D01*
X86913274Y-114223492D01*
X86882826Y-114149983D01*
X86826565Y-114093722D01*
X86753056Y-114063274D01*
X86673492Y-114063274D01*
X86599983Y-114093722D01*
X86543722Y-114149983D01*
X86513274Y-114223492D01*
X86319939Y-114223492D01*
X85801476Y-113705029D01*
X85801474Y-113705030D01*
X85653886Y-113893416D01*
X85653881Y-113893422D01*
X85574617Y-114024542D01*
X85523089Y-114071729D01*
X85454230Y-114083568D01*
X85389901Y-114056299D01*
X85350527Y-113998580D01*
X85344500Y-113960392D01*
X85344500Y-111769986D01*
X90265001Y-111769986D01*
X90275494Y-111872697D01*
X90330641Y-112039119D01*
X90330643Y-112039124D01*
X90422684Y-112188345D01*
X90546654Y-112312315D01*
X90695875Y-112404356D01*
X90695880Y-112404358D01*
X90862302Y-112459505D01*
X90862309Y-112459506D01*
X90965019Y-112469999D01*
X91389999Y-112469999D01*
X91890000Y-112469999D01*
X92314972Y-112469999D01*
X92314986Y-112469998D01*
X92417697Y-112459505D01*
X92584119Y-112404358D01*
X92584124Y-112404356D01*
X92733345Y-112312315D01*
X92857315Y-112188345D01*
X92949356Y-112039124D01*
X92949358Y-112039119D01*
X93004505Y-111872697D01*
X93004506Y-111872690D01*
X93014999Y-111769986D01*
X93015000Y-111769973D01*
X93015000Y-111570000D01*
X91890000Y-111570000D01*
X91890000Y-112469999D01*
X91389999Y-112469999D01*
X91390000Y-112469998D01*
X91390000Y-111570000D01*
X90265001Y-111570000D01*
X90265001Y-111769986D01*
X85344500Y-111769986D01*
X85344500Y-110870013D01*
X90265000Y-110870013D01*
X90265000Y-111070000D01*
X91390000Y-111070000D01*
X91890000Y-111070000D01*
X93014999Y-111070000D01*
X93014999Y-110870028D01*
X93014998Y-110870013D01*
X93004505Y-110767302D01*
X92949358Y-110600880D01*
X92949356Y-110600875D01*
X92857315Y-110451654D01*
X92733345Y-110327684D01*
X92584124Y-110235643D01*
X92584119Y-110235641D01*
X92417697Y-110180494D01*
X92417690Y-110180493D01*
X92314986Y-110170000D01*
X91890000Y-110170000D01*
X91890000Y-111070000D01*
X91390000Y-111070000D01*
X91390000Y-110170000D01*
X90965028Y-110170000D01*
X90965012Y-110170001D01*
X90862302Y-110180494D01*
X90695880Y-110235641D01*
X90695875Y-110235643D01*
X90546654Y-110327684D01*
X90422684Y-110451654D01*
X90330643Y-110600875D01*
X90330641Y-110600880D01*
X90275494Y-110767302D01*
X90275493Y-110767309D01*
X90265000Y-110870013D01*
X85344500Y-110870013D01*
X85344500Y-109543074D01*
X85347850Y-108149998D01*
X85351077Y-106807895D01*
X85370923Y-106740905D01*
X85423837Y-106695277D01*
X85493019Y-106685500D01*
X85556505Y-106714678D01*
X85572346Y-106733353D01*
X85573202Y-106732677D01*
X85577683Y-106738344D01*
X85701654Y-106862315D01*
X85850875Y-106954356D01*
X85850880Y-106954358D01*
X86017302Y-107009505D01*
X86017309Y-107009506D01*
X86120019Y-107019999D01*
X87519999Y-107019999D01*
X87520000Y-107019998D01*
X87520000Y-104670000D01*
X86120028Y-104670000D01*
X86120012Y-104670001D01*
X86017302Y-104680494D01*
X85850880Y-104735641D01*
X85850875Y-104735643D01*
X85701654Y-104827684D01*
X85577677Y-104951661D01*
X85576981Y-104952542D01*
X85576351Y-104952987D01*
X85572576Y-104956763D01*
X85571930Y-104956117D01*
X85519955Y-104992912D01*
X85450155Y-104996043D01*
X85389744Y-104960940D01*
X85357900Y-104898749D01*
X85355724Y-104875328D01*
X85357943Y-103952697D01*
X85377789Y-103885706D01*
X85430703Y-103840078D01*
X85499885Y-103830301D01*
X85563371Y-103859479D01*
X85572099Y-103868630D01*
X85572181Y-103868549D01*
X85577288Y-103873656D01*
X85701344Y-103997712D01*
X85850666Y-104089814D01*
X86017203Y-104144999D01*
X86119991Y-104155500D01*
X87314598Y-104155499D01*
X87333996Y-104157026D01*
X87400372Y-104167539D01*
X87450634Y-104175500D01*
X90755894Y-104175500D01*
X90794897Y-104181794D01*
X90809148Y-104186516D01*
X90827203Y-104192499D01*
X90929991Y-104203000D01*
X92330008Y-104202999D01*
X92432797Y-104192499D01*
X92599334Y-104137314D01*
X92748656Y-104045212D01*
X92872712Y-103921156D01*
X92964814Y-103771834D01*
X92969376Y-103758064D01*
X93009145Y-103700621D01*
X93073660Y-103673796D01*
X93142436Y-103686108D01*
X93159967Y-103696749D01*
X93206929Y-103730868D01*
X93234868Y-103751167D01*
X93394119Y-103832309D01*
X93394121Y-103832310D01*
X93505904Y-103868630D01*
X93564103Y-103887540D01*
X93740634Y-103915500D01*
X94430624Y-103915500D01*
X94497663Y-103935185D01*
X94543418Y-103987989D01*
X94553362Y-104057147D01*
X94550838Y-104069907D01*
X94391562Y-104699602D01*
X94391559Y-104699617D01*
X94390582Y-104704811D01*
X94387340Y-104716461D01*
X94385908Y-104722518D01*
X94384634Y-104734368D01*
X94383210Y-104744015D01*
X94380007Y-104761051D01*
X94379650Y-104763913D01*
X94379649Y-104763924D01*
X94378633Y-104880393D01*
X94379500Y-104894780D01*
X94379500Y-106577870D01*
X94379501Y-106577876D01*
X94385908Y-106637483D01*
X94436202Y-106772328D01*
X94436203Y-106772330D01*
X94480671Y-106831731D01*
X94505088Y-106897195D01*
X94490237Y-106965468D01*
X94440832Y-107014874D01*
X94396963Y-107029062D01*
X93976815Y-107082199D01*
X93974861Y-107082490D01*
X93970460Y-107083146D01*
X93952190Y-107084500D01*
X93071235Y-107084500D01*
X93004196Y-107064815D01*
X92958441Y-107012011D01*
X92948497Y-106942853D01*
X92962653Y-106903798D01*
X92961760Y-106903382D01*
X92964808Y-106896843D01*
X92964814Y-106896834D01*
X93019999Y-106730297D01*
X93030500Y-106627509D01*
X93030499Y-105702492D01*
X93019999Y-105599703D01*
X92964814Y-105433166D01*
X92872712Y-105283844D01*
X92748656Y-105159788D01*
X92599334Y-105067686D01*
X92432797Y-105012501D01*
X92432795Y-105012500D01*
X92330010Y-105002000D01*
X90929998Y-105002000D01*
X90929981Y-105002001D01*
X90827203Y-105012500D01*
X90827200Y-105012501D01*
X90660668Y-105067685D01*
X90660663Y-105067687D01*
X90511342Y-105159789D01*
X90387287Y-105283844D01*
X90342196Y-105356948D01*
X90290248Y-105403672D01*
X90221285Y-105414893D01*
X90157203Y-105387049D01*
X90118348Y-105328980D01*
X90113300Y-105304449D01*
X90109506Y-105267303D01*
X90054358Y-105100880D01*
X90054356Y-105100875D01*
X89962315Y-104951654D01*
X89838345Y-104827684D01*
X89689124Y-104735643D01*
X89689119Y-104735641D01*
X89522697Y-104680494D01*
X89522690Y-104680493D01*
X89419986Y-104670000D01*
X88020000Y-104670000D01*
X88020000Y-107019999D01*
X89419972Y-107019999D01*
X89419986Y-107019998D01*
X89522697Y-107009505D01*
X89689119Y-106954358D01*
X89689124Y-106954356D01*
X89838345Y-106862315D01*
X89962317Y-106738343D01*
X90009477Y-106661884D01*
X90061424Y-106615159D01*
X90130387Y-106603936D01*
X90194469Y-106631779D01*
X90233326Y-106689847D01*
X90238374Y-106714374D01*
X90240001Y-106730298D01*
X90240001Y-106730299D01*
X90295185Y-106896831D01*
X90295187Y-106896836D01*
X90299225Y-106903382D01*
X90376744Y-107029062D01*
X90387289Y-107046157D01*
X90468181Y-107127049D01*
X90501666Y-107188372D01*
X90504500Y-107214730D01*
X90504500Y-107217770D01*
X90484815Y-107284809D01*
X90468181Y-107305451D01*
X90422289Y-107351342D01*
X90330187Y-107500663D01*
X90330186Y-107500666D01*
X90275001Y-107667203D01*
X90275001Y-107667204D01*
X90275000Y-107667204D01*
X90264500Y-107769983D01*
X90264500Y-108670001D01*
X90264501Y-108670019D01*
X90275000Y-108772796D01*
X90275001Y-108772799D01*
X90301121Y-108851623D01*
X90330186Y-108939334D01*
X90422288Y-109088656D01*
X90546344Y-109212712D01*
X90695666Y-109304814D01*
X90862203Y-109359999D01*
X90964991Y-109370500D01*
X92315008Y-109370499D01*
X92417797Y-109359999D01*
X92417799Y-109359998D01*
X92417801Y-109359998D01*
X92424420Y-109358582D01*
X92424682Y-109359809D01*
X92451385Y-109355500D01*
X93953034Y-109355500D01*
X93972390Y-109357414D01*
X93972412Y-109357243D01*
X93976804Y-109357798D01*
X93976806Y-109357799D01*
X94844909Y-109467588D01*
X94908949Y-109495528D01*
X94947717Y-109553656D01*
X94948905Y-109623516D01*
X94912135Y-109682927D01*
X94900475Y-109692182D01*
X94858598Y-109721504D01*
X94691505Y-109888597D01*
X94555965Y-110082169D01*
X94555964Y-110082171D01*
X94456098Y-110296335D01*
X94456094Y-110296344D01*
X94394938Y-110524586D01*
X94394936Y-110524596D01*
X94374341Y-110759999D01*
X94374341Y-110760000D01*
X94394936Y-110995403D01*
X94394938Y-110995413D01*
X94456094Y-111223655D01*
X94456096Y-111223659D01*
X94456097Y-111223663D01*
X94555965Y-111437830D01*
X94555967Y-111437834D01*
X94664281Y-111592521D01*
X94691505Y-111631401D01*
X94858599Y-111798495D01*
X94955384Y-111866265D01*
X95052165Y-111934032D01*
X95052167Y-111934033D01*
X95052170Y-111934035D01*
X95266337Y-112033903D01*
X95266343Y-112033904D01*
X95266344Y-112033905D01*
X95285822Y-112039124D01*
X95494592Y-112095063D01*
X95730000Y-112115659D01*
X95791696Y-112110260D01*
X95804610Y-112109807D01*
X95806577Y-112109841D01*
X95826860Y-112107275D01*
X95831565Y-112106772D01*
X95965408Y-112095063D01*
X95994791Y-112087189D01*
X96011304Y-112083948D01*
X97483193Y-111897799D01*
X97489535Y-111896853D01*
X97507810Y-111895500D01*
X99910634Y-111895500D01*
X100089366Y-111895500D01*
X100880634Y-111895500D01*
X101220611Y-111895500D01*
X101287650Y-111915185D01*
X101333405Y-111967989D01*
X101343349Y-112037147D01*
X101320635Y-112089991D01*
X101321475Y-112090509D01*
X101317970Y-112096190D01*
X101317875Y-112096413D01*
X101317685Y-112096652D01*
X101225643Y-112245875D01*
X101225641Y-112245880D01*
X101170494Y-112412302D01*
X101170493Y-112412309D01*
X101160000Y-112515013D01*
X101160000Y-112940000D01*
X103459999Y-112940000D01*
X103459999Y-112515028D01*
X103459998Y-112515013D01*
X103449505Y-112412302D01*
X103394358Y-112245880D01*
X103394356Y-112245875D01*
X103302315Y-112096654D01*
X103291195Y-112085534D01*
X103257710Y-112024211D01*
X103262694Y-111954519D01*
X103291193Y-111910174D01*
X103322712Y-111878656D01*
X103414814Y-111729334D01*
X103469999Y-111562797D01*
X103480500Y-111460009D01*
X103480499Y-110059992D01*
X103469999Y-109957203D01*
X103414814Y-109790666D01*
X103322712Y-109641344D01*
X103217797Y-109536429D01*
X103184312Y-109475106D01*
X103189296Y-109405414D01*
X103231168Y-109349481D01*
X103253068Y-109336369D01*
X103372734Y-109280568D01*
X103559139Y-109150047D01*
X103720047Y-108989139D01*
X103850568Y-108802734D01*
X103946739Y-108596496D01*
X104005635Y-108376692D01*
X104025468Y-108150000D01*
X104021658Y-108106462D01*
X104021286Y-108090693D01*
X104021504Y-108085261D01*
X104010380Y-107977400D01*
X104010206Y-107975562D01*
X104005635Y-107923311D01*
X104005635Y-107923308D01*
X104005633Y-107923302D01*
X104004694Y-107917974D01*
X104005018Y-107917916D01*
X104003266Y-107908420D01*
X103910919Y-107012929D01*
X103919363Y-106953588D01*
X104075206Y-106569534D01*
X104118654Y-106514817D01*
X104161592Y-106495483D01*
X104167477Y-106494091D01*
X104167483Y-106494091D01*
X104302331Y-106443796D01*
X104417546Y-106357546D01*
X104503796Y-106242331D01*
X104554091Y-106107483D01*
X104560500Y-106047873D01*
X104560499Y-103452128D01*
X104554824Y-103399334D01*
X104554091Y-103392516D01*
X104503797Y-103257671D01*
X104503793Y-103257664D01*
X104417547Y-103142455D01*
X104417544Y-103142452D01*
X104302335Y-103056206D01*
X104302332Y-103056205D01*
X104302331Y-103056204D01*
X104221371Y-103026007D01*
X104165440Y-102984137D01*
X104148224Y-102952343D01*
X104142209Y-102935864D01*
X103953017Y-102417526D01*
X103945500Y-102375010D01*
X103945500Y-101351472D01*
X103951794Y-101312468D01*
X103954999Y-101302797D01*
X103965500Y-101200009D01*
X103965499Y-100084986D01*
X107080001Y-100084986D01*
X107090494Y-100187697D01*
X107145641Y-100354119D01*
X107145643Y-100354124D01*
X107237684Y-100503345D01*
X107361654Y-100627315D01*
X107510875Y-100719356D01*
X107510880Y-100719358D01*
X107677302Y-100774505D01*
X107677309Y-100774506D01*
X107780019Y-100784999D01*
X109179999Y-100784999D01*
X109180000Y-100784998D01*
X109180000Y-99860000D01*
X107080001Y-99860000D01*
X107080001Y-100084986D01*
X103965499Y-100084986D01*
X103965499Y-99799992D01*
X103954999Y-99697203D01*
X103953275Y-99692000D01*
X103926794Y-99612085D01*
X103920500Y-99573081D01*
X103920500Y-97917543D01*
X103940185Y-97850504D01*
X103992989Y-97804749D01*
X104062147Y-97794805D01*
X104125703Y-97823830D01*
X104128040Y-97825908D01*
X104134260Y-97831578D01*
X104307584Y-97938897D01*
X104497678Y-98012539D01*
X104698072Y-98050000D01*
X104901928Y-98050000D01*
X105102322Y-98012539D01*
X105292412Y-97938899D01*
X105292416Y-97938897D01*
X105380686Y-97884241D01*
X105380686Y-97884240D01*
X104800000Y-97303553D01*
X104741301Y-97244854D01*
X104760504Y-97250000D01*
X104839496Y-97250000D01*
X104915796Y-97229556D01*
X104984205Y-97190060D01*
X105040060Y-97134205D01*
X105079556Y-97065796D01*
X105100000Y-96989496D01*
X105100000Y-96950000D01*
X105153553Y-96950000D01*
X105737465Y-97533912D01*
X105739247Y-97531553D01*
X105739248Y-97531551D01*
X105830113Y-97349069D01*
X105830116Y-97349063D01*
X105885902Y-97152992D01*
X105885903Y-97152989D01*
X105904713Y-96950000D01*
X105904713Y-96949999D01*
X105885903Y-96747010D01*
X105885902Y-96747007D01*
X105830116Y-96550936D01*
X105830113Y-96550930D01*
X105739249Y-96368449D01*
X105739247Y-96368447D01*
X105737465Y-96366087D01*
X105153553Y-96950000D01*
X105100000Y-96950000D01*
X105100000Y-96910504D01*
X105079556Y-96834204D01*
X105040060Y-96765795D01*
X104984205Y-96709940D01*
X104915796Y-96670444D01*
X104839496Y-96650000D01*
X104760504Y-96650000D01*
X104684204Y-96670444D01*
X104615795Y-96709940D01*
X104559940Y-96765795D01*
X104520444Y-96834204D01*
X104500000Y-96910504D01*
X104500000Y-96989496D01*
X104505145Y-97008698D01*
X103936818Y-96440371D01*
X103903333Y-96379048D01*
X103900499Y-96352690D01*
X103900499Y-96302129D01*
X103900498Y-96302123D01*
X103900497Y-96302116D01*
X103894091Y-96242517D01*
X103849235Y-96122253D01*
X103843797Y-96107671D01*
X103843793Y-96107664D01*
X103774992Y-96015758D01*
X104219311Y-96015758D01*
X104800000Y-96596446D01*
X104800001Y-96596446D01*
X105380687Y-96015758D01*
X105292413Y-95961101D01*
X105292411Y-95961100D01*
X105102321Y-95887460D01*
X104901928Y-95850000D01*
X104698072Y-95850000D01*
X104497678Y-95887460D01*
X104307588Y-95961100D01*
X104307581Y-95961104D01*
X104219312Y-96015757D01*
X104219311Y-96015758D01*
X103774992Y-96015758D01*
X103757547Y-95992455D01*
X103757544Y-95992452D01*
X103642335Y-95906206D01*
X103642328Y-95906202D01*
X103507482Y-95855908D01*
X103507483Y-95855908D01*
X103447883Y-95849501D01*
X103447881Y-95849500D01*
X103447873Y-95849500D01*
X103447864Y-95849500D01*
X102152129Y-95849500D01*
X102152123Y-95849501D01*
X102092516Y-95855908D01*
X101957671Y-95906202D01*
X101957664Y-95906206D01*
X101842455Y-95992452D01*
X101842452Y-95992455D01*
X101756206Y-96107664D01*
X101756202Y-96107671D01*
X101705908Y-96242517D01*
X101699501Y-96302116D01*
X101699501Y-96302123D01*
X101699500Y-96302135D01*
X101699500Y-96846630D01*
X101693431Y-96884948D01*
X101677460Y-96934101D01*
X101649500Y-97110634D01*
X101649500Y-99695788D01*
X101648858Y-99708391D01*
X101639500Y-99799983D01*
X101639500Y-101200001D01*
X101639501Y-101200018D01*
X101650000Y-101302793D01*
X101650000Y-101302795D01*
X101668206Y-101357734D01*
X101674500Y-101396738D01*
X101674500Y-101800500D01*
X101654815Y-101867539D01*
X101602011Y-101913294D01*
X101550500Y-101924500D01*
X100675523Y-101924500D01*
X100608484Y-101904815D01*
X100562729Y-101852011D01*
X100552785Y-101782853D01*
X100581810Y-101719297D01*
X100587842Y-101712819D01*
X100682315Y-101618345D01*
X100774356Y-101469124D01*
X100774358Y-101469119D01*
X100829505Y-101302697D01*
X100829506Y-101302690D01*
X100839999Y-101199986D01*
X100840000Y-101199973D01*
X100840000Y-100750000D01*
X98515001Y-100750000D01*
X98515001Y-101199986D01*
X98525494Y-101302697D01*
X98546635Y-101366496D01*
X98549037Y-101436324D01*
X98513305Y-101496366D01*
X98450785Y-101527559D01*
X98428930Y-101529500D01*
X98284999Y-101529500D01*
X98284980Y-101529501D01*
X98182203Y-101540000D01*
X98182200Y-101540001D01*
X98015668Y-101595185D01*
X98015663Y-101595187D01*
X97866342Y-101687289D01*
X97742289Y-101811342D01*
X97650187Y-101960663D01*
X97650185Y-101960668D01*
X97623139Y-102042287D01*
X97595001Y-102127203D01*
X97595001Y-102127204D01*
X97595000Y-102127204D01*
X97584500Y-102229983D01*
X97584500Y-103130001D01*
X97584501Y-103130019D01*
X97595000Y-103232796D01*
X97595001Y-103232799D01*
X97650185Y-103399331D01*
X97650187Y-103399336D01*
X97682746Y-103452123D01*
X97742288Y-103548656D01*
X97866344Y-103672712D01*
X98015666Y-103764814D01*
X98182203Y-103819999D01*
X98284991Y-103830500D01*
X98533298Y-103830499D01*
X98600337Y-103850183D01*
X98620979Y-103866818D01*
X98680272Y-103926111D01*
X98824868Y-104031167D01*
X98984119Y-104112309D01*
X98984121Y-104112310D01*
X99121744Y-104157026D01*
X99154103Y-104167540D01*
X99330634Y-104195500D01*
X100935500Y-104195500D01*
X101002539Y-104215185D01*
X101048294Y-104267989D01*
X101059500Y-104319500D01*
X101059500Y-106047870D01*
X101059501Y-106047876D01*
X101065908Y-106107483D01*
X101116202Y-106242328D01*
X101116206Y-106242335D01*
X101202452Y-106357544D01*
X101202455Y-106357547D01*
X101317664Y-106443793D01*
X101317669Y-106443796D01*
X101323616Y-106446014D01*
X101379551Y-106487885D01*
X101398185Y-106523783D01*
X101527783Y-106921546D01*
X101533229Y-106972680D01*
X101491616Y-107376205D01*
X101465158Y-107440871D01*
X101407939Y-107480968D01*
X101338126Y-107483765D01*
X101277883Y-107448374D01*
X101266695Y-107434608D01*
X101180045Y-107310858D01*
X101019141Y-107149954D01*
X100832734Y-107019432D01*
X100832732Y-107019431D01*
X100626497Y-106923261D01*
X100626488Y-106923258D01*
X100406697Y-106864366D01*
X100406687Y-106864364D01*
X100262098Y-106851714D01*
X100197029Y-106826261D01*
X100156051Y-106769670D01*
X100152173Y-106699908D01*
X100173935Y-106654812D01*
X100173920Y-106654803D01*
X100174012Y-106654653D01*
X100175646Y-106651268D01*
X100177706Y-106648661D01*
X100177712Y-106648656D01*
X100269814Y-106499334D01*
X100324999Y-106332797D01*
X100335500Y-106230009D01*
X100335499Y-105329992D01*
X100324999Y-105227203D01*
X100269814Y-105060666D01*
X100177712Y-104911344D01*
X100053656Y-104787288D01*
X99955508Y-104726750D01*
X99904336Y-104695187D01*
X99904331Y-104695185D01*
X99902862Y-104694698D01*
X99737797Y-104640001D01*
X99737795Y-104640000D01*
X99635010Y-104629500D01*
X98284998Y-104629500D01*
X98284981Y-104629501D01*
X98182203Y-104640000D01*
X98182200Y-104640001D01*
X98015668Y-104695185D01*
X98015663Y-104695187D01*
X97866342Y-104787289D01*
X97742289Y-104911342D01*
X97650187Y-105060663D01*
X97650185Y-105060668D01*
X97647859Y-105067687D01*
X97595001Y-105227203D01*
X97595001Y-105227204D01*
X97595000Y-105227204D01*
X97584500Y-105329983D01*
X97584500Y-105498297D01*
X97564815Y-105565336D01*
X97548181Y-105585978D01*
X97292180Y-105841979D01*
X97230857Y-105875464D01*
X97161165Y-105870480D01*
X97105232Y-105828608D01*
X97080815Y-105763144D01*
X97080499Y-105754298D01*
X97080499Y-104881192D01*
X97081017Y-104869871D01*
X97083509Y-104842692D01*
X97081180Y-104820590D01*
X97080499Y-104807602D01*
X97080499Y-104782129D01*
X97080498Y-104782123D01*
X97078541Y-104763913D01*
X97074091Y-104722517D01*
X97074090Y-104722515D01*
X97074090Y-104722512D01*
X97072522Y-104715874D01*
X97069111Y-104703389D01*
X97068438Y-104699615D01*
X97068437Y-104699603D01*
X96927686Y-104143144D01*
X96869286Y-103912258D01*
X96865500Y-103881851D01*
X96865500Y-103782230D01*
X96885185Y-103715191D01*
X96901819Y-103694549D01*
X96923658Y-103672710D01*
X96947712Y-103648656D01*
X97039814Y-103499334D01*
X97094999Y-103332797D01*
X97105500Y-103230009D01*
X97105499Y-102329992D01*
X97094999Y-102227203D01*
X97039814Y-102060666D01*
X96947712Y-101911344D01*
X96823656Y-101787288D01*
X96730888Y-101730069D01*
X96674336Y-101695187D01*
X96674331Y-101695185D01*
X96650499Y-101687288D01*
X96507797Y-101640001D01*
X96507795Y-101640000D01*
X96405010Y-101629500D01*
X95054998Y-101629500D01*
X95054981Y-101629501D01*
X94952198Y-101640001D01*
X94945580Y-101641418D01*
X94945317Y-101640190D01*
X94918615Y-101644500D01*
X94909500Y-101644500D01*
X94842461Y-101624815D01*
X94796706Y-101572011D01*
X94785500Y-101520500D01*
X94785500Y-101205629D01*
X94772079Y-101120899D01*
X94772079Y-101120894D01*
X94762708Y-101061729D01*
X94757541Y-101029103D01*
X94733467Y-100955015D01*
X94731473Y-100885177D01*
X94767553Y-100825344D01*
X94830253Y-100794515D01*
X94890404Y-100798993D01*
X94952305Y-100819505D01*
X94952309Y-100819506D01*
X95055019Y-100829999D01*
X95479999Y-100829999D01*
X95980000Y-100829999D01*
X96404972Y-100829999D01*
X96404986Y-100829998D01*
X96507697Y-100819505D01*
X96674119Y-100764358D01*
X96674124Y-100764356D01*
X96823345Y-100672315D01*
X96947315Y-100548345D01*
X97039356Y-100399124D01*
X97039358Y-100399119D01*
X97094505Y-100232697D01*
X97094506Y-100232690D01*
X97104999Y-100129986D01*
X97105000Y-100129973D01*
X97105000Y-99930000D01*
X95980000Y-99930000D01*
X95980000Y-100829999D01*
X95479999Y-100829999D01*
X95480000Y-100829998D01*
X95480000Y-99930000D01*
X94460230Y-99930000D01*
X94393191Y-99910315D01*
X94372549Y-99893681D01*
X94328657Y-99849789D01*
X94328656Y-99849788D01*
X94247957Y-99800013D01*
X98515000Y-99800013D01*
X98515000Y-100250000D01*
X99427500Y-100250000D01*
X99927500Y-100250000D01*
X100839999Y-100250000D01*
X100839999Y-99800028D01*
X100839998Y-99800013D01*
X100829505Y-99697302D01*
X100774358Y-99530880D01*
X100774356Y-99530875D01*
X100682315Y-99381654D01*
X100558345Y-99257684D01*
X100409124Y-99165643D01*
X100409119Y-99165641D01*
X100242697Y-99110494D01*
X100242690Y-99110493D01*
X100139986Y-99100000D01*
X99927500Y-99100000D01*
X99927500Y-100250000D01*
X99427500Y-100250000D01*
X99427500Y-99100000D01*
X99215029Y-99100000D01*
X99215012Y-99100001D01*
X99112302Y-99110494D01*
X98945880Y-99165641D01*
X98945875Y-99165643D01*
X98796654Y-99257684D01*
X98672684Y-99381654D01*
X98580643Y-99530875D01*
X98580641Y-99530880D01*
X98525494Y-99697302D01*
X98525493Y-99697309D01*
X98515000Y-99800013D01*
X94247957Y-99800013D01*
X94179334Y-99757686D01*
X94012797Y-99702501D01*
X94012795Y-99702500D01*
X93910010Y-99692000D01*
X92509998Y-99692000D01*
X92509981Y-99692001D01*
X92407203Y-99702500D01*
X92407200Y-99702501D01*
X92240668Y-99757685D01*
X92240663Y-99757687D01*
X92091342Y-99849789D01*
X91967289Y-99973842D01*
X91875187Y-100123163D01*
X91875185Y-100123168D01*
X91850780Y-100196818D01*
X91820001Y-100289703D01*
X91820001Y-100289704D01*
X91820000Y-100289704D01*
X91809500Y-100392483D01*
X91809500Y-101317501D01*
X91809501Y-101317519D01*
X91820000Y-101420296D01*
X91820001Y-101420299D01*
X91875185Y-101586831D01*
X91875187Y-101586836D01*
X91880338Y-101595187D01*
X91937526Y-101687904D01*
X91955966Y-101755296D01*
X91935043Y-101821959D01*
X91881401Y-101866729D01*
X91831987Y-101877000D01*
X90929998Y-101877000D01*
X90929981Y-101877001D01*
X90827210Y-101887500D01*
X90827206Y-101887500D01*
X90827203Y-101887501D01*
X90827201Y-101887501D01*
X90827199Y-101887502D01*
X90794898Y-101898206D01*
X90755895Y-101904500D01*
X89071472Y-101904500D01*
X89032469Y-101898206D01*
X89022797Y-101895001D01*
X89022795Y-101895000D01*
X88920010Y-101884500D01*
X86119998Y-101884500D01*
X86119981Y-101884501D01*
X86017203Y-101895000D01*
X86017200Y-101895001D01*
X85850668Y-101950185D01*
X85850663Y-101950187D01*
X85701345Y-102042287D01*
X85574123Y-102169509D01*
X85512800Y-102202993D01*
X85443108Y-102198009D01*
X85387175Y-102156137D01*
X85362758Y-102090673D01*
X85362442Y-102081552D01*
X85364624Y-101174347D01*
X85384470Y-101107357D01*
X85437384Y-101061729D01*
X85506566Y-101051952D01*
X85570052Y-101081130D01*
X85576305Y-101086966D01*
X85701654Y-101212315D01*
X85850875Y-101304356D01*
X85850880Y-101304358D01*
X86017302Y-101359505D01*
X86017309Y-101359506D01*
X86120019Y-101369999D01*
X87519999Y-101369999D01*
X88020000Y-101369999D01*
X89419972Y-101369999D01*
X89419986Y-101369998D01*
X89522697Y-101359505D01*
X89689119Y-101304358D01*
X89689124Y-101304356D01*
X89838345Y-101212315D01*
X89962315Y-101088345D01*
X90054356Y-100939124D01*
X90054358Y-100939119D01*
X90109505Y-100772697D01*
X90109506Y-100772690D01*
X90119999Y-100669986D01*
X90120000Y-100669973D01*
X90120000Y-100445000D01*
X88020000Y-100445000D01*
X88020000Y-101369999D01*
X87519999Y-101369999D01*
X87520000Y-101369998D01*
X87520000Y-99945000D01*
X88020000Y-99945000D01*
X90119999Y-99945000D01*
X90119999Y-99720028D01*
X90119998Y-99720013D01*
X90109505Y-99617302D01*
X90054358Y-99450880D01*
X90054356Y-99450875D01*
X89962315Y-99301654D01*
X89838345Y-99177684D01*
X89689124Y-99085643D01*
X89689119Y-99085641D01*
X89522697Y-99030494D01*
X89522690Y-99030493D01*
X89419986Y-99020000D01*
X88020000Y-99020000D01*
X88020000Y-99945000D01*
X87520000Y-99945000D01*
X87520000Y-99020000D01*
X86120028Y-99020000D01*
X86120012Y-99020001D01*
X86017302Y-99030494D01*
X85850880Y-99085641D01*
X85850875Y-99085643D01*
X85701657Y-99177682D01*
X85581028Y-99298311D01*
X85519705Y-99331795D01*
X85450013Y-99326811D01*
X85394080Y-99284939D01*
X85369663Y-99219475D01*
X85369347Y-99210331D01*
X85369455Y-99165643D01*
X85374186Y-97198041D01*
X85394032Y-97131050D01*
X85446946Y-97085422D01*
X85516128Y-97075645D01*
X85579614Y-97104823D01*
X85604303Y-97134191D01*
X85623877Y-97166571D01*
X85623880Y-97166575D01*
X85771476Y-97354968D01*
X86369500Y-96756944D01*
X86483274Y-96756944D01*
X86483274Y-96836508D01*
X86513722Y-96910017D01*
X86569983Y-96966278D01*
X86643492Y-96996726D01*
X86723056Y-96996726D01*
X86796565Y-96966278D01*
X86852826Y-96910017D01*
X86883274Y-96836508D01*
X86883274Y-96756944D01*
X86852826Y-96683435D01*
X86796565Y-96627174D01*
X86723056Y-96596726D01*
X86643492Y-96596726D01*
X86569983Y-96627174D01*
X86513722Y-96683435D01*
X86483274Y-96756944D01*
X86369500Y-96756944D01*
X86913708Y-96212736D01*
X87010967Y-96346602D01*
X87133398Y-96469033D01*
X87267262Y-96566290D01*
X86125030Y-97708522D01*
X86125030Y-97708523D01*
X86313423Y-97856118D01*
X86592956Y-98025101D01*
X86592958Y-98025102D01*
X86890824Y-98159160D01*
X86890835Y-98159164D01*
X87202658Y-98256332D01*
X87523961Y-98315213D01*
X87850000Y-98334934D01*
X88176038Y-98315213D01*
X88497341Y-98256332D01*
X88702230Y-98192486D01*
X91810001Y-98192486D01*
X91820494Y-98295197D01*
X91875641Y-98461619D01*
X91875643Y-98461624D01*
X91967684Y-98610845D01*
X92091654Y-98734815D01*
X92240875Y-98826856D01*
X92240880Y-98826858D01*
X92407302Y-98882005D01*
X92407309Y-98882006D01*
X92510019Y-98892499D01*
X92959999Y-98892499D01*
X93460000Y-98892499D01*
X93909972Y-98892499D01*
X93909986Y-98892498D01*
X94012697Y-98882005D01*
X94179119Y-98826858D01*
X94179126Y-98826855D01*
X94257080Y-98778772D01*
X94324473Y-98760331D01*
X94391136Y-98781253D01*
X94435906Y-98834895D01*
X94444568Y-98904225D01*
X94427719Y-98949403D01*
X94420646Y-98960870D01*
X94420641Y-98960880D01*
X94365494Y-99127302D01*
X94365493Y-99127309D01*
X94355000Y-99230013D01*
X94355000Y-99430000D01*
X95480000Y-99430000D01*
X95980000Y-99430000D01*
X97104999Y-99430000D01*
X97104999Y-99230028D01*
X97104998Y-99230013D01*
X97094505Y-99127302D01*
X97039358Y-98960880D01*
X97039356Y-98960875D01*
X96947315Y-98811654D01*
X96823345Y-98687684D01*
X96674124Y-98595643D01*
X96674119Y-98595641D01*
X96507697Y-98540494D01*
X96507690Y-98540493D01*
X96404986Y-98530000D01*
X95980000Y-98530000D01*
X95980000Y-99430000D01*
X95480000Y-99430000D01*
X95480000Y-98530000D01*
X95055028Y-98530000D01*
X95055012Y-98530001D01*
X94952302Y-98540494D01*
X94785880Y-98595641D01*
X94785871Y-98595645D01*
X94707917Y-98643728D01*
X94640525Y-98662168D01*
X94573861Y-98641245D01*
X94529092Y-98587603D01*
X94520431Y-98518272D01*
X94537284Y-98473089D01*
X94544356Y-98461623D01*
X94544358Y-98461619D01*
X94599505Y-98295197D01*
X94599506Y-98295190D01*
X94609999Y-98192486D01*
X94610000Y-98192473D01*
X94610000Y-97980000D01*
X93460000Y-97980000D01*
X93460000Y-98892499D01*
X92959999Y-98892499D01*
X92960000Y-98892498D01*
X92960000Y-97980000D01*
X91810001Y-97980000D01*
X91810001Y-98192486D01*
X88702230Y-98192486D01*
X88809164Y-98159164D01*
X88809175Y-98159160D01*
X89107041Y-98025102D01*
X89107043Y-98025101D01*
X89386586Y-97856112D01*
X89574968Y-97708523D01*
X89574968Y-97708522D01*
X88623391Y-96756944D01*
X88816726Y-96756944D01*
X88816726Y-96836508D01*
X88847174Y-96910017D01*
X88903435Y-96966278D01*
X88976944Y-96996726D01*
X89056508Y-96996726D01*
X89130017Y-96966278D01*
X89186278Y-96910017D01*
X89216726Y-96836508D01*
X89216726Y-96756944D01*
X89186278Y-96683435D01*
X89130017Y-96627174D01*
X89056508Y-96596726D01*
X88976944Y-96596726D01*
X88903435Y-96627174D01*
X88847174Y-96683435D01*
X88816726Y-96756944D01*
X88623391Y-96756944D01*
X88432737Y-96566290D01*
X88566602Y-96469033D01*
X88689033Y-96346602D01*
X88786290Y-96212737D01*
X89928522Y-97354968D01*
X89928523Y-97354968D01*
X89997040Y-97267513D01*
X91810000Y-97267513D01*
X91810000Y-97480000D01*
X92960000Y-97480000D01*
X93460000Y-97480000D01*
X94609999Y-97480000D01*
X94609999Y-97267528D01*
X94609998Y-97267513D01*
X94599505Y-97164802D01*
X94544358Y-96998380D01*
X94544356Y-96998375D01*
X94452315Y-96849154D01*
X94328345Y-96725184D01*
X94179124Y-96633143D01*
X94179119Y-96633141D01*
X94012697Y-96577994D01*
X94012690Y-96577993D01*
X93909986Y-96567500D01*
X93460000Y-96567500D01*
X93460000Y-97480000D01*
X92960000Y-97480000D01*
X92960000Y-96567500D01*
X92510028Y-96567500D01*
X92510012Y-96567501D01*
X92407302Y-96577994D01*
X92240880Y-96633141D01*
X92240875Y-96633143D01*
X92091654Y-96725184D01*
X91967684Y-96849154D01*
X91875643Y-96998375D01*
X91875641Y-96998380D01*
X91820494Y-97164802D01*
X91820493Y-97164809D01*
X91810000Y-97267513D01*
X89997040Y-97267513D01*
X90076112Y-97166586D01*
X90245101Y-96887043D01*
X90245102Y-96887041D01*
X90379160Y-96589175D01*
X90379164Y-96589164D01*
X90476332Y-96277341D01*
X90535213Y-95956038D01*
X90554934Y-95630000D01*
X90535213Y-95303961D01*
X90476332Y-94982658D01*
X90379164Y-94670835D01*
X90379160Y-94670824D01*
X90245102Y-94372958D01*
X90245101Y-94372956D01*
X90076118Y-94093423D01*
X89928522Y-93905030D01*
X88786290Y-95047262D01*
X88689033Y-94913398D01*
X88566602Y-94790967D01*
X88432736Y-94693709D01*
X88702953Y-94423492D01*
X88816726Y-94423492D01*
X88816726Y-94503056D01*
X88847174Y-94576565D01*
X88903435Y-94632826D01*
X88976944Y-94663274D01*
X89056508Y-94663274D01*
X89130017Y-94632826D01*
X89186278Y-94576565D01*
X89216726Y-94503056D01*
X89216726Y-94423492D01*
X89186278Y-94349983D01*
X89130017Y-94293722D01*
X89056508Y-94263274D01*
X88976944Y-94263274D01*
X88903435Y-94293722D01*
X88847174Y-94349983D01*
X88816726Y-94423492D01*
X88702953Y-94423492D01*
X89574968Y-93551476D01*
X89386576Y-93403881D01*
X89275485Y-93336724D01*
X89228298Y-93285196D01*
X89216459Y-93216337D01*
X89243728Y-93152008D01*
X89301446Y-93112634D01*
X89339304Y-93106607D01*
X105746100Y-93063500D01*
X108221669Y-93063500D01*
X108288708Y-93083185D01*
G37*
%TD.AperFunction*%
%TA.AperFunction,Conductor*%
G36*
X111538522Y-117164968D02*
G01*
X111538523Y-117164968D01*
X111686113Y-116976583D01*
X111686115Y-116976582D01*
X111738391Y-116890106D01*
X111789918Y-116842918D01*
X111858777Y-116831079D01*
X111923106Y-116858347D01*
X111962481Y-116916066D01*
X111968508Y-116954553D01*
X111966296Y-117874622D01*
X111946450Y-117941614D01*
X111893536Y-117987242D01*
X111842622Y-117998324D01*
X110888028Y-118000831D01*
X110820937Y-117981322D01*
X110775043Y-117928639D01*
X110764918Y-117859506D01*
X110793776Y-117795875D01*
X110823553Y-117770714D01*
X110996582Y-117666115D01*
X110996583Y-117666113D01*
X111184968Y-117518523D01*
X111184968Y-117518522D01*
X110233391Y-116566944D01*
X110426726Y-116566944D01*
X110426726Y-116646508D01*
X110457174Y-116720017D01*
X110513435Y-116776278D01*
X110586944Y-116806726D01*
X110666508Y-116806726D01*
X110740017Y-116776278D01*
X110796278Y-116720017D01*
X110826726Y-116646508D01*
X110826726Y-116566944D01*
X110796278Y-116493435D01*
X110740017Y-116437174D01*
X110666508Y-116406726D01*
X110586944Y-116406726D01*
X110513435Y-116437174D01*
X110457174Y-116493435D01*
X110426726Y-116566944D01*
X110233391Y-116566944D01*
X110042737Y-116376290D01*
X110176602Y-116279033D01*
X110299033Y-116156602D01*
X110396290Y-116022737D01*
X111538522Y-117164968D01*
G37*
%TD.AperFunction*%
%TA.AperFunction,Conductor*%
G36*
X111598522Y-97424968D02*
G01*
X111598523Y-97424968D01*
X111746112Y-97236586D01*
X111769983Y-97197099D01*
X111821511Y-97149912D01*
X111890370Y-97138073D01*
X111954699Y-97165342D01*
X111994073Y-97223060D01*
X112000100Y-97261249D01*
X112000100Y-98959765D01*
X111980415Y-99026804D01*
X111927611Y-99072559D01*
X111858453Y-99082503D01*
X111794897Y-99053478D01*
X111758394Y-98998769D01*
X111714358Y-98865880D01*
X111714356Y-98865875D01*
X111622315Y-98716654D01*
X111498345Y-98592684D01*
X111349124Y-98500643D01*
X111349119Y-98500641D01*
X111182697Y-98445494D01*
X111182690Y-98445493D01*
X111079986Y-98435000D01*
X110599471Y-98435000D01*
X110532432Y-98415315D01*
X110486677Y-98362511D01*
X110476733Y-98293353D01*
X110505758Y-98229797D01*
X110548580Y-98197924D01*
X110777041Y-98095102D01*
X110777043Y-98095101D01*
X111056586Y-97926112D01*
X111244968Y-97778523D01*
X111244968Y-97778522D01*
X110293391Y-96826944D01*
X110486726Y-96826944D01*
X110486726Y-96906508D01*
X110517174Y-96980017D01*
X110573435Y-97036278D01*
X110646944Y-97066726D01*
X110726508Y-97066726D01*
X110800017Y-97036278D01*
X110856278Y-96980017D01*
X110886726Y-96906508D01*
X110886726Y-96826944D01*
X110856278Y-96753435D01*
X110800017Y-96697174D01*
X110726508Y-96666726D01*
X110646944Y-96666726D01*
X110573435Y-96697174D01*
X110517174Y-96753435D01*
X110486726Y-96826944D01*
X110293391Y-96826944D01*
X110102737Y-96636290D01*
X110236602Y-96539033D01*
X110359033Y-96416602D01*
X110456290Y-96282737D01*
X111598522Y-97424968D01*
G37*
%TD.AperFunction*%
%TA.AperFunction,Conductor*%
G36*
X111943139Y-93083185D02*
G01*
X111988894Y-93135989D01*
X112000100Y-93187500D01*
X112000100Y-94138749D01*
X111980415Y-94205788D01*
X111927611Y-94251543D01*
X111858453Y-94261487D01*
X111794897Y-94232462D01*
X111769983Y-94202899D01*
X111746119Y-94163423D01*
X111598522Y-93975030D01*
X110456290Y-95117262D01*
X110359033Y-94983398D01*
X110236602Y-94860967D01*
X110102736Y-94763709D01*
X110372953Y-94493492D01*
X110486726Y-94493492D01*
X110486726Y-94573056D01*
X110517174Y-94646565D01*
X110573435Y-94702826D01*
X110646944Y-94733274D01*
X110726508Y-94733274D01*
X110800017Y-94702826D01*
X110856278Y-94646565D01*
X110886726Y-94573056D01*
X110886726Y-94493492D01*
X110856278Y-94419983D01*
X110800017Y-94363722D01*
X110726508Y-94333274D01*
X110646944Y-94333274D01*
X110573435Y-94363722D01*
X110517174Y-94419983D01*
X110486726Y-94493492D01*
X110372953Y-94493492D01*
X111244968Y-93621476D01*
X111056576Y-93473881D01*
X110777043Y-93304898D01*
X110777035Y-93304894D01*
X110767441Y-93300576D01*
X110714386Y-93255113D01*
X110694333Y-93188182D01*
X110713648Y-93121036D01*
X110766200Y-93074991D01*
X110818331Y-93063500D01*
X111876100Y-93063500D01*
X111943139Y-93083185D01*
G37*
%TD.AperFunction*%
%TA.AperFunction,Conductor*%
G36*
X86414124Y-93133978D02*
G01*
X86460018Y-93186661D01*
X86470143Y-93255794D01*
X86441285Y-93319425D01*
X86411509Y-93344586D01*
X86313422Y-93403881D01*
X86313416Y-93403886D01*
X86125030Y-93551474D01*
X86125029Y-93551476D01*
X87267262Y-94693709D01*
X87133398Y-94790967D01*
X87010967Y-94913398D01*
X86913709Y-95047262D01*
X86289939Y-94423492D01*
X86483274Y-94423492D01*
X86483274Y-94503056D01*
X86513722Y-94576565D01*
X86569983Y-94632826D01*
X86643492Y-94663274D01*
X86723056Y-94663274D01*
X86796565Y-94632826D01*
X86852826Y-94576565D01*
X86883274Y-94503056D01*
X86883274Y-94423492D01*
X86852826Y-94349983D01*
X86796565Y-94293722D01*
X86723056Y-94263274D01*
X86643492Y-94263274D01*
X86569983Y-94293722D01*
X86513722Y-94349983D01*
X86483274Y-94423492D01*
X86289939Y-94423492D01*
X85771476Y-93905029D01*
X85771474Y-93905030D01*
X85623886Y-94093416D01*
X85623883Y-94093419D01*
X85611873Y-94113286D01*
X85560343Y-94160471D01*
X85491483Y-94172308D01*
X85427156Y-94145036D01*
X85387784Y-94087316D01*
X85381759Y-94048841D01*
X85383703Y-93240375D01*
X85403549Y-93173385D01*
X85456463Y-93127757D01*
X85507373Y-93116675D01*
X86347035Y-93114469D01*
X86414124Y-93133978D01*
G37*
%TD.AperFunction*%
%TD*%
%TA.AperFunction,Conductor*%
%TO.N,+12V*%
G36*
X103445088Y-102503427D02*
G01*
X103447806Y-102507688D01*
X103807744Y-103493821D01*
X103807361Y-103502768D01*
X103805892Y-103505138D01*
X102819139Y-104739567D01*
X102811297Y-104743890D01*
X102802695Y-104741401D01*
X102800861Y-104739567D01*
X101814107Y-103505138D01*
X101811618Y-103496536D01*
X101812255Y-103493821D01*
X102172194Y-102507688D01*
X102178250Y-102501092D01*
X102183185Y-102500000D01*
X103436815Y-102500000D01*
X103445088Y-102503427D01*
G37*
%TD.AperFunction*%
%TD*%
%TA.AperFunction,Conductor*%
%TO.N,+12V*%
G36*
X103352718Y-106553427D02*
G01*
X103356083Y-106560500D01*
X103518671Y-108137116D01*
X103516111Y-108145697D01*
X103508233Y-108149954D01*
X103507048Y-108150016D01*
X102720015Y-108150999D01*
X102719985Y-108150999D01*
X101932951Y-108150016D01*
X101924683Y-108146579D01*
X101921266Y-108138301D01*
X101921327Y-108137129D01*
X102083917Y-106560499D01*
X102088174Y-106552622D01*
X102095555Y-106550000D01*
X103344445Y-106550000D01*
X103352718Y-106553427D01*
G37*
%TD.AperFunction*%
%TD*%
%TA.AperFunction,Conductor*%
%TO.N,+12V*%
G36*
X102817067Y-104758775D02*
G01*
X102818857Y-104760654D01*
X103756750Y-105994695D01*
X103759028Y-106003356D01*
X103758276Y-106006174D01*
X103357963Y-106992699D01*
X103351677Y-106999077D01*
X103347122Y-107000000D01*
X102093493Y-107000000D01*
X102085220Y-106996573D01*
X102082369Y-106991925D01*
X101761195Y-106006176D01*
X101761890Y-105997248D01*
X101763356Y-105995031D01*
X102800585Y-104760207D01*
X102808528Y-104756078D01*
X102817067Y-104758775D01*
G37*
%TD.AperFunction*%
%TD*%
%TA.AperFunction,Conductor*%
%TO.N,Net-(Q1-B)*%
G36*
X96724550Y-107122833D02*
G01*
X96726699Y-107124529D01*
X97609744Y-108007574D01*
X97613171Y-108015847D01*
X97609744Y-108024120D01*
X97607714Y-108025742D01*
X96067008Y-108997898D01*
X96058183Y-108999415D01*
X96050870Y-108994246D01*
X96049960Y-108992492D01*
X95729293Y-108220707D01*
X95729284Y-108220684D01*
X95592471Y-107889371D01*
X95409947Y-107447362D01*
X95409956Y-107438409D01*
X95416295Y-107432084D01*
X95418038Y-107431519D01*
X96715709Y-107121422D01*
X96724550Y-107122833D01*
G37*
%TD.AperFunction*%
%TD*%
%TA.AperFunction,Conductor*%
%TO.N,Net-(Q1-B)*%
G36*
X95725485Y-107374025D02*
G01*
X95729923Y-107381803D01*
X95730015Y-107383257D01*
X95731000Y-108220000D01*
X95731000Y-108220028D01*
X95730015Y-109056742D01*
X95726578Y-109065011D01*
X95718301Y-109068428D01*
X95716847Y-109068336D01*
X94040232Y-108856294D01*
X94032454Y-108851856D01*
X94030000Y-108844686D01*
X94030000Y-107595313D01*
X94033427Y-107587040D01*
X94040229Y-107583706D01*
X95716848Y-107371663D01*
X95725485Y-107374025D01*
G37*
%TD.AperFunction*%
%TD*%
%TA.AperFunction,Conductor*%
%TO.N,Net-(Q1-E)*%
G36*
X96364164Y-103983427D02*
G01*
X96367234Y-103988831D01*
X96578371Y-104823561D01*
X96577077Y-104832422D01*
X96575306Y-104834698D01*
X95738278Y-105672712D01*
X95730007Y-105676144D01*
X95721732Y-105672722D01*
X95721722Y-105672712D01*
X94884693Y-104834698D01*
X94881271Y-104826423D01*
X94881627Y-104823566D01*
X95092766Y-103988830D01*
X95098117Y-103981651D01*
X95104109Y-103980000D01*
X96355891Y-103980000D01*
X96364164Y-103983427D01*
G37*
%TD.AperFunction*%
%TD*%
%TA.AperFunction,Conductor*%
%TO.N,Net-(Q1-C)*%
G36*
X95743146Y-109911662D02*
G01*
X97419770Y-110123706D01*
X97427546Y-110128143D01*
X97430000Y-110135313D01*
X97430000Y-111384686D01*
X97426573Y-111392959D01*
X97419768Y-111396294D01*
X95743152Y-111608336D01*
X95734514Y-111605974D01*
X95730076Y-111598196D01*
X95729984Y-111596742D01*
X95729748Y-111396294D01*
X95729000Y-110760000D01*
X95729984Y-109923256D01*
X95733421Y-109914988D01*
X95741698Y-109911571D01*
X95743146Y-109911662D01*
G37*
%TD.AperFunction*%
%TD*%
%TA.AperFunction,Conductor*%
%TO.N,Net-(Q1-C)*%
G36*
X95743146Y-109911662D02*
G01*
X97419770Y-110123706D01*
X97427546Y-110128143D01*
X97430000Y-110135313D01*
X97430000Y-111384686D01*
X97426573Y-111392959D01*
X97419768Y-111396294D01*
X95743152Y-111608336D01*
X95734514Y-111605974D01*
X95730076Y-111598196D01*
X95729984Y-111596742D01*
X95729748Y-111396294D01*
X95729000Y-110760000D01*
X95729984Y-109923256D01*
X95733421Y-109914988D01*
X95741698Y-109911571D01*
X95743146Y-109911662D01*
G37*
%TD.AperFunction*%
%TD*%
%TA.AperFunction,Conductor*%
%TO.N,Net-(Q1-C)*%
G36*
X100967049Y-108149983D02*
G01*
X100975316Y-108153420D01*
X100978733Y-108161698D01*
X100978671Y-108162883D01*
X100816083Y-109739500D01*
X100811826Y-109747378D01*
X100804445Y-109750000D01*
X99555555Y-109750000D01*
X99547282Y-109746573D01*
X99543917Y-109739500D01*
X99381328Y-108162881D01*
X99383888Y-108154302D01*
X99391766Y-108150045D01*
X99392935Y-108149983D01*
X100180000Y-108149000D01*
X100967049Y-108149983D01*
G37*
%TD.AperFunction*%
%TD*%
%TA.AperFunction,Conductor*%
%TO.N,Net-(Q1-C)*%
G36*
X95743146Y-109911662D02*
G01*
X97419770Y-110123706D01*
X97427546Y-110128143D01*
X97430000Y-110135313D01*
X97430000Y-111384686D01*
X97426573Y-111392959D01*
X97419768Y-111396294D01*
X95743152Y-111608336D01*
X95734514Y-111605974D01*
X95730076Y-111598196D01*
X95729984Y-111596742D01*
X95729748Y-111396294D01*
X95729000Y-110760000D01*
X95729984Y-109923256D01*
X95733421Y-109914988D01*
X95741698Y-109911571D01*
X95743146Y-109911662D01*
G37*
%TD.AperFunction*%
%TD*%
M02*
