%TF.GenerationSoftware,KiCad,Pcbnew,8.99.0-unknown-f907b58d17~178~ubuntu22.04.1*%
%TF.CreationDate,2024-06-08T22:31:25+05:30*%
%TF.ProjectId,HF-Pre-Amp,48462d50-7265-42d4-916d-702e6b696361,rev?*%
%TF.SameCoordinates,Original*%
%TF.FileFunction,Legend,Top*%
%TF.FilePolarity,Positive*%
%FSLAX46Y46*%
G04 Gerber Fmt 4.6, Leading zero omitted, Abs format (unit mm)*
G04 Created by KiCad (PCBNEW 8.99.0-unknown-f907b58d17~178~ubuntu22.04.1) date 2024-06-08 22:31:25*
%MOMM*%
%LPD*%
G01*
G04 APERTURE LIST*
G04 Aperture macros list*
%AMRoundRect*
0 Rectangle with rounded corners*
0 $1 Rounding radius*
0 $2 $3 $4 $5 $6 $7 $8 $9 X,Y pos of 4 corners*
0 Add a 4 corners polygon primitive as box body*
4,1,4,$2,$3,$4,$5,$6,$7,$8,$9,$2,$3,0*
0 Add four circle primitives for the rounded corners*
1,1,$1+$1,$2,$3*
1,1,$1+$1,$4,$5*
1,1,$1+$1,$6,$7*
1,1,$1+$1,$8,$9*
0 Add four rect primitives between the rounded corners*
20,1,$1+$1,$2,$3,$4,$5,0*
20,1,$1+$1,$4,$5,$6,$7,0*
20,1,$1+$1,$6,$7,$8,$9,0*
20,1,$1+$1,$8,$9,$2,$3,0*%
G04 Aperture macros list end*
%ADD10C,0.150000*%
%ADD11C,0.120000*%
%ADD12RoundRect,0.250000X-0.412500X-0.650000X0.412500X-0.650000X0.412500X0.650000X-0.412500X0.650000X0*%
%ADD13RoundRect,0.250000X-0.400000X-0.625000X0.400000X-0.625000X0.400000X0.625000X-0.400000X0.625000X0*%
%ADD14R,2.500000X2.500000*%
%ADD15R,1.700000X1.700000*%
%ADD16O,1.700000X1.700000*%
%ADD17RoundRect,0.250000X-0.650000X0.412500X-0.650000X-0.412500X0.650000X-0.412500X0.650000X0.412500X0*%
%ADD18RoundRect,0.250000X-0.625000X0.400000X-0.625000X-0.400000X0.625000X-0.400000X0.625000X0.400000X0*%
%ADD19RoundRect,0.250000X1.350000X-0.385000X1.350000X0.385000X-1.350000X0.385000X-1.350000X-0.385000X0*%
%ADD20RoundRect,0.250000X1.600000X-0.425000X1.600000X0.425000X-1.600000X0.425000X-1.600000X-0.425000X0*%
%ADD21RoundRect,0.250000X-1.350000X0.385000X-1.350000X-0.385000X1.350000X-0.385000X1.350000X0.385000X0*%
%ADD22RoundRect,0.250000X-1.600000X0.425000X-1.600000X-0.425000X1.600000X-0.425000X1.600000X0.425000X0*%
%ADD23C,0.700000*%
%ADD24C,4.400000*%
%ADD25R,1.200000X1.200000*%
%ADD26C,1.200000*%
%ADD27C,1.600000*%
%ADD28O,1.600000X1.600000*%
%ADD29RoundRect,0.250000X0.625000X-0.400000X0.625000X0.400000X-0.625000X0.400000X-0.625000X-0.400000X0*%
G04 APERTURE END LIST*
D10*
X92311064Y-115226200D02*
X92425350Y-115264295D01*
X92425350Y-115264295D02*
X92615826Y-115264295D01*
X92615826Y-115264295D02*
X92692017Y-115226200D01*
X92692017Y-115226200D02*
X92730112Y-115188104D01*
X92730112Y-115188104D02*
X92768207Y-115111914D01*
X92768207Y-115111914D02*
X92768207Y-115035723D01*
X92768207Y-115035723D02*
X92730112Y-114959533D01*
X92730112Y-114959533D02*
X92692017Y-114921438D01*
X92692017Y-114921438D02*
X92615826Y-114883342D01*
X92615826Y-114883342D02*
X92463445Y-114845247D01*
X92463445Y-114845247D02*
X92387255Y-114807152D01*
X92387255Y-114807152D02*
X92349160Y-114769057D01*
X92349160Y-114769057D02*
X92311064Y-114692866D01*
X92311064Y-114692866D02*
X92311064Y-114616676D01*
X92311064Y-114616676D02*
X92349160Y-114540485D01*
X92349160Y-114540485D02*
X92387255Y-114502390D01*
X92387255Y-114502390D02*
X92463445Y-114464295D01*
X92463445Y-114464295D02*
X92653922Y-114464295D01*
X92653922Y-114464295D02*
X92768207Y-114502390D01*
X93149160Y-115264295D02*
X93301541Y-115264295D01*
X93301541Y-115264295D02*
X93377731Y-115226200D01*
X93377731Y-115226200D02*
X93415827Y-115188104D01*
X93415827Y-115188104D02*
X93492017Y-115073819D01*
X93492017Y-115073819D02*
X93530112Y-114921438D01*
X93530112Y-114921438D02*
X93530112Y-114616676D01*
X93530112Y-114616676D02*
X93492017Y-114540485D01*
X93492017Y-114540485D02*
X93453922Y-114502390D01*
X93453922Y-114502390D02*
X93377731Y-114464295D01*
X93377731Y-114464295D02*
X93225350Y-114464295D01*
X93225350Y-114464295D02*
X93149160Y-114502390D01*
X93149160Y-114502390D02*
X93111065Y-114540485D01*
X93111065Y-114540485D02*
X93072969Y-114616676D01*
X93072969Y-114616676D02*
X93072969Y-114807152D01*
X93072969Y-114807152D02*
X93111065Y-114883342D01*
X93111065Y-114883342D02*
X93149160Y-114921438D01*
X93149160Y-114921438D02*
X93225350Y-114959533D01*
X93225350Y-114959533D02*
X93377731Y-114959533D01*
X93377731Y-114959533D02*
X93453922Y-114921438D01*
X93453922Y-114921438D02*
X93492017Y-114883342D01*
X93492017Y-114883342D02*
X93530112Y-114807152D01*
X94025351Y-114464295D02*
X94101541Y-114464295D01*
X94101541Y-114464295D02*
X94177732Y-114502390D01*
X94177732Y-114502390D02*
X94215827Y-114540485D01*
X94215827Y-114540485D02*
X94253922Y-114616676D01*
X94253922Y-114616676D02*
X94292017Y-114769057D01*
X94292017Y-114769057D02*
X94292017Y-114959533D01*
X94292017Y-114959533D02*
X94253922Y-115111914D01*
X94253922Y-115111914D02*
X94215827Y-115188104D01*
X94215827Y-115188104D02*
X94177732Y-115226200D01*
X94177732Y-115226200D02*
X94101541Y-115264295D01*
X94101541Y-115264295D02*
X94025351Y-115264295D01*
X94025351Y-115264295D02*
X93949160Y-115226200D01*
X93949160Y-115226200D02*
X93911065Y-115188104D01*
X93911065Y-115188104D02*
X93872970Y-115111914D01*
X93872970Y-115111914D02*
X93834874Y-114959533D01*
X93834874Y-114959533D02*
X93834874Y-114769057D01*
X93834874Y-114769057D02*
X93872970Y-114616676D01*
X93872970Y-114616676D02*
X93911065Y-114540485D01*
X93911065Y-114540485D02*
X93949160Y-114502390D01*
X93949160Y-114502390D02*
X94025351Y-114464295D01*
X95053922Y-115264295D02*
X94596779Y-115264295D01*
X94825351Y-115264295D02*
X94825351Y-114464295D01*
X94825351Y-114464295D02*
X94749160Y-114578580D01*
X94749160Y-114578580D02*
X94672970Y-114654771D01*
X94672970Y-114654771D02*
X94596779Y-114692866D01*
X95511065Y-114807152D02*
X95434875Y-114769057D01*
X95434875Y-114769057D02*
X95396780Y-114730961D01*
X95396780Y-114730961D02*
X95358684Y-114654771D01*
X95358684Y-114654771D02*
X95358684Y-114616676D01*
X95358684Y-114616676D02*
X95396780Y-114540485D01*
X95396780Y-114540485D02*
X95434875Y-114502390D01*
X95434875Y-114502390D02*
X95511065Y-114464295D01*
X95511065Y-114464295D02*
X95663446Y-114464295D01*
X95663446Y-114464295D02*
X95739637Y-114502390D01*
X95739637Y-114502390D02*
X95777732Y-114540485D01*
X95777732Y-114540485D02*
X95815827Y-114616676D01*
X95815827Y-114616676D02*
X95815827Y-114654771D01*
X95815827Y-114654771D02*
X95777732Y-114730961D01*
X95777732Y-114730961D02*
X95739637Y-114769057D01*
X95739637Y-114769057D02*
X95663446Y-114807152D01*
X95663446Y-114807152D02*
X95511065Y-114807152D01*
X95511065Y-114807152D02*
X95434875Y-114845247D01*
X95434875Y-114845247D02*
X95396780Y-114883342D01*
X95396780Y-114883342D02*
X95358684Y-114959533D01*
X95358684Y-114959533D02*
X95358684Y-115111914D01*
X95358684Y-115111914D02*
X95396780Y-115188104D01*
X95396780Y-115188104D02*
X95434875Y-115226200D01*
X95434875Y-115226200D02*
X95511065Y-115264295D01*
X95511065Y-115264295D02*
X95663446Y-115264295D01*
X95663446Y-115264295D02*
X95739637Y-115226200D01*
X95739637Y-115226200D02*
X95777732Y-115188104D01*
X95777732Y-115188104D02*
X95815827Y-115111914D01*
X95815827Y-115111914D02*
X95815827Y-114959533D01*
X95815827Y-114959533D02*
X95777732Y-114883342D01*
X95777732Y-114883342D02*
X95739637Y-114845247D01*
X95739637Y-114845247D02*
X95663446Y-114807152D01*
X96996780Y-115569057D02*
X96958685Y-115530961D01*
X96958685Y-115530961D02*
X96882494Y-115416676D01*
X96882494Y-115416676D02*
X96844399Y-115340485D01*
X96844399Y-115340485D02*
X96806304Y-115226200D01*
X96806304Y-115226200D02*
X96768209Y-115035723D01*
X96768209Y-115035723D02*
X96768209Y-114883342D01*
X96768209Y-114883342D02*
X96806304Y-114692866D01*
X96806304Y-114692866D02*
X96844399Y-114578580D01*
X96844399Y-114578580D02*
X96882494Y-114502390D01*
X96882494Y-114502390D02*
X96958685Y-114388104D01*
X96958685Y-114388104D02*
X96996780Y-114350009D01*
X97301542Y-114845247D02*
X97568208Y-114845247D01*
X97682494Y-115264295D02*
X97301542Y-115264295D01*
X97301542Y-115264295D02*
X97301542Y-114464295D01*
X97301542Y-114464295D02*
X97682494Y-114464295D01*
X98292018Y-114845247D02*
X98406304Y-114883342D01*
X98406304Y-114883342D02*
X98444399Y-114921438D01*
X98444399Y-114921438D02*
X98482495Y-114997628D01*
X98482495Y-114997628D02*
X98482495Y-115111914D01*
X98482495Y-115111914D02*
X98444399Y-115188104D01*
X98444399Y-115188104D02*
X98406304Y-115226200D01*
X98406304Y-115226200D02*
X98330114Y-115264295D01*
X98330114Y-115264295D02*
X98025352Y-115264295D01*
X98025352Y-115264295D02*
X98025352Y-114464295D01*
X98025352Y-114464295D02*
X98292018Y-114464295D01*
X98292018Y-114464295D02*
X98368209Y-114502390D01*
X98368209Y-114502390D02*
X98406304Y-114540485D01*
X98406304Y-114540485D02*
X98444399Y-114616676D01*
X98444399Y-114616676D02*
X98444399Y-114692866D01*
X98444399Y-114692866D02*
X98406304Y-114769057D01*
X98406304Y-114769057D02*
X98368209Y-114807152D01*
X98368209Y-114807152D02*
X98292018Y-114845247D01*
X98292018Y-114845247D02*
X98025352Y-114845247D01*
X99282495Y-115188104D02*
X99244399Y-115226200D01*
X99244399Y-115226200D02*
X99130114Y-115264295D01*
X99130114Y-115264295D02*
X99053923Y-115264295D01*
X99053923Y-115264295D02*
X98939637Y-115226200D01*
X98939637Y-115226200D02*
X98863447Y-115150009D01*
X98863447Y-115150009D02*
X98825352Y-115073819D01*
X98825352Y-115073819D02*
X98787256Y-114921438D01*
X98787256Y-114921438D02*
X98787256Y-114807152D01*
X98787256Y-114807152D02*
X98825352Y-114654771D01*
X98825352Y-114654771D02*
X98863447Y-114578580D01*
X98863447Y-114578580D02*
X98939637Y-114502390D01*
X98939637Y-114502390D02*
X99053923Y-114464295D01*
X99053923Y-114464295D02*
X99130114Y-114464295D01*
X99130114Y-114464295D02*
X99244399Y-114502390D01*
X99244399Y-114502390D02*
X99282495Y-114540485D01*
X99549161Y-115569057D02*
X99587256Y-115530961D01*
X99587256Y-115530961D02*
X99663447Y-115416676D01*
X99663447Y-115416676D02*
X99701542Y-115340485D01*
X99701542Y-115340485D02*
X99739637Y-115226200D01*
X99739637Y-115226200D02*
X99777733Y-115035723D01*
X99777733Y-115035723D02*
X99777733Y-114883342D01*
X99777733Y-114883342D02*
X99739637Y-114692866D01*
X99739637Y-114692866D02*
X99701542Y-114578580D01*
X99701542Y-114578580D02*
X99663447Y-114502390D01*
X99663447Y-114502390D02*
X99587256Y-114388104D01*
X99587256Y-114388104D02*
X99549161Y-114350009D01*
X90989160Y-94254104D02*
X91465350Y-94254104D01*
X90893922Y-94539819D02*
X91227255Y-93539819D01*
X91227255Y-93539819D02*
X91560588Y-94539819D01*
X91893922Y-93873152D02*
X91893922Y-94539819D01*
X91893922Y-93968390D02*
X91941541Y-93920771D01*
X91941541Y-93920771D02*
X92036779Y-93873152D01*
X92036779Y-93873152D02*
X92179636Y-93873152D01*
X92179636Y-93873152D02*
X92274874Y-93920771D01*
X92274874Y-93920771D02*
X92322493Y-94016009D01*
X92322493Y-94016009D02*
X92322493Y-94539819D01*
X92655827Y-93873152D02*
X93036779Y-93873152D01*
X92798684Y-93539819D02*
X92798684Y-94396961D01*
X92798684Y-94396961D02*
X92846303Y-94492200D01*
X92846303Y-94492200D02*
X92941541Y-94539819D01*
X92941541Y-94539819D02*
X93036779Y-94539819D01*
X93751065Y-94492200D02*
X93655827Y-94539819D01*
X93655827Y-94539819D02*
X93465351Y-94539819D01*
X93465351Y-94539819D02*
X93370113Y-94492200D01*
X93370113Y-94492200D02*
X93322494Y-94396961D01*
X93322494Y-94396961D02*
X93322494Y-94016009D01*
X93322494Y-94016009D02*
X93370113Y-93920771D01*
X93370113Y-93920771D02*
X93465351Y-93873152D01*
X93465351Y-93873152D02*
X93655827Y-93873152D01*
X93655827Y-93873152D02*
X93751065Y-93920771D01*
X93751065Y-93920771D02*
X93798684Y-94016009D01*
X93798684Y-94016009D02*
X93798684Y-94111247D01*
X93798684Y-94111247D02*
X93322494Y-94206485D01*
X94227256Y-93873152D02*
X94227256Y-94539819D01*
X94227256Y-93968390D02*
X94274875Y-93920771D01*
X94274875Y-93920771D02*
X94370113Y-93873152D01*
X94370113Y-93873152D02*
X94512970Y-93873152D01*
X94512970Y-93873152D02*
X94608208Y-93920771D01*
X94608208Y-93920771D02*
X94655827Y-94016009D01*
X94655827Y-94016009D02*
X94655827Y-94539819D01*
X95132018Y-93873152D02*
X95132018Y-94539819D01*
X95132018Y-93968390D02*
X95179637Y-93920771D01*
X95179637Y-93920771D02*
X95274875Y-93873152D01*
X95274875Y-93873152D02*
X95417732Y-93873152D01*
X95417732Y-93873152D02*
X95512970Y-93920771D01*
X95512970Y-93920771D02*
X95560589Y-94016009D01*
X95560589Y-94016009D02*
X95560589Y-94539819D01*
X96465351Y-94539819D02*
X96465351Y-94016009D01*
X96465351Y-94016009D02*
X96417732Y-93920771D01*
X96417732Y-93920771D02*
X96322494Y-93873152D01*
X96322494Y-93873152D02*
X96132018Y-93873152D01*
X96132018Y-93873152D02*
X96036780Y-93920771D01*
X96465351Y-94492200D02*
X96370113Y-94539819D01*
X96370113Y-94539819D02*
X96132018Y-94539819D01*
X96132018Y-94539819D02*
X96036780Y-94492200D01*
X96036780Y-94492200D02*
X95989161Y-94396961D01*
X95989161Y-94396961D02*
X95989161Y-94301723D01*
X95989161Y-94301723D02*
X96036780Y-94206485D01*
X96036780Y-94206485D02*
X96132018Y-94158866D01*
X96132018Y-94158866D02*
X96370113Y-94158866D01*
X96370113Y-94158866D02*
X96465351Y-94111247D01*
X98274875Y-94539819D02*
X97941542Y-94063628D01*
X97703447Y-94539819D02*
X97703447Y-93539819D01*
X97703447Y-93539819D02*
X98084399Y-93539819D01*
X98084399Y-93539819D02*
X98179637Y-93587438D01*
X98179637Y-93587438D02*
X98227256Y-93635057D01*
X98227256Y-93635057D02*
X98274875Y-93730295D01*
X98274875Y-93730295D02*
X98274875Y-93873152D01*
X98274875Y-93873152D02*
X98227256Y-93968390D01*
X98227256Y-93968390D02*
X98179637Y-94016009D01*
X98179637Y-94016009D02*
X98084399Y-94063628D01*
X98084399Y-94063628D02*
X97703447Y-94063628D01*
X99036780Y-94016009D02*
X98703447Y-94016009D01*
X98703447Y-94539819D02*
X98703447Y-93539819D01*
X98703447Y-93539819D02*
X99179637Y-93539819D01*
X100322495Y-94539819D02*
X100322495Y-93539819D01*
X100322495Y-93539819D02*
X100703447Y-93539819D01*
X100703447Y-93539819D02*
X100798685Y-93587438D01*
X100798685Y-93587438D02*
X100846304Y-93635057D01*
X100846304Y-93635057D02*
X100893923Y-93730295D01*
X100893923Y-93730295D02*
X100893923Y-93873152D01*
X100893923Y-93873152D02*
X100846304Y-93968390D01*
X100846304Y-93968390D02*
X100798685Y-94016009D01*
X100798685Y-94016009D02*
X100703447Y-94063628D01*
X100703447Y-94063628D02*
X100322495Y-94063628D01*
X101322495Y-94539819D02*
X101322495Y-93873152D01*
X101322495Y-94063628D02*
X101370114Y-93968390D01*
X101370114Y-93968390D02*
X101417733Y-93920771D01*
X101417733Y-93920771D02*
X101512971Y-93873152D01*
X101512971Y-93873152D02*
X101608209Y-93873152D01*
X102322495Y-94492200D02*
X102227257Y-94539819D01*
X102227257Y-94539819D02*
X102036781Y-94539819D01*
X102036781Y-94539819D02*
X101941543Y-94492200D01*
X101941543Y-94492200D02*
X101893924Y-94396961D01*
X101893924Y-94396961D02*
X101893924Y-94016009D01*
X101893924Y-94016009D02*
X101941543Y-93920771D01*
X101941543Y-93920771D02*
X102036781Y-93873152D01*
X102036781Y-93873152D02*
X102227257Y-93873152D01*
X102227257Y-93873152D02*
X102322495Y-93920771D01*
X102322495Y-93920771D02*
X102370114Y-94016009D01*
X102370114Y-94016009D02*
X102370114Y-94111247D01*
X102370114Y-94111247D02*
X101893924Y-94206485D01*
X102798686Y-94158866D02*
X103560591Y-94158866D01*
X103989162Y-94254104D02*
X104465352Y-94254104D01*
X103893924Y-94539819D02*
X104227257Y-93539819D01*
X104227257Y-93539819D02*
X104560590Y-94539819D01*
X104893924Y-94539819D02*
X104893924Y-93873152D01*
X104893924Y-93968390D02*
X104941543Y-93920771D01*
X104941543Y-93920771D02*
X105036781Y-93873152D01*
X105036781Y-93873152D02*
X105179638Y-93873152D01*
X105179638Y-93873152D02*
X105274876Y-93920771D01*
X105274876Y-93920771D02*
X105322495Y-94016009D01*
X105322495Y-94016009D02*
X105322495Y-94539819D01*
X105322495Y-94016009D02*
X105370114Y-93920771D01*
X105370114Y-93920771D02*
X105465352Y-93873152D01*
X105465352Y-93873152D02*
X105608209Y-93873152D01*
X105608209Y-93873152D02*
X105703448Y-93920771D01*
X105703448Y-93920771D02*
X105751067Y-94016009D01*
X105751067Y-94016009D02*
X105751067Y-94539819D01*
X106227257Y-93873152D02*
X106227257Y-94873152D01*
X106227257Y-93920771D02*
X106322495Y-93873152D01*
X106322495Y-93873152D02*
X106512971Y-93873152D01*
X106512971Y-93873152D02*
X106608209Y-93920771D01*
X106608209Y-93920771D02*
X106655828Y-93968390D01*
X106655828Y-93968390D02*
X106703447Y-94063628D01*
X106703447Y-94063628D02*
X106703447Y-94349342D01*
X106703447Y-94349342D02*
X106655828Y-94444580D01*
X106655828Y-94444580D02*
X106608209Y-94492200D01*
X106608209Y-94492200D02*
X106512971Y-94539819D01*
X106512971Y-94539819D02*
X106322495Y-94539819D01*
X106322495Y-94539819D02*
X106227257Y-94492200D01*
X104294761Y-100852295D02*
X103837618Y-100852295D01*
X104066190Y-100852295D02*
X104066190Y-100052295D01*
X104066190Y-100052295D02*
X103989999Y-100166580D01*
X103989999Y-100166580D02*
X103913809Y-100242771D01*
X103913809Y-100242771D02*
X103837618Y-100280866D01*
X104790000Y-100052295D02*
X104866190Y-100052295D01*
X104866190Y-100052295D02*
X104942381Y-100090390D01*
X104942381Y-100090390D02*
X104980476Y-100128485D01*
X104980476Y-100128485D02*
X105018571Y-100204676D01*
X105018571Y-100204676D02*
X105056666Y-100357057D01*
X105056666Y-100357057D02*
X105056666Y-100547533D01*
X105056666Y-100547533D02*
X105018571Y-100699914D01*
X105018571Y-100699914D02*
X104980476Y-100776104D01*
X104980476Y-100776104D02*
X104942381Y-100814200D01*
X104942381Y-100814200D02*
X104866190Y-100852295D01*
X104866190Y-100852295D02*
X104790000Y-100852295D01*
X104790000Y-100852295D02*
X104713809Y-100814200D01*
X104713809Y-100814200D02*
X104675714Y-100776104D01*
X104675714Y-100776104D02*
X104637619Y-100699914D01*
X104637619Y-100699914D02*
X104599523Y-100547533D01*
X104599523Y-100547533D02*
X104599523Y-100357057D01*
X104599523Y-100357057D02*
X104637619Y-100204676D01*
X104637619Y-100204676D02*
X104675714Y-100128485D01*
X104675714Y-100128485D02*
X104713809Y-100090390D01*
X104713809Y-100090390D02*
X104790000Y-100052295D01*
X105551905Y-100052295D02*
X105628095Y-100052295D01*
X105628095Y-100052295D02*
X105704286Y-100090390D01*
X105704286Y-100090390D02*
X105742381Y-100128485D01*
X105742381Y-100128485D02*
X105780476Y-100204676D01*
X105780476Y-100204676D02*
X105818571Y-100357057D01*
X105818571Y-100357057D02*
X105818571Y-100547533D01*
X105818571Y-100547533D02*
X105780476Y-100699914D01*
X105780476Y-100699914D02*
X105742381Y-100776104D01*
X105742381Y-100776104D02*
X105704286Y-100814200D01*
X105704286Y-100814200D02*
X105628095Y-100852295D01*
X105628095Y-100852295D02*
X105551905Y-100852295D01*
X105551905Y-100852295D02*
X105475714Y-100814200D01*
X105475714Y-100814200D02*
X105437619Y-100776104D01*
X105437619Y-100776104D02*
X105399524Y-100699914D01*
X105399524Y-100699914D02*
X105361428Y-100547533D01*
X105361428Y-100547533D02*
X105361428Y-100357057D01*
X105361428Y-100357057D02*
X105399524Y-100204676D01*
X105399524Y-100204676D02*
X105437619Y-100128485D01*
X105437619Y-100128485D02*
X105475714Y-100090390D01*
X105475714Y-100090390D02*
X105551905Y-100052295D01*
X106161429Y-100318961D02*
X106161429Y-100852295D01*
X106161429Y-100395152D02*
X106199524Y-100357057D01*
X106199524Y-100357057D02*
X106275714Y-100318961D01*
X106275714Y-100318961D02*
X106390000Y-100318961D01*
X106390000Y-100318961D02*
X106466191Y-100357057D01*
X106466191Y-100357057D02*
X106504286Y-100433247D01*
X106504286Y-100433247D02*
X106504286Y-100852295D01*
X103264761Y-115464819D02*
X102693333Y-115464819D01*
X102979047Y-115464819D02*
X102979047Y-114464819D01*
X102979047Y-114464819D02*
X102883809Y-114607676D01*
X102883809Y-114607676D02*
X102788571Y-114702914D01*
X102788571Y-114702914D02*
X102693333Y-114750533D01*
X103883809Y-114464819D02*
X103979047Y-114464819D01*
X103979047Y-114464819D02*
X104074285Y-114512438D01*
X104074285Y-114512438D02*
X104121904Y-114560057D01*
X104121904Y-114560057D02*
X104169523Y-114655295D01*
X104169523Y-114655295D02*
X104217142Y-114845771D01*
X104217142Y-114845771D02*
X104217142Y-115083866D01*
X104217142Y-115083866D02*
X104169523Y-115274342D01*
X104169523Y-115274342D02*
X104121904Y-115369580D01*
X104121904Y-115369580D02*
X104074285Y-115417200D01*
X104074285Y-115417200D02*
X103979047Y-115464819D01*
X103979047Y-115464819D02*
X103883809Y-115464819D01*
X103883809Y-115464819D02*
X103788571Y-115417200D01*
X103788571Y-115417200D02*
X103740952Y-115369580D01*
X103740952Y-115369580D02*
X103693333Y-115274342D01*
X103693333Y-115274342D02*
X103645714Y-115083866D01*
X103645714Y-115083866D02*
X103645714Y-114845771D01*
X103645714Y-114845771D02*
X103693333Y-114655295D01*
X103693333Y-114655295D02*
X103740952Y-114560057D01*
X103740952Y-114560057D02*
X103788571Y-114512438D01*
X103788571Y-114512438D02*
X103883809Y-114464819D01*
X104645714Y-115464819D02*
X104645714Y-114464819D01*
X104740952Y-115083866D02*
X105026666Y-115464819D01*
X105026666Y-114798152D02*
X104645714Y-115179104D01*
X101000476Y-102056819D02*
X101333809Y-103056819D01*
X101333809Y-103056819D02*
X101667142Y-102056819D01*
X102000476Y-103056819D02*
X102000476Y-102056819D01*
X102000476Y-102056819D02*
X102238571Y-102056819D01*
X102238571Y-102056819D02*
X102381428Y-102104438D01*
X102381428Y-102104438D02*
X102476666Y-102199676D01*
X102476666Y-102199676D02*
X102524285Y-102294914D01*
X102524285Y-102294914D02*
X102571904Y-102485390D01*
X102571904Y-102485390D02*
X102571904Y-102628247D01*
X102571904Y-102628247D02*
X102524285Y-102818723D01*
X102524285Y-102818723D02*
X102476666Y-102913961D01*
X102476666Y-102913961D02*
X102381428Y-103009200D01*
X102381428Y-103009200D02*
X102238571Y-103056819D01*
X102238571Y-103056819D02*
X102000476Y-103056819D01*
X103571904Y-102961580D02*
X103524285Y-103009200D01*
X103524285Y-103009200D02*
X103381428Y-103056819D01*
X103381428Y-103056819D02*
X103286190Y-103056819D01*
X103286190Y-103056819D02*
X103143333Y-103009200D01*
X103143333Y-103009200D02*
X103048095Y-102913961D01*
X103048095Y-102913961D02*
X103000476Y-102818723D01*
X103000476Y-102818723D02*
X102952857Y-102628247D01*
X102952857Y-102628247D02*
X102952857Y-102485390D01*
X102952857Y-102485390D02*
X103000476Y-102294914D01*
X103000476Y-102294914D02*
X103048095Y-102199676D01*
X103048095Y-102199676D02*
X103143333Y-102104438D01*
X103143333Y-102104438D02*
X103286190Y-102056819D01*
X103286190Y-102056819D02*
X103381428Y-102056819D01*
X103381428Y-102056819D02*
X103524285Y-102104438D01*
X103524285Y-102104438D02*
X103571904Y-102152057D01*
X104524285Y-103056819D02*
X103952857Y-103056819D01*
X104238571Y-103056819D02*
X104238571Y-102056819D01*
X104238571Y-102056819D02*
X104143333Y-102199676D01*
X104143333Y-102199676D02*
X104048095Y-102294914D01*
X104048095Y-102294914D02*
X103952857Y-102342533D01*
X95664761Y-113830057D02*
X95569523Y-113782438D01*
X95569523Y-113782438D02*
X95474285Y-113687200D01*
X95474285Y-113687200D02*
X95331428Y-113544342D01*
X95331428Y-113544342D02*
X95236190Y-113496723D01*
X95236190Y-113496723D02*
X95140952Y-113496723D01*
X95188571Y-113734819D02*
X95093333Y-113687200D01*
X95093333Y-113687200D02*
X94998095Y-113591961D01*
X94998095Y-113591961D02*
X94950476Y-113401485D01*
X94950476Y-113401485D02*
X94950476Y-113068152D01*
X94950476Y-113068152D02*
X94998095Y-112877676D01*
X94998095Y-112877676D02*
X95093333Y-112782438D01*
X95093333Y-112782438D02*
X95188571Y-112734819D01*
X95188571Y-112734819D02*
X95379047Y-112734819D01*
X95379047Y-112734819D02*
X95474285Y-112782438D01*
X95474285Y-112782438D02*
X95569523Y-112877676D01*
X95569523Y-112877676D02*
X95617142Y-113068152D01*
X95617142Y-113068152D02*
X95617142Y-113401485D01*
X95617142Y-113401485D02*
X95569523Y-113591961D01*
X95569523Y-113591961D02*
X95474285Y-113687200D01*
X95474285Y-113687200D02*
X95379047Y-113734819D01*
X95379047Y-113734819D02*
X95188571Y-113734819D01*
X96569523Y-113734819D02*
X95998095Y-113734819D01*
X96283809Y-113734819D02*
X96283809Y-112734819D01*
X96283809Y-112734819D02*
X96188571Y-112877676D01*
X96188571Y-112877676D02*
X96093333Y-112972914D01*
X96093333Y-112972914D02*
X95998095Y-113020533D01*
X91442295Y-101535238D02*
X91442295Y-101992381D01*
X91442295Y-101763809D02*
X90642295Y-101763809D01*
X90642295Y-101763809D02*
X90756580Y-101840000D01*
X90756580Y-101840000D02*
X90832771Y-101916190D01*
X90832771Y-101916190D02*
X90870866Y-101992381D01*
X90642295Y-101039999D02*
X90642295Y-100963809D01*
X90642295Y-100963809D02*
X90680390Y-100887618D01*
X90680390Y-100887618D02*
X90718485Y-100849523D01*
X90718485Y-100849523D02*
X90794676Y-100811428D01*
X90794676Y-100811428D02*
X90947057Y-100773333D01*
X90947057Y-100773333D02*
X91137533Y-100773333D01*
X91137533Y-100773333D02*
X91289914Y-100811428D01*
X91289914Y-100811428D02*
X91366104Y-100849523D01*
X91366104Y-100849523D02*
X91404200Y-100887618D01*
X91404200Y-100887618D02*
X91442295Y-100963809D01*
X91442295Y-100963809D02*
X91442295Y-101039999D01*
X91442295Y-101039999D02*
X91404200Y-101116190D01*
X91404200Y-101116190D02*
X91366104Y-101154285D01*
X91366104Y-101154285D02*
X91289914Y-101192380D01*
X91289914Y-101192380D02*
X91137533Y-101230476D01*
X91137533Y-101230476D02*
X90947057Y-101230476D01*
X90947057Y-101230476D02*
X90794676Y-101192380D01*
X90794676Y-101192380D02*
X90718485Y-101154285D01*
X90718485Y-101154285D02*
X90680390Y-101116190D01*
X90680390Y-101116190D02*
X90642295Y-101039999D01*
X90642295Y-100278094D02*
X90642295Y-100201904D01*
X90642295Y-100201904D02*
X90680390Y-100125713D01*
X90680390Y-100125713D02*
X90718485Y-100087618D01*
X90718485Y-100087618D02*
X90794676Y-100049523D01*
X90794676Y-100049523D02*
X90947057Y-100011428D01*
X90947057Y-100011428D02*
X91137533Y-100011428D01*
X91137533Y-100011428D02*
X91289914Y-100049523D01*
X91289914Y-100049523D02*
X91366104Y-100087618D01*
X91366104Y-100087618D02*
X91404200Y-100125713D01*
X91404200Y-100125713D02*
X91442295Y-100201904D01*
X91442295Y-100201904D02*
X91442295Y-100278094D01*
X91442295Y-100278094D02*
X91404200Y-100354285D01*
X91404200Y-100354285D02*
X91366104Y-100392380D01*
X91366104Y-100392380D02*
X91289914Y-100430475D01*
X91289914Y-100430475D02*
X91137533Y-100468571D01*
X91137533Y-100468571D02*
X90947057Y-100468571D01*
X90947057Y-100468571D02*
X90794676Y-100430475D01*
X90794676Y-100430475D02*
X90718485Y-100392380D01*
X90718485Y-100392380D02*
X90680390Y-100354285D01*
X90680390Y-100354285D02*
X90642295Y-100278094D01*
X90908961Y-99668570D02*
X91442295Y-99668570D01*
X90985152Y-99668570D02*
X90947057Y-99630475D01*
X90947057Y-99630475D02*
X90908961Y-99554285D01*
X90908961Y-99554285D02*
X90908961Y-99439999D01*
X90908961Y-99439999D02*
X90947057Y-99363808D01*
X90947057Y-99363808D02*
X91023247Y-99325713D01*
X91023247Y-99325713D02*
X91442295Y-99325713D01*
X94918095Y-97750057D02*
X94965714Y-97702438D01*
X94965714Y-97702438D02*
X95060952Y-97654819D01*
X95060952Y-97654819D02*
X95299047Y-97654819D01*
X95299047Y-97654819D02*
X95394285Y-97702438D01*
X95394285Y-97702438D02*
X95441904Y-97750057D01*
X95441904Y-97750057D02*
X95489523Y-97845295D01*
X95489523Y-97845295D02*
X95489523Y-97940533D01*
X95489523Y-97940533D02*
X95441904Y-98083390D01*
X95441904Y-98083390D02*
X94870476Y-98654819D01*
X94870476Y-98654819D02*
X95489523Y-98654819D01*
X95870476Y-97750057D02*
X95918095Y-97702438D01*
X95918095Y-97702438D02*
X96013333Y-97654819D01*
X96013333Y-97654819D02*
X96251428Y-97654819D01*
X96251428Y-97654819D02*
X96346666Y-97702438D01*
X96346666Y-97702438D02*
X96394285Y-97750057D01*
X96394285Y-97750057D02*
X96441904Y-97845295D01*
X96441904Y-97845295D02*
X96441904Y-97940533D01*
X96441904Y-97940533D02*
X96394285Y-98083390D01*
X96394285Y-98083390D02*
X95822857Y-98654819D01*
X95822857Y-98654819D02*
X96441904Y-98654819D01*
X108043809Y-106604819D02*
X108234285Y-106604819D01*
X108234285Y-106604819D02*
X108329523Y-106652438D01*
X108329523Y-106652438D02*
X108424761Y-106747676D01*
X108424761Y-106747676D02*
X108472380Y-106938152D01*
X108472380Y-106938152D02*
X108472380Y-107271485D01*
X108472380Y-107271485D02*
X108424761Y-107461961D01*
X108424761Y-107461961D02*
X108329523Y-107557200D01*
X108329523Y-107557200D02*
X108234285Y-107604819D01*
X108234285Y-107604819D02*
X108043809Y-107604819D01*
X108043809Y-107604819D02*
X107948571Y-107557200D01*
X107948571Y-107557200D02*
X107853333Y-107461961D01*
X107853333Y-107461961D02*
X107805714Y-107271485D01*
X107805714Y-107271485D02*
X107805714Y-106938152D01*
X107805714Y-106938152D02*
X107853333Y-106747676D01*
X107853333Y-106747676D02*
X107948571Y-106652438D01*
X107948571Y-106652438D02*
X108043809Y-106604819D01*
X108900952Y-106604819D02*
X108900952Y-107414342D01*
X108900952Y-107414342D02*
X108948571Y-107509580D01*
X108948571Y-107509580D02*
X108996190Y-107557200D01*
X108996190Y-107557200D02*
X109091428Y-107604819D01*
X109091428Y-107604819D02*
X109281904Y-107604819D01*
X109281904Y-107604819D02*
X109377142Y-107557200D01*
X109377142Y-107557200D02*
X109424761Y-107509580D01*
X109424761Y-107509580D02*
X109472380Y-107414342D01*
X109472380Y-107414342D02*
X109472380Y-106604819D01*
X109805714Y-106604819D02*
X110377142Y-106604819D01*
X110091428Y-107604819D02*
X110091428Y-106604819D01*
X111234285Y-107604819D02*
X110662857Y-107604819D01*
X110948571Y-107604819D02*
X110948571Y-106604819D01*
X110948571Y-106604819D02*
X110853333Y-106747676D01*
X110853333Y-106747676D02*
X110758095Y-106842914D01*
X110758095Y-106842914D02*
X110662857Y-106890533D01*
X86610000Y-108174819D02*
X86610000Y-107174819D01*
X87086190Y-108174819D02*
X87086190Y-107174819D01*
X87086190Y-107174819D02*
X87657618Y-108174819D01*
X87657618Y-108174819D02*
X87657618Y-107174819D01*
X88657618Y-108174819D02*
X88086190Y-108174819D01*
X88371904Y-108174819D02*
X88371904Y-107174819D01*
X88371904Y-107174819D02*
X88276666Y-107317676D01*
X88276666Y-107317676D02*
X88181428Y-107412914D01*
X88181428Y-107412914D02*
X88086190Y-107460533D01*
X98650952Y-98194819D02*
X98079524Y-98194819D01*
X98365238Y-98194819D02*
X98365238Y-97194819D01*
X98365238Y-97194819D02*
X98270000Y-97337676D01*
X98270000Y-97337676D02*
X98174762Y-97432914D01*
X98174762Y-97432914D02*
X98079524Y-97480533D01*
X99270000Y-97194819D02*
X99365238Y-97194819D01*
X99365238Y-97194819D02*
X99460476Y-97242438D01*
X99460476Y-97242438D02*
X99508095Y-97290057D01*
X99508095Y-97290057D02*
X99555714Y-97385295D01*
X99555714Y-97385295D02*
X99603333Y-97575771D01*
X99603333Y-97575771D02*
X99603333Y-97813866D01*
X99603333Y-97813866D02*
X99555714Y-98004342D01*
X99555714Y-98004342D02*
X99508095Y-98099580D01*
X99508095Y-98099580D02*
X99460476Y-98147200D01*
X99460476Y-98147200D02*
X99365238Y-98194819D01*
X99365238Y-98194819D02*
X99270000Y-98194819D01*
X99270000Y-98194819D02*
X99174762Y-98147200D01*
X99174762Y-98147200D02*
X99127143Y-98099580D01*
X99127143Y-98099580D02*
X99079524Y-98004342D01*
X99079524Y-98004342D02*
X99031905Y-97813866D01*
X99031905Y-97813866D02*
X99031905Y-97575771D01*
X99031905Y-97575771D02*
X99079524Y-97385295D01*
X99079524Y-97385295D02*
X99127143Y-97290057D01*
X99127143Y-97290057D02*
X99174762Y-97242438D01*
X99174762Y-97242438D02*
X99270000Y-97194819D01*
X100222381Y-97194819D02*
X100317619Y-97194819D01*
X100317619Y-97194819D02*
X100412857Y-97242438D01*
X100412857Y-97242438D02*
X100460476Y-97290057D01*
X100460476Y-97290057D02*
X100508095Y-97385295D01*
X100508095Y-97385295D02*
X100555714Y-97575771D01*
X100555714Y-97575771D02*
X100555714Y-97813866D01*
X100555714Y-97813866D02*
X100508095Y-98004342D01*
X100508095Y-98004342D02*
X100460476Y-98099580D01*
X100460476Y-98099580D02*
X100412857Y-98147200D01*
X100412857Y-98147200D02*
X100317619Y-98194819D01*
X100317619Y-98194819D02*
X100222381Y-98194819D01*
X100222381Y-98194819D02*
X100127143Y-98147200D01*
X100127143Y-98147200D02*
X100079524Y-98099580D01*
X100079524Y-98099580D02*
X100031905Y-98004342D01*
X100031905Y-98004342D02*
X99984286Y-97813866D01*
X99984286Y-97813866D02*
X99984286Y-97575771D01*
X99984286Y-97575771D02*
X100031905Y-97385295D01*
X100031905Y-97385295D02*
X100079524Y-97290057D01*
X100079524Y-97290057D02*
X100127143Y-97242438D01*
X100127143Y-97242438D02*
X100222381Y-97194819D01*
X101412857Y-97528152D02*
X101412857Y-98194819D01*
X100984286Y-97528152D02*
X100984286Y-98051961D01*
X100984286Y-98051961D02*
X101031905Y-98147200D01*
X101031905Y-98147200D02*
X101127143Y-98194819D01*
X101127143Y-98194819D02*
X101270000Y-98194819D01*
X101270000Y-98194819D02*
X101365238Y-98147200D01*
X101365238Y-98147200D02*
X101412857Y-98099580D01*
X110692438Y-111928095D02*
X110644819Y-112023333D01*
X110644819Y-112023333D02*
X110644819Y-112166190D01*
X110644819Y-112166190D02*
X110692438Y-112309047D01*
X110692438Y-112309047D02*
X110787676Y-112404285D01*
X110787676Y-112404285D02*
X110882914Y-112451904D01*
X110882914Y-112451904D02*
X111073390Y-112499523D01*
X111073390Y-112499523D02*
X111216247Y-112499523D01*
X111216247Y-112499523D02*
X111406723Y-112451904D01*
X111406723Y-112451904D02*
X111501961Y-112404285D01*
X111501961Y-112404285D02*
X111597200Y-112309047D01*
X111597200Y-112309047D02*
X111644819Y-112166190D01*
X111644819Y-112166190D02*
X111644819Y-112070952D01*
X111644819Y-112070952D02*
X111597200Y-111928095D01*
X111597200Y-111928095D02*
X111549580Y-111880476D01*
X111549580Y-111880476D02*
X111216247Y-111880476D01*
X111216247Y-111880476D02*
X111216247Y-112070952D01*
X111644819Y-111451904D02*
X110644819Y-111451904D01*
X110644819Y-111451904D02*
X111644819Y-110880476D01*
X111644819Y-110880476D02*
X110644819Y-110880476D01*
X111644819Y-110404285D02*
X110644819Y-110404285D01*
X110644819Y-110404285D02*
X110644819Y-110166190D01*
X110644819Y-110166190D02*
X110692438Y-110023333D01*
X110692438Y-110023333D02*
X110787676Y-109928095D01*
X110787676Y-109928095D02*
X110882914Y-109880476D01*
X110882914Y-109880476D02*
X111073390Y-109832857D01*
X111073390Y-109832857D02*
X111216247Y-109832857D01*
X111216247Y-109832857D02*
X111406723Y-109880476D01*
X111406723Y-109880476D02*
X111501961Y-109928095D01*
X111501961Y-109928095D02*
X111597200Y-110023333D01*
X111597200Y-110023333D02*
X111644819Y-110166190D01*
X111644819Y-110166190D02*
X111644819Y-110404285D01*
X111644819Y-108880476D02*
X111644819Y-109451904D01*
X111644819Y-109166190D02*
X110644819Y-109166190D01*
X110644819Y-109166190D02*
X110787676Y-109261428D01*
X110787676Y-109261428D02*
X110882914Y-109356666D01*
X110882914Y-109356666D02*
X110930533Y-109451904D01*
X99044761Y-111462295D02*
X98587618Y-111462295D01*
X98816190Y-111462295D02*
X98816190Y-110662295D01*
X98816190Y-110662295D02*
X98739999Y-110776580D01*
X98739999Y-110776580D02*
X98663809Y-110852771D01*
X98663809Y-110852771D02*
X98587618Y-110890866D01*
X99540000Y-110662295D02*
X99616190Y-110662295D01*
X99616190Y-110662295D02*
X99692381Y-110700390D01*
X99692381Y-110700390D02*
X99730476Y-110738485D01*
X99730476Y-110738485D02*
X99768571Y-110814676D01*
X99768571Y-110814676D02*
X99806666Y-110967057D01*
X99806666Y-110967057D02*
X99806666Y-111157533D01*
X99806666Y-111157533D02*
X99768571Y-111309914D01*
X99768571Y-111309914D02*
X99730476Y-111386104D01*
X99730476Y-111386104D02*
X99692381Y-111424200D01*
X99692381Y-111424200D02*
X99616190Y-111462295D01*
X99616190Y-111462295D02*
X99540000Y-111462295D01*
X99540000Y-111462295D02*
X99463809Y-111424200D01*
X99463809Y-111424200D02*
X99425714Y-111386104D01*
X99425714Y-111386104D02*
X99387619Y-111309914D01*
X99387619Y-111309914D02*
X99349523Y-111157533D01*
X99349523Y-111157533D02*
X99349523Y-110967057D01*
X99349523Y-110967057D02*
X99387619Y-110814676D01*
X99387619Y-110814676D02*
X99425714Y-110738485D01*
X99425714Y-110738485D02*
X99463809Y-110700390D01*
X99463809Y-110700390D02*
X99540000Y-110662295D01*
X100301905Y-110662295D02*
X100378095Y-110662295D01*
X100378095Y-110662295D02*
X100454286Y-110700390D01*
X100454286Y-110700390D02*
X100492381Y-110738485D01*
X100492381Y-110738485D02*
X100530476Y-110814676D01*
X100530476Y-110814676D02*
X100568571Y-110967057D01*
X100568571Y-110967057D02*
X100568571Y-111157533D01*
X100568571Y-111157533D02*
X100530476Y-111309914D01*
X100530476Y-111309914D02*
X100492381Y-111386104D01*
X100492381Y-111386104D02*
X100454286Y-111424200D01*
X100454286Y-111424200D02*
X100378095Y-111462295D01*
X100378095Y-111462295D02*
X100301905Y-111462295D01*
X100301905Y-111462295D02*
X100225714Y-111424200D01*
X100225714Y-111424200D02*
X100187619Y-111386104D01*
X100187619Y-111386104D02*
X100149524Y-111309914D01*
X100149524Y-111309914D02*
X100111428Y-111157533D01*
X100111428Y-111157533D02*
X100111428Y-110967057D01*
X100111428Y-110967057D02*
X100149524Y-110814676D01*
X100149524Y-110814676D02*
X100187619Y-110738485D01*
X100187619Y-110738485D02*
X100225714Y-110700390D01*
X100225714Y-110700390D02*
X100301905Y-110662295D01*
X100911429Y-110928961D02*
X100911429Y-111462295D01*
X100911429Y-111005152D02*
X100949524Y-110967057D01*
X100949524Y-110967057D02*
X101025714Y-110928961D01*
X101025714Y-110928961D02*
X101140000Y-110928961D01*
X101140000Y-110928961D02*
X101216191Y-110967057D01*
X101216191Y-110967057D02*
X101254286Y-111043247D01*
X101254286Y-111043247D02*
X101254286Y-111462295D01*
X92304761Y-96672295D02*
X91847618Y-96672295D01*
X92076190Y-96672295D02*
X92076190Y-95872295D01*
X92076190Y-95872295D02*
X91999999Y-95986580D01*
X91999999Y-95986580D02*
X91923809Y-96062771D01*
X91923809Y-96062771D02*
X91847618Y-96100866D01*
X92800000Y-95872295D02*
X92876190Y-95872295D01*
X92876190Y-95872295D02*
X92952381Y-95910390D01*
X92952381Y-95910390D02*
X92990476Y-95948485D01*
X92990476Y-95948485D02*
X93028571Y-96024676D01*
X93028571Y-96024676D02*
X93066666Y-96177057D01*
X93066666Y-96177057D02*
X93066666Y-96367533D01*
X93066666Y-96367533D02*
X93028571Y-96519914D01*
X93028571Y-96519914D02*
X92990476Y-96596104D01*
X92990476Y-96596104D02*
X92952381Y-96634200D01*
X92952381Y-96634200D02*
X92876190Y-96672295D01*
X92876190Y-96672295D02*
X92800000Y-96672295D01*
X92800000Y-96672295D02*
X92723809Y-96634200D01*
X92723809Y-96634200D02*
X92685714Y-96596104D01*
X92685714Y-96596104D02*
X92647619Y-96519914D01*
X92647619Y-96519914D02*
X92609523Y-96367533D01*
X92609523Y-96367533D02*
X92609523Y-96177057D01*
X92609523Y-96177057D02*
X92647619Y-96024676D01*
X92647619Y-96024676D02*
X92685714Y-95948485D01*
X92685714Y-95948485D02*
X92723809Y-95910390D01*
X92723809Y-95910390D02*
X92800000Y-95872295D01*
X93561905Y-95872295D02*
X93638095Y-95872295D01*
X93638095Y-95872295D02*
X93714286Y-95910390D01*
X93714286Y-95910390D02*
X93752381Y-95948485D01*
X93752381Y-95948485D02*
X93790476Y-96024676D01*
X93790476Y-96024676D02*
X93828571Y-96177057D01*
X93828571Y-96177057D02*
X93828571Y-96367533D01*
X93828571Y-96367533D02*
X93790476Y-96519914D01*
X93790476Y-96519914D02*
X93752381Y-96596104D01*
X93752381Y-96596104D02*
X93714286Y-96634200D01*
X93714286Y-96634200D02*
X93638095Y-96672295D01*
X93638095Y-96672295D02*
X93561905Y-96672295D01*
X93561905Y-96672295D02*
X93485714Y-96634200D01*
X93485714Y-96634200D02*
X93447619Y-96596104D01*
X93447619Y-96596104D02*
X93409524Y-96519914D01*
X93409524Y-96519914D02*
X93371428Y-96367533D01*
X93371428Y-96367533D02*
X93371428Y-96177057D01*
X93371428Y-96177057D02*
X93409524Y-96024676D01*
X93409524Y-96024676D02*
X93447619Y-95948485D01*
X93447619Y-95948485D02*
X93485714Y-95910390D01*
X93485714Y-95910390D02*
X93561905Y-95872295D01*
X94171429Y-96138961D02*
X94171429Y-96672295D01*
X94171429Y-96215152D02*
X94209524Y-96177057D01*
X94209524Y-96177057D02*
X94285714Y-96138961D01*
X94285714Y-96138961D02*
X94400000Y-96138961D01*
X94400000Y-96138961D02*
X94476191Y-96177057D01*
X94476191Y-96177057D02*
X94514286Y-96253247D01*
X94514286Y-96253247D02*
X94514286Y-96672295D01*
X105184819Y-108860476D02*
X105184819Y-109431904D01*
X105184819Y-109146190D02*
X104184819Y-109146190D01*
X104184819Y-109146190D02*
X104327676Y-109241428D01*
X104327676Y-109241428D02*
X104422914Y-109336666D01*
X104422914Y-109336666D02*
X104470533Y-109431904D01*
X104518152Y-108003333D02*
X105184819Y-108003333D01*
X104518152Y-108431904D02*
X105041961Y-108431904D01*
X105041961Y-108431904D02*
X105137200Y-108384285D01*
X105137200Y-108384285D02*
X105184819Y-108289047D01*
X105184819Y-108289047D02*
X105184819Y-108146190D01*
X105184819Y-108146190D02*
X105137200Y-108050952D01*
X105137200Y-108050952D02*
X105089580Y-108003333D01*
X105184819Y-107527142D02*
X104184819Y-107527142D01*
X104661009Y-107527142D02*
X104661009Y-106955714D01*
X105184819Y-106955714D02*
X104184819Y-106955714D01*
X97527618Y-100898485D02*
X97565714Y-100860390D01*
X97565714Y-100860390D02*
X97641904Y-100822295D01*
X97641904Y-100822295D02*
X97832380Y-100822295D01*
X97832380Y-100822295D02*
X97908571Y-100860390D01*
X97908571Y-100860390D02*
X97946666Y-100898485D01*
X97946666Y-100898485D02*
X97984761Y-100974676D01*
X97984761Y-100974676D02*
X97984761Y-101050866D01*
X97984761Y-101050866D02*
X97946666Y-101165152D01*
X97946666Y-101165152D02*
X97489523Y-101622295D01*
X97489523Y-101622295D02*
X97984761Y-101622295D01*
X98327619Y-101622295D02*
X98327619Y-100822295D01*
X98403809Y-101317533D02*
X98632381Y-101622295D01*
X98632381Y-101088961D02*
X98327619Y-101393723D01*
X90334286Y-112284819D02*
X90953333Y-112284819D01*
X90953333Y-112284819D02*
X90620000Y-112665771D01*
X90620000Y-112665771D02*
X90762857Y-112665771D01*
X90762857Y-112665771D02*
X90858095Y-112713390D01*
X90858095Y-112713390D02*
X90905714Y-112761009D01*
X90905714Y-112761009D02*
X90953333Y-112856247D01*
X90953333Y-112856247D02*
X90953333Y-113094342D01*
X90953333Y-113094342D02*
X90905714Y-113189580D01*
X90905714Y-113189580D02*
X90858095Y-113237200D01*
X90858095Y-113237200D02*
X90762857Y-113284819D01*
X90762857Y-113284819D02*
X90477143Y-113284819D01*
X90477143Y-113284819D02*
X90381905Y-113237200D01*
X90381905Y-113237200D02*
X90334286Y-113189580D01*
X91429524Y-113284819D02*
X91620000Y-113284819D01*
X91620000Y-113284819D02*
X91715238Y-113237200D01*
X91715238Y-113237200D02*
X91762857Y-113189580D01*
X91762857Y-113189580D02*
X91858095Y-113046723D01*
X91858095Y-113046723D02*
X91905714Y-112856247D01*
X91905714Y-112856247D02*
X91905714Y-112475295D01*
X91905714Y-112475295D02*
X91858095Y-112380057D01*
X91858095Y-112380057D02*
X91810476Y-112332438D01*
X91810476Y-112332438D02*
X91715238Y-112284819D01*
X91715238Y-112284819D02*
X91524762Y-112284819D01*
X91524762Y-112284819D02*
X91429524Y-112332438D01*
X91429524Y-112332438D02*
X91381905Y-112380057D01*
X91381905Y-112380057D02*
X91334286Y-112475295D01*
X91334286Y-112475295D02*
X91334286Y-112713390D01*
X91334286Y-112713390D02*
X91381905Y-112808628D01*
X91381905Y-112808628D02*
X91429524Y-112856247D01*
X91429524Y-112856247D02*
X91524762Y-112903866D01*
X91524762Y-112903866D02*
X91715238Y-112903866D01*
X91715238Y-112903866D02*
X91810476Y-112856247D01*
X91810476Y-112856247D02*
X91858095Y-112808628D01*
X91858095Y-112808628D02*
X91905714Y-112713390D01*
X92524762Y-112284819D02*
X92620000Y-112284819D01*
X92620000Y-112284819D02*
X92715238Y-112332438D01*
X92715238Y-112332438D02*
X92762857Y-112380057D01*
X92762857Y-112380057D02*
X92810476Y-112475295D01*
X92810476Y-112475295D02*
X92858095Y-112665771D01*
X92858095Y-112665771D02*
X92858095Y-112903866D01*
X92858095Y-112903866D02*
X92810476Y-113094342D01*
X92810476Y-113094342D02*
X92762857Y-113189580D01*
X92762857Y-113189580D02*
X92715238Y-113237200D01*
X92715238Y-113237200D02*
X92620000Y-113284819D01*
X92620000Y-113284819D02*
X92524762Y-113284819D01*
X92524762Y-113284819D02*
X92429524Y-113237200D01*
X92429524Y-113237200D02*
X92381905Y-113189580D01*
X92381905Y-113189580D02*
X92334286Y-113094342D01*
X92334286Y-113094342D02*
X92286667Y-112903866D01*
X92286667Y-112903866D02*
X92286667Y-112665771D01*
X92286667Y-112665771D02*
X92334286Y-112475295D01*
X92334286Y-112475295D02*
X92381905Y-112380057D01*
X92381905Y-112380057D02*
X92429524Y-112332438D01*
X92429524Y-112332438D02*
X92524762Y-112284819D01*
D11*
%TO.C,C2*%
X100528748Y-99590000D02*
X101951252Y-99590000D01*
X100528748Y-101410000D02*
X101951252Y-101410000D01*
%TO.C,R2*%
X103132936Y-112280000D02*
X104587064Y-112280000D01*
X103132936Y-114100000D02*
X104587064Y-114100000D01*
%TO.C,VDC1*%
X101360000Y-103300000D02*
X104260000Y-103300000D01*
X101360000Y-106200000D02*
X101360000Y-103300000D01*
X104260000Y-103300000D02*
X104260000Y-106200000D01*
X104260000Y-106200000D02*
X101360000Y-106200000D01*
%TO.C,Q1*%
X94400000Y-106950000D02*
X94400000Y-112090000D01*
X94400000Y-106950000D02*
X97060000Y-106950000D01*
X94400000Y-112090000D02*
X97060000Y-112090000D01*
X95730000Y-104350000D02*
X97060000Y-104350000D01*
X97060000Y-104350000D02*
X97060000Y-105680000D01*
X97060000Y-106950000D02*
X97060000Y-112090000D01*
%TO.C,C1*%
X90720000Y-103891248D02*
X90720000Y-105313752D01*
X92540000Y-103891248D02*
X92540000Y-105313752D01*
%TO.C,R5*%
X94820000Y-100502936D02*
X94820000Y-101957064D01*
X96640000Y-100502936D02*
X96640000Y-101957064D01*
%TO.C,OUT1*%
X106920000Y-102185000D02*
X106920000Y-102685000D01*
X106920000Y-102685000D02*
X107420000Y-102435000D01*
X107420000Y-102435000D02*
X106920000Y-102185000D01*
X107970000Y-101595000D02*
X107970000Y-100485000D01*
X107970000Y-104385000D02*
X107970000Y-103275000D01*
X111220000Y-101595000D02*
X111220000Y-100485000D01*
X111220000Y-104385000D02*
X111220000Y-103275000D01*
%TO.C,IN1*%
X85980000Y-101070000D02*
X85980000Y-102180000D01*
X85980000Y-103860000D02*
X85980000Y-104970000D01*
X89230000Y-101070000D02*
X89230000Y-102180000D01*
X89230000Y-103860000D02*
X89230000Y-104970000D01*
X89780000Y-103020000D02*
X90280000Y-103270000D01*
X90280000Y-102770000D02*
X89780000Y-103020000D01*
X90280000Y-103270000D02*
X90280000Y-102770000D01*
%TO.C,C3*%
X101530199Y-95755000D02*
X101930199Y-95755000D01*
X101730199Y-95555000D02*
X101730199Y-95955000D01*
X103800000Y-94870000D02*
X103800000Y-99030000D01*
X103840000Y-94870000D02*
X103840000Y-99030000D01*
X103880000Y-94871000D02*
X103880000Y-99029000D01*
X103920000Y-94873000D02*
X103920000Y-99027000D01*
X103960000Y-94876000D02*
X103960000Y-99024000D01*
X104000000Y-94879000D02*
X104000000Y-96110000D01*
X104000000Y-97790000D02*
X104000000Y-99021000D01*
X104040000Y-94883000D02*
X104040000Y-96110000D01*
X104040000Y-97790000D02*
X104040000Y-99017000D01*
X104080000Y-94888000D02*
X104080000Y-96110000D01*
X104080000Y-97790000D02*
X104080000Y-99012000D01*
X104120000Y-94894000D02*
X104120000Y-96110000D01*
X104120000Y-97790000D02*
X104120000Y-99006000D01*
X104160000Y-94900000D02*
X104160000Y-96110000D01*
X104160000Y-97790000D02*
X104160000Y-99000000D01*
X104200000Y-94908000D02*
X104200000Y-96110000D01*
X104200000Y-97790000D02*
X104200000Y-98992000D01*
X104240000Y-94916000D02*
X104240000Y-96110000D01*
X104240000Y-97790000D02*
X104240000Y-98984000D01*
X104280000Y-94925000D02*
X104280000Y-96110000D01*
X104280000Y-97790000D02*
X104280000Y-98975000D01*
X104320000Y-94934000D02*
X104320000Y-96110000D01*
X104320000Y-97790000D02*
X104320000Y-98966000D01*
X104360000Y-94945000D02*
X104360000Y-96110000D01*
X104360000Y-97790000D02*
X104360000Y-98955000D01*
X104400000Y-94956000D02*
X104400000Y-96110000D01*
X104400000Y-97790000D02*
X104400000Y-98944000D01*
X104440000Y-94968000D02*
X104440000Y-96110000D01*
X104440000Y-97790000D02*
X104440000Y-98932000D01*
X104480000Y-94982000D02*
X104480000Y-96110000D01*
X104480000Y-97790000D02*
X104480000Y-98918000D01*
X104521000Y-94996000D02*
X104521000Y-96110000D01*
X104521000Y-97790000D02*
X104521000Y-98904000D01*
X104561000Y-95010000D02*
X104561000Y-96110000D01*
X104561000Y-97790000D02*
X104561000Y-98890000D01*
X104601000Y-95026000D02*
X104601000Y-96110000D01*
X104601000Y-97790000D02*
X104601000Y-98874000D01*
X104641000Y-95043000D02*
X104641000Y-96110000D01*
X104641000Y-97790000D02*
X104641000Y-98857000D01*
X104681000Y-95061000D02*
X104681000Y-96110000D01*
X104681000Y-97790000D02*
X104681000Y-98839000D01*
X104721000Y-95080000D02*
X104721000Y-96110000D01*
X104721000Y-97790000D02*
X104721000Y-98820000D01*
X104761000Y-95099000D02*
X104761000Y-96110000D01*
X104761000Y-97790000D02*
X104761000Y-98801000D01*
X104801000Y-95120000D02*
X104801000Y-96110000D01*
X104801000Y-97790000D02*
X104801000Y-98780000D01*
X104841000Y-95142000D02*
X104841000Y-96110000D01*
X104841000Y-97790000D02*
X104841000Y-98758000D01*
X104881000Y-95165000D02*
X104881000Y-96110000D01*
X104881000Y-97790000D02*
X104881000Y-98735000D01*
X104921000Y-95190000D02*
X104921000Y-96110000D01*
X104921000Y-97790000D02*
X104921000Y-98710000D01*
X104961000Y-95215000D02*
X104961000Y-96110000D01*
X104961000Y-97790000D02*
X104961000Y-98685000D01*
X105001000Y-95242000D02*
X105001000Y-96110000D01*
X105001000Y-97790000D02*
X105001000Y-98658000D01*
X105041000Y-95270000D02*
X105041000Y-96110000D01*
X105041000Y-97790000D02*
X105041000Y-98630000D01*
X105081000Y-95300000D02*
X105081000Y-96110000D01*
X105081000Y-97790000D02*
X105081000Y-98600000D01*
X105121000Y-95331000D02*
X105121000Y-96110000D01*
X105121000Y-97790000D02*
X105121000Y-98569000D01*
X105161000Y-95363000D02*
X105161000Y-96110000D01*
X105161000Y-97790000D02*
X105161000Y-98537000D01*
X105201000Y-95398000D02*
X105201000Y-96110000D01*
X105201000Y-97790000D02*
X105201000Y-98502000D01*
X105241000Y-95434000D02*
X105241000Y-96110000D01*
X105241000Y-97790000D02*
X105241000Y-98466000D01*
X105281000Y-95472000D02*
X105281000Y-96110000D01*
X105281000Y-97790000D02*
X105281000Y-98428000D01*
X105321000Y-95512000D02*
X105321000Y-96110000D01*
X105321000Y-97790000D02*
X105321000Y-98388000D01*
X105361000Y-95554000D02*
X105361000Y-96110000D01*
X105361000Y-97790000D02*
X105361000Y-98346000D01*
X105401000Y-95599000D02*
X105401000Y-96110000D01*
X105401000Y-97790000D02*
X105401000Y-98301000D01*
X105441000Y-95646000D02*
X105441000Y-96110000D01*
X105441000Y-97790000D02*
X105441000Y-98254000D01*
X105481000Y-95696000D02*
X105481000Y-96110000D01*
X105481000Y-97790000D02*
X105481000Y-98204000D01*
X105521000Y-95750000D02*
X105521000Y-96110000D01*
X105521000Y-97790000D02*
X105521000Y-98150000D01*
X105561000Y-95808000D02*
X105561000Y-96110000D01*
X105561000Y-97790000D02*
X105561000Y-98092000D01*
X105601000Y-95870000D02*
X105601000Y-96110000D01*
X105601000Y-97790000D02*
X105601000Y-98030000D01*
X105641000Y-95937000D02*
X105641000Y-97963000D01*
X105681000Y-96010000D02*
X105681000Y-97890000D01*
X105721000Y-96091000D02*
X105721000Y-97809000D01*
X105761000Y-96182000D02*
X105761000Y-97718000D01*
X105801000Y-96286000D02*
X105801000Y-97614000D01*
X105841000Y-96413000D02*
X105841000Y-97487000D01*
X105881000Y-96580000D02*
X105881000Y-97320000D01*
X105920000Y-96950000D02*
G75*
G02*
X101680000Y-96950000I-2120000J0D01*
G01*
X101680000Y-96950000D02*
G75*
G02*
X105920000Y-96950000I2120000J0D01*
G01*
%TO.C,GND1*%
X107310000Y-109190000D02*
X110210000Y-109190000D01*
X107310000Y-112090000D02*
X107310000Y-109190000D01*
X110210000Y-109190000D02*
X110210000Y-112090000D01*
X110210000Y-112090000D02*
X107310000Y-112090000D01*
%TO.C,C5*%
X103168748Y-109850000D02*
X104591252Y-109850000D01*
X103168748Y-111670000D02*
X104591252Y-111670000D01*
%TO.C,C4*%
X92300000Y-98581248D02*
X92300000Y-100003752D01*
X94120000Y-98581248D02*
X94120000Y-100003752D01*
%TO.C,L1*%
X101500000Y-108150000D02*
X101280000Y-108150000D01*
X103940000Y-108150000D02*
G75*
G02*
X101500000Y-108150000I-1220000J0D01*
G01*
X101500000Y-108150000D02*
G75*
G02*
X103940000Y-108150000I1220000J0D01*
G01*
%TO.C,R3*%
X98050000Y-103502936D02*
X98050000Y-104957064D01*
X99870000Y-103502936D02*
X99870000Y-104957064D01*
%TO.C,R4*%
X90730000Y-110497064D02*
X90730000Y-109042936D01*
X92550000Y-110497064D02*
X92550000Y-109042936D01*
%TD*%
%LPC*%
D12*
%TO.C,C2*%
X99677500Y-100500000D03*
X102802500Y-100500000D03*
%TD*%
D13*
%TO.C,R2*%
X102310000Y-113190000D03*
X105410000Y-113190000D03*
%TD*%
D14*
%TO.C,VDC1*%
X102810000Y-104750000D03*
%TD*%
D15*
%TO.C,Q1*%
X95730000Y-105680000D03*
D16*
X95730000Y-108220000D03*
X95730000Y-110760000D03*
%TD*%
D17*
%TO.C,C1*%
X91630000Y-103040000D03*
X91630000Y-106165000D03*
%TD*%
D18*
%TO.C,R5*%
X95730000Y-99680000D03*
X95730000Y-102780000D03*
%TD*%
D19*
%TO.C,OUT1*%
X109680000Y-102435000D03*
D20*
X109430000Y-99610000D03*
X109430000Y-105260000D03*
%TD*%
D21*
%TO.C,IN1*%
X87520000Y-103020000D03*
D22*
X87770000Y-105845000D03*
X87770000Y-100195000D03*
%TD*%
D23*
%TO.C,H1*%
X86200000Y-95630000D03*
X86683274Y-94463274D03*
X86683274Y-96796726D03*
X87850000Y-93980000D03*
D24*
X87850000Y-95630000D03*
D23*
X87850000Y-97280000D03*
X89016726Y-94463274D03*
X89016726Y-96796726D03*
X89500000Y-95630000D03*
%TD*%
D25*
%TO.C,C3*%
X102800000Y-96950000D03*
D26*
X104800000Y-96950000D03*
%TD*%
D14*
%TO.C,GND1*%
X108760000Y-110640000D03*
%TD*%
D23*
%TO.C,H2*%
X107870000Y-95700000D03*
X108353274Y-94533274D03*
X108353274Y-96866726D03*
X109520000Y-94050000D03*
D24*
X109520000Y-95700000D03*
D23*
X109520000Y-97350000D03*
X110686726Y-94533274D03*
X110686726Y-96866726D03*
X111170000Y-95700000D03*
%TD*%
D12*
%TO.C,C5*%
X102317500Y-110760000D03*
X105442500Y-110760000D03*
%TD*%
D17*
%TO.C,C4*%
X93210000Y-97730000D03*
X93210000Y-100855000D03*
%TD*%
D23*
%TO.C,H3*%
X86230000Y-115430000D03*
X86713274Y-114263274D03*
X86713274Y-116596726D03*
X87880000Y-113780000D03*
D24*
X87880000Y-115430000D03*
D23*
X87880000Y-117080000D03*
X89046726Y-114263274D03*
X89046726Y-116596726D03*
X89530000Y-115430000D03*
%TD*%
D27*
%TO.C,L1*%
X102720000Y-108150000D03*
D28*
X100180000Y-108150000D03*
%TD*%
D18*
%TO.C,R3*%
X98960000Y-102680000D03*
X98960000Y-105780000D03*
%TD*%
D29*
%TO.C,R4*%
X91640000Y-111320000D03*
X91640000Y-108220000D03*
%TD*%
D23*
%TO.C,H4*%
X107810000Y-115440000D03*
X108293274Y-114273274D03*
X108293274Y-116606726D03*
X109460000Y-113790000D03*
D24*
X109460000Y-115440000D03*
D23*
X109460000Y-117090000D03*
X110626726Y-114273274D03*
X110626726Y-116606726D03*
X111110000Y-115440000D03*
%TD*%
%LPD*%
M02*
