M48
; DRILL file {KiCad 8.99.0-unknown-f907b58d17~178~ubuntu22.04.1} date 2024-06-08T22:31:25+0530
; FORMAT={-:-/ absolute / inch / decimal}
; #@! TF.CreationDate,2024-06-08T22:31:25+05:30
; #@! TF.GenerationSoftware,Kicad,Pcbnew,8.99.0-unknown-f907b58d17~178~ubuntu22.04.1
; #@! TF.FileFunction,Plated,1,2,PTH
FMAT,2
INCH
; #@! TA.AperFunction,Plated,PTH,ViaDrill
T1C0.0157
; #@! TA.AperFunction,Plated,PTH,ComponentDrill
T2C0.0157
; #@! TA.AperFunction,Plated,PTH,ComponentDrill
T3C0.0236
; #@! TA.AperFunction,Plated,PTH,ComponentDrill
T4C0.0315
; #@! TA.AperFunction,Plated,PTH,ComponentDrill
T5C0.0394
; #@! TA.AperFunction,Plated,PTH,ComponentDrill
T6C0.0472
; #@! TA.AperFunction,Plated,PTH,ComponentDrill
T7C0.0866
%
G90
G05
T1
X3.4173Y-4.2913
X3.4173Y-4.3386
X3.4173Y-4.378
X3.4173Y-4.4252
X3.4724Y-4.2913
X3.4724Y-4.3386
X3.4724Y-4.378
X3.5827Y-3.8189
X3.5827Y-3.8661
X3.6299Y-4.5669
X3.6299Y-4.6142
X3.6772Y-4.3465
X3.6772Y-4.3937
X3.685Y-4.1339
X3.685Y-4.1811
X3.685Y-4.5669
X3.685Y-4.6142
X3.748Y-4.5669
X3.748Y-4.6142
X3.7874Y-3.7559
X3.7874Y-3.8031
X3.811Y-4.5669
X3.811Y-4.6142
X3.8504Y-3.7559
X3.8504Y-3.8031
X3.8504Y-3.8819
X3.8504Y-3.9291
X3.8661Y-4.5669
X3.8661Y-4.6142
X3.8819Y-4.4331
X3.8819Y-4.4803
X3.9134Y-3.7559
X3.9134Y-3.8031
X3.9291Y-4.5669
X3.9291Y-4.6142
X3.937Y-4.4331
X3.937Y-4.4803
X3.9685Y-3.7559
X3.9685Y-3.8031
X3.9921Y-4.5669
X3.9921Y-4.6142
X4.0472Y-4.5669
X4.0472Y-4.6142
X4.126Y-3.9921
X4.126Y-4.0394
X4.189Y-3.8583
X4.189Y-3.9055
T2
X3.3937Y-3.765
X3.3949Y-4.5445
X3.4127Y-3.719
X3.4127Y-3.8109
X3.4139Y-4.4986
X3.4139Y-4.5904
X3.4587Y-3.7
X3.4587Y-3.8299
X3.4598Y-4.4795
X3.4598Y-4.6094
X3.5046Y-3.719
X3.5046Y-3.8109
X3.5058Y-4.4986
X3.5058Y-4.5904
X3.5236Y-3.765
X3.5248Y-4.5445
X4.2445Y-4.5449
X4.2469Y-3.7677
X4.2635Y-4.4989
X4.2635Y-4.5908
X4.2659Y-3.7218
X4.2659Y-3.8137
X4.3094Y-4.4799
X4.3094Y-4.6098
X4.3118Y-3.7028
X4.3118Y-3.8327
X4.3554Y-4.4989
X4.3554Y-4.5908
X4.3577Y-3.7218
X4.3577Y-3.8137
X4.3744Y-4.5449
X4.3768Y-3.7677
T3
X4.0472Y-3.8169
X4.126Y-3.8169
T4
X3.9441Y-4.2579
X4.0441Y-4.2579
T5
X3.7689Y-4.1606
X3.7689Y-4.2606
X3.7689Y-4.3606
T6
X4.0476Y-4.124
X4.2819Y-4.3559
T7
X3.4587Y-3.765
X3.4598Y-4.5445
X4.3094Y-4.5449
X4.3118Y-3.7677
M30
