%TF.GenerationSoftware,KiCad,Pcbnew,8.99.0-unknown-f907b58d17~178~ubuntu22.04.1*%
%TF.CreationDate,2024-06-08T22:31:25+05:30*%
%TF.ProjectId,HF-Pre-Amp,48462d50-7265-42d4-916d-702e6b696361,rev?*%
%TF.SameCoordinates,Original*%
%TF.FileFunction,Copper,L2,Bot*%
%TF.FilePolarity,Positive*%
%FSLAX46Y46*%
G04 Gerber Fmt 4.6, Leading zero omitted, Abs format (unit mm)*
G04 Created by KiCad (PCBNEW 8.99.0-unknown-f907b58d17~178~ubuntu22.04.1) date 2024-06-08 22:31:25*
%MOMM*%
%LPD*%
G01*
G04 APERTURE LIST*
G04 Aperture macros list*
%AMRoundRect*
0 Rectangle with rounded corners*
0 $1 Rounding radius*
0 $2 $3 $4 $5 $6 $7 $8 $9 X,Y pos of 4 corners*
0 Add a 4 corners polygon primitive as box body*
4,1,4,$2,$3,$4,$5,$6,$7,$8,$9,$2,$3,0*
0 Add four circle primitives for the rounded corners*
1,1,$1+$1,$2,$3*
1,1,$1+$1,$4,$5*
1,1,$1+$1,$6,$7*
1,1,$1+$1,$8,$9*
0 Add four rect primitives between the rounded corners*
20,1,$1+$1,$2,$3,$4,$5,0*
20,1,$1+$1,$4,$5,$6,$7,0*
20,1,$1+$1,$6,$7,$8,$9,0*
20,1,$1+$1,$8,$9,$2,$3,0*%
G04 Aperture macros list end*
%TA.AperFunction,ComponentPad*%
%ADD10R,2.500000X2.500000*%
%TD*%
%TA.AperFunction,ComponentPad*%
%ADD11R,1.700000X1.700000*%
%TD*%
%TA.AperFunction,ComponentPad*%
%ADD12O,1.700000X1.700000*%
%TD*%
%TA.AperFunction,SMDPad,CuDef*%
%ADD13RoundRect,0.250000X1.600000X-0.425000X1.600000X0.425000X-1.600000X0.425000X-1.600000X-0.425000X0*%
%TD*%
%TA.AperFunction,SMDPad,CuDef*%
%ADD14RoundRect,0.250000X-1.600000X0.425000X-1.600000X-0.425000X1.600000X-0.425000X1.600000X0.425000X0*%
%TD*%
%TA.AperFunction,ComponentPad*%
%ADD15C,0.700000*%
%TD*%
%TA.AperFunction,ComponentPad*%
%ADD16C,4.400000*%
%TD*%
%TA.AperFunction,ComponentPad*%
%ADD17R,1.200000X1.200000*%
%TD*%
%TA.AperFunction,ComponentPad*%
%ADD18C,1.200000*%
%TD*%
%TA.AperFunction,ComponentPad*%
%ADD19C,1.600000*%
%TD*%
%TA.AperFunction,ComponentPad*%
%ADD20O,1.600000X1.600000*%
%TD*%
%TA.AperFunction,ViaPad*%
%ADD21C,0.800000*%
%TD*%
G04 APERTURE END LIST*
D10*
%TO.P,VDC1,1,Pin_1*%
%TO.N,+12V*%
X102810000Y-104750000D03*
%TD*%
D11*
%TO.P,Q1,1,E*%
%TO.N,Net-(Q1-E)*%
X95730000Y-105680000D03*
D12*
%TO.P,Q1,2,B*%
%TO.N,Net-(Q1-B)*%
X95730000Y-108220000D03*
%TO.P,Q1,3,C*%
%TO.N,Net-(Q1-C)*%
X95730000Y-110760000D03*
%TD*%
D13*
%TO.P,OUT1,2,Ext*%
%TO.N,GND*%
X109430000Y-99610000D03*
X109430000Y-105260000D03*
%TD*%
D14*
%TO.P,IN1,2,Ext*%
%TO.N,GND*%
X87770000Y-105845000D03*
X87770000Y-100195000D03*
%TD*%
D15*
%TO.P,H1,1,1*%
%TO.N,GND*%
X86200000Y-95630000D03*
X86683274Y-94463274D03*
X86683274Y-96796726D03*
X87850000Y-93980000D03*
D16*
X87850000Y-95630000D03*
D15*
X87850000Y-97280000D03*
X89016726Y-94463274D03*
X89016726Y-96796726D03*
X89500000Y-95630000D03*
%TD*%
D17*
%TO.P,C3,1*%
%TO.N,+12V*%
X102800000Y-96950000D03*
D18*
%TO.P,C3,2*%
%TO.N,GND*%
X104800000Y-96950000D03*
%TD*%
D10*
%TO.P,GND1,1,Pin_1*%
%TO.N,GND*%
X108760000Y-110640000D03*
%TD*%
D15*
%TO.P,H2,1,1*%
%TO.N,GND*%
X107870000Y-95700000D03*
X108353274Y-94533274D03*
X108353274Y-96866726D03*
X109520000Y-94050000D03*
D16*
X109520000Y-95700000D03*
D15*
X109520000Y-97350000D03*
X110686726Y-94533274D03*
X110686726Y-96866726D03*
X111170000Y-95700000D03*
%TD*%
%TO.P,H3,1,1*%
%TO.N,GND*%
X86230000Y-115430000D03*
X86713274Y-114263274D03*
X86713274Y-116596726D03*
X87880000Y-113780000D03*
D16*
X87880000Y-115430000D03*
D15*
X87880000Y-117080000D03*
X89046726Y-114263274D03*
X89046726Y-116596726D03*
X89530000Y-115430000D03*
%TD*%
D19*
%TO.P,L1,1*%
%TO.N,+12V*%
X102720000Y-108150000D03*
D20*
%TO.P,L1,2*%
%TO.N,Net-(Q1-C)*%
X100180000Y-108150000D03*
%TD*%
D15*
%TO.P,H4,1,1*%
%TO.N,GND*%
X107810000Y-115440000D03*
X108293274Y-114273274D03*
X108293274Y-116606726D03*
X109460000Y-113790000D03*
D16*
X109460000Y-115440000D03*
D15*
X109460000Y-117090000D03*
X110626726Y-114273274D03*
X110626726Y-116606726D03*
X111110000Y-115440000D03*
%TD*%
D21*
%TO.N,GND*%
X104800000Y-102600000D03*
X104800000Y-101400000D03*
X93400000Y-111600000D03*
X93400000Y-110400000D03*
X93600000Y-106200000D03*
X93600000Y-105000000D03*
X97800000Y-99800000D03*
X97800000Y-98600000D03*
X106400000Y-99200000D03*
X106400000Y-98000000D03*
X91000000Y-98200000D03*
X91000000Y-97000000D03*
X86800000Y-112400000D03*
X88200000Y-111200000D03*
X86800000Y-111200000D03*
X86800000Y-110200000D03*
X88200000Y-109000000D03*
X88200000Y-110200000D03*
X86800000Y-109000000D03*
X98600000Y-113800000D03*
X100000000Y-112600000D03*
X100000000Y-113800000D03*
X98600000Y-112600000D03*
X101400000Y-117200000D03*
X99800000Y-117200000D03*
X102800000Y-116000000D03*
X98200000Y-116000000D03*
X102800000Y-117200000D03*
X99800000Y-116000000D03*
X101400000Y-116000000D03*
X98200000Y-117200000D03*
X93600000Y-116000000D03*
X95200000Y-116000000D03*
X92200000Y-117200000D03*
X96800000Y-117200000D03*
X92200000Y-116000000D03*
X95200000Y-117200000D03*
X93600000Y-117200000D03*
X96800000Y-116000000D03*
X100800000Y-96600000D03*
X99400000Y-96600000D03*
X97800000Y-96600000D03*
X96200000Y-96600000D03*
X100800000Y-95400000D03*
X99400000Y-95400000D03*
X97800000Y-95400000D03*
X96200000Y-95400000D03*
%TD*%
%TA.AperFunction,Conductor*%
%TO.N,GND*%
G36*
X87040967Y-116146602D02*
G01*
X87163398Y-116269033D01*
X87297262Y-116366290D01*
X86155030Y-117508522D01*
X86155030Y-117508523D01*
X86343423Y-117656118D01*
X86577104Y-117797383D01*
X86624291Y-117848911D01*
X86636130Y-117917770D01*
X86608861Y-117982099D01*
X86551143Y-118021473D01*
X86512954Y-118027500D01*
X85473836Y-118027500D01*
X85406797Y-118007815D01*
X85361042Y-117955011D01*
X85349836Y-117903651D01*
X85348639Y-116906598D01*
X85368242Y-116839539D01*
X85420991Y-116793721D01*
X85490138Y-116783694D01*
X85553728Y-116812643D01*
X85578755Y-116842303D01*
X85653881Y-116966576D01*
X85801476Y-117154968D01*
X86399500Y-116556944D01*
X86513274Y-116556944D01*
X86513274Y-116636508D01*
X86543722Y-116710017D01*
X86599983Y-116766278D01*
X86673492Y-116796726D01*
X86753056Y-116796726D01*
X86826565Y-116766278D01*
X86882826Y-116710017D01*
X86913274Y-116636508D01*
X86913274Y-116556944D01*
X86882826Y-116483435D01*
X86826565Y-116427174D01*
X86753056Y-116396726D01*
X86673492Y-116396726D01*
X86599983Y-116427174D01*
X86543722Y-116483435D01*
X86513274Y-116556944D01*
X86399500Y-116556944D01*
X86943708Y-116012736D01*
X87040967Y-116146602D01*
G37*
%TD.AperFunction*%
%TA.AperFunction,Conductor*%
G36*
X108180802Y-93085753D02*
G01*
X108247813Y-93105512D01*
X108293508Y-93158368D01*
X108303374Y-93227537D01*
X108274277Y-93291060D01*
X108244806Y-93315869D01*
X107983422Y-93473881D01*
X107983416Y-93473886D01*
X107795030Y-93621474D01*
X107795029Y-93621476D01*
X108937262Y-94763709D01*
X108803398Y-94860967D01*
X108680967Y-94983398D01*
X108583709Y-95117262D01*
X107959939Y-94493492D01*
X108153274Y-94493492D01*
X108153274Y-94573056D01*
X108183722Y-94646565D01*
X108239983Y-94702826D01*
X108313492Y-94733274D01*
X108393056Y-94733274D01*
X108466565Y-94702826D01*
X108522826Y-94646565D01*
X108553274Y-94573056D01*
X108553274Y-94493492D01*
X108522826Y-94419983D01*
X108466565Y-94363722D01*
X108393056Y-94333274D01*
X108313492Y-94333274D01*
X108239983Y-94363722D01*
X108183722Y-94419983D01*
X108153274Y-94493492D01*
X107959939Y-94493492D01*
X107441476Y-93975029D01*
X107441474Y-93975030D01*
X107293886Y-94163416D01*
X107293881Y-94163422D01*
X107124898Y-94442956D01*
X107124897Y-94442958D01*
X106990839Y-94740824D01*
X106990835Y-94740835D01*
X106893667Y-95052658D01*
X106834786Y-95373961D01*
X106815065Y-95700000D01*
X106834786Y-96026038D01*
X106893667Y-96347341D01*
X106990835Y-96659164D01*
X106990839Y-96659175D01*
X107124897Y-96957041D01*
X107124898Y-96957043D01*
X107293881Y-97236576D01*
X107441476Y-97424968D01*
X108039500Y-96826944D01*
X108153274Y-96826944D01*
X108153274Y-96906508D01*
X108183722Y-96980017D01*
X108239983Y-97036278D01*
X108313492Y-97066726D01*
X108393056Y-97066726D01*
X108466565Y-97036278D01*
X108522826Y-96980017D01*
X108553274Y-96906508D01*
X108553274Y-96826944D01*
X108522826Y-96753435D01*
X108466565Y-96697174D01*
X108393056Y-96666726D01*
X108313492Y-96666726D01*
X108239983Y-96697174D01*
X108183722Y-96753435D01*
X108153274Y-96826944D01*
X108039500Y-96826944D01*
X108583708Y-96282736D01*
X108680967Y-96416602D01*
X108803398Y-96539033D01*
X108937262Y-96636290D01*
X107795030Y-97778522D01*
X107795030Y-97778523D01*
X107983423Y-97926118D01*
X108262956Y-98095101D01*
X108262958Y-98095102D01*
X108491421Y-98197924D01*
X108544475Y-98243388D01*
X108564528Y-98310318D01*
X108545212Y-98377465D01*
X108492661Y-98423509D01*
X108440530Y-98435000D01*
X107780028Y-98435000D01*
X107780012Y-98435001D01*
X107677302Y-98445494D01*
X107510880Y-98500641D01*
X107510875Y-98500643D01*
X107361654Y-98592684D01*
X107237684Y-98716654D01*
X107145643Y-98865875D01*
X107145641Y-98865880D01*
X107090494Y-99032302D01*
X107090493Y-99032309D01*
X107080000Y-99135013D01*
X107080000Y-99360000D01*
X109556000Y-99360000D01*
X109623039Y-99379685D01*
X109668794Y-99432489D01*
X109680000Y-99484000D01*
X109680000Y-100784999D01*
X111079972Y-100784999D01*
X111079986Y-100784998D01*
X111182697Y-100774505D01*
X111349119Y-100719358D01*
X111349124Y-100719356D01*
X111498345Y-100627315D01*
X111622315Y-100503345D01*
X111714356Y-100354124D01*
X111714356Y-100354123D01*
X111717050Y-100345993D01*
X111756819Y-100288545D01*
X111821333Y-100261717D01*
X111890109Y-100274027D01*
X111941313Y-100321566D01*
X111958759Y-100384839D01*
X111963701Y-104499775D01*
X111944097Y-104566838D01*
X111891348Y-104612656D01*
X111822201Y-104622683D01*
X111758611Y-104593734D01*
X111721994Y-104538926D01*
X111714356Y-104515877D01*
X111714356Y-104515875D01*
X111622315Y-104366654D01*
X111498345Y-104242684D01*
X111349124Y-104150643D01*
X111349119Y-104150641D01*
X111182697Y-104095494D01*
X111182690Y-104095493D01*
X111079986Y-104085000D01*
X109680000Y-104085000D01*
X109680000Y-106434999D01*
X111079972Y-106434999D01*
X111079986Y-106434998D01*
X111182697Y-106424505D01*
X111349119Y-106369358D01*
X111349124Y-106369356D01*
X111498345Y-106277315D01*
X111622315Y-106153345D01*
X111714356Y-106004124D01*
X111714358Y-106004119D01*
X111723815Y-105975581D01*
X111763587Y-105918136D01*
X111828103Y-105891313D01*
X111896879Y-105903628D01*
X111948079Y-105951171D01*
X111965521Y-106014436D01*
X111975035Y-113936390D01*
X111955431Y-114003453D01*
X111902682Y-114049271D01*
X111833535Y-114059298D01*
X111769945Y-114030349D01*
X111744918Y-114000689D01*
X111686118Y-113903423D01*
X111538522Y-113715030D01*
X110396290Y-114857262D01*
X110299033Y-114723398D01*
X110176602Y-114600967D01*
X110042736Y-114503709D01*
X110312953Y-114233492D01*
X110426726Y-114233492D01*
X110426726Y-114313056D01*
X110457174Y-114386565D01*
X110513435Y-114442826D01*
X110586944Y-114473274D01*
X110666508Y-114473274D01*
X110740017Y-114442826D01*
X110796278Y-114386565D01*
X110826726Y-114313056D01*
X110826726Y-114233492D01*
X110796278Y-114159983D01*
X110740017Y-114103722D01*
X110666508Y-114073274D01*
X110586944Y-114073274D01*
X110513435Y-114103722D01*
X110457174Y-114159983D01*
X110426726Y-114233492D01*
X110312953Y-114233492D01*
X111184968Y-113361476D01*
X110996576Y-113213881D01*
X110717043Y-113044898D01*
X110717041Y-113044897D01*
X110419175Y-112910839D01*
X110419164Y-112910835D01*
X110107341Y-112813667D01*
X109786038Y-112754786D01*
X109460000Y-112735065D01*
X109133961Y-112754786D01*
X108812658Y-112813667D01*
X108500835Y-112910835D01*
X108500824Y-112910839D01*
X108202958Y-113044897D01*
X108202956Y-113044898D01*
X107923422Y-113213881D01*
X107923416Y-113213886D01*
X107735030Y-113361474D01*
X107735029Y-113361476D01*
X108877262Y-114503709D01*
X108743398Y-114600967D01*
X108620967Y-114723398D01*
X108523709Y-114857262D01*
X107899939Y-114233492D01*
X108093274Y-114233492D01*
X108093274Y-114313056D01*
X108123722Y-114386565D01*
X108179983Y-114442826D01*
X108253492Y-114473274D01*
X108333056Y-114473274D01*
X108406565Y-114442826D01*
X108462826Y-114386565D01*
X108493274Y-114313056D01*
X108493274Y-114233492D01*
X108462826Y-114159983D01*
X108406565Y-114103722D01*
X108333056Y-114073274D01*
X108253492Y-114073274D01*
X108179983Y-114103722D01*
X108123722Y-114159983D01*
X108093274Y-114233492D01*
X107899939Y-114233492D01*
X107381476Y-113715029D01*
X107381474Y-113715030D01*
X107233886Y-113903416D01*
X107233881Y-113903422D01*
X107064898Y-114182956D01*
X107064897Y-114182958D01*
X106930839Y-114480824D01*
X106930835Y-114480835D01*
X106833667Y-114792658D01*
X106774786Y-115113961D01*
X106755065Y-115440000D01*
X106774786Y-115766038D01*
X106833667Y-116087341D01*
X106930835Y-116399164D01*
X106930839Y-116399175D01*
X107064897Y-116697041D01*
X107064898Y-116697043D01*
X107233881Y-116976576D01*
X107381476Y-117164968D01*
X107979500Y-116566944D01*
X108093274Y-116566944D01*
X108093274Y-116646508D01*
X108123722Y-116720017D01*
X108179983Y-116776278D01*
X108253492Y-116806726D01*
X108333056Y-116806726D01*
X108406565Y-116776278D01*
X108462826Y-116720017D01*
X108493274Y-116646508D01*
X108493274Y-116566944D01*
X108462826Y-116493435D01*
X108406565Y-116437174D01*
X108333056Y-116406726D01*
X108253492Y-116406726D01*
X108179983Y-116437174D01*
X108123722Y-116493435D01*
X108093274Y-116566944D01*
X107979500Y-116566944D01*
X108523708Y-116022736D01*
X108620967Y-116156602D01*
X108743398Y-116279033D01*
X108877262Y-116376290D01*
X107735030Y-117518522D01*
X107735030Y-117518523D01*
X107923423Y-117666118D01*
X108140562Y-117797383D01*
X108187749Y-117848911D01*
X108199588Y-117917770D01*
X108172319Y-117982099D01*
X108114601Y-118021473D01*
X108076412Y-118027500D01*
X89247046Y-118027500D01*
X89180007Y-118007815D01*
X89134252Y-117955011D01*
X89124308Y-117885853D01*
X89153333Y-117822297D01*
X89182896Y-117797383D01*
X89416586Y-117656112D01*
X89604968Y-117508523D01*
X89604968Y-117508522D01*
X88653391Y-116556944D01*
X88846726Y-116556944D01*
X88846726Y-116636508D01*
X88877174Y-116710017D01*
X88933435Y-116766278D01*
X89006944Y-116796726D01*
X89086508Y-116796726D01*
X89160017Y-116766278D01*
X89216278Y-116710017D01*
X89246726Y-116636508D01*
X89246726Y-116556944D01*
X89216278Y-116483435D01*
X89160017Y-116427174D01*
X89086508Y-116396726D01*
X89006944Y-116396726D01*
X88933435Y-116427174D01*
X88877174Y-116483435D01*
X88846726Y-116556944D01*
X88653391Y-116556944D01*
X88462737Y-116366290D01*
X88596602Y-116269033D01*
X88719033Y-116146602D01*
X88816290Y-116012737D01*
X89958522Y-117154968D01*
X89958523Y-117154968D01*
X90106112Y-116966586D01*
X90275101Y-116687043D01*
X90275102Y-116687041D01*
X90409160Y-116389175D01*
X90409164Y-116389164D01*
X90506332Y-116077341D01*
X90565213Y-115756038D01*
X90584934Y-115430000D01*
X90565213Y-115103961D01*
X90506332Y-114782658D01*
X90409164Y-114470835D01*
X90409160Y-114470824D01*
X90275102Y-114172958D01*
X90275101Y-114172956D01*
X90106118Y-113893423D01*
X89958522Y-113705030D01*
X88816290Y-114847262D01*
X88719033Y-114713398D01*
X88596602Y-114590967D01*
X88462736Y-114493709D01*
X88732953Y-114223492D01*
X88846726Y-114223492D01*
X88846726Y-114303056D01*
X88877174Y-114376565D01*
X88933435Y-114432826D01*
X89006944Y-114463274D01*
X89086508Y-114463274D01*
X89160017Y-114432826D01*
X89216278Y-114376565D01*
X89246726Y-114303056D01*
X89246726Y-114223492D01*
X89216278Y-114149983D01*
X89160017Y-114093722D01*
X89086508Y-114063274D01*
X89006944Y-114063274D01*
X88933435Y-114093722D01*
X88877174Y-114149983D01*
X88846726Y-114223492D01*
X88732953Y-114223492D01*
X89604968Y-113351476D01*
X89416576Y-113203881D01*
X89137043Y-113034898D01*
X89137041Y-113034897D01*
X88839175Y-112900839D01*
X88839164Y-112900835D01*
X88527341Y-112803667D01*
X88206038Y-112744786D01*
X87880000Y-112725065D01*
X87553961Y-112744786D01*
X87232658Y-112803667D01*
X86920835Y-112900835D01*
X86920824Y-112900839D01*
X86622958Y-113034897D01*
X86622956Y-113034898D01*
X86343422Y-113203881D01*
X86343416Y-113203886D01*
X86155030Y-113351474D01*
X86155029Y-113351476D01*
X87297262Y-114493709D01*
X87163398Y-114590967D01*
X87040967Y-114713398D01*
X86943709Y-114847262D01*
X86319939Y-114223492D01*
X86513274Y-114223492D01*
X86513274Y-114303056D01*
X86543722Y-114376565D01*
X86599983Y-114432826D01*
X86673492Y-114463274D01*
X86753056Y-114463274D01*
X86826565Y-114432826D01*
X86882826Y-114376565D01*
X86913274Y-114303056D01*
X86913274Y-114223492D01*
X86882826Y-114149983D01*
X86826565Y-114093722D01*
X86753056Y-114063274D01*
X86673492Y-114063274D01*
X86599983Y-114093722D01*
X86543722Y-114149983D01*
X86513274Y-114223492D01*
X86319939Y-114223492D01*
X85801476Y-113705029D01*
X85801474Y-113705030D01*
X85653886Y-113893416D01*
X85653881Y-113893422D01*
X85575216Y-114023551D01*
X85523688Y-114070738D01*
X85454829Y-114082577D01*
X85390500Y-114055308D01*
X85351126Y-113997589D01*
X85345099Y-113959553D01*
X85344500Y-113460304D01*
X85344500Y-108219999D01*
X94374341Y-108219999D01*
X94374341Y-108220000D01*
X94394936Y-108455403D01*
X94394938Y-108455413D01*
X94456094Y-108683655D01*
X94456096Y-108683659D01*
X94456097Y-108683663D01*
X94484571Y-108744725D01*
X94555965Y-108897830D01*
X94555967Y-108897834D01*
X94691501Y-109091395D01*
X94691506Y-109091402D01*
X94858597Y-109258493D01*
X94858603Y-109258498D01*
X95044158Y-109388425D01*
X95087783Y-109443002D01*
X95094977Y-109512500D01*
X95063454Y-109574855D01*
X95044158Y-109591575D01*
X94858597Y-109721505D01*
X94691505Y-109888597D01*
X94555965Y-110082169D01*
X94555964Y-110082171D01*
X94456098Y-110296335D01*
X94456094Y-110296344D01*
X94394938Y-110524586D01*
X94394936Y-110524596D01*
X94374341Y-110759999D01*
X94374341Y-110760000D01*
X94394936Y-110995403D01*
X94394938Y-110995413D01*
X94456094Y-111223655D01*
X94456096Y-111223659D01*
X94456097Y-111223663D01*
X94555965Y-111437830D01*
X94555967Y-111437834D01*
X94664281Y-111592521D01*
X94691505Y-111631401D01*
X94858599Y-111798495D01*
X94955384Y-111866265D01*
X95052165Y-111934032D01*
X95052167Y-111934033D01*
X95052170Y-111934035D01*
X95266337Y-112033903D01*
X95494592Y-112095063D01*
X95682918Y-112111539D01*
X95729999Y-112115659D01*
X95730000Y-112115659D01*
X95730001Y-112115659D01*
X95769234Y-112112226D01*
X95965408Y-112095063D01*
X96193663Y-112033903D01*
X96407830Y-111934035D01*
X96601401Y-111798495D01*
X96768495Y-111631401D01*
X96904035Y-111437830D01*
X97003903Y-111223663D01*
X97065063Y-110995408D01*
X97085659Y-110760000D01*
X97065063Y-110524592D01*
X97003903Y-110296337D01*
X96904035Y-110082171D01*
X96903138Y-110080889D01*
X96768494Y-109888597D01*
X96601402Y-109721506D01*
X96601396Y-109721501D01*
X96415842Y-109591575D01*
X96372217Y-109536998D01*
X96365023Y-109467500D01*
X96396546Y-109405145D01*
X96415842Y-109388425D01*
X96481922Y-109342155D01*
X96601401Y-109258495D01*
X96768495Y-109091401D01*
X96904035Y-108897830D01*
X97003903Y-108683663D01*
X97065063Y-108455408D01*
X97085659Y-108220000D01*
X97079534Y-108149998D01*
X98874532Y-108149998D01*
X98874532Y-108150001D01*
X98894364Y-108376686D01*
X98894366Y-108376697D01*
X98953258Y-108596488D01*
X98953261Y-108596497D01*
X99049431Y-108802732D01*
X99049432Y-108802734D01*
X99179954Y-108989141D01*
X99340858Y-109150045D01*
X99340861Y-109150047D01*
X99527266Y-109280568D01*
X99733504Y-109376739D01*
X99953308Y-109435635D01*
X100115230Y-109449801D01*
X100179998Y-109455468D01*
X100180000Y-109455468D01*
X100180002Y-109455468D01*
X100236673Y-109450509D01*
X100406692Y-109435635D01*
X100626496Y-109376739D01*
X100832734Y-109280568D01*
X101019139Y-109150047D01*
X101180047Y-108989139D01*
X101310568Y-108802734D01*
X101337618Y-108744724D01*
X101383790Y-108692285D01*
X101450983Y-108673133D01*
X101517865Y-108693348D01*
X101562382Y-108744725D01*
X101589429Y-108802728D01*
X101589432Y-108802734D01*
X101719954Y-108989141D01*
X101880858Y-109150045D01*
X101880861Y-109150047D01*
X102067266Y-109280568D01*
X102273504Y-109376739D01*
X102493308Y-109435635D01*
X102655230Y-109449801D01*
X102719998Y-109455468D01*
X102720000Y-109455468D01*
X102720002Y-109455468D01*
X102776673Y-109450509D01*
X102946692Y-109435635D01*
X103166496Y-109376739D01*
X103240661Y-109342155D01*
X107010000Y-109342155D01*
X107010000Y-110390000D01*
X108211518Y-110390000D01*
X108200889Y-110408409D01*
X108160000Y-110561009D01*
X108160000Y-110718991D01*
X108200889Y-110871591D01*
X108211518Y-110890000D01*
X107010000Y-110890000D01*
X107010000Y-111937844D01*
X107016401Y-111997372D01*
X107016403Y-111997379D01*
X107066645Y-112132086D01*
X107066649Y-112132093D01*
X107152809Y-112247187D01*
X107152812Y-112247190D01*
X107267906Y-112333350D01*
X107267913Y-112333354D01*
X107402620Y-112383596D01*
X107402627Y-112383598D01*
X107462155Y-112389999D01*
X107462172Y-112390000D01*
X108510000Y-112390000D01*
X108510000Y-111188482D01*
X108528409Y-111199111D01*
X108681009Y-111240000D01*
X108838991Y-111240000D01*
X108991591Y-111199111D01*
X109010000Y-111188482D01*
X109010000Y-112390000D01*
X110057828Y-112390000D01*
X110057844Y-112389999D01*
X110117372Y-112383598D01*
X110117379Y-112383596D01*
X110252086Y-112333354D01*
X110252093Y-112333350D01*
X110367187Y-112247190D01*
X110367190Y-112247187D01*
X110453350Y-112132093D01*
X110453354Y-112132086D01*
X110503596Y-111997379D01*
X110503598Y-111997372D01*
X110509999Y-111937844D01*
X110510000Y-111937827D01*
X110510000Y-110890000D01*
X109308482Y-110890000D01*
X109319111Y-110871591D01*
X109360000Y-110718991D01*
X109360000Y-110561009D01*
X109319111Y-110408409D01*
X109308482Y-110390000D01*
X110510000Y-110390000D01*
X110510000Y-109342172D01*
X110509999Y-109342155D01*
X110503598Y-109282627D01*
X110503596Y-109282620D01*
X110453354Y-109147913D01*
X110453350Y-109147906D01*
X110367190Y-109032812D01*
X110367187Y-109032809D01*
X110252093Y-108946649D01*
X110252086Y-108946645D01*
X110117379Y-108896403D01*
X110117372Y-108896401D01*
X110057844Y-108890000D01*
X109010000Y-108890000D01*
X109010000Y-110091517D01*
X108991591Y-110080889D01*
X108838991Y-110040000D01*
X108681009Y-110040000D01*
X108528409Y-110080889D01*
X108510000Y-110091517D01*
X108510000Y-108890000D01*
X107462155Y-108890000D01*
X107402627Y-108896401D01*
X107402620Y-108896403D01*
X107267913Y-108946645D01*
X107267906Y-108946649D01*
X107152812Y-109032809D01*
X107152809Y-109032812D01*
X107066649Y-109147906D01*
X107066645Y-109147913D01*
X107016403Y-109282620D01*
X107016401Y-109282627D01*
X107010000Y-109342155D01*
X103240661Y-109342155D01*
X103372734Y-109280568D01*
X103559139Y-109150047D01*
X103720047Y-108989139D01*
X103850568Y-108802734D01*
X103946739Y-108596496D01*
X104005635Y-108376692D01*
X104025468Y-108150000D01*
X104005635Y-107923308D01*
X103946739Y-107703504D01*
X103850568Y-107497266D01*
X103720047Y-107310861D01*
X103720045Y-107310858D01*
X103559141Y-107149954D01*
X103372734Y-107019432D01*
X103372732Y-107019431D01*
X103166497Y-106923261D01*
X103166488Y-106923258D01*
X102946697Y-106864366D01*
X102946693Y-106864365D01*
X102946692Y-106864365D01*
X102946691Y-106864364D01*
X102946686Y-106864364D01*
X102720002Y-106844532D01*
X102719998Y-106844532D01*
X102493313Y-106864364D01*
X102493302Y-106864366D01*
X102273511Y-106923258D01*
X102273502Y-106923261D01*
X102067267Y-107019431D01*
X102067265Y-107019432D01*
X101880858Y-107149954D01*
X101719954Y-107310858D01*
X101589432Y-107497265D01*
X101589431Y-107497267D01*
X101562382Y-107555275D01*
X101516209Y-107607714D01*
X101449016Y-107626866D01*
X101382135Y-107606650D01*
X101337618Y-107555275D01*
X101310568Y-107497266D01*
X101180047Y-107310861D01*
X101180045Y-107310858D01*
X101019141Y-107149954D01*
X100832734Y-107019432D01*
X100832732Y-107019431D01*
X100626497Y-106923261D01*
X100626488Y-106923258D01*
X100406697Y-106864366D01*
X100406693Y-106864365D01*
X100406692Y-106864365D01*
X100406691Y-106864364D01*
X100406686Y-106864364D01*
X100180002Y-106844532D01*
X100179998Y-106844532D01*
X99953313Y-106864364D01*
X99953302Y-106864366D01*
X99733511Y-106923258D01*
X99733502Y-106923261D01*
X99527267Y-107019431D01*
X99527265Y-107019432D01*
X99340858Y-107149954D01*
X99179954Y-107310858D01*
X99049432Y-107497265D01*
X99049431Y-107497267D01*
X98953261Y-107703502D01*
X98953258Y-107703511D01*
X98894366Y-107923302D01*
X98894364Y-107923313D01*
X98874532Y-108149998D01*
X97079534Y-108149998D01*
X97065063Y-107984592D01*
X97003903Y-107756337D01*
X96904035Y-107542171D01*
X96872592Y-107497266D01*
X96768496Y-107348600D01*
X96730754Y-107310858D01*
X96646567Y-107226671D01*
X96613084Y-107165351D01*
X96618068Y-107095659D01*
X96659939Y-107039725D01*
X96690915Y-107022810D01*
X96822331Y-106973796D01*
X96937546Y-106887546D01*
X97023796Y-106772331D01*
X97074091Y-106637483D01*
X97080500Y-106577873D01*
X97080499Y-104782128D01*
X97074091Y-104722517D01*
X97059094Y-104682309D01*
X97023797Y-104587671D01*
X97023793Y-104587664D01*
X96937547Y-104472455D01*
X96937544Y-104472452D01*
X96822335Y-104386206D01*
X96822328Y-104386202D01*
X96687482Y-104335908D01*
X96687483Y-104335908D01*
X96627883Y-104329501D01*
X96627881Y-104329500D01*
X96627873Y-104329500D01*
X96627864Y-104329500D01*
X94832129Y-104329500D01*
X94832123Y-104329501D01*
X94772516Y-104335908D01*
X94637671Y-104386202D01*
X94637664Y-104386206D01*
X94522455Y-104472452D01*
X94522452Y-104472455D01*
X94436206Y-104587664D01*
X94436202Y-104587671D01*
X94385908Y-104722517D01*
X94379501Y-104782116D01*
X94379501Y-104782123D01*
X94379500Y-104782135D01*
X94379500Y-106577870D01*
X94379501Y-106577876D01*
X94385908Y-106637483D01*
X94436202Y-106772328D01*
X94436206Y-106772335D01*
X94522452Y-106887544D01*
X94522455Y-106887547D01*
X94637664Y-106973793D01*
X94637671Y-106973797D01*
X94769081Y-107022810D01*
X94825015Y-107064681D01*
X94849432Y-107130145D01*
X94834580Y-107198418D01*
X94813430Y-107226673D01*
X94691503Y-107348600D01*
X94555965Y-107542169D01*
X94555964Y-107542171D01*
X94456098Y-107756335D01*
X94456094Y-107756344D01*
X94394938Y-107984586D01*
X94394936Y-107984596D01*
X94374341Y-108219999D01*
X85344500Y-108219999D01*
X85344500Y-106797532D01*
X85364185Y-106730493D01*
X85416989Y-106684738D01*
X85486147Y-106674794D01*
X85549703Y-106703819D01*
X85574039Y-106732436D01*
X85577682Y-106738343D01*
X85701654Y-106862315D01*
X85850875Y-106954356D01*
X85850880Y-106954358D01*
X86017302Y-107009505D01*
X86017309Y-107009506D01*
X86120019Y-107019999D01*
X87519999Y-107019999D01*
X88020000Y-107019999D01*
X89419972Y-107019999D01*
X89419986Y-107019998D01*
X89522697Y-107009505D01*
X89689119Y-106954358D01*
X89689124Y-106954356D01*
X89838345Y-106862315D01*
X89962315Y-106738345D01*
X90054356Y-106589124D01*
X90054358Y-106589119D01*
X90109505Y-106422697D01*
X90109506Y-106422690D01*
X90119999Y-106319986D01*
X90120000Y-106319973D01*
X90120000Y-106095000D01*
X88020000Y-106095000D01*
X88020000Y-107019999D01*
X87519999Y-107019999D01*
X87520000Y-107019998D01*
X87520000Y-105595000D01*
X88020000Y-105595000D01*
X90119999Y-105595000D01*
X90119999Y-105370028D01*
X90119998Y-105370013D01*
X90109505Y-105267302D01*
X90054358Y-105100880D01*
X90054356Y-105100875D01*
X89962315Y-104951654D01*
X89838345Y-104827684D01*
X89689124Y-104735643D01*
X89689119Y-104735641D01*
X89522697Y-104680494D01*
X89522690Y-104680493D01*
X89419986Y-104670000D01*
X88020000Y-104670000D01*
X88020000Y-105595000D01*
X87520000Y-105595000D01*
X87520000Y-104670000D01*
X86120028Y-104670000D01*
X86120012Y-104670001D01*
X86017302Y-104680494D01*
X85850880Y-104735641D01*
X85850875Y-104735643D01*
X85701654Y-104827684D01*
X85577683Y-104951655D01*
X85577680Y-104951659D01*
X85574037Y-104957566D01*
X85522088Y-105004290D01*
X85453125Y-105015510D01*
X85389044Y-104987665D01*
X85350189Y-104929596D01*
X85344500Y-104892467D01*
X85344500Y-103452135D01*
X101059500Y-103452135D01*
X101059500Y-106047870D01*
X101059501Y-106047876D01*
X101065908Y-106107483D01*
X101116202Y-106242328D01*
X101116206Y-106242335D01*
X101202452Y-106357544D01*
X101202455Y-106357547D01*
X101317664Y-106443793D01*
X101317671Y-106443797D01*
X101452517Y-106494091D01*
X101452516Y-106494091D01*
X101459444Y-106494835D01*
X101512127Y-106500500D01*
X104107872Y-106500499D01*
X104167483Y-106494091D01*
X104302331Y-106443796D01*
X104417546Y-106357546D01*
X104503796Y-106242331D01*
X104554091Y-106107483D01*
X104560500Y-106047873D01*
X104560500Y-105734986D01*
X107080001Y-105734986D01*
X107090494Y-105837697D01*
X107145641Y-106004119D01*
X107145643Y-106004124D01*
X107237684Y-106153345D01*
X107361654Y-106277315D01*
X107510875Y-106369356D01*
X107510880Y-106369358D01*
X107677302Y-106424505D01*
X107677309Y-106424506D01*
X107780019Y-106434999D01*
X109179999Y-106434999D01*
X109180000Y-106434998D01*
X109180000Y-105510000D01*
X107080001Y-105510000D01*
X107080001Y-105734986D01*
X104560500Y-105734986D01*
X104560500Y-104785013D01*
X107080000Y-104785013D01*
X107080000Y-105010000D01*
X109180000Y-105010000D01*
X109180000Y-104085000D01*
X107780028Y-104085000D01*
X107780012Y-104085001D01*
X107677302Y-104095494D01*
X107510880Y-104150641D01*
X107510875Y-104150643D01*
X107361654Y-104242684D01*
X107237684Y-104366654D01*
X107145643Y-104515875D01*
X107145641Y-104515880D01*
X107090494Y-104682302D01*
X107090493Y-104682309D01*
X107080000Y-104785013D01*
X104560500Y-104785013D01*
X104560499Y-103452128D01*
X104554091Y-103392517D01*
X104503796Y-103257669D01*
X104503795Y-103257668D01*
X104503793Y-103257664D01*
X104417547Y-103142455D01*
X104417544Y-103142452D01*
X104302335Y-103056206D01*
X104302328Y-103056202D01*
X104167482Y-103005908D01*
X104167483Y-103005908D01*
X104107883Y-102999501D01*
X104107881Y-102999500D01*
X104107873Y-102999500D01*
X104107864Y-102999500D01*
X101512129Y-102999500D01*
X101512123Y-102999501D01*
X101452516Y-103005908D01*
X101317671Y-103056202D01*
X101317664Y-103056206D01*
X101202455Y-103142452D01*
X101202452Y-103142455D01*
X101116206Y-103257664D01*
X101116202Y-103257671D01*
X101065908Y-103392517D01*
X101059501Y-103452116D01*
X101059501Y-103452123D01*
X101059500Y-103452135D01*
X85344500Y-103452135D01*
X85344500Y-101147532D01*
X85364185Y-101080493D01*
X85416989Y-101034738D01*
X85486147Y-101024794D01*
X85549703Y-101053819D01*
X85574039Y-101082436D01*
X85577682Y-101088343D01*
X85701654Y-101212315D01*
X85850875Y-101304356D01*
X85850880Y-101304358D01*
X86017302Y-101359505D01*
X86017309Y-101359506D01*
X86120019Y-101369999D01*
X87519999Y-101369999D01*
X88020000Y-101369999D01*
X89419972Y-101369999D01*
X89419986Y-101369998D01*
X89522697Y-101359505D01*
X89689119Y-101304358D01*
X89689124Y-101304356D01*
X89838345Y-101212315D01*
X89962315Y-101088345D01*
X90054356Y-100939124D01*
X90054358Y-100939119D01*
X90109505Y-100772697D01*
X90109506Y-100772690D01*
X90119999Y-100669986D01*
X90120000Y-100669973D01*
X90120000Y-100445000D01*
X88020000Y-100445000D01*
X88020000Y-101369999D01*
X87519999Y-101369999D01*
X87520000Y-101369998D01*
X87520000Y-100084986D01*
X107080001Y-100084986D01*
X107090494Y-100187697D01*
X107145641Y-100354119D01*
X107145643Y-100354124D01*
X107237684Y-100503345D01*
X107361654Y-100627315D01*
X107510875Y-100719356D01*
X107510880Y-100719358D01*
X107677302Y-100774505D01*
X107677309Y-100774506D01*
X107780019Y-100784999D01*
X109179999Y-100784999D01*
X109180000Y-100784998D01*
X109180000Y-99860000D01*
X107080001Y-99860000D01*
X107080001Y-100084986D01*
X87520000Y-100084986D01*
X87520000Y-99945000D01*
X88020000Y-99945000D01*
X90119999Y-99945000D01*
X90119999Y-99720028D01*
X90119998Y-99720013D01*
X90109505Y-99617302D01*
X90054358Y-99450880D01*
X90054356Y-99450875D01*
X89962315Y-99301654D01*
X89838345Y-99177684D01*
X89689124Y-99085643D01*
X89689119Y-99085641D01*
X89522697Y-99030494D01*
X89522690Y-99030493D01*
X89419986Y-99020000D01*
X88020000Y-99020000D01*
X88020000Y-99945000D01*
X87520000Y-99945000D01*
X87520000Y-99020000D01*
X86120028Y-99020000D01*
X86120012Y-99020001D01*
X86017302Y-99030494D01*
X85850880Y-99085641D01*
X85850875Y-99085643D01*
X85701654Y-99177684D01*
X85577683Y-99301655D01*
X85577680Y-99301659D01*
X85574037Y-99307566D01*
X85522088Y-99354290D01*
X85453125Y-99365510D01*
X85389044Y-99337665D01*
X85350189Y-99279596D01*
X85344500Y-99242467D01*
X85344500Y-97149233D01*
X85364185Y-97082194D01*
X85416989Y-97036439D01*
X85486147Y-97026495D01*
X85549703Y-97055520D01*
X85574617Y-97085084D01*
X85623877Y-97166571D01*
X85623880Y-97166575D01*
X85771476Y-97354968D01*
X86369500Y-96756944D01*
X86483274Y-96756944D01*
X86483274Y-96836508D01*
X86513722Y-96910017D01*
X86569983Y-96966278D01*
X86643492Y-96996726D01*
X86723056Y-96996726D01*
X86796565Y-96966278D01*
X86852826Y-96910017D01*
X86883274Y-96836508D01*
X86883274Y-96756944D01*
X86852826Y-96683435D01*
X86796565Y-96627174D01*
X86723056Y-96596726D01*
X86643492Y-96596726D01*
X86569983Y-96627174D01*
X86513722Y-96683435D01*
X86483274Y-96756944D01*
X86369500Y-96756944D01*
X86913708Y-96212736D01*
X87010967Y-96346602D01*
X87133398Y-96469033D01*
X87267262Y-96566290D01*
X86125030Y-97708522D01*
X86125030Y-97708523D01*
X86313423Y-97856118D01*
X86592956Y-98025101D01*
X86592958Y-98025102D01*
X86890824Y-98159160D01*
X86890835Y-98159164D01*
X87202658Y-98256332D01*
X87523961Y-98315213D01*
X87850000Y-98334934D01*
X88176038Y-98315213D01*
X88497341Y-98256332D01*
X88809164Y-98159164D01*
X88809175Y-98159160D01*
X89107041Y-98025102D01*
X89107043Y-98025101D01*
X89386586Y-97856112D01*
X89574968Y-97708523D01*
X89574968Y-97708522D01*
X88623391Y-96756944D01*
X88816726Y-96756944D01*
X88816726Y-96836508D01*
X88847174Y-96910017D01*
X88903435Y-96966278D01*
X88976944Y-96996726D01*
X89056508Y-96996726D01*
X89130017Y-96966278D01*
X89186278Y-96910017D01*
X89216726Y-96836508D01*
X89216726Y-96756944D01*
X89186278Y-96683435D01*
X89130017Y-96627174D01*
X89056508Y-96596726D01*
X88976944Y-96596726D01*
X88903435Y-96627174D01*
X88847174Y-96683435D01*
X88816726Y-96756944D01*
X88623391Y-96756944D01*
X88432737Y-96566290D01*
X88566602Y-96469033D01*
X88689033Y-96346602D01*
X88786290Y-96212737D01*
X89928522Y-97354968D01*
X89928523Y-97354968D01*
X90076112Y-97166586D01*
X90245101Y-96887043D01*
X90245102Y-96887041D01*
X90379160Y-96589175D01*
X90379164Y-96589164D01*
X90468606Y-96302135D01*
X101699500Y-96302135D01*
X101699500Y-97597870D01*
X101699501Y-97597876D01*
X101705908Y-97657483D01*
X101756202Y-97792328D01*
X101756206Y-97792335D01*
X101842452Y-97907544D01*
X101842455Y-97907547D01*
X101957664Y-97993793D01*
X101957671Y-97993797D01*
X102092517Y-98044091D01*
X102092516Y-98044091D01*
X102099444Y-98044835D01*
X102152127Y-98050500D01*
X103447872Y-98050499D01*
X103507483Y-98044091D01*
X103642331Y-97993796D01*
X103757546Y-97907546D01*
X103774993Y-97884240D01*
X104219311Y-97884240D01*
X104307585Y-97938897D01*
X104497678Y-98012539D01*
X104698072Y-98050000D01*
X104901928Y-98050000D01*
X105102322Y-98012539D01*
X105292412Y-97938899D01*
X105292416Y-97938897D01*
X105380686Y-97884241D01*
X105380686Y-97884240D01*
X104800001Y-97303553D01*
X104800000Y-97303553D01*
X104219311Y-97884240D01*
X103774993Y-97884240D01*
X103843796Y-97792331D01*
X103894091Y-97657483D01*
X103900500Y-97597873D01*
X103900499Y-97547305D01*
X103920182Y-97480269D01*
X103936818Y-97459626D01*
X104446446Y-96950000D01*
X104446446Y-96949999D01*
X104406951Y-96910504D01*
X104500000Y-96910504D01*
X104500000Y-96989496D01*
X104520444Y-97065796D01*
X104559940Y-97134205D01*
X104615795Y-97190060D01*
X104684204Y-97229556D01*
X104760504Y-97250000D01*
X104839496Y-97250000D01*
X104915796Y-97229556D01*
X104984205Y-97190060D01*
X105040060Y-97134205D01*
X105079556Y-97065796D01*
X105100000Y-96989496D01*
X105100000Y-96950000D01*
X105153553Y-96950000D01*
X105737465Y-97533912D01*
X105739247Y-97531553D01*
X105739248Y-97531551D01*
X105830113Y-97349069D01*
X105830116Y-97349063D01*
X105885902Y-97152992D01*
X105885903Y-97152989D01*
X105904713Y-96950000D01*
X105904713Y-96949999D01*
X105885903Y-96747010D01*
X105885902Y-96747007D01*
X105830116Y-96550936D01*
X105830113Y-96550930D01*
X105739249Y-96368449D01*
X105739247Y-96368447D01*
X105737465Y-96366087D01*
X105153553Y-96950000D01*
X105100000Y-96950000D01*
X105100000Y-96910504D01*
X105079556Y-96834204D01*
X105040060Y-96765795D01*
X104984205Y-96709940D01*
X104915796Y-96670444D01*
X104839496Y-96650000D01*
X104760504Y-96650000D01*
X104684204Y-96670444D01*
X104615795Y-96709940D01*
X104559940Y-96765795D01*
X104520444Y-96834204D01*
X104500000Y-96910504D01*
X104406951Y-96910504D01*
X103936818Y-96440371D01*
X103903333Y-96379048D01*
X103900499Y-96352690D01*
X103900499Y-96302129D01*
X103900498Y-96302123D01*
X103900497Y-96302116D01*
X103894091Y-96242517D01*
X103849235Y-96122253D01*
X103843797Y-96107671D01*
X103843793Y-96107664D01*
X103774992Y-96015758D01*
X104219311Y-96015758D01*
X104800000Y-96596446D01*
X104800001Y-96596446D01*
X105380687Y-96015758D01*
X105292413Y-95961101D01*
X105292411Y-95961100D01*
X105102321Y-95887460D01*
X104901928Y-95850000D01*
X104698072Y-95850000D01*
X104497678Y-95887460D01*
X104307588Y-95961100D01*
X104307581Y-95961104D01*
X104219312Y-96015757D01*
X104219311Y-96015758D01*
X103774992Y-96015758D01*
X103757547Y-95992455D01*
X103757544Y-95992452D01*
X103642335Y-95906206D01*
X103642328Y-95906202D01*
X103507482Y-95855908D01*
X103507483Y-95855908D01*
X103447883Y-95849501D01*
X103447881Y-95849500D01*
X103447873Y-95849500D01*
X103447864Y-95849500D01*
X102152129Y-95849500D01*
X102152123Y-95849501D01*
X102092516Y-95855908D01*
X101957671Y-95906202D01*
X101957664Y-95906206D01*
X101842455Y-95992452D01*
X101842452Y-95992455D01*
X101756206Y-96107664D01*
X101756202Y-96107671D01*
X101705908Y-96242517D01*
X101699501Y-96302116D01*
X101699501Y-96302123D01*
X101699500Y-96302135D01*
X90468606Y-96302135D01*
X90476332Y-96277341D01*
X90535213Y-95956038D01*
X90554934Y-95630000D01*
X90535213Y-95303961D01*
X90476332Y-94982658D01*
X90379164Y-94670835D01*
X90379160Y-94670824D01*
X90245102Y-94372958D01*
X90245101Y-94372956D01*
X90076118Y-94093423D01*
X89928522Y-93905030D01*
X88786290Y-95047262D01*
X88689033Y-94913398D01*
X88566602Y-94790967D01*
X88432736Y-94693709D01*
X88702953Y-94423492D01*
X88816726Y-94423492D01*
X88816726Y-94503056D01*
X88847174Y-94576565D01*
X88903435Y-94632826D01*
X88976944Y-94663274D01*
X89056508Y-94663274D01*
X89130017Y-94632826D01*
X89186278Y-94576565D01*
X89216726Y-94503056D01*
X89216726Y-94423492D01*
X89186278Y-94349983D01*
X89130017Y-94293722D01*
X89056508Y-94263274D01*
X88976944Y-94263274D01*
X88903435Y-94293722D01*
X88847174Y-94349983D01*
X88816726Y-94423492D01*
X88702953Y-94423492D01*
X89574968Y-93551476D01*
X89386576Y-93403881D01*
X89205746Y-93294566D01*
X89158559Y-93243039D01*
X89146720Y-93174179D01*
X89173988Y-93109850D01*
X89231707Y-93070476D01*
X89270030Y-93064449D01*
X108180802Y-93085753D01*
G37*
%TD.AperFunction*%
%TA.AperFunction,Conductor*%
G36*
X111538522Y-117164968D02*
G01*
X111538523Y-117164968D01*
X111686113Y-116976583D01*
X111686115Y-116976582D01*
X111748522Y-116873347D01*
X111800049Y-116826159D01*
X111868908Y-116814320D01*
X111933237Y-116841588D01*
X111972612Y-116899307D01*
X111978639Y-116937347D01*
X111979800Y-117903351D01*
X111960196Y-117970414D01*
X111907447Y-118016232D01*
X111855800Y-118027500D01*
X110843588Y-118027500D01*
X110776549Y-118007815D01*
X110730794Y-117955011D01*
X110720850Y-117885853D01*
X110749875Y-117822297D01*
X110779438Y-117797383D01*
X110996586Y-117666112D01*
X111184968Y-117518523D01*
X111184968Y-117518522D01*
X110233391Y-116566944D01*
X110426726Y-116566944D01*
X110426726Y-116646508D01*
X110457174Y-116720017D01*
X110513435Y-116776278D01*
X110586944Y-116806726D01*
X110666508Y-116806726D01*
X110740017Y-116776278D01*
X110796278Y-116720017D01*
X110826726Y-116646508D01*
X110826726Y-116566944D01*
X110796278Y-116493435D01*
X110740017Y-116437174D01*
X110666508Y-116406726D01*
X110586944Y-116406726D01*
X110513435Y-116437174D01*
X110457174Y-116493435D01*
X110426726Y-116566944D01*
X110233391Y-116566944D01*
X110042737Y-116376290D01*
X110176602Y-116279033D01*
X110299033Y-116156602D01*
X110396290Y-116022737D01*
X111538522Y-117164968D01*
G37*
%TD.AperFunction*%
%TA.AperFunction,Conductor*%
G36*
X111598522Y-97424968D02*
G01*
X111598523Y-97424968D01*
X111733478Y-97252711D01*
X111790318Y-97212078D01*
X111860102Y-97208626D01*
X111920675Y-97243450D01*
X111952805Y-97305494D01*
X111955089Y-97329035D01*
X111956891Y-98829224D01*
X111937287Y-98896287D01*
X111884538Y-98942105D01*
X111815391Y-98952132D01*
X111751801Y-98923183D01*
X111717774Y-98872249D01*
X111717408Y-98872421D01*
X111716295Y-98870035D01*
X111715183Y-98868370D01*
X111714357Y-98865879D01*
X111714356Y-98865875D01*
X111622315Y-98716654D01*
X111498345Y-98592684D01*
X111349124Y-98500643D01*
X111349119Y-98500641D01*
X111182697Y-98445494D01*
X111182690Y-98445493D01*
X111079986Y-98435000D01*
X110599471Y-98435000D01*
X110532432Y-98415315D01*
X110486677Y-98362511D01*
X110476733Y-98293353D01*
X110505758Y-98229797D01*
X110548580Y-98197924D01*
X110777041Y-98095102D01*
X110777043Y-98095101D01*
X111056586Y-97926112D01*
X111244968Y-97778523D01*
X111244968Y-97778522D01*
X110293391Y-96826944D01*
X110486726Y-96826944D01*
X110486726Y-96906508D01*
X110517174Y-96980017D01*
X110573435Y-97036278D01*
X110646944Y-97066726D01*
X110726508Y-97066726D01*
X110800017Y-97036278D01*
X110856278Y-96980017D01*
X110886726Y-96906508D01*
X110886726Y-96826944D01*
X110856278Y-96753435D01*
X110800017Y-96697174D01*
X110726508Y-96666726D01*
X110646944Y-96666726D01*
X110573435Y-96697174D01*
X110517174Y-96753435D01*
X110486726Y-96826944D01*
X110293391Y-96826944D01*
X110102737Y-96636290D01*
X110236602Y-96539033D01*
X110359033Y-96416602D01*
X110456290Y-96282737D01*
X111598522Y-97424968D01*
G37*
%TD.AperFunction*%
%TA.AperFunction,Conductor*%
G36*
X111826290Y-93089860D02*
G01*
X111893305Y-93109620D01*
X111939000Y-93162476D01*
X111950148Y-93213711D01*
X111951171Y-94065665D01*
X111931567Y-94132728D01*
X111878818Y-94178546D01*
X111809671Y-94188573D01*
X111746081Y-94159624D01*
X111729560Y-94142287D01*
X111598522Y-93975030D01*
X110456290Y-95117262D01*
X110359033Y-94983398D01*
X110236602Y-94860967D01*
X110102736Y-94763709D01*
X110372953Y-94493492D01*
X110486726Y-94493492D01*
X110486726Y-94573056D01*
X110517174Y-94646565D01*
X110573435Y-94702826D01*
X110646944Y-94733274D01*
X110726508Y-94733274D01*
X110800017Y-94702826D01*
X110856278Y-94646565D01*
X110886726Y-94573056D01*
X110886726Y-94493492D01*
X110856278Y-94419983D01*
X110800017Y-94363722D01*
X110726508Y-94333274D01*
X110646944Y-94333274D01*
X110573435Y-94363722D01*
X110517174Y-94419983D01*
X110486726Y-94493492D01*
X110372953Y-94493492D01*
X111244968Y-93621476D01*
X111056576Y-93473881D01*
X110800194Y-93318893D01*
X110753007Y-93267365D01*
X110741168Y-93198506D01*
X110768437Y-93134177D01*
X110826155Y-93094803D01*
X110864476Y-93088777D01*
X111826290Y-93089860D01*
G37*
%TD.AperFunction*%
%TA.AperFunction,Conductor*%
G36*
X86498712Y-93083185D02*
G01*
X86544467Y-93135989D01*
X86554411Y-93205147D01*
X86525386Y-93268703D01*
X86495823Y-93293617D01*
X86313422Y-93403881D01*
X86313416Y-93403886D01*
X86125030Y-93551474D01*
X86125029Y-93551476D01*
X87267262Y-94693709D01*
X87133398Y-94790967D01*
X87010967Y-94913398D01*
X86913709Y-95047262D01*
X86289939Y-94423492D01*
X86483274Y-94423492D01*
X86483274Y-94503056D01*
X86513722Y-94576565D01*
X86569983Y-94632826D01*
X86643492Y-94663274D01*
X86723056Y-94663274D01*
X86796565Y-94632826D01*
X86852826Y-94576565D01*
X86883274Y-94503056D01*
X86883274Y-94423492D01*
X86852826Y-94349983D01*
X86796565Y-94293722D01*
X86723056Y-94263274D01*
X86643492Y-94263274D01*
X86569983Y-94293722D01*
X86513722Y-94349983D01*
X86483274Y-94423492D01*
X86289939Y-94423492D01*
X85771476Y-93905029D01*
X85771474Y-93905030D01*
X85623886Y-94093416D01*
X85623881Y-94093422D01*
X85574617Y-94174916D01*
X85523089Y-94222103D01*
X85454230Y-94233942D01*
X85389901Y-94206673D01*
X85350527Y-94148954D01*
X85344500Y-94110766D01*
X85344500Y-93187500D01*
X85364185Y-93120461D01*
X85416989Y-93074706D01*
X85468500Y-93063500D01*
X86431673Y-93063500D01*
X86498712Y-93083185D01*
G37*
%TD.AperFunction*%
%TD*%
M02*
