%TF.GenerationSoftware,KiCad,Pcbnew,8.0.1-unknown-202403182320~f90c3ef075~ubuntu22.04.1*%
%TF.CreationDate,2024-03-20T20:40:56+05:30*%
%TF.ProjectId,BoB,426f422e-6b69-4636-9164-5f7063625858,rev?*%
%TF.SameCoordinates,Original*%
%TF.FileFunction,Legend,Bot*%
%TF.FilePolarity,Positive*%
%FSLAX46Y46*%
G04 Gerber Fmt 4.6, Leading zero omitted, Abs format (unit mm)*
G04 Created by KiCad (PCBNEW 8.0.1-unknown-202403182320~f90c3ef075~ubuntu22.04.1) date 2024-03-20 20:40:56*
%MOMM*%
%LPD*%
G01*
G04 APERTURE LIST*
%ADD10R,2.000000X2.000000*%
%ADD11R,1.600000X1.600000*%
%ADD12O,1.600000X1.600000*%
%ADD13R,1.700000X1.700000*%
%ADD14O,1.700000X1.700000*%
%ADD15C,4.400000*%
%ADD16R,4.200000X1.350000*%
%ADD17C,1.200000*%
%ADD18O,1.800000X2.500000*%
%ADD19O,2.500000X1.800000*%
G04 APERTURE END LIST*
%LPC*%
D10*
%TO.C,TP1*%
X80460000Y-47660000D03*
%TD*%
D11*
%TO.C,D8*%
X66762000Y-48278000D03*
D12*
X69302000Y-48278000D03*
%TD*%
D13*
%TO.C,RV1*%
X83900000Y-47590000D03*
D14*
X86440000Y-47590000D03*
X88980000Y-47590000D03*
%TD*%
D13*
%TO.C,J2*%
X98044000Y-64516000D03*
D14*
X95504000Y-64516000D03*
%TD*%
D15*
%TO.C,H2*%
X90600000Y-76984000D03*
%TD*%
%TO.C,H4*%
X47649274Y-77087274D03*
%TD*%
%TO.C,H1*%
X47649274Y-45892726D03*
%TD*%
D13*
%TO.C,JP1*%
X72438000Y-70380000D03*
D14*
X69898000Y-70380000D03*
X67358000Y-70380000D03*
X64818000Y-70380000D03*
X62278000Y-70380000D03*
X59738000Y-70380000D03*
X57198000Y-70380000D03*
X54658000Y-70380000D03*
X52118000Y-70380000D03*
%TD*%
D10*
%TO.C,TP2*%
X93878000Y-46712000D03*
%TD*%
D16*
%TO.C,J1*%
X47352000Y-67603000D03*
X47352000Y-73253000D03*
%TD*%
D15*
%TO.C,H3*%
X103046000Y-45996000D03*
%TD*%
D11*
%TO.C,D7*%
X63482000Y-48258000D03*
D12*
X60942000Y-48258000D03*
%TD*%
D11*
%TO.C,U1*%
X55922000Y-59068000D03*
D12*
X58462000Y-59068000D03*
X61002000Y-59068000D03*
X63542000Y-59068000D03*
X66082000Y-59068000D03*
X68622000Y-59068000D03*
X71162000Y-59068000D03*
X73702000Y-59068000D03*
X73702000Y-51448000D03*
X71162000Y-51448000D03*
X68622000Y-51448000D03*
X66082000Y-51448000D03*
X63542000Y-51448000D03*
X61002000Y-51448000D03*
X58462000Y-51448000D03*
X55922000Y-51448000D03*
%TD*%
D17*
%TO.C,SPK1*%
X94362000Y-78420000D03*
X104362000Y-78420000D03*
X94362000Y-75920000D03*
X104362000Y-75920000D03*
X99362000Y-70920000D03*
D18*
X94362000Y-70920000D03*
X96862000Y-70920000D03*
D19*
X99362000Y-75920000D03*
D18*
X104362000Y-70920000D03*
X101862000Y-70920000D03*
%TD*%
D11*
%TO.C,U2*%
X95062000Y-60343000D03*
D12*
X95062000Y-57803000D03*
X95062000Y-55263000D03*
X95062000Y-52723000D03*
X87442000Y-52723000D03*
X87442000Y-55263000D03*
X87442000Y-57803000D03*
X87442000Y-60343000D03*
%TD*%
%LPD*%
M02*
