%TF.GenerationSoftware,KiCad,Pcbnew,8.0.1-unknown-202403182320~f90c3ef075~ubuntu22.04.1*%
%TF.CreationDate,2024-03-20T20:40:56+05:30*%
%TF.ProjectId,BoB,426f422e-6b69-4636-9164-5f7063625858,rev?*%
%TF.SameCoordinates,Original*%
%TF.FileFunction,Soldermask,Top*%
%TF.FilePolarity,Negative*%
%FSLAX46Y46*%
G04 Gerber Fmt 4.6, Leading zero omitted, Abs format (unit mm)*
G04 Created by KiCad (PCBNEW 8.0.1-unknown-202403182320~f90c3ef075~ubuntu22.04.1) date 2024-03-20 20:40:56*
%MOMM*%
%LPD*%
G01*
G04 APERTURE LIST*
G04 Aperture macros list*
%AMRoundRect*
0 Rectangle with rounded corners*
0 $1 Rounding radius*
0 $2 $3 $4 $5 $6 $7 $8 $9 X,Y pos of 4 corners*
0 Add a 4 corners polygon primitive as box body*
4,1,4,$2,$3,$4,$5,$6,$7,$8,$9,$2,$3,0*
0 Add four circle primitives for the rounded corners*
1,1,$1+$1,$2,$3*
1,1,$1+$1,$4,$5*
1,1,$1+$1,$6,$7*
1,1,$1+$1,$8,$9*
0 Add four rect primitives between the rounded corners*
20,1,$1+$1,$2,$3,$4,$5,0*
20,1,$1+$1,$4,$5,$6,$7,0*
20,1,$1+$1,$6,$7,$8,$9,0*
20,1,$1+$1,$8,$9,$2,$3,0*%
G04 Aperture macros list end*
%ADD10R,2.000000X2.000000*%
%ADD11R,1.600000X1.600000*%
%ADD12O,1.600000X1.600000*%
%ADD13RoundRect,0.250000X-0.650000X0.412500X-0.650000X-0.412500X0.650000X-0.412500X0.650000X0.412500X0*%
%ADD14R,1.700000X1.700000*%
%ADD15O,1.700000X1.700000*%
%ADD16RoundRect,0.250000X0.650000X-0.412500X0.650000X0.412500X-0.650000X0.412500X-0.650000X-0.412500X0*%
%ADD17RoundRect,0.250000X-0.412500X-0.650000X0.412500X-0.650000X0.412500X0.650000X-0.412500X0.650000X0*%
%ADD18RoundRect,0.250000X-0.362500X-0.700000X0.362500X-0.700000X0.362500X0.700000X-0.362500X0.700000X0*%
%ADD19RoundRect,0.250000X0.412500X0.650000X-0.412500X0.650000X-0.412500X-0.650000X0.412500X-0.650000X0*%
%ADD20RoundRect,0.250000X-0.400000X-0.625000X0.400000X-0.625000X0.400000X0.625000X-0.400000X0.625000X0*%
%ADD21C,4.400000*%
%ADD22RoundRect,0.250000X-0.625000X0.400000X-0.625000X-0.400000X0.625000X-0.400000X0.625000X0.400000X0*%
%ADD23RoundRect,0.250000X0.625000X-0.400000X0.625000X0.400000X-0.625000X0.400000X-0.625000X-0.400000X0*%
%ADD24RoundRect,0.250000X0.400000X0.625000X-0.400000X0.625000X-0.400000X-0.625000X0.400000X-0.625000X0*%
%ADD25R,3.600000X1.270000*%
%ADD26R,4.200000X1.350000*%
%ADD27RoundRect,0.200000X0.750000X0.200000X-0.750000X0.200000X-0.750000X-0.200000X0.750000X-0.200000X0*%
%ADD28C,1.200000*%
%ADD29O,1.800000X2.500000*%
%ADD30O,2.500000X1.800000*%
G04 APERTURE END LIST*
D10*
%TO.C,TP1*%
X80460000Y-47660000D03*
%TD*%
D11*
%TO.C,D8*%
X66762000Y-48278000D03*
D12*
X69302000Y-48278000D03*
%TD*%
D13*
%TO.C,C5*%
X75612000Y-67733000D03*
X75612000Y-70858000D03*
%TD*%
D14*
%TO.C,RV1*%
X83900000Y-47590000D03*
D15*
X86440000Y-47590000D03*
X88980000Y-47590000D03*
%TD*%
D14*
%TO.C,J2*%
X98044000Y-64516000D03*
D15*
X95504000Y-64516000D03*
%TD*%
D16*
%TO.C,C8*%
X77710000Y-51102500D03*
X77710000Y-47977500D03*
%TD*%
D17*
%TO.C,C10*%
X56379500Y-62138000D03*
X59504500Y-62138000D03*
%TD*%
D18*
%TO.C,L1*%
X54009500Y-48338000D03*
X57334500Y-48338000D03*
%TD*%
D16*
%TO.C,C11*%
X52137000Y-60308000D03*
X52137000Y-57183000D03*
%TD*%
D19*
%TO.C,C6*%
X73462000Y-65208000D03*
X70337000Y-65208000D03*
%TD*%
D20*
%TO.C,R14*%
X65580000Y-62506000D03*
X68680000Y-62506000D03*
%TD*%
D19*
%TO.C,C9*%
X73991000Y-62506000D03*
X70866000Y-62506000D03*
%TD*%
D21*
%TO.C,H2*%
X90600000Y-76984000D03*
%TD*%
%TO.C,H4*%
X47649274Y-77087274D03*
%TD*%
D13*
%TO.C,C3*%
X78937000Y-67695500D03*
X78937000Y-70820500D03*
%TD*%
D21*
%TO.C,H1*%
X47649274Y-45892726D03*
%TD*%
D19*
%TO.C,C19*%
X87900000Y-65730000D03*
X84775000Y-65730000D03*
%TD*%
D18*
%TO.C,L2*%
X75599500Y-65258000D03*
X78924500Y-65258000D03*
%TD*%
D14*
%TO.C,JP1*%
X72438000Y-70380000D03*
D15*
X69898000Y-70380000D03*
X67358000Y-70380000D03*
X64818000Y-70380000D03*
X62278000Y-70380000D03*
X59738000Y-70380000D03*
X57198000Y-70380000D03*
X54658000Y-70380000D03*
X52118000Y-70380000D03*
%TD*%
D17*
%TO.C,C12*%
X89377000Y-63243000D03*
X92502000Y-63243000D03*
%TD*%
D16*
%TO.C,C2*%
X97942000Y-55132500D03*
X97942000Y-52007500D03*
%TD*%
D13*
%TO.C,C13*%
X91012000Y-68815500D03*
X91012000Y-71940500D03*
%TD*%
D10*
%TO.C,TP2*%
X93878000Y-46712000D03*
%TD*%
D13*
%TO.C,C17*%
X52112000Y-63045500D03*
X52112000Y-66170500D03*
%TD*%
%TO.C,C21*%
X67387000Y-64820500D03*
X67387000Y-67945500D03*
%TD*%
%TO.C,C16*%
X62890000Y-62030000D03*
X62890000Y-65155000D03*
%TD*%
D16*
%TO.C,C7*%
X100652000Y-60908000D03*
X100652000Y-57783000D03*
%TD*%
D22*
%TO.C,R13*%
X54872000Y-64848000D03*
X54872000Y-67948000D03*
%TD*%
D23*
%TO.C,R1*%
X84376000Y-63294000D03*
X84376000Y-60194000D03*
%TD*%
D24*
%TO.C,Rin1*%
X95000000Y-49778000D03*
X91900000Y-49778000D03*
%TD*%
D25*
%TO.C,J1*%
X47152000Y-70428000D03*
D26*
X47352000Y-67603000D03*
X47352000Y-73253000D03*
%TD*%
D23*
%TO.C,Rf1*%
X97992000Y-60863000D03*
X97992000Y-57763000D03*
%TD*%
D21*
%TO.C,H3*%
X103046000Y-45996000D03*
%TD*%
D19*
%TO.C,C1*%
X74968500Y-48514000D03*
X71843500Y-48514000D03*
%TD*%
D23*
%TO.C,R2*%
X84376000Y-57706000D03*
X84376000Y-54606000D03*
%TD*%
D27*
%TO.C,U4*%
X88470000Y-70730000D03*
X88470000Y-68830000D03*
X85470000Y-69780000D03*
%TD*%
D11*
%TO.C,D7*%
X63482000Y-48258000D03*
D12*
X60942000Y-48258000D03*
%TD*%
D17*
%TO.C,C18*%
X85480000Y-72840000D03*
X88605000Y-72840000D03*
%TD*%
D13*
%TO.C,C4*%
X81840000Y-67685000D03*
X81840000Y-70810000D03*
%TD*%
%TO.C,C14*%
X101092000Y-63500000D03*
X101092000Y-66625000D03*
%TD*%
D11*
%TO.C,U1*%
X55922000Y-59068000D03*
D12*
X58462000Y-59068000D03*
X61002000Y-59068000D03*
X63542000Y-59068000D03*
X66082000Y-59068000D03*
X68622000Y-59068000D03*
X71162000Y-59068000D03*
X73702000Y-59068000D03*
X73702000Y-51448000D03*
X71162000Y-51448000D03*
X68622000Y-51448000D03*
X66082000Y-51448000D03*
X63542000Y-51448000D03*
X61002000Y-51448000D03*
X58462000Y-51448000D03*
X55922000Y-51448000D03*
%TD*%
D28*
%TO.C,SPK1*%
X94362000Y-78420000D03*
X104362000Y-78420000D03*
X94362000Y-75920000D03*
X104362000Y-75920000D03*
X99362000Y-70920000D03*
D29*
X94362000Y-70920000D03*
X96862000Y-70920000D03*
D30*
X99362000Y-75920000D03*
D29*
X104362000Y-70920000D03*
X101862000Y-70920000D03*
%TD*%
D11*
%TO.C,U2*%
X95062000Y-60343000D03*
D12*
X95062000Y-57803000D03*
X95062000Y-55263000D03*
X95062000Y-52723000D03*
X87442000Y-52723000D03*
X87442000Y-55263000D03*
X87442000Y-57803000D03*
X87442000Y-60343000D03*
%TD*%
M02*
